<?xml version="1.0" encoding="utf-8"?>
<!-- Generator: Adobe Illustrator 25.0.0, SVG Export Plug-In . SVG Version: 6.00 Build 0)  -->
<svg version="1.1" id="Layer_1" xmlns="http://www.w3.org/2000/svg" xmlns:xlink="http://www.w3.org/1999/xlink" x="0px" y="0px"
	 viewBox="0 0 517.5 596.1" style="enable-background:new 0 0 517.5 596.1;" xml:space="preserve">
<style type="text/css">
	.st0{opacity:0.18;fill:#8FBFEB;enable-background:new    ;}
	.st1{fill:#8FBFEB;}
	.st2{fill:url(#SVGID_1_);}
	.st3{fill:#52C27D;}
	.st4{fill:#3F3D56;}
	.st5{fill:#25233A;}
	.st6{fill:url(#SVGID_2_);}
	.st7{fill:url(#SVGID_3_);}
	.st8{fill:url(#SVGID_4_);}
	.st9{fill:url(#SVGID_5_);}
	.st10{fill:url(#SVGID_6_);}
	.st11{fill:url(#SVGID_7_);}
	.st12{fill:url(#SVGID_8_);}
	.st13{fill:url(#SVGID_9_);}
	.st14{fill:url(#SVGID_10_);}
	.st15{fill:url(#SVGID_11_);}
</style>
<path class="st0" d="M186,112.2c-9.4,22.5-11.4,48.2-24.3,68.8c-19.6,31.4-58.8,43.6-87.5,67c-28.5,23.3-46.6,60.1-43.7,96.8
	s28.3,71.7,63.6,82.1c12.2,3.6,25.5,4.5,36.5,11c24.5,14.4,28.3,49.7,50.2,67.8c19.7,16.2,48.6,14.2,72.9,6.7s47.7-19.5,73.1-21
	c15.1-0.9,30.4,2,45.5,0.4c19.2-2,36.9-11.1,53.8-20.5c29.4-16.3,61-38.1,65.9-71.4c5.6-38.3-27.3-73.1-26.8-111.8
	c0.2-18,7.8-35.3,8.5-53.4c1-24.9-12.3-49.8-33.5-62.9c-17.3-10.7-38.5-13.5-56.6-22.8c-24.5-12.6-41.4-36-62.3-54.1
	C283.6,62.4,207.9,59.5,186,112.2z"/>
<path class="st1" d="M345.9,226.8c3.2-4.5,9.8-5.3,15-3.4c5.2,1.9,9.3,5.7,13.7,9.2s9.3,6.6,14.8,6.7c2.2,0,4.4-0.4,6.6-0.1
	c4.1,0.9,7,4.5,7,8.7c-15.8-0.9-31.7,1.1-46.8,6c-7.4,2.4-16,5.4-22.6,1.1c-2.5-1.6-4.3-4.1-7.1-5.1c-5.6-2.1-12,3-17.7,1.1
	c-2.5-0.8-4.3-2.9-6.5-4.3c-7.2-4.8-17.2-2.8-24.8-6.9c-1.3-0.6-2.3-1.7-2.8-3c-0.4-1.9,1.3-3.7,3.1-4.3s3.9-0.2,5.8-0.1
	c5,0.3,10-0.7,14.4-2.9c1.9-0.9,3.8-2.1,5.9-1.8c4.1,0.6,7.2,6.7,10.9,4.8c-2.7,1.4-1.7-7.8-1.2-8.6c1.6-2.8,6.6-4.8,9.6-5.5
	C331.5,216.3,341.1,219.5,345.9,226.8z"/>
<linearGradient id="SVGID_1_" gradientUnits="userSpaceOnUse" x1="497.645" y1="383.6893" x2="484.915" y2="335.5893" gradientTransform="matrix(1 0 0 -1 -151.6 598)">
	<stop  offset="0" style="stop-color:#FFFFFF;stop-opacity:0"/>
	<stop  offset="6.000000e-02" style="stop-color:#FFFFFF;stop-opacity:0.13"/>
	<stop  offset="0.16" style="stop-color:#FFFFFF;stop-opacity:0.33"/>
	<stop  offset="0.26" style="stop-color:#FFFFFF;stop-opacity:0.51"/>
	<stop  offset="0.37" style="stop-color:#FFFFFF;stop-opacity:0.66"/>
	<stop  offset="0.48" style="stop-color:#FFFFFF;stop-opacity:0.79"/>
	<stop  offset="0.59" style="stop-color:#FFFFFF;stop-opacity:0.88"/>
	<stop  offset="0.71" style="stop-color:#FFFFFF;stop-opacity:0.95"/>
	<stop  offset="0.84" style="stop-color:#FFFFFF;stop-opacity:0.99"/>
	<stop  offset="1" style="stop-color:#FFFFFF"/>
</linearGradient>
<path class="st2" d="M345.9,226.8c3.2-4.5,9.8-5.3,15-3.4c5.2,1.9,9.3,5.7,13.7,9.2s9.3,6.6,14.8,6.7c2.2,0,4.4-0.4,6.6-0.1
	c4.1,0.9,7,4.5,7,8.7c-15.8-0.9-31.7,1.1-46.8,6c-7.4,2.4-16,5.4-22.6,1.1c-2.5-1.6-4.3-4.1-7.1-5.1c-5.6-2.1-12,3-17.7,1.1
	c-2.5-0.8-4.3-2.9-6.5-4.3c-7.2-4.8-17.2-2.8-24.8-6.9c-1.3-0.6-2.3-1.7-2.8-3c-0.4-1.9,1.3-3.7,3.1-4.3s3.9-0.2,5.8-0.1
	c5,0.3,10-0.7,14.4-2.9c1.9-0.9,3.8-2.1,5.9-1.8c4.1,0.6,7.2,6.7,10.9,4.8c-2.7,1.4-1.7-7.8-1.2-8.6c1.6-2.8,6.6-4.8,9.6-5.5
	C331.5,216.3,341.1,219.5,345.9,226.8z"/>
<polygon class="st3" points="288.3,0 181.1,114.1 230.5,114.1 230.5,226.4 339.3,226.4 339.3,113.2 386.1,113.2 "/>
<polygon class="st1" points="52.2,218.3 118.3,145.7 186.6,216.8 144.6,216.8 144.6,308.4 86.4,308.4 86.4,218.3 "/>
<polygon class="st1" points="383.1,181.4 449.2,108.8 517.5,179.9 475.5,179.9 475.5,271.5 417.3,271.5 417.3,181.4 "/>
<path class="st4" d="M272.5,317.5c0,0,0.1,89.5-3.9,97.9c-3.1,6.6-30.5,16.3-42.1,20.1c-3.1,1-5.1,1.7-5.1,1.7l2.2-42.7
	c-0.9,5.8-2.3,11.5-4.3,17c-2.7,7.3-6.7,13.8-12.4,12c-11.9-3.8-15.3-6-15.3-6l-5.1-18c0,0,19.1-8.6,19.5-19.1s6.5-41.8,23.1-48.7
	l3.4-1.4l13.2-5.5c0,0,11-33.9,8.6-62.4s0-32.8,0-32.8h16.8c0,0,1.1,29.2,1.4,37.3S272.5,317.5,272.5,317.5z"/>
<path class="st5" d="M260.1,301.9c-1.9,7.4-4.8,14.5-7.7,21.6c-1.5,3-2.4,9.6-5.5,11.5c-3.3,2.1-9.3-2.3-12.3-3.7
	c-0.7-0.3-1.4-0.6-2.1-1l13.2-5.5c0,0,11-33.9,8.6-62.4s0-32.8,0-32.8h1.7c0.3,0.1,0.5,0.3,0.8,0.5c1.6,1.4,1.9,3.8,2,6
	c0.4,6.2,0.8,12.6-0.5,18.7c-0.7,2.9-1.3,5.8-1.8,8.7c-0.3,3,0.3,6.1,2.2,8.4c0.9,1,2.1,1.8,2.8,3.1c0.5,1.1,0.8,2.3,0.8,3.5
	C262.7,286.3,262,294.2,260.1,301.9z"/>
<path class="st5" d="M231.7,426.5c-0.8,1.3-1.5,2.7-2,4.2c-0.1,0.7-0.3,1.4-0.6,2c-0.3,0.5-0.7,1-1.1,1.4l-1.4,1.5
	c-3.1,1-5.1,1.7-5.1,1.7l2.2-42.7c-0.9,5.8-2.3,11.5-4.3,17c0.8-7.4,3.3-18.2,3.4-22.6c0.2-6.3,1.3-12.5,3.2-18.4
	c1.6,1.1,2.1,3.2,2.4,5.2c1.2,7.5,0.8,15.3,3,22.5c1.5,4.8,4,9.3,4.3,14.2S234.1,422.2,231.7,426.5z"/>
<path class="st1" d="M230.2,402.7l-8.1,7.8c-0.4,0.4-1,0.7-1.5,0.7l-48.9,6c-1.3,0.2-2.5-0.6-2.9-1.9l-11.2-36.5
	c-0.4-1.4,0.4-2.9,1.8-3.4c0.1,0,0.3-0.1,0.5-0.1l45.4-5.2c1.3-0.1,2.5,0.6,2.9,1.9l7.4,24.1c0.3,1.1,0.6,1.9,0.6,1.9h12.3
	c1.5,0,2.7,1.2,2.7,2.7C231,401.5,230.7,402.2,230.2,402.7z"/>
<linearGradient id="SVGID_2_" gradientUnits="userSpaceOnUse" x1="405.29" y1="373.0961" x2="420.74" y2="373.0961" gradientTransform="matrix(1 0 0 -1 -151.6 598)">
	<stop  offset="0" style="stop-color:#ECC4D7"/>
	<stop  offset="0.42" style="stop-color:#EFD4D1"/>
	<stop  offset="1" style="stop-color:#F2EAC9"/>
</linearGradient>
<path class="st6" d="M253.7,221.7c-0.1-0.7,0.1-1.3,0.5-1.8c0.5-0.3,1.2-0.3,1.7,0.1c0.5,0.4,0.8,0.9,1.1,1.4l1.3,2.4
	c0.3,0.7,0.8,1.2,1.3,1.7c1,0.5,2,0.7,3.1,0.6l5.3-0.2c0.2,0,0.5,0,0.7,0.1c0.3,0.2,0.4,0.6,0.4,1c0,0.9-0.2,1.7-0.6,2.5l-6,0.2
	c-1.6,0.1-4.2,0.7-5.8,0.2C254.3,229.1,253.8,223.9,253.7,221.7z"/>
<path class="st1" d="M270.5,514.8c-0.6,3.4-6,18.9-6,18.9l-4.1-2.7l-5.4-3.5c0,0,9.8-44.7,8.9-49.3s-7.7-16.4-7.7-16.4l-4.7,107.6
	l-12,4.6c0,0-19.3-116.1-18.2-137l47.2-21.8c0,0,14,41.2,15.7,49.9S271.1,511.5,270.5,514.8z"/>
<path class="st4" d="M252.9,539.6l21,13.3c0,0,2.5-4.1-1.4-9.2s-8-9.9-8-9.9l-9.5-6.1L252.9,539.6z"/>
<path class="st4" d="M239.6,574.2c0,0-6.7,12.6-4.2,19.4s8.2-1.5,11.5-6.5c2.8-4.2,5.9-12.9,5.9-12.9l-1.3-4.6L239.6,574.2z"/>
<linearGradient id="SVGID_3_" gradientUnits="userSpaceOnUse" x1="449.535" y1="122.0673" x2="257.325" y2="34.0873" gradientTransform="matrix(1 0 0 -1 -151.6 598)">
	<stop  offset="0" style="stop-color:#000000;stop-opacity:7.000000e-02"/>
	<stop  offset="8.000000e-02" style="stop-color:#000000;stop-opacity:0.25"/>
	<stop  offset="1" style="stop-color:#000000"/>
</linearGradient>
<path class="st7" d="M274.6,472.3l-14.2,58.8l-5.4-3.5c0,0,9.8-44.7,8.9-49.3s-7.7-16.4-7.7-16.4s5.5-9.8,7.5-7.7
	S274.6,472.3,274.6,472.3z"/>
<linearGradient id="SVGID_4_" gradientUnits="userSpaceOnUse" x1="359.6523" y1="90.3244" x2="553.5522" y2="118.3444" gradientTransform="matrix(1 0 0 -1 -151.6 598)">
	<stop  offset="0" style="stop-color:#000000;stop-opacity:7.000000e-02"/>
	<stop  offset="8.000000e-02" style="stop-color:#000000;stop-opacity:0.25"/>
	<stop  offset="1" style="stop-color:#000000"/>
</linearGradient>
<path class="st8" d="M229.5,433.5l12.6,139.8l-2.5,1c0,0-19.3-116.6-18.2-137L229.5,433.5z"/>
<linearGradient id="SVGID_5_" gradientUnits="userSpaceOnUse" x1="378.2762" y1="204.8044" x2="331.1362" y2="164.1144" gradientTransform="matrix(1 0 0 -1 -151.6 598)">
	<stop  offset="0" style="stop-color:#000000;stop-opacity:7.000000e-02"/>
	<stop  offset="8.000000e-02" style="stop-color:#000000;stop-opacity:0.25"/>
	<stop  offset="1" style="stop-color:#000000"/>
</linearGradient>
<path class="st9" d="M228.3,398l-9.5,8.7l-3.5-10.6c0.3,1.1,0.6,1.9,0.6,1.9L228.3,398z"/>
<linearGradient id="SVGID_6_" gradientUnits="userSpaceOnUse" x1="343.218" y1="186.5096" x2="359.378" y2="113.4796" gradientTransform="matrix(1 0 0 -1 -151.6 598)">
	<stop  offset="0" style="stop-color:#000000;stop-opacity:7.000000e-02"/>
	<stop  offset="0.52" style="stop-color:#000000;stop-opacity:0.83"/>
	<stop  offset="0.56" style="stop-color:#000000;stop-opacity:0.87"/>
	<stop  offset="1" style="stop-color:#000000"/>
</linearGradient>
<path class="st10" d="M157.4,378.8l45.1-4.9c1.6-0.2,3.1,0.8,3.6,2.3l12.4,35.3l-47,5.8L157.4,378.8z"/>
<linearGradient id="SVGID_7_" gradientUnits="userSpaceOnUse" x1="370.92" y1="287.4274" x2="401.3825" y2="287.4274" gradientTransform="matrix(1 0 0 -1 -151.6 598)">
	<stop  offset="0" style="stop-color:#ECC4D7"/>
	<stop  offset="0.42" style="stop-color:#EFD4D1"/>
	<stop  offset="1" style="stop-color:#F2EAC9"/>
</linearGradient>
<path class="st11" d="M244.1,315.9c-1.2,2.6,1.5,8.9,1.5,8.9s2.9,5.6,1.9,11.2l0,0c0,0.3-0.1,0.5-0.2,0.8
	c-1.5,5.9-20.2-0.3-19.6-8.6s-8.5-29.2-8.5-29.2c5.3-23.6,22.8-16.1,24.4-14.8s7.4,19.9,5.8,24.1c-0.5,1.2-1.1,2.4-1.9,3.4
	C246.3,313.3,244.9,314.2,244.1,315.9z"/>
<path class="st4" d="M243.7,284.2c0,0,2.6-6.5,0-8.8s-7-2.9-12-3.1s-6.5-1.1-10.4,3.1s-5.2,10.8-7.6,11.9s-4.5,4.9-3.2,8.7
	s4.4,9.7,5,9.9s5,4.8,5.2,7.6s5.8,4.1,5.8,4.1l-0.3-10.8c0,0-0.6,2.8-3.3,0.4s1.3-5.3,1.6-5.1s-3-5.5-2-8.3S229.7,276,243.7,284.2z"
	/>
<linearGradient id="SVGID_8_" gradientUnits="userSpaceOnUse" x1="386.2241" y1="288.5862" x2="431.734" y2="218.1461" gradientTransform="matrix(1 0 0 -1 -151.6 598)">
	<stop  offset="0" style="stop-color:#ECC4D7"/>
	<stop  offset="0.42" style="stop-color:#EFD4D1"/>
	<stop  offset="1" style="stop-color:#F2EAC9"/>
</linearGradient>
<path class="st12" d="M247.6,336L247.6,336c-0.2,0.4-0.4,0.8-0.7,1.1c-1,0.9-2.4,1.1-3.7,0.6c-1.2-0.5-2.3-1.3-3.1-2.3
	c-3.7-4.3-5.2-10.1-4.1-15.6c0.2-1,0.5-2,1.1-2.8c1.3-1.9,3.8-2.6,6-3.5s3.7-2.3,4.6-1.7c-1.3,1.6-2.7,2.5-3.4,4.2
	c-1.2,2.6,1.5,8.9,1.5,8.9S248.6,330.3,247.6,336z"/>
<path class="st1" d="M346.1,287.5c-2,9,3.4,19,12.1,22.1c7.3,2.6,15.3,0.7,23,0.7c13.5,0,26.4,6.1,39.9,7c8.9,0.6,17.9-1.1,25.9-5
	c4.7-2.2,9.2-5.2,14.3-5.8c4.3-0.5,8.8,0.6,13-0.6c7.1-2.1,10.6-11.1,8-18s-9.8-11.3-17.2-12c-7.1-0.6-14.5,1.8-21.4-0.2
	c-7.7-2.3-12.9-9.7-20.5-12.2c-11.2-3.6-22.5,4.4-31.5,11.9c-2-5.5-7.1-9.3-13-9.5c-5.9-0.1-11.7,4.8-17.1,7
	C354.4,275.9,348,279.1,346.1,287.5z"/>
<linearGradient id="SVGID_9_" gradientUnits="userSpaceOnUse" x1="571.9464" y1="337.9388" x2="556.8563" y2="257.7688" gradientTransform="matrix(1 0 0 -1 -151.6 598)">
	<stop  offset="2.000000e-02" style="stop-color:#FFFFFF;stop-opacity:0"/>
	<stop  offset="6.000000e-02" style="stop-color:#FFFFFF;stop-opacity:0.13"/>
	<stop  offset="0.13" style="stop-color:#FFFFFF;stop-opacity:0.33"/>
	<stop  offset="0.2" style="stop-color:#FFFFFF;stop-opacity:0.51"/>
	<stop  offset="0.27" style="stop-color:#FFFFFF;stop-opacity:0.66"/>
	<stop  offset="0.35" style="stop-color:#FFFFFF;stop-opacity:0.79"/>
	<stop  offset="0.43" style="stop-color:#FFFFFF;stop-opacity:0.88"/>
	<stop  offset="0.51" style="stop-color:#FFFFFF;stop-opacity:0.95"/>
	<stop  offset="0.6" style="stop-color:#FFFFFF;stop-opacity:0.99"/>
	<stop  offset="0.71" style="stop-color:#FFFFFF"/>
</linearGradient>
<path class="st13" d="M346.1,287.5c-2,9,3.4,19,12.1,22.1c7.3,2.6,15.3,0.7,23,0.7c13.5,0,26.4,6.1,39.9,7c8.9,0.6,17.9-1.1,25.9-5
	c4.7-2.2,9.2-5.2,14.3-5.8c4.3-0.5,8.8,0.6,13-0.6c7.1-2.1,10.6-11.1,8-18s-9.8-11.3-17.2-12c-7.1-0.6-14.5,1.8-21.4-0.2
	c-7.7-2.3-12.9-9.7-20.5-12.2c-11.2-3.6-22.5,4.4-31.5,11.9c-2-5.5-7.1-9.3-13-9.5c-5.9-0.1-11.7,4.8-17.1,7
	C354.4,275.9,348,279.1,346.1,287.5z"/>
<path class="st1" d="M0.4,302.3c-2,9,3.4,19,12.1,22.1c7.3,2.6,15.3,0.7,23,0.7c13.5,0,26.4,6.1,39.9,7c8.9,0.6,17.9-1.1,25.9-5
	c4.7-2.2,9.2-5.2,14.3-5.8c4.3-0.5,8.8,0.6,13-0.6c7.1-2.1,10.6-11.1,8-18s-9.9-11.4-17.2-12c-7.1-0.6-14.5,1.8-21.4-0.2
	c-7.7-2.3-12.9-9.7-20.6-12.2c-11.2-3.6-22.4,4.4-31.5,11.9c-2-5.5-7.1-9.3-13-9.5c-5.9-0.1-11.7,4.8-17.1,7
	C8.7,290.7,2.3,294,0.4,302.3z"/>
<linearGradient id="SVGID_10_" gradientUnits="userSpaceOnUse" x1="219.8242" y1="326.1998" x2="220.8042" y2="251.8798" gradientTransform="matrix(1 0 0 -1 -151.6 598)">
	<stop  offset="0" style="stop-color:#FFFFFF;stop-opacity:0"/>
	<stop  offset="6.000000e-02" style="stop-color:#FFFFFF;stop-opacity:0.13"/>
	<stop  offset="0.16" style="stop-color:#FFFFFF;stop-opacity:0.33"/>
	<stop  offset="0.26" style="stop-color:#FFFFFF;stop-opacity:0.51"/>
	<stop  offset="0.37" style="stop-color:#FFFFFF;stop-opacity:0.66"/>
	<stop  offset="0.48" style="stop-color:#FFFFFF;stop-opacity:0.79"/>
	<stop  offset="0.59" style="stop-color:#FFFFFF;stop-opacity:0.88"/>
	<stop  offset="0.71" style="stop-color:#FFFFFF;stop-opacity:0.95"/>
	<stop  offset="0.84" style="stop-color:#FFFFFF;stop-opacity:0.99"/>
	<stop  offset="1" style="stop-color:#FFFFFF"/>
</linearGradient>
<path class="st14" d="M0.4,302.3c-2,9,3.4,19,12.1,22.1c7.3,2.6,15.3,0.7,23,0.7c13.5,0,26.4,6.1,39.9,7c8.9,0.6,17.9-1.1,25.9-5
	c4.7-2.2,9.2-5.2,14.3-5.8c4.3-0.5,8.8,0.6,13-0.6c7.1-2.1,10.6-11.1,8-18s-9.9-11.4-17.2-12c-7.1-0.6-14.5,1.8-21.4-0.2
	c-7.7-2.3-12.9-9.7-20.6-12.2c-11.2-3.6-22.4,4.4-31.5,11.9c-2-5.5-7.1-9.3-13-9.5c-5.9-0.1-11.7,4.8-17.1,7
	C8.7,290.7,2.3,294,0.4,302.3z"/>
<linearGradient id="SVGID_11_" gradientUnits="userSpaceOnUse" x1="337.36" y1="182.965" x2="352.963" y2="182.965" gradientTransform="matrix(1 0 0 -1 -151.6 598)">
	<stop  offset="0" style="stop-color:#ECC4D7"/>
	<stop  offset="0.42" style="stop-color:#EFD4D1"/>
	<stop  offset="1" style="stop-color:#F2EAC9"/>
</linearGradient>
<path class="st15" d="M188,417.1c1,0.2,2.1,0.2,3.1,0.1l5.6-0.4c0.7,0,1.4-0.1,2.1-0.4c1.2-0.5,2.2-1.5,2.5-2.8
	c0.1-0.2,0.1-0.4,0-0.6c-0.2-0.6-1-0.5-1.5-0.2s-0.9,0.9-1.5,1c-0.3,0-0.6,0-0.9-0.1l-3.1-0.8c-0.2-0.1-0.4-0.1-0.5-0.1
	c-0.7,0.1-0.8,1.1-0.6,1.8c-0.4-0.6-1.1-0.9-1.8-1c-0.7,0-1.3,0.6-1.3,1.3l-1.2-1c-0.2-0.1-0.4-0.3-0.6-0.2
	c-0.1,0.1-0.2,0.2-0.2,0.3l-0.4,1.1c0.1-0.3-1.6-1-1.7,0C185.7,416.2,187.4,417,188,417.1z"/>
</svg>
