<?xml version="1.0" encoding="utf-8"?>
<!-- Generator: Adobe Illustrator 25.0.0, SVG Export Plug-In . SVG Version: 6.00 Build 0)  -->
<svg version="1.1" id="Layer_1" xmlns="http://www.w3.org/2000/svg" xmlns:xlink="http://www.w3.org/1999/xlink" x="0px" y="0px"
	 viewBox="0 0 730.6 597" style="enable-background:new 0 0 730.6 597;" xml:space="preserve">
<style type="text/css">
	.st0{opacity:0.18;fill:#8ABFE9;enable-background:new    ;}
	.st1{fill:#8ABFE9;}
	.st2{fill:url(#SVGID_1_);}
	.st3{fill:url(#SVGID_2_);}
	.st4{fill:url(#SVGID_3_);}
	.st5{fill:url(#SVGID_4_);}
	.st6{fill:#FFFFFF;}
	.st7{fill:url(#SVGID_5_);}
	.st8{fill:url(#SVGID_6_);}
	.st9{fill:url(#SVGID_7_);}
	.st10{fill:url(#SVGID_8_);}
	.st11{fill:url(#SVGID_9_);}
	.st12{fill:url(#SVGID_10_);}
	.st13{fill:#FF2235;}
	.st14{fill:url(#SVGID_11_);}
	.st15{fill:url(#SVGID_12_);}
	.st16{fill:url(#SVGID_13_);}
	.st17{fill:#3F3D56;}
	.st18{fill:url(#SVGID_14_);}
	.st19{fill:url(#SVGID_15_);}
	.st20{fill:url(#SVGID_16_);}
	.st21{fill:#52C27D;}
	.st22{fill:#607C1C;}
	.st23{fill:url(#SVGID_17_);}
	.st24{fill:url(#SVGID_18_);}
	.st25{fill:url(#SVGID_19_);}
	.st26{fill:url(#SVGID_20_);}
	.st27{fill:url(#SVGID_21_);}
	.st28{fill:url(#SVGID_22_);}
	.st29{opacity:0.18;fill:#1D2741;enable-background:new    ;}
</style>
<path class="st0" d="M158.6,127.6c-43.2,23.1-87.6,47.2-117.7,85.8C22.8,236.6,10.8,264.2,4.5,293C-6.4,342.1,1.6,399,39,432.8
	c13,11.8,28.9,20.1,45.3,26.5c34,13.2,70.5,18.7,106.9,15.9c29.9-2.3,59.7-10.2,89.4-6.5c36.3,4.6,67.9,25.8,101.7,39.7
	c42,17.3,87.7,23.5,132.7,18.1c11.4-1.4,22.9-3.6,32.8-9.2c11.9-6.6,20.7-17.5,30-27.4c21.1-22.4,45.9-40.9,73.5-54.7
	c14.4-7.2,29.7-13.2,42.3-23.4c33-26.7,38.7-74.5,36.7-116.9s-11.5-89.1-45.4-114.9c-7.6-5.7-16.1-10.2-23.4-16.2
	c-24.5-20.2-31.8-54-47.5-81.6C578.8,20.6,500.4-6.4,429.8,1.3C328.5,12.2,245.7,81.1,158.6,127.6z"/>
<path class="st1" d="M688.9,295.5c-0.9,8.5-11.4,22.8-25.9,38.8c-23.8,26.2-58.3,57.2-79.1,75.2l0,0c-10.7,9.3-17.8,15.2-17.8,15.2
	V263.2c0,0,25.2-32.2,43.4-34.3s55.2,19.3,55.2,19.3S692,265.9,688.9,295.5z"/>
<linearGradient id="SVGID_1_" gradientUnits="userSpaceOnUse" x1="637.4788" y1="146.5506" x2="466.4988" y2="-175.1794" gradientTransform="matrix(1 0 0 -1 0 430)">
	<stop  offset="0" style="stop-color:#000000;stop-opacity:0"/>
	<stop  offset="0.91" style="stop-color:#000000;stop-opacity:0.8"/>
	<stop  offset="1" style="stop-color:#000000"/>
</linearGradient>
<path class="st2" d="M663,334.3c-23.8,26.2-58.3,57.2-79.1,75.2c-1.5-2.5-1.9-5.8-2-8.9c-0.5-15.2-0.4-30.4-0.3-45.6
	c0.1-14.8,0.3-29.5,1.2-44.2c0.9-13.7,2.6-27.8,8.8-40c1.4,1.3,2.6,2.8,3.5,4.5c7.9,13.6,12.9,28.6,17.9,43.5
	c2.5,7.3,4.9,14.7,7.4,22.1c5.5-3,10.5-7.1,14.6-11.9c3.8-4.2,7.2-8.8,10.7-13.2c2.4-3.1,7.2-12,11-8.7
	C662.9,312.5,663.4,324.8,663,334.3z"/>
<rect x="175" y="50.5" class="st1" width="409.6" height="474.4"/>
<linearGradient id="SVGID_2_" gradientUnits="userSpaceOnUse" x1="405.7998" y1="499.41" x2="386.7598" y2="237.97" gradientTransform="matrix(1 0 0 -1 0 430)">
	<stop  offset="0" style="stop-color:#000000;stop-opacity:0"/>
	<stop  offset="0.91" style="stop-color:#000000;stop-opacity:0.8"/>
	<stop  offset="1" style="stop-color:#000000"/>
</linearGradient>
<rect x="175" y="50.5" class="st3" width="409.6" height="474.4"/>
<linearGradient id="SVGID_3_" gradientUnits="userSpaceOnUse" x1="357.5797" y1="1980.9601" x2="362.0897" y2="2050.78" gradientTransform="matrix(1 0 0 1 0 -1960)">
	<stop  offset="1.000000e-02" style="stop-color:#000000"/>
	<stop  offset="0.1" style="stop-color:#000000;stop-opacity:0.77"/>
	<stop  offset="0.99" style="stop-color:#000000;stop-opacity:0"/>
</linearGradient>
<path class="st4" d="M528.3,73.4L175,105.1c1.6,0,0-44,0-54.6h372.5v3.7C547.5,64.8,538.9,73.4,528.3,73.4z"/>
<rect x="175" y="105.1" class="st1" width="409.6" height="474.4"/>
<linearGradient id="SVGID_4_" gradientUnits="userSpaceOnUse" x1="307.0662" y1="88.0035" x2="-264.0138" y2="86.3236" gradientTransform="matrix(1 0 0 -1 0 430)">
	<stop  offset="0" style="stop-color:#000000;stop-opacity:0"/>
	<stop  offset="0.91" style="stop-color:#000000;stop-opacity:0.8"/>
	<stop  offset="1" style="stop-color:#000000"/>
</linearGradient>
<rect x="175" y="105.1" class="st5" width="58.2" height="474.4"/>
<rect x="197.9" y="193.7" class="st6" width="70.7" height="70.7"/>
<rect x="272.5" y="193.7" class="st6" width="70.8" height="70.7"/>
<rect x="347.2" y="193.7" class="st6" width="70.8" height="70.7"/>
<rect x="421.9" y="193.7" class="st6" width="70.8" height="70.7"/>
<rect x="197.9" y="267.6" class="st6" width="70.7" height="70.8"/>
<rect x="272.5" y="267.6" class="st6" width="70.8" height="70.8"/>
<rect x="347.2" y="267.6" class="st6" width="70.8" height="70.8"/>
<rect x="421.9" y="267.6" class="st6" width="70.8" height="70.8"/>
<rect x="197.9" y="341.5" class="st6" width="70.7" height="70.8"/>
<rect x="272.5" y="341.5" class="st6" width="70.8" height="70.8"/>
<rect x="347.2" y="341.5" class="st6" width="70.8" height="70.8"/>
<rect x="421.9" y="341.5" class="st6" width="70.8" height="70.8"/>
<rect x="197.9" y="415.3" class="st6" width="70.7" height="70.8"/>
<rect x="272.5" y="415.3" class="st6" width="70.8" height="70.8"/>
<rect x="347.2" y="415.3" class="st6" width="70.8" height="70.8"/>
<rect x="421.9" y="415.3" class="st6" width="70.8" height="70.8"/>
<rect x="197.9" y="489.2" class="st6" width="70.7" height="70.8"/>
<rect x="272.5" y="489.2" class="st6" width="70.8" height="70.8"/>
<rect x="347.2" y="489.2" class="st6" width="70.8" height="70.8"/>
<rect x="495.3" y="193.7" class="st6" width="70.7" height="70.7"/>
<rect x="495.3" y="119.9" class="st6" width="70.7" height="70.8"/>
<rect x="421.9" y="119.9" class="st6" width="70.8" height="70.8"/>
<rect x="495.3" y="267.6" class="st6" width="70.7" height="70.8"/>
<rect x="495.3" y="341.5" class="st6" width="70.7" height="70.8"/>
<rect x="495.3" y="415.3" class="st6" width="70.7" height="70.8"/>
<path class="st1" d="M206.7,31.3v38.4c0,2.1,2.6,3.8,5.9,3.8l0,0c3.2,0,5.9-1.7,5.9-3.8V31.3c0-2.1-2.6-3.8-5.9-3.8l0,0
	C209.4,27.5,206.7,29.2,206.7,31.3z"/>
<path class="st1" d="M262.8,31.3v38.4c0,2.1,2.6,3.8,5.9,3.8l0,0c3.2,0,5.9-1.7,5.9-3.8V31.3c0-2.1-2.6-3.8-5.9-3.8l0,0
	C265.4,27.5,262.8,29.2,262.8,31.3z"/>
<path class="st1" d="M318.8,31.3v38.4c0,2.1,2.6,3.8,5.9,3.8l0,0c3.2,0,5.9-1.7,5.9-3.8V31.3c0-2.1-2.6-3.8-5.9-3.8l0,0
	C321.4,27.5,318.8,29.2,318.8,31.3z"/>
<path class="st1" d="M374.8,31.3v38.4c0,2.1,2.6,3.8,5.9,3.8l0,0c3.2,0,5.9-1.7,5.9-3.8V31.3c0-2.1-2.6-3.8-5.9-3.8l0,0
	C377.4,27.5,374.8,29.2,374.8,31.3z"/>
<path class="st1" d="M430.8,31.3v38.4c0,2.1,2.6,3.8,5.9,3.8l0,0c3.2,0,5.9-1.7,5.9-3.8V31.3c0-2.1-2.6-3.8-5.9-3.8l0,0
	C433.4,27.5,430.8,29.2,430.8,31.3z"/>
<path class="st1" d="M486.8,31.3v38.4c0,2.1,2.6,3.8,5.9,3.8l0,0c3.2,0,5.9-1.7,5.9-3.8V31.3c0-2.1-2.6-3.8-5.9-3.8l0,0
	C489.5,27.5,486.8,29.2,486.8,31.3z"/>
<path class="st1" d="M541.6,31.3v38.4c0,2.1,2.6,3.8,5.9,3.8l0,0c3.2,0,5.9-1.7,5.9-3.8V31.3c0-2.1-2.6-3.8-5.9-3.8l0,0
	C544.3,27.5,541.6,29.2,541.6,31.3z"/>
<rect x="584.6" y="50.5" class="st1" width="9.3" height="529"/>
<linearGradient id="SVGID_5_" gradientUnits="userSpaceOnUse" x1="710.5299" y1="303.9009" x2="254.3998" y2="232.9409" gradientTransform="matrix(1 0 0 -1 0 600)">
	<stop  offset="0" style="stop-color:#000000;stop-opacity:0"/>
	<stop  offset="0.91" style="stop-color:#000000;stop-opacity:0.8"/>
	<stop  offset="1" style="stop-color:#000000"/>
</linearGradient>
<rect x="584.6" y="50.5" class="st7" width="9.3" height="529"/>
<linearGradient id="SVGID_6_" gradientUnits="userSpaceOnUse" x1="432.308" y1="304.4699" x2="434.188" y2="275.9399" gradientTransform="matrix(1 0 0 -1 0 430)">
	<stop  offset="0" style="stop-color:#183866"/>
	<stop  offset="1" style="stop-color:#1A7FC1"/>
</linearGradient>
<path class="st8" d="M438.3,130.3c0,3.1-2.5,5.6-5.6,5.6c-3.1,0-5.6-2.5-5.6-5.6c0-3.1,2.5-5.6,5.6-5.6l0,0
	C435.7,124.6,438.2,127.1,438.3,130.3z"/>
<linearGradient id="SVGID_7_" gradientUnits="userSpaceOnUse" x1="432.3081" y1="230.5999" x2="434.1881" y2="202.0599" gradientTransform="matrix(1 0 0 -1 0 430)">
	<stop  offset="0" style="stop-color:#183866"/>
	<stop  offset="1" style="stop-color:#1A7FC1"/>
</linearGradient>
<path class="st9" d="M438.3,204.1c0,3.1-2.5,5.6-5.6,5.6s-5.6-2.5-5.6-5.6c0-3.1,2.5-5.6,5.6-5.6l0,0
	C435.7,198.5,438.2,201,438.3,204.1z"/>
<linearGradient id="SVGID_8_" gradientUnits="userSpaceOnUse" x1="446.0598" y1="230.6" x2="447.9298" y2="202.06" gradientTransform="matrix(1 0 0 -1 0 430)">
	<stop  offset="0" style="stop-color:#183866"/>
	<stop  offset="1" style="stop-color:#1A7FC1"/>
</linearGradient>
<path class="st10" d="M452,204.1c0,3.1-2.5,5.6-5.6,5.6s-5.6-2.5-5.6-5.6c0-3.1,2.5-5.6,5.6-5.6l0,0C449.5,198.5,452,201,452,204.1z
	"/>
<linearGradient id="SVGID_9_" gradientUnits="userSpaceOnUse" x1="459.8898" y1="230.6" x2="461.7598" y2="202.06" gradientTransform="matrix(1 0 0 -1 0 430)">
	<stop  offset="0" style="stop-color:#183866"/>
	<stop  offset="1" style="stop-color:#1A7FC1"/>
</linearGradient>
<path class="st11" d="M465.8,204.1c0,3.1-2.5,5.6-5.6,5.6s-5.6-2.5-5.6-5.6c0-3.1,2.5-5.6,5.6-5.6l0,0
	C463.3,198.5,465.8,201,465.8,204.1z"/>
<linearGradient id="SVGID_10_" gradientUnits="userSpaceOnUse" x1="432.3037" y1="81.8303" x2="434.1837" y2="53.2902" gradientTransform="matrix(1 0 0 -1 0 430)">
	<stop  offset="0" style="stop-color:#183866"/>
	<stop  offset="1" style="stop-color:#1A7FC1"/>
</linearGradient>
<path class="st12" d="M438.3,352.9c0,3.1-2.5,5.6-5.6,5.6s-5.6-2.5-5.6-5.6c0-3.1,2.5-5.6,5.6-5.6l0,0
	C435.7,347.3,438.2,349.8,438.3,352.9L438.3,352.9z"/>
<circle class="st13" cx="209.7" cy="352.9" r="5.6"/>
<linearGradient id="SVGID_11_" gradientUnits="userSpaceOnUse" x1="446.0554" y1="81.8297" x2="447.9254" y2="53.2897" gradientTransform="matrix(1 0 0 -1 0 430)">
	<stop  offset="0" style="stop-color:#183866"/>
	<stop  offset="1" style="stop-color:#1A7FC1"/>
</linearGradient>
<path class="st14" d="M452,352.9c0,3.1-2.5,5.6-5.6,5.6s-5.6-2.5-5.6-5.6c0-3.1,2.5-5.6,5.6-5.6l0,0
	C449.5,347.3,452,349.8,452,352.9L452,352.9z"/>
<linearGradient id="SVGID_12_" gradientUnits="userSpaceOnUse" x1="459.8854" y1="81.8297" x2="461.7554" y2="53.2897" gradientTransform="matrix(1 0 0 -1 0 430)">
	<stop  offset="0" style="stop-color:#183866"/>
	<stop  offset="1" style="stop-color:#1A7FC1"/>
</linearGradient>
<path class="st15" d="M465.8,352.9c0,3.1-2.5,5.6-5.6,5.6s-5.6-2.5-5.6-5.6c0-3.1,2.5-5.6,5.6-5.6l0,0
	C463.3,347.3,465.8,349.8,465.8,352.9L465.8,352.9z"/>
<linearGradient id="SVGID_13_" gradientUnits="userSpaceOnUse" x1="703.1591" y1="197.1876" x2="610.3291" y2="233.3876" gradientTransform="matrix(1 0 0 -1 0 430)">
	<stop  offset="0" style="stop-color:#ECC4D7"/>
	<stop  offset="0.16" style="stop-color:#EDCBD5"/>
	<stop  offset="0.42" style="stop-color:#EFD4D1"/>
	<stop  offset="0.7" style="stop-color:#F2EAC9"/>
</linearGradient>
<path class="st16" d="M688.3,201.7c-1.6,6.4,0.5,15.3-2.5,21.2c-5,9.9-19.6,16.5-21.8,27.3c-0.1,0.6-16.4,8.5-24.8,5.8
	c-4.4-1.4-6.6-5.7-3.2-15.4c1.1-3,7-4.1,8.6-6.9l-0.3-0.3c-8.1-6.1-9-19.1-7.3-27.8s5.5-17,9.7-24.9c3.2-6.1,10.4-9.4,17.2-9.3
	c8.7,0.1,17.8,3.6,22.3,11C689.6,188.1,689.8,195.3,688.3,201.7z"/>
<path class="st17" d="M648.3,155c-4.4,2.3-9.1,5.1-14.1,4.4c-0.3,2.4,0.8,4.8,2.8,6.2l-3.1,0.7c-0.3,0-0.5,0.2-0.6,0.4
	c-0.1,0.2-0.1,0.5,0.1,0.7c0.8,1.8,2,3.3,3.6,4.4c-0.5,1.2-2.5,0.9-3.2,2c-0.3,0.6-0.3,1.4,0,2c0.7,1.9,1.9,3.5,3.4,4.8
	c-1.8,2-0.7,5.7,1.8,6.6c2.7,0.8,5.5-0.7,6.5-3.4c0.1,1.2-0.2,2.3-0.8,3.3c8.4,1.3,17.4,2.6,25.1-1c-0.4,0.8-0.6,1.7-0.6,2.5
	c1.9,0.6,3.8,0.7,5.8,0.4c0.4,4.1,0,8.3-1.1,12.3c-0.7,2.5-1.7,4.9-2.1,7.4c-0.6,2.6-0.1,5.3,1.3,7.5c1.3-0.1,2.3-1.4,2.8-2.6
	c0.4-1.3,0.9-2.5,1.7-3.6c2-2.3,6.2-1.5,7.8,1.1s1,6.1-0.5,8.7c-1.9,3.1-5.1,5.3-8.6,6c0.3,2.8,0.6,5.6,0.9,8.4
	c5.3-5,11.2-9.3,15.9-14.8s8.3-12.5,7.7-19.7c-0.4-4.4-2.3-8.7-2.5-13.1c-0.1-2,0.2-4.1,0.2-6.1c-0.4-6.6-4.6-12.3-10.8-14.5
	c-2.5-0.9-5.4-1.1-7.6-2.6c-2.8-1.8-4.3-5.2-7.1-7.1c-3-2-7.7-2.8-11.2-3.8C657,151,652.3,152.9,648.3,155z"/>
<linearGradient id="SVGID_14_" gradientUnits="userSpaceOnUse" x1="584" y1="169.0813" x2="600.93" y2="169.0813" gradientTransform="matrix(1 0 0 -1 0 430)">
	<stop  offset="0" style="stop-color:#ECC4D7"/>
	<stop  offset="0.42" style="stop-color:#EFD4D1"/>
	<stop  offset="1" style="stop-color:#F2EAC9"/>
</linearGradient>
<path class="st18" d="M585.4,249.6c-0.7,0.4-1.2,1.2-1.4,2c0.1,0.9,0.7,1.6,1.6,1.8c0.9,0.2,1.7,0.1,2.6-0.1l5.1-1
	c-2.7,1.5-5,3.8-6.6,6.5c-0.4,0.6-0.3,1.4,0.1,2c0.7,0.9,1.8,0.5,2.8,0.2l4.4-1.8l-3,2.9c-0.9,0.8-1.7,1.8-2.4,2.9
	c-0.3,0.5-0.5,1-0.6,1.6c-0.2,0.7,0.3,1.5,1,1.7c0.2,0.1,0.5,0.1,0.7,0c1.8-0.5,3.5-1.4,5-2.6c-1.1,1.5-2.3,3-3.6,4.3
	c-1.3,1.3-2.1,3.1-2.1,5c0,0.2,0.1,0.4,0.2,0.6c0.1,0.1,0.3,0.2,0.5,0.3c1.6,0.3,3.1-0.9,4.3-2l4.5-4.1c0.7-0.6,1.4-1.3,1.9-2.1
	c0.3-0.4,0.5-1,0.5-1.5c-0.1-1.1-1.1-1.9-2.2-1.8l0,0c-0.3,0-0.6,0.1-0.9,0.3c0.1-0.9,0.5-1.7,0.7-2.5c0.3-0.8,0.2-1.7-0.2-2.5
	c-0.4-0.8-1.4-1.2-2.2-0.8c0.5-1,0.9-2.2,1-3.3c0.1-1.2-0.5-2.4-1.5-3c-0.3-0.1-0.5-0.3-0.7-0.5c-0.4-0.5-0.1-1.2,0.1-1.8
	c0.5-1.5-0.2-3.2-1.7-3.7c0,0,0,0,0,0l0,0c-0.4-0.1-0.8-0.2-1.3-0.2C589.4,246.4,587.3,248,585.4,249.6z"/>
<path class="st1" d="M667.4,287.2c11.5-10.2,25.7-2.5,20.7,12c-10.8,31.4-33.4,103.3-54.9,103.3c-28,0-39.3-49.6-39.3-49.6
	l12.9-26.2c0,0,18.3,40.1,27.5,29.3s14.7-52,32.6-68.3L667.4,287.2z"/>
<linearGradient id="SVGID_15_" gradientUnits="userSpaceOnUse" x1="590.3597" y1="111.26" x2="604.4905" y2="111.26" gradientTransform="matrix(1 0 0 -1 0 430)">
	<stop  offset="0" style="stop-color:#ECC4D7"/>
	<stop  offset="0.42" style="stop-color:#EFD4D1"/>
	<stop  offset="1" style="stop-color:#F2EAC9"/>
</linearGradient>
<path class="st19" d="M602.6,325c-0.2-2.3-0.2-4.7-0.1-7c-0.1-10.2-3.1-20.1-8.7-28.6c-0.6,0.8-0.8,1.9-0.7,2.9l0.2,26.6
	c0.1,2.2-0.1,4.4-0.4,6.6c-0.3,1.6-0.9,3.1-1.4,4.6c-1,3.2-1.3,6.6-1,10c0.1,1.8,0.6,3.6,1.4,5.2c0.9,1.6,2.5,2.7,4.3,2.9
	c0.6,0,3-5,3.3-5.7c1.1-2,2.1-4,3-6c0.7-1.5,2.2-3.8,1.9-5.5C604.2,328.9,602.8,327.1,602.6,325z"/>
<linearGradient id="SVGID_16_" gradientUnits="userSpaceOnUse" x1="638.9512" y1="181.219" x2="600.4211" y2="135.969" gradientTransform="matrix(1 0 0 -1 0 430)">
	<stop  offset="0" style="stop-color:#ECC4D7"/>
	<stop  offset="0.42" style="stop-color:#EFD4D1"/>
	<stop  offset="1" style="stop-color:#F2EAC9"/>
</linearGradient>
<path class="st20" d="M656,240.6c-2.4,2.7-4.8,5.4-7.2,8.2c-1.8,2.3-4,4.4-6.5,6c-1,0.6-2,1-3.1,1.3c-4.4-1.4-6.6-5.7-3.2-15.4
	c1.1-3,7-4.1,8.6-6.9l-0.3-0.3c1.1,0.5,2.4,0.9,3.6,1.2c2.6,0.4,9-1.6,9.8,2.2C657.9,238.3,657,239.5,656,240.6z"/>
<path class="st1" d="M365.3,450l10.1,15.7c0.9,1.5,2.9,1.9,4.3,0.9c0.2-0.2,0.5-0.4,0.7-0.6l27.8-32c1.1-1.3,1-3.3-0.3-4.4
	c-0.6-0.5-1.3-0.8-2-0.8h-0.2c-0.9,0-1.8,0.4-2.4,1.1l-21.7,26c-1.1,1.3-3.1,1.5-4.4,0.4c-0.2-0.2-0.4-0.4-0.6-0.7l-5.9-9
	c-0.7-1-1.9-1.6-3.1-1.4l0,0c-1.7,0.3-2.8,1.9-2.5,3.6C364.9,449.3,365.1,449.6,365.3,450L365.3,450z"/>
<path class="st1" d="M243.9,529.2l12.7,12.5c1.2,1.2,1.3,3.2,0,4.5c-0.6,0.6-1.4,0.9-2.3,0.9h-0.5c-0.8,0-1.6-0.3-2.2-0.9
	l-12.4-12.4c-1.2-1.2-3.2-1.2-4.5,0l-12.4,12.4c-0.6,0.6-1.4,0.9-2.2,0.9h-0.6c-1.7,0-3.2-1.4-3.2-3.2c0-0.8,0.3-1.7,0.9-2.3
	l12.7-12.5c1.2-1.2,1.2-3.2,0-4.4l0,0l-12.8-12.8c-1.2-1.2-1.2-3.2,0-4.5c0.6-0.6,1.4-0.9,2.2-0.9l0,0c0.8,0,1.6,0.3,2.2,0.9
	l13,12.8c1.2,1.2,3.2,1.2,4.4,0l13-12.8c0.6-0.6,1.4-0.9,2.2-0.9l0,0c1.7,0,3.2,1.4,3.2,3.2c0,0.8-0.3,1.6-0.9,2.2l-12.8,12.8
	C242.6,526,242.6,528,243.9,529.2L243.9,529.2L243.9,529.2z"/>
<polygon class="st21" points="130.7,489.9 133.8,489.9 135.4,560 133.8,548.4 130.7,548.4 "/>
<path class="st22" d="M131.6,520.8"/>
<path class="st21" d="M133.8,515.5L133.8,515.5c0,2.3-0.8,4.5-1.6,7.1c-5.5,1.6-9.1,2.8-14.5-2.7s-10.9-16.3-9.1-21.7
	c5.5-1.6,16.1,4.2,21.5,9.7C132.9,510.7,133.8,513.1,133.8,515.5z"/>
<path class="st21" d="M149.8,519.9c-4.9,4.8-8.4,4.1-12.9,2.7v25.9h-3.1v-58.5h3.1v18.6c0.3-0.3,0.6-0.6,0.9-1
	c5.5-5.4,16.3-10.9,21.7-9.1C161.1,503.9,155.4,514.5,149.8,519.9z"/>
<linearGradient id="SVGID_17_" gradientUnits="userSpaceOnUse" x1="140.3961" y1="2510.9795" x2="146.5962" y2="2457.4795" gradientTransform="matrix(1 0 0 1 0 -1960)">
	<stop  offset="0.1" style="stop-color:#000000;stop-opacity:0.77"/>
	<stop  offset="0.99" style="stop-color:#000000;stop-opacity:0"/>
</linearGradient>
<path class="st23" d="M149.8,519.9c-4.9,4.8-8.4,4.1-12.9,2.7v25.9h-3.1v-58.5h3.1v18.6c0.3-0.3,0.6-0.6,0.9-1
	c5.5-5.4,16.3-10.9,21.7-9.1C161.1,503.9,155.4,514.5,149.8,519.9z"/>
<path class="st21" d="M133.8,475.8H120c0,9.8,6.2,17.8,13.8,17.8l3.3-8.7L133.8,475.8z"/>
<path class="st1" d="M134.1,479.2l-0.2,0.2v-1L134.1,479.2z"/>
<path class="st21" d="M107.6,455.7c-1.8,5.4,3.8,16.1,9.2,21.7s9.1,4.3,14.6,2.7c1.8-5.4,3.3-9.1-2.1-14.6S113.1,454.2,107.6,455.7z
	"/>
<path class="st21" d="M148.8,477.5c-0.5,0.5-0.9,0.9-1.4,1.2c-1.1,8.5-6.8,14.9-13.6,14.9v-14.2l0.2-0.2l-0.2-0.8v1
	c-0.3,0.2-0.6,0.4-1,0.6c-4.9-2.9-8.9-11.9-8.6-19.6s4.2-19.1,9.3-21.6c4.9,2.9,8.1,14.5,7.8,22.2v0.6c5.7-3.9,13-6.9,17.2-5.5
	C160.1,461.5,154.4,472.1,148.8,477.5z"/>
<linearGradient id="SVGID_18_" gradientUnits="userSpaceOnUse" x1="163.84" y1="2429.0903" x2="132.02" y2="2425.9902" gradientTransform="matrix(1 0 0 1 0 -1960)">
	<stop  offset="0.1" style="stop-color:#000000;stop-opacity:0.77"/>
	<stop  offset="0.99" style="stop-color:#000000;stop-opacity:0"/>
</linearGradient>
<path class="st24" d="M148.8,477.5c-0.5,0.5-0.9,0.9-1.4,1.2c-1.1,8.5-6.8,14.9-13.6,14.9v-14.2l0.2-0.2l-0.2-0.8v1
	c-0.3,0.2-0.6,0.4-1,0.6c-4.9-2.9-8.9-11.9-8.6-19.6s4.2-19.1,9.3-21.6c4.9,2.9,8.1,14.5,7.8,22.2v0.6c5.7-3.9,13-6.9,17.2-5.5
	C160.1,461.5,154.4,472.1,148.8,477.5z"/>
<path class="st1" d="M134.1,479.2l-0.2,0.2v-1L134.1,479.2z"/>
<polygon class="st1" points="106.5,539.5 111.4,579 133.9,579 143.2,556.5 133.9,538.4 "/>
<polygon class="st1" points="161.4,539.5 156.5,579 133.9,579 133.9,538.4 "/>
<path class="st1" d="M144,538.7l-0.3,0.1l-7.7,3.8l-2.1,1.1h-30.5c-1.9,0-3.5-1.6-3.5-3.5v-8.8c0-1.7,1.4-3.1,3.1-3.1c0,0,0,0,0,0
	h0.3l30.6,0.1L144,538.7z"/>
<linearGradient id="SVGID_19_" gradientUnits="userSpaceOnUse" x1="123.0191" y1="2430.1399" x2="121.9191" y2="2501.54" gradientTransform="matrix(1 0 0 1 0 -1960)">
	<stop  offset="0.36" style="stop-color:#000000;stop-opacity:0.77"/>
	<stop  offset="0.99" style="stop-color:#000000;stop-opacity:0"/>
</linearGradient>
<path class="st25" d="M144,538.7l-0.3,0.1l-7.7,3.8l-2.1,1.1h-30.5c-1.9,0-3.5-1.6-3.5-3.5v-8.8c0-1.7,1.4-3.1,3.1-3.1c0,0,0,0,0,0
	h0.3l30.6,0.1L144,538.7z"/>
<path class="st1" d="M164.4,543.7h-30.4v-15.8h30.4c1.9,0,3.5,1.6,3.5,3.5v8.8C167.8,542.1,166.3,543.7,164.4,543.7z"/>
<linearGradient id="SVGID_20_" gradientUnits="userSpaceOnUse" x1="120.0751" y1="2490.2402" x2="121.2051" y2="2528.1602" gradientTransform="matrix(1 0 0 1 0 -1960)">
	<stop  offset="1.000000e-02" style="stop-color:#000000"/>
	<stop  offset="0.1" style="stop-color:#000000;stop-opacity:0.77"/>
	<stop  offset="0.99" style="stop-color:#000000;stop-opacity:0"/>
</linearGradient>
<polygon class="st26" points="133.9,543.7 133.9,579 111.4,579 107,543.7 "/>
<linearGradient id="SVGID_21_" gradientUnits="userSpaceOnUse" x1="158.8893" y1="2495.7297" x2="134.3893" y2="2541.6196" gradientTransform="matrix(1 0 0 1 0 -1960)">
	<stop  offset="1.000000e-02" style="stop-color:#000000"/>
	<stop  offset="0.1" style="stop-color:#000000;stop-opacity:0.77"/>
	<stop  offset="0.99" style="stop-color:#000000;stop-opacity:0"/>
</linearGradient>
<polygon class="st27" points="160.9,543.7 156.5,579 133.9,579 133.9,543.7 "/>
<linearGradient id="SVGID_22_" gradientUnits="userSpaceOnUse" x1="160.2581" y1="2462.4595" x2="145.9081" y2="2512.0195" gradientTransform="matrix(1 0 0 1 0 -1960)">
	<stop  offset="0.1" style="stop-color:#000000;stop-opacity:0.77"/>
	<stop  offset="0.99" style="stop-color:#000000;stop-opacity:0"/>
</linearGradient>
<path class="st28" d="M167.9,531.8v8.8c0,1.9-1.6,3.5-3.5,3.5H134v-15.8h30.4C166.3,528.3,167.9,529.9,167.9,531.8z"/>
<path class="st29" d="M114,579l-57.4,11c-1.9,0-3.5,1.6-3.5,3.6s1.6,3.5,3.6,3.5c0.2,0,0.3,0,0.5,0h0.2h647.9
	c1.9,0.1,3.6-1.4,3.7-3.4c0.1-1.9-1.3-3.5-3.2-3.6l-83.6-10.5h-0.5L114.7,579C114.5,579,114.2,579,114,579z"/>
</svg>
