<?xml version="1.0" encoding="utf-8"?>
<!-- Generator: Adobe Illustrator 25.0.0, SVG Export Plug-In . SVG Version: 6.00 Build 0)  -->
<svg version="1.1" id="Layer_1" xmlns="http://www.w3.org/2000/svg" xmlns:xlink="http://www.w3.org/1999/xlink" x="0px" y="0px"
	 viewBox="0 0 2560 2560" style="enable-background:new 0 0 2560 2560;" xml:space="preserve">
<style type="text/css">
	.st0{fill:#CCCCCC;}
	.st1{fill:#3B8FC0;}
	.st2{fill:#FFFFFF;}
	.st3{fill:#009471;}
	.st4{fill:#52C27D;}
	.st5{fill:none;stroke:#9BA7B0;stroke-width:10;stroke-miterlimit:10;}
</style>
<path class="st0" d="M1100.9,263.7c0,0-19.9-6.9-47.5,0s-44.4,22.2-44.4,54.4s0,281.1,0,281.1s6.9,32.9-10,35.2
	s-55.9-20.7-65.1-30.6c-9.2-10-17.6,13-17.6,13S924,731,927.8,744.7c3.8,13.8,10,48.3,32.2,62s37.5,7.7,48.6,29.1
	c11.1,21.4,17.2,75.1,8,99.6c-9.2,24.5,0,46,5.4,49.8s26.8,11.5,47.5,13s81.2-14.6,95-14.6s48.3-9.2,69.7,8.4
	c21.4,17.6,17.6,25.3,37.5,35.2c19.9,10,84.3,3.8,84.3,3.8s93.2,36,108.5,60.5s33.7,31.7,29.6,76.6s4.1,105.2,17.4,122.6
	s9.2,12.3,27.6,6.1c18.4-6.1,34.7-13.3,53.1-10.2s37.8,28.6,33.7,53.1c-4.1,24.5-23.5,37.8-22.5,60.3s24.5,62.3,35.7,70.5
	s42.9,52.1,46,78.6c3.1,26.6,7.1,49,18.4,41.9c11.2-7.1,21.4-5.1,26.6-24.5c5.1-19.4-7.1-94,13.3-106.2
	c20.4-12.3,67.4-37.8,72.5-52.1c5.1-14.3,14.3-43.9,0-68.4s-53.1-97-67.4-117.4s-102.1-41.9-102.1-41.9s-49-23.5-55.1-37.8
	s-3.1-33.7-14.3-57.2c-11.2-23.5-79.7-74.6-92.9-85.8c-13.3-11.2,2-21.4-26.6-36.8c-28.6-15.3-59.2-32.7-103.1-29.6
	c-43.9,3.1-81.6,29.6-101.5,24.5c-20-5.1-34.3-23.5-39.4-41.9s-6.1-61.3-9.2-79.7s-29.6-40.9-34.7-60.3
	c-5.1-19.4,28.6-92.9,48-105.2s84.8-84.8,92.9-113.4c8.2-28.6-6.1-123.6-16.3-154.2s1-104.2-3.1-114.4s-20.4-6.1-20.4-6.1
	s-11.2,9.2-30.6,9.2s-68.4-14.3-80.7-17.4C1146.9,271.6,1100.9,263.7,1100.9,263.7z"/>
<path class="st0" d="M1017.5,1081.4c0,0,17.1,92.1,24.2,100.2c7.1,8.2,23.5,47,57.2,48s66.4-13.3,75.6-7.1
	c9.2,6.1,15.3-5.1,14.3-19.4s-39.8-30.6-50-59.2s-16.3-51.1-26.6-62.3s-47-29.6-63.3-28.6s-18.4,1-25.5,11.2
	S1017.5,1081.4,1017.5,1081.4z"/>
<path class="st0" d="M1244.9,1315.4c0,0-27.6,35.2-27.6,64.3c0,29.1,0,102.6,27.6,114.9s52.1,16.9,67.4,12.3s6.1-6.1,24.5-24.5
	s20.2-32.2,33.1-18.4s26.7,50.6,19,76.6s-50.6,78.1-49,116.4c1.5,38.3,1.8,87.3,30,87.3s61.9-3.1,74.2-18.4
	c12.3-15.3,16.9-13.8,27.6-4.6c10.7,9.2,9.2,30.6,29.1,23c19.9-7.7,65.9-208.3,55.1-235.9c-10.7-27.6-23-3.1-33.7,9.2
	c-10.7,12.3-24.5,44.4-35.2,38.3s-1.5-46,0-53.6c1.5-7.7,3.1-55.1-10.7-75.1s-91.9-85.8-116.4-96.5s-42.9-27.6-68.9-29.1
	C1264.8,1300.1,1244.9,1315.4,1244.9,1315.4z"/>
<path class="st0" d="M1603.4,1592.5c0,0-42.9,30.8-35.2,55.3s26,35.2,49,29.1s47.5-33.7,39.8-58.2s-44.2-26.2-44.2-26.2
	L1603.4,1592.5L1603.4,1592.5z"/>
<path class="st0" d="M1882.2,1635.5c0,0-45.5-16.9-58.7,0c-13.3,16.9-0.5,47.5,0,59.8s-10.2,36.8-25.5,35.2
	c-15.3-1.5-52.1,10.7-65.9,32.2s-9.2,36.8-27.6,44.4c-18.4,7.7-47.5,10.7-61.3,18.4s-8.7,36.8-30.4,36.8c-21.7,0-86-30.6-110.6-39.8
	c-24.5-9.2-46-9.2-67.4,1.5s-79.7,78.1-98,84.3c-18.4,6.1-88.9,61.3-101.1,101.1c-12.3,39.8-16.9,190-32.2,220.6
	c-15.3,30.6-50.6,95-27.6,99.6s56.7,0,70.5-19.9s-7.7-50.6-1.5-76.6s7.7-107.2,24.5-108.8c16.9-1.5,73.5-64.3,85.8-90.4
	c12.3-26,44.4-24.5,70.5-39.8c26-15.3,53.6-50.6,85.8-35.2c32.2,15.3,51.8,104.2,55.8,145.5c4,41.4,25.4,105.7,62.2,113.4
	c36.8,7.7,78.1-1.5,102.6,32.2s36.8,50.2,61.3,50.2s41.8-30.3,30.1-68.6c-11.7-38.3-34.7-70.5-19.4-95c15.3-24.5-7.7-39.8,53.6-56.7
	c61.3-16.9,105.4-21.4,113.4-67.4c8-46,12.3-85.8-9.2-133.3s-41.4-110.3-38.3-142.5s-1.5-62.8-16.9-82.7
	C1891.4,1634,1882.2,1635.5,1882.2,1635.5z"/>
<path class="st0" d="M826.7,1422.6c0,0-154.7,234.4-220.6,311s-84.3,87.3-72,108.8s68.9-36.8,82.7-49
	c13.8-12.3,108.8-147,134.8-158.5s73.5-80.5,101.1-92.7c27.6-12.3,19.9-53.6,16.9-78.1c-3.1-24.5-9.2-36.8-13.8-41.4
	C851.2,1418,826.7,1422.6,826.7,1422.6z"/>
<path class="st1" d="M1826.9,903.5c0-263.6-268.8-252.9-269.4-252.9l0,0c0,0-269.4-11-269.4,252.9c0,263.6,268.8,527.3,269.4,527.8
	l0,0l0,0l0,0l0,0C1558.1,1430.8,1826.9,1167.1,1826.9,903.5z"/>
<circle class="st2" cx="1557.5" cy="926.6" r="230.9"/>
<rect x="1349.2" y="820.7" transform="matrix(0.7071 -0.7071 0.7071 0.7071 -173.0407 1287.1746)" class="st3" width="236.1" height="63.5"/>
<rect x="1531.3" y="942.9" transform="matrix(0.7071 -0.7071 0.7071 0.7071 -206.1781 1451.4529)" class="st3" width="235.3" height="63.5"/>
<rect x="1528.6" y="745.9" class="st4" width="60.1" height="334.3"/>
<line class="st5" x1="1467.2" y1="1018.8" x2="1339.7" y2="891.3"/>
<line class="st5" x1="1775.3" y1="933.1" x2="1644.3" y2="802"/>
</svg>
