<?xml version="1.0" encoding="utf-8"?>
<!-- Generator: Adobe Illustrator 24.1.2, SVG Export Plug-In . SVG Version: 6.00 Build 0)  -->
<svg version="1.1" id="Layer_1" xmlns="http://www.w3.org/2000/svg" xmlns:xlink="http://www.w3.org/1999/xlink" x="0px" y="0px"
	 viewBox="0 0 1920 1920" style="enable-background:new 0 0 1920 1920;" xml:space="preserve">
<style type="text/css">
	.st0{fill:#E0E0E0;}
	.st1{fill:#F4F4F4;}
</style>
<path class="st0" d="M997.19,61.87c190.55,190.55,366.36,366.36,556.91,556.91c7.26,9.44,13.74,12.98,15.95,32.26
	c2.53,22.09-18.41,40.8-38.93,40.8c-178.29,0-364.47,0-547.82,0c-17.75,0-45.36-21.09-54.8-33.8c-6.28-8.45-10.48-14.32-22.98-36.19
	c-13.85-24.22-22.39-44.45-29.89-63.28c-7.05-19.46-19.31-66.87-24.09-118.5c-7.7-83.29-4.4-127.42,5.34-201.97
	c7.16-54.82,14.91-88.85,30.77-121.73c11.5-23.85,21.05-35.79,38.25-48.75C947.28,51.51,978.22,47.52,997.19,61.87z"/>
<path class="st0" d="M957.59,1857.3c-191.45-189.65-368.08-364.62-559.54-554.27c-7.3-9.41-13.8-12.91-16.1-32.18
	c-2.64-22.08,18.21-40.89,38.73-40.98c178.28-0.84,364.47-1.72,547.82-2.59c17.74-0.08,45.46,20.88,54.96,33.54
	c6.32,8.42,10.54,14.27,23.15,36.08c13.97,24.15,22.6,44.34,30.19,63.13c7.14,19.42,19.63,66.78,24.65,118.38
	c8.1,83.26,5,127.4-4.38,201.99c-6.9,54.86-14.49,88.92-30.19,121.88c-11.39,23.9-20.88,35.89-38.02,48.93
	C1007.56,1867.42,976.63,1871.56,957.59,1857.3z"/>
<path class="st1" d="M969.14,774.15H340.8c0,0-72.72,9.16-72.72,192.27s74.24,178.53,74.24,178.53h626.82V774.15z"/>
<path class="st1" d="M963.66,774.15h651.7c0,0,75.43,9.16,75.43,192.27s-77,178.53-77,178.53H963.66V774.15z"/>
</svg>
