<?xml version="1.0" encoding="utf-8"?>
<!-- Generator: Adobe Illustrator 25.0.0, SVG Export Plug-In . SVG Version: 6.00 Build 0)  -->
<svg version="1.1" id="Layer_1" xmlns="http://www.w3.org/2000/svg" xmlns:xlink="http://www.w3.org/1999/xlink" x="0px" y="0px"
	 viewBox="0 0 217.4 167" style="enable-background:new 0 0 217.4 167;" xml:space="preserve">
<style type="text/css">
	.st0{opacity:0.18;fill:#89C8DB;enable-background:new    ;}
	.st1{fill:#52C27D;}
	.st2{fill:url(#SVGID_1_);}
	.st3{display:none;fill:url(#SVGID_2_);}
	.st4{opacity:0.44;fill:#89C8DB;enable-background:new    ;}
	.st5{fill:#89C8DB;}
	.st6{fill:url(#SVGID_3_);}
	.st7{fill:url(#SVGID_4_);}
	.st8{fill:url(#SVGID_5_);}
	.st9{fill:#473F47;}
	.st10{fill:url(#SVGID_6_);}
	.st11{fill:#FFBBAB;}
	.st12{fill:#963637;}
	.st13{fill:#FFFFFF;}
	.st14{fill:#212741;}
	.st15{fill:url(#SVGID_7_);}
	.st16{fill:url(#SVGID_8_);}
	.st17{fill:url(#SVGID_9_);}
	.st18{fill:url(#SVGID_10_);}
	.st19{fill:url(#SVGID_11_);}
	.st20{fill:url(#SVGID_12_);}
	.st21{fill:url(#SVGID_13_);}
	.st22{fill:url(#SVGID_14_);}
	.st23{fill:url(#SVGID_15_);}
	.st24{opacity:0.16;fill:#89C8DB;enable-background:new    ;}
	.st25{fill:url(#SVGID_16_);}
	.st26{fill:url(#SVGID_17_);}
	.st27{fill:#FC682D;}
	.st28{fill:url(#SVGID_18_);}
</style>
<path class="st0" d="M71.4,0.3c-11.8,1-22.6,7-29.7,16.4c-6.9,9.3-9.6,21-11.7,32.4c-0.5,3.4-1.4,6.7-2.6,9.8
	c-2.5,5.6-7.4,9.7-11.6,14.3C5.3,84.9-0.1,100.7,0,116.3c0.1,13.8,4.6,34.5,18.1,41.1c20,9.6,42.6,12.1,64.1,7
	c13.6-3.2,26.8-9.5,40.7-9.1s27.1,7.2,41.1,7.9c16.1,0.6,31.3-6.9,40.6-20.1c3.9-6,6.8-12.5,8.6-19.4c2.4-8.3,3.7-16.9,4.1-25.5
	c1-27.5-17.4-54.1-40.4-67.9C125.9-0.4,85.6-0.8,71.4,0.3z"/>
<path class="st1" d="M49.4,132.6c1,1.2,2.4,2.1,3.8,2.7c6.5,3,13.3,5.8,20.4,6.4c10.5,0.9,20.8-2.8,30.6-6.4c-1,0.2-4.6-3-5.5-3.6
	c-1.8-1.2-3.6-2.4-5.4-3.6c-2.8-1.9-6.4-2.6-9.7-3.1c-7.6-1.1-15.3-0.5-22.6,1.9C56.9,128.2,53,130.2,49.4,132.6z"/>
<linearGradient id="SVGID_1_" gradientUnits="userSpaceOnUse" x1="-2373.1367" y1="-428.2972" x2="-2436.2065" y2="-482.0273" gradientTransform="matrix(0.8165 -0.5773 -0.5773 -0.8165 1774.3531 -1613.2549)">
	<stop  offset="1.000000e-02" style="stop-color:#000000"/>
	<stop  offset="0.13" style="stop-color:#000000;stop-opacity:0.69"/>
	<stop  offset="0.25" style="stop-color:#000000;stop-opacity:0.32"/>
	<stop  offset="1" style="stop-color:#000000;stop-opacity:0"/>
</linearGradient>
<path class="st2" d="M49.4,132.6c1,1.2,2.4,2.1,3.8,2.7c6.5,3,13.3,5.8,20.4,6.4c10.5,0.9,20.8-2.8,30.6-6.4c-1,0.2-4.6-3-5.5-3.6
	c-1.8-1.2-3.6-2.4-5.4-3.6c-2.8-1.9-6.4-2.6-9.7-3.1c-7.6-1.1-15.3-0.5-22.6,1.9C56.9,128.2,53,130.2,49.4,132.6z"/>
<path class="st1" d="M83.9,112.5c-4-4.3-8.1-8.6-13.1-11.6c-5-3-11.1-4.7-16.8-3.2l14,20.6c2.7,4,5.4,8,9.2,11
	c6.6,5.2,18.9,8.1,27.1,5.6c-1.3-3.9-6.3-7.5-9.1-10.4L83.9,112.5z"/>
<linearGradient id="SVGID_2_" gradientUnits="userSpaceOnUse" x1="156.1544" y1="32.1823" x2="59.1144" y2="7.9723" gradientTransform="matrix(1 0 0 -1 -38.95 139)">
	<stop  offset="1.000000e-02" style="stop-color:#000000"/>
	<stop  offset="0.13" style="stop-color:#000000;stop-opacity:0.69"/>
	<stop  offset="0.25" style="stop-color:#000000;stop-opacity:0.32"/>
	<stop  offset="1" style="stop-color:#000000;stop-opacity:0"/>
</linearGradient>
<path class="st3" d="M83.9,112.5c-4-4.3-8.1-8.6-13.1-11.6c-5-3-11.1-4.7-16.8-3.2l14,20.6c2.7,4,5.4,8,9.2,11
	c6.6,5.2,18.9,8.1,27.1,5.6c-1.3-3.9-6.3-7.5-9.1-10.4L83.9,112.5z"/>
<path class="st4" d="M41,145.5c5.2,0,10.7,0.6,15.1,3.3c0.4,0.2,0.7,0.5,0.9,0.9c0.3,1-0.9,1.8-1.9,2.1c-6.3,1.9-12.8,2.7-19.3,2.5
	c-4.4-0.1-8.7-0.5-13-1.1c-1.5-0.1-3-0.5-4.3-1.3c-1.3-0.8-2-2.4-1.6-3.9c0.5-1.5,2.3-2.2,3.8-2.3C27.5,145.4,34.3,145.5,41,145.5z"
	/>
<path class="st4" d="M177.8,141.4l10.6,1.5c0.5,0,1,0.2,1.4,0.5c0.6,0.6,0.7,1.5,0.2,2.2c-0.4,0.7-1,1.3-1.7,1.7
	c2.5,0.6,6.9,0.5,6.8,4.1c-0.1,1.3-0.9,2.5-2.1,3.1c-0.8,0.3-1.6,0.4-2.4,0.4c-7.8,0.3-15.8,0.5-23.4-1.4c-1.4-0.4-3.2-1.2-3.2-2.7
	c0-0.5,0.2-1,0.3-1.6c0.2-3.4-7.1-1.4-8.9-1.3c-4.1,0.2-8.3,0.4-12.4,0.5c-8.5,0.2-16.9,0.2-25.4,0.1c-2.7-0.1-5.3,0-8,0.3
	c-2.1,0.4-4.1,1-6.1,1.5c-6.7,1.7-13.7,2.1-20.6,1.1c-3.1-0.5-6.9-2.1-6.7-5.3c0.2-2.7,3.2-4.1,5.8-4.8c3.9-1,7.8-1.8,11.7-2.3
	c7-0.8,14.1-1.1,21.1-1.1c15.3-0.1,30.6-0.1,45.9-0.1C165.9,137.8,172.7,140.7,177.8,141.4z"/>
<polygon class="st5" points="37,116.6 36.3,147.8 32.1,147.8 30.9,123 28.2,147.8 23.4,148.6 22.3,115.6 "/>
<linearGradient id="SVGID_3_" gradientUnits="userSpaceOnUse" x1="627.7102" y1="14.9703" x2="679.9502" y2="-16.0896" gradientTransform="matrix(1 0 0 -1 -611.97 139)">
	<stop  offset="1.000000e-02" style="stop-color:#000000"/>
	<stop  offset="8.000000e-02" style="stop-color:#000000;stop-opacity:0.69"/>
	<stop  offset="0.21" style="stop-color:#000000;stop-opacity:0.32"/>
	<stop  offset="1" style="stop-color:#000000;stop-opacity:0"/>
</linearGradient>
<polygon class="st6" points="37,116.6 36.3,147.8 32.1,147.8 30.9,123 28.2,147.8 23.4,148.6 22.3,115.6 "/>
<path class="st5" d="M50.8,88c-1.9,3.6-4,7-6.3,10.3c-0.9,1-2.1,1.6-3.4,1.6c-0.5,0-1.1-0.1-1.6-0.2c-1.5-0.4-3-0.8-4.5-1.3
	c-0.1,0-0.2-0.1-0.4-0.2l0,0c-1-0.7-1.2-2.7-1.4-3.9c-0.1-0.6-0.7-3.2,0.4-3.4c0.6-0.1,2.3,1.5,2.9,1.8c1.1,0.6,2.2,1.2,3.3,1.8
	c0.1,0.1,0.3,0.1,0.4,0.1c0.2,0,0.3-0.1,0.4-0.3c2.3-2.7,4.2-5.7,5.7-8.9c0.4,0.2,0.9,0.4,1.3,0.6c0.6,0.3,1.2,0.6,1.8,1l0.2,0.1
	C50,87.4,50.4,87.7,50.8,88z"/>
<linearGradient id="SVGID_4_" gradientUnits="userSpaceOnUse" x1="86.7865" y1="21.7149" x2="74.4865" y2="78.7649" gradientTransform="matrix(1 0 0 -1 -38.95 139)">
	<stop  offset="1.000000e-02" style="stop-color:#000000"/>
	<stop  offset="8.000000e-02" style="stop-color:#000000;stop-opacity:0.69"/>
	<stop  offset="0.21" style="stop-color:#000000;stop-opacity:0.32"/>
	<stop  offset="1" style="stop-color:#000000;stop-opacity:0"/>
</linearGradient>
<path class="st7" d="M50.8,88c-1.9,3.6-4,7-6.3,10.3c-0.9,1-2.1,1.6-3.4,1.6c-0.5,0-1.1-0.1-1.6-0.2c-1.5-0.4-3-0.8-4.5-1.3
	c-0.1,0-0.3-0.1-0.4-0.2c-0.1,0-0.3-0.8-0.3-0.9c-0.1-0.3-0.2-0.7-0.2-1c-0.1-0.7-0.1-1.3,0-2c0-0.2,0.1-0.4,0.3-0.2
	s0.1,0.2,0.2,0.3s0.3,0.2,0.5,0.3c0.4,0.3,0.8,0.6,1.3,0.9c0.9,0.5,1.8,0.9,2.8,1.2c0.6,0.2,1.3,0.3,2,0.3c1-0.1,1.9-0.8,2.4-1.8
	c0.3-0.5,0.7-1.1,1-1.7c0.3-0.6,0.7-1.1,1.1-1.6c0.9-1.1,1.8-2.1,2.6-3.2c0.4-0.6,0.9-1.2,1.5-1.7C50,87.4,50.4,87.7,50.8,88z"/>
<linearGradient id="SVGID_5_" gradientUnits="userSpaceOnUse" x1="648.0478" y1="17.6826" x2="620.1378" y2="-6.2474" gradientTransform="matrix(1 0 0 -1 -611.97 139)">
	<stop  offset="1.000000e-02" style="stop-color:#000000"/>
	<stop  offset="8.000000e-02" style="stop-color:#000000;stop-opacity:0.69"/>
	<stop  offset="0.21" style="stop-color:#000000;stop-opacity:0.32"/>
	<stop  offset="1" style="stop-color:#000000;stop-opacity:0"/>
</linearGradient>
<polygon class="st8" points="26.3,147.4 26.3,118.4 22.3,115.6 23.6,147.8 "/>
<path class="st5" d="M25.4,88.9c-1.1,0.6-2.2,1.2-3.3,1.9c-2.3,1.4-1.9,2.1-1.4,4.6c0.9,5.4,1.3,10.8,1.3,16.2
	c-0.1,1.3,0,2.6,0.3,3.9c0.4,0.7,0.6,1.5,0.8,2.3c3.5,0.5,11.5,2.3,13.9-1.3s-1.8-15.7-1.1-21.1s-6.3-6-6.3-6L25.4,88.9z"/>
<path class="st9" d="M32.5,108.9l0.8-4.5c0.1-0.6,0.6-1,1.2-1l8.7-0.7c0.5,0,0.9,0.3,0.9,0.8c0,0.1,0,0.1,0,0.2l-3.4,15.1
	c-0.1,0.4-0.4,0.7-0.8,0.7h-8c-0.5,0-0.9-0.4-0.9-0.9c0,0,0-0.1,0-0.1L32.5,108.9z"/>
<linearGradient id="SVGID_6_" gradientUnits="userSpaceOnUse" x1="640.7162" y1="33.0883" x2="630.3863" y2="11.0383" gradientTransform="matrix(1 0 0 -1 -611.97 139)">
	<stop  offset="1.000000e-02" style="stop-color:#000000"/>
	<stop  offset="8.000000e-02" style="stop-color:#000000;stop-opacity:0.69"/>
	<stop  offset="0.21" style="stop-color:#000000;stop-opacity:0.32"/>
	<stop  offset="1" style="stop-color:#000000;stop-opacity:0"/>
</linearGradient>
<path class="st10" d="M30.2,114l-6.3,4.3l-1-1.3c-0.6-2.2-0.9-4.5-0.8-6.8c0.2-3.4,0-2.2,0-2.2l8.9,5.6L30.2,114z"/>
<path class="st11" d="M33.4,83.6c0,0.4,0,0.7-0.1,1.1c-0.2,0.7-0.5,1.5-0.9,2.1c-0.1,0.2-0.3,0.4-0.4,0.6c-0.4,0.2-0.9,0.2-1.3,0.1
	c-0.1,0-0.2,0-0.3,0c-0.3,0.1-0.3,0.4-0.3,0.7l0.1,1.2c0,0.2,0,0.3-0.1,0.5c-0.1,0.1-0.2,0.2-0.3,0.2c-0.9,0.3-2,0.1-2.7-0.6
	c-0.2-0.2-0.3-0.3-0.4-0.6c-0.1-0.2-0.1-0.4-0.2-0.7c-0.2-1.2,0-2.4-0.1-3.6c-0.2-1-0.2-2-0.1-3c0.2-1.1,0.9-2,1.9-2.4
	c1-0.3,2.1-0.3,3.1,0.1c0.5,0.1,1,0.3,1.5,0.5c0.2,0.1,0.4,0.2,0.6,0.4c0.2,0.4,0,0.9,0,1.3C33.4,82.3,33.4,83,33.4,83.6z"/>
<path class="st12" d="M33.4,78.7c0.1,0.2,0.3,0.4,0.4,0.7c0.1,0.2,0.2,0.5,0.1,0.8c-0.1,0.2-0.2,0.4-0.4,0.5c-0.9,0.6-1.9,0.9-3,0.8
	c-0.3,0-0.6,0-0.9,0c-0.3,0-0.6,0.2-0.8,0.4c-0.2,0.4-0.4,0.9-0.4,1.3c0,0,0,0.1,0,0.1s0,0,0,0c-0.3,0-0.7-0.3-1-0.2
	c-0.2,0.1-0.2,0.3-0.3,0.4c0,0.2,0,0.4,0.1,0.6c0,0.1,0.1,0.2,0.1,0.2c0,0.1,0,0.1,0,0.2l-0.2,0.6c-0.1,0.2-0.2,0.4-0.4,0.5
	c-0.3,0.1-0.6,0-0.8-0.2c-0.2-0.1-0.3-0.2-0.4-0.4c-0.1-0.1-0.1-0.3-0.2-0.4c-0.3-1.5-0.4-3-0.3-4.5c0-0.3,0-0.7,0.1-1
	c0.4-0.6,1-1,1.8-1.1c1.3-0.2,2.7-0.3,4-0.3c0.4,0,0.8,0,1.3,0.1c0.4,0.1,0.8,0.3,1.1,0.6"/>
<path class="st12" d="M31.3,85c-0.2,0.1-0.4,0.3-0.5,0.5c0,0,0,0.1,0,0.1s0,0,0.1,0c0.5,0,0.9,0,1.4,0c0.3,0,0.7-0.1,1-0.3
	c0,0,0,0,0.1,0c0,0,0,0,0-0.1c0-0.4-0.3-0.7-0.7-0.6c0,0,0,0,0,0C32.1,84.6,31.7,84.8,31.3,85z"/>
<path class="st13" d="M26.5,88.3c0,0-1,0.7-1,1.4s5.3,15.5,5.3,15.5s0.1-14.2,0-14.8c-0.2-0.6-0.4-1.3-0.7-1.9
	C30.1,88.6,28,90.1,26.5,88.3z"/>
<polygon class="st14" points="28.2,89.7 27.9,90.8 28.5,91.3 28.8,99.4 30.8,105.3 30.9,99.3 29.1,91.3 29.8,90.2 28.9,89.7 "/>
<path class="st5" d="M32.1,110.6c-0.6,0.8-1.3,1.5-2.1,2.1l-0.5,0.4c-0.2,0.2-0.4,0.3-0.6,0.3c-0.2,0-0.3,0-0.5-0.1
	c-3.1-1.2-6.1-2.5-9-4c-1.2-0.6-2.6-1.4-2.8-2.8c-0.1-0.5-0.1-0.9,0-1.4c0.5-3.4,1.4-6.8,2.7-10c0.4-0.9,0.8-2.6,1.8-3.2l0,0h0.1
	l0.1-0.1c1.3-0.5,2.4,0.8,2.8,1.9c0.4,1.6,0.4,3.3-0.2,4.9c-0.5,1.6-0.9,3.2-1.1,4.8c0,0.2,0,0.5,0.1,0.7c0.1,0.2,0.3,0.4,0.5,0.5
	L32.1,110.6z"/>
<path class="st14" d="M32.1,147.8l0.2,2.3l1.4,0.3l0.7-0.6l1.1,0.9h4.3c0,0,1.1-1.9-1.3-2.6l-2.4-0.6L32.1,147.8z"/>
<path class="st14" d="M23.6,147.8l0.2,2.3l1.4,0.3l0.7-0.6l1.1,0.9h4.4c0,0,1.1-1.9-1.3-2.6l-2.4-0.6L23.6,147.8z"/>
<linearGradient id="SVGID_7_" gradientUnits="userSpaceOnUse" x1="638.1502" y1="5.7909" x2="657.4002" y2="1.4609" gradientTransform="matrix(1 0 0 -1 -611.97 139)">
	<stop  offset="1.000000e-02" style="stop-color:#000000"/>
	<stop  offset="8.000000e-02" style="stop-color:#000000;stop-opacity:0.69"/>
	<stop  offset="0.21" style="stop-color:#000000;stop-opacity:0.32"/>
	<stop  offset="1" style="stop-color:#000000;stop-opacity:0"/>
</linearGradient>
<polygon class="st15" points="30.9,123 32.8,121.4 34.2,147.5 32.1,147.8 "/>
<linearGradient id="SVGID_8_" gradientUnits="userSpaceOnUse" x1="651.8218" y1="44.2367" x2="613.8418" y2="23.9767" gradientTransform="matrix(1 0 0 -1 -611.97 139)">
	<stop  offset="1.000000e-02" style="stop-color:#000000"/>
	<stop  offset="8.000000e-02" style="stop-color:#000000;stop-opacity:0.69"/>
	<stop  offset="0.21" style="stop-color:#000000;stop-opacity:0.32"/>
	<stop  offset="1" style="stop-color:#000000;stop-opacity:0"/>
</linearGradient>
<path class="st16" d="M30,112.7l-0.5,0.4c-0.2,0.2-0.4,0.3-0.6,0.3c-0.2,0-0.3,0-0.5-0.1c-3.1-1.2-6.1-2.5-9-4
	c-1.2-0.6-2.6-1.4-2.8-2.8c-0.1-0.5-0.1-0.9,0-1.4c0.5-3.4,1.4-6.8,2.7-10c0.4-0.9,0.8-2.6,1.8-3.2l0,0h0.1l0.1-0.1
	c1.2,0,2.4,0.8,2.8,1.9c0,0-4.6,9.5-4.4,10.9s9.9,6.1,9.9,6.1L30,112.7z"/>
<path class="st11" d="M34.3,111.4c0.3,0.1,0.5,0.2,0.7,0.3c0.2,0.2,0.3,0.4,0.2,0.7c-0.1,0.1-0.2,0.3-0.3,0.4
	c-0.1,0.2-0.1,0.5-0.3,0.7c-0.2,0.4-0.6,0.6-1,0.7c-1.1,0.5-2.5,0.4-3.5-0.3c-0.7-0.6-2-3-0.5-3.4c0.6,0,1.3,0,1.9,0.2
	C32.5,110.9,33.4,111.1,34.3,111.4z"/>
<polygon class="st5" points="159.4,128.4 116.7,128.4 124.3,107.1 153.1,107.1 "/>
<linearGradient id="SVGID_9_" gradientUnits="userSpaceOnUse" x1="136.116" y1="65.9097" x2="139.806" y2="16.1697" gradientTransform="matrix(1 0 0 -1 0 168)">
	<stop  offset="1.000000e-02" style="stop-color:#000000"/>
	<stop  offset="8.000000e-02" style="stop-color:#000000;stop-opacity:0.69"/>
	<stop  offset="0.21" style="stop-color:#000000;stop-opacity:0.32"/>
	<stop  offset="1" style="stop-color:#000000;stop-opacity:0"/>
</linearGradient>
<polygon class="st17" points="159.4,128.4 116.7,128.4 124.3,107.1 153.1,107.1 "/>
<path class="st5" d="M84.5,29.7h110.8c4.2,0,7.7,3.4,7.7,7.7v70.1c0,4.2-3.4,7.7-7.7,7.7H84.5c-4.2,0-7.7-3.4-7.7-7.7V37.3
	C76.8,33.1,80.3,29.7,84.5,29.7z"/>
<linearGradient id="SVGID_10_" gradientUnits="userSpaceOnUse" x1="241.4514" y1="38.9457" x2="188.1714" y2="21.0457" gradientTransform="matrix(1 0 0 -1 -38.95 139)">
	<stop  offset="1.000000e-02" style="stop-color:#000000"/>
	<stop  offset="8.000000e-02" style="stop-color:#000000;stop-opacity:0.69"/>
	<stop  offset="0.21" style="stop-color:#000000;stop-opacity:0.32"/>
	<stop  offset="1" style="stop-color:#000000;stop-opacity:0"/>
</linearGradient>
<path class="st18" d="M181.1,102.3c0,0.3,0.1,0.5,0.4,0.6c0.2,0.1,0.5,0.1,0.8,0.1h1.1c0.1,0,0.2,0,0.3,0.1c0.1,0.1,0.2,0.3,0.2,0.5
	l0.1,4.8c0.1,1.1,0,2.2-0.4,3.2c-0.2,0.5-0.6,0.9-0.9,1.4c-0.3,0.5-0.4,1-0.2,1.6c1.9,0.1,3.8,0.1,5.7,0c0.4,0,0.7-0.1,1-0.3
	c0.1-0.1,0.2-0.3,0.3-0.5c0.6-1.6,1-3.2,1.4-4.8c0.4-1.6,0.6-3.2,0.5-4.8c0-1.6-0.5-3.2-1.3-4.6c-0.2-0.3-0.5-0.7-0.8-0.9
	c-0.3-0.2-0.7-0.4-1.1-0.4c-1.9-0.4-3.8-0.7-5.8-0.8c-0.6-0.1-1.3,0-1.9,0.3c-0.6,0.4-0.9,1.1-0.8,1.8c0.1,0.7,0.3,1.4,0.6,2"/>
<linearGradient id="SVGID_11_" gradientUnits="userSpaceOnUse" x1="142.4001" y1="30.6229" x2="111.7601" y2="34.5629" gradientTransform="matrix(1 0 0 -1 -38.95 139)">
	<stop  offset="1.000000e-02" style="stop-color:#000000"/>
	<stop  offset="8.000000e-02" style="stop-color:#000000;stop-opacity:0.69"/>
	<stop  offset="0.21" style="stop-color:#000000;stop-opacity:0.32"/>
	<stop  offset="1" style="stop-color:#000000;stop-opacity:0"/>
</linearGradient>
<path class="st19" d="M87.6,110.1c1.2-3.9,2.6-7.8,4.1-11.7c0.1-0.2,0.2-0.3,0.3-0.4c0.2-0.1,0.3-0.1,0.5,0l3.3,0.5
	c-0.2,1.9-0.8,3.7-1.6,5.4c-1.3,3.1-2.2,6.3-2.8,9.5c0,0.3-0.1,0.6-0.3,0.9c-0.4,0.4-0.9,0.7-1.4,0.7c-1.6,0.3-2.7,0.8-3-0.8
	C86.5,112.9,87.3,111.2,87.6,110.1z"/>
<linearGradient id="SVGID_12_" gradientUnits="userSpaceOnUse" x1="113.8083" y1="27.3394" x2="186.6684" y2="39.9694" gradientTransform="matrix(1 0 0 -1 -38.95 139)">
	<stop  offset="1.000000e-02" style="stop-color:#000000"/>
	<stop  offset="8.000000e-02" style="stop-color:#000000;stop-opacity:0.69"/>
	<stop  offset="0.21" style="stop-color:#000000;stop-opacity:0.32"/>
	<stop  offset="1" style="stop-color:#000000;stop-opacity:0"/>
</linearGradient>
<path class="st20" d="M103.2,111.1h3.6c0.2,0,0.5,0,0.7,0.2c0.2,0.1,0.2,0.4,0.4,0.6c0.3,0.4,0.9,0.4,1.4,0.3c1.7-0.2,3.4-0.5,5.1-1
	l-0.6-4.4c-3,0.7-6.1,1-9.3,0.9l-0.2-5.3h4.7c0.4,0.1,0.8-0.2,0.8-0.6c0-0.1,0-0.2,0-0.3c0-0.6,0-1.3-0.1-1.9c0-0.2-0.1-0.3-0.2-0.4
	c-0.1-0.1-0.3-0.1-0.4-0.1c-3.6,0.5-7.2,0.6-10.9,0.4c-0.2,5.4-1.2,10.7-2.9,15.8c1.9-0.2,4.2,0.1,6.1-0.3c0.9-0.2,0.8-0.3,1.1-1.2
	C102.6,113.5,103.1,111.1,103.2,111.1z"/>
<path class="st9" d="M202.9,37.3v61.5H76.8V37.3c0-4.2,3.4-7.7,7.7-7.7h110.8C199.5,29.7,202.9,33.1,202.9,37.3z"/>
<path class="st5" d="M185.6,95.4c-1.4,1.1-3,1.9-4.8,2.4c-0.2,0-0.4,0.1-0.6,0.3c-0.1,0.2-0.1,0.4,0,0.5c0.3,1.2,0.6,2.5,1.1,3.7
	c2.6-0.3,5-1.2,7.2-2.5c0.4-0.2,0.7-0.5,0.9-0.8c0.2-0.4,0.3-0.8,0.3-1.3c0.1-1.2,0.3-2.9-0.4-3.9c-0.6-0.8-0.9-0.3-1.6,0.2
	L185.6,95.4z"/>
<linearGradient id="SVGID_13_" gradientUnits="userSpaceOnUse" x1="231.4723" y1="39.5477" x2="204.2023" y2="47.5577" gradientTransform="matrix(1 0 0 -1 -38.95 139)">
	<stop  offset="1.000000e-02" style="stop-color:#000000"/>
	<stop  offset="8.000000e-02" style="stop-color:#000000;stop-opacity:0.69"/>
	<stop  offset="0.21" style="stop-color:#000000;stop-opacity:0.32"/>
	<stop  offset="1" style="stop-color:#000000;stop-opacity:0"/>
</linearGradient>
<path class="st21" d="M186.5,95.2c-1.4,1.1-3,1.9-4.8,2.4c-0.2,0-0.4,0.1-0.6,0.3c-0.1,0.2-0.1,0.4,0,0.5c0.3,1.2,0.6,2.5,1.1,3.7
	c2.6-0.3,5-1.2,7.2-2.5c0.4-0.2,0.7-0.5,0.9-0.8c0.2-0.4,0.3-0.8,0.3-1.3c0.1-1.2,0.3-2.9-0.4-3.9c-0.6-0.8-0.9-0.3-1.6,0.2
	L186.5,95.2z"/>
<path class="st13" d="M201.1,38.8v58H78.7v-58c0-4.1,3.4-7.4,7.4-7.4c0,0,0,0,0,0h107.4C197.7,31.4,201,34.7,201.1,38.8
	C201,38.8,201,38.8,201.1,38.8z"/>
<path class="st0" d="M201.1,38.8v58H78.7v-58c0-4.1,3.4-7.4,7.4-7.4c0,0,0,0,0,0h107.4C197.7,31.4,201,34.7,201.1,38.8
	C201,38.8,201,38.8,201.1,38.8z"/>
<rect x="89.3" y="39" class="st0" width="40.3" height="37"/>
<path class="st5" d="M175.4,131.3c-1.2,1.2-1.9,2.9-1.9,4.6c0,0.9,0.2,1.8,0.6,2.6c0.8,1.8,2.4,3.1,4.3,3.6v1.5h-78
	c-3.3,0-6.3-2.1-7.3-5.3c-0.3-0.8-0.4-1.6-0.4-2.4c0-4.3,3.5-7.7,7.7-7.7c0,0,0,0,0,0h78v1.5C177.2,129.9,176.2,130.5,175.4,131.3z"
	/>
<linearGradient id="SVGID_14_" gradientUnits="userSpaceOnUse" x1="167.9623" y1="54.7579" x2="187.8623" y2="-112.5021" gradientTransform="matrix(1 0 0 -1 -38.95 139)">
	<stop  offset="1.000000e-02" style="stop-color:#000000"/>
	<stop  offset="8.000000e-02" style="stop-color:#000000;stop-opacity:0.69"/>
	<stop  offset="0.21" style="stop-color:#000000;stop-opacity:0.32"/>
	<stop  offset="1" style="stop-color:#000000;stop-opacity:0"/>
</linearGradient>
<path class="st22" d="M178.3,142.1v1.5h-78c-3.3,0-6.3-2.1-7.3-5.3c3,0.5,21.7,3.5,32.2-2.4l48.9,2.6
	C174.8,140.3,176.4,141.6,178.3,142.1z"/>
<path class="st13" d="M102.5,147.9c2.2,0.1,4.6,0.2,6.5-0.9c0.1-0.1,0.3-0.2,0.3-0.3c0.1-0.2,0.1-0.4-0.1-0.6
	c-0.1-0.2-0.3-0.3-0.5-0.4c-0.7-0.3-1.5-0.6-2.3-0.6c-1-0.2-1.9-0.3-2.9-0.4c-0.6-0.1-1.7-0.3-2.2,0.2c-0.3,0.5-0.4,1.1-0.2,1.6
	C101.4,147.2,101.5,147.9,102.5,147.9z"/>
<path class="st13" d="M87.9,145.4c1.7,1.4,3.6,2.8,5.9,2.9c0.1,0,0.3,0,0.4-0.1c0.2-0.1,0.3-0.3,0.3-0.6c0-0.2-0.1-0.4-0.2-0.6
	c-0.4-0.7-0.9-1.3-1.5-1.8c-0.7-0.7-1.4-1.4-2.1-2c-0.5-0.4-1.2-1.2-1.9-1.1c-0.7,0.1-0.9,0.7-1.1,1.2
	C87.3,144.2,87.1,144.8,87.9,145.4z"/>
<path class="st13" d="M175.4,131.3c-2.5,2.5-2.5,6.6,0,9.2c0.8,0.8,1.8,1.4,2.9,1.7v0.2h-46.7c-3.6,0-6.5-2.9-6.5-6.5
	s2.9-6.5,6.5-6.5h46.7v0.2C177.2,129.9,176.2,130.4,175.4,131.3z"/>
<path class="st13" d="M36.1,103.6l0.2-0.8c0-0.1,0.2-0.2,0.3-0.3l4.6-0.3c0.1,0,0.2,0.1,0.3,0.2c0,0,0,0.1,0,0.1l-0.3,0.8
	c-0.1,0.2-0.2,0.3-0.4,0.3l-4.4,0.3c-0.1,0-0.3-0.1-0.3-0.2C36.1,103.6,36.1,103.6,36.1,103.6z"/>
<path class="st11" d="M54.3,83.9c-0.3,0.6-0.8,1.1-1.4,1.4c-0.6,0.3-1.2,0.5-1.8,0.7c-0.6,0.2-1.2,0.5-1.6,1l-0.1,0.1
	c-0.6-0.3-1.2-0.7-1.8-1c0.1-0.2,0.2-0.3,0.3-0.5c0.1-0.3,0.2-0.6,0.3-0.9c0.4-1,1.2-1.9,2.1-2.5c0.1,0,0.2-0.1,0.2,0
	c0,0,0,0.1,0,0.1c0,0.4-0.1,0.8-0.3,1.2l3.6-1.3c0.1,0,0.2-0.1,0.3-0.1c0.1,0,0.2,0.1,0.3,0.3C54.6,83,54.5,83.5,54.3,83.9z"/>
<path class="st9" d="M105.2,142.9v2.2c-1.3,0.2-2.7,0.2-4,0.1c-0.2,0-0.4-0.1-0.5-0.3c0,0,0-0.1,0-0.1c-0.3-3.6,0.2-7.3-0.2-10.9
	c-0.1-0.8-0.2-1.5-0.5-2.2c-0.3-0.7-0.8-1.4-1.2-2c-1.4-1.9-2.6-4-3.7-6.1c-1-2.2-1.5-4.5-1.4-6.9c0-2.4,1.3-3.4,3.6-2.8
	c0.4,0.1,0.7,0.2,1,0.4c0.2,0.2,0.4,0.5,0.6,0.8c1.4,2.3,2.7,4.7,3.7,7.1C105.1,128.6,105.3,135.8,105.2,142.9z"/>
<linearGradient id="SVGID_15_" gradientUnits="userSpaceOnUse" x1="132.8078" y1="8.321" x2="158.3878" y2="13.461" gradientTransform="matrix(1 0 0 -1 -38.95 139)">
	<stop  offset="1.000000e-02" style="stop-color:#000000"/>
	<stop  offset="8.000000e-02" style="stop-color:#000000;stop-opacity:0.69"/>
	<stop  offset="0.21" style="stop-color:#000000;stop-opacity:0.32"/>
	<stop  offset="1" style="stop-color:#000000;stop-opacity:0"/>
</linearGradient>
<path class="st23" d="M105.2,142.9v2.2c-1.3,0.2-2.7,0.2-4,0.1c-0.2,0-0.4-0.1-0.5-0.3c0,0,0-0.1,0-0.1c-0.3-3.6,0.2-7.3-0.2-10.9
	c-0.1-0.8-0.2-1.5-0.5-2.2c-0.3-0.7-0.8-1.4-1.2-2c-1.4-1.9-2.6-4-3.7-6.1c-1-2.2-1.5-4.5-1.4-6.9c0-2.4,1.3-3.4,3.6-2.8
	c0.4,0.1,0.7,0.2,1,0.4c0.2,0.2,0.4,0.5,0.6,0.8c1.4,2.3,2.7,4.7,3.7,7.1C105.1,128.6,105.3,135.8,105.2,142.9z"/>
<path class="st11" d="M106.4,100.8c4.7-1.3,8.8-4.4,11.4-8.6c0.5-0.6,0.7-1.4,0.5-2.2c0-0.1-0.1-0.2-0.2-0.2c-0.1-0.1-0.3,0-0.4,0.1
	l-6.2,4c-1.6,1.2-3.5,2.1-5.4,2.7c-0.3,0.6-0.5,1.2-0.6,1.9C105.6,99.4,105.9,100.2,106.4,100.8z"/>
<rect x="108.7" y="52.8" class="st13" width="72.3" height="58.2"/>
<path class="st24" d="M118.9,109.9c-0.3,0.2-0.7,0.4-1.1,0.4c-2.6,0.5-5.3,0.7-8,0.5c-0.3,0-0.5-0.1-0.7-0.2
	c-0.2-0.2-0.3-0.5-0.3-0.9c-0.1-0.8,0-1.7,0.2-2.5c0-0.1,6.5-0.1,7.2,0C116.9,107.5,120.4,108.7,118.9,109.9z"/>
<path class="st24" d="M174.9,86.9c-0.1,0.5-0.1,1.1,0,1.6c0.2,0.7,0.6,1.4,1.1,2c2,2.8,3.5,5.8,4.6,9c0.4-1.8,0.6-3.6,0.4-5.4
	c0-0.6,0-1.3-0.1-1.9c-0.2-0.9-0.6-1.7-1-2.5c-0.6-1.3-1-2.6-1.3-4c-0.2-1-0.5-3.4-2.1-3.2C175.3,82.7,175.1,85.9,174.9,86.9z"/>
<path class="st9" d="M89.1,118.6c0.6,2.3,1.4,4.5,2.4,6.6c0.9,1.8,2.9,4.1,2.8,6.2c0,3.7-3.9,8.6-6.3,11.1c1.3,0.8,2.6,1.5,4,2.1
	c0.3,0.2,0.7,0.2,1,0.1c0.4-0.2,0.7-0.5,0.8-0.8l2.6-4.5c1.4-2.5,2.9-5.1,3.1-8c0-1-0.1-2.1-0.2-3.1c-0.3-2.2,0-4.7-0.6-6.9
	c-0.5-2-1.1-3.9-1.6-5.9c-0.1-1-0.6-2-1.3-2.7c-0.4-0.2-0.8-0.4-1.2-0.5c-2-0.6-4.2-0.6-5.3,1.4C88.7,115.3,88.6,117,89.1,118.6z"/>
<path class="st13" d="M107.1,96.9c1.1,0.4,0.1,3-0.2,3.7c-0.1,0.4-0.4,0.6-0.8,0.6c0,0-0.1,0-0.1,0c-1.6-0.1-3.3-0.4-4.9-0.6
	c-0.3,0-0.7-0.1-1-0.3c-0.4-0.3-0.7-0.7-0.7-1.2c-0.1-0.8-0.2-2.6,0.4-3.2c0.5-0.4,1.4-0.1,2.1-0.1C103.6,96,105.4,96.3,107.1,96.9z
	"/>
<linearGradient id="SVGID_16_" gradientUnits="userSpaceOnUse" x1="137.4905" y1="35.0395" x2="150.6005" y2="48.6195" gradientTransform="matrix(1 0 0 -1 -38.95 139)">
	<stop  offset="1.000000e-02" style="stop-color:#000000"/>
	<stop  offset="8.000000e-02" style="stop-color:#000000;stop-opacity:0.69"/>
	<stop  offset="0.21" style="stop-color:#000000;stop-opacity:0.32"/>
	<stop  offset="1" style="stop-color:#000000;stop-opacity:0"/>
</linearGradient>
<path class="st25" d="M106.7,98c1.1,0.4,0.1,3-0.2,3.7c0,0.2-0.2,0.4-0.3,0.5c-0.2,0.1-0.4,0.1-0.6,0.1c-1.7-0.1-3.3-0.4-4.9-0.6
	c-0.4,0-0.7-0.1-1.1-0.3c-0.4-0.3-0.6-0.7-0.7-1.2c-0.2-0.8-0.2-2.6,0.4-3.2c0.5-0.4,1.4-0.1,2.1-0.1C103.2,97.1,105,97.4,106.7,98z
	"/>
<path class="st11" d="M103.8,87.4c0.2,0.3,0.6,0.5,0.7,0.9s-0.1,0.9-0.3,1.3c-0.2,0.6-0.1,1.3-0.4,1.9c0,0.1-0.1,0.3-0.2,0.3
	c-0.1,0.1-0.2,0.1-0.3,0.1c-0.4,0.1-0.9,0.1-1.4,0.1c-0.1,0-0.2,0-0.3,0c-0.1,0.1-0.1,0.1-0.1,0.2c-0.3,1.1-0.3,2.3,0,3.5
	c0.1,0.4,0.2,0.8-0.1,1.1c-0.1,0.1-0.2,0.1-0.4,0.2c-0.9,0.1-1.8-0.3-2.3-1.1c-0.5-0.6-1-1.3-1.3-2c-0.1-0.2-0.2-0.4-0.2-0.6
	c0-0.3,0-0.6,0.1-0.8c0.2-0.9,0.4-1.9,0.4-2.9c-0.1-1.2,0.1-2.5,0.4-3.7c0.1-0.4,0.4-0.8,0.8-1c0.4-0.2,0.9-0.3,1.3-0.2
	c0.9-0.1,1.8,0.2,2.5,0.8C103.2,85.8,103.6,87,103.8,87.4z"/>
<path class="st9" d="M103.5,84.5c0.4-0.1,0.6,0.4,0.5,0.8c-0.2,0.3-0.5,0.6-0.9,0.6c-0.4,0-0.7,0.1-1.1,0.2
	c-0.4,0.1-0.7,0.4-0.7,0.8c-0.4-0.1-0.8,0.2-0.9,0.6c-0.1,0.4-0.1,0.8,0,1.2c-0.1,0.1-0.3,0-0.4-0.1s-0.2-0.3-0.3-0.4
	c-0.3-0.2-0.7,0.2-0.7,0.6c0.1,0.4,0.3,0.7,0.6,0.9c0.1,0.1,0.1,0.1,0.2,0.2c0.1,0.3-0.3,0.5-0.6,0.6c0,0.2,0,0.5-0.1,0.7
	c-0.1,0.2-0.3,0.4-0.5,0.4c-0.2,0-0.4-0.2-0.6-0.3s-0.5,0-0.5,0.2c-0.3-0.7,0-1.3-0.1-2s-0.6-0.4-1-0.8C96,88.5,96,88.1,96,87.9
	s-0.4-0.7-0.5-1c-0.1-0.6,0.4-1.2,0.9-1.6c-0.1-0.2,0-0.5,0.1-0.7c0.2-0.2,0.4-0.3,0.7-0.3c0.1,0,0.1,0,0.2-0.1
	c0.1-0.1,0.1-0.2,0-0.3c-0.1-1.9,2.9-1.4,4.1-1.3c0.5,0,0.9,0.2,1.3,0.4C102.9,83.2,103.9,84.4,103.5,84.5z"/>
<path class="st13" d="M97.5,93.5L97.5,93.5c1.7,0.4,4.1,1.9,4.7,3.6c0.8,2.3,1,4.7,0.6,7.1c-0.3,1.5-1.3,2.8-1.6,4.3
	c-0.3,1.6-0.7,3.2-1.2,4.8c-0.2,0.7-0.7,1.4-1.3,1.8c-0.6,0.3-1.2,0.4-1.8,0.4c-1.9,0.1-4.4,0.7-6-0.5c-1.1-1.1-1.7-2.6-1.6-4.1
	c0.2-1.5,0.6-3,1.2-4.4l2.6-6.7C93.7,98.1,95.2,93,97.5,93.5z"/>
<linearGradient id="SVGID_17_" gradientUnits="userSpaceOnUse" x1="126.8251" y1="29.2167" x2="155.8051" y2="32.6167" gradientTransform="matrix(1 0 0 -1 -38.95 139)">
	<stop  offset="1.000000e-02" style="stop-color:#000000"/>
	<stop  offset="8.000000e-02" style="stop-color:#000000;stop-opacity:0.69"/>
	<stop  offset="0.21" style="stop-color:#000000;stop-opacity:0.32"/>
	<stop  offset="1" style="stop-color:#000000;stop-opacity:0"/>
</linearGradient>
<path class="st26" d="M96.1,110c0.1,0.2,0.2,0.5,0.3,0.8c0,0.2,0,0.4-0.1,0.6c-0.3,1.1-0.4,2.2-0.3,3.3c0,0.2,0,0.4,0.2,0.6
	c0.1,0.1,0.3,0.2,0.5,0.1c0.6,0.1,1.3,0,1.9-0.2c0.7-0.4,1.2-1,1.4-1.8c0.8-2,1.4-4.1,1.9-6.3c0.1-0.3,0.1-0.7,0.1-1.1
	c-0.1-0.5-0.5-1-1-1.3c-0.4-0.3-1-0.5-1.4-0.9c-0.9-0.7-1.5-1.8-2.6-2c-0.8-0.1-1.6,0.5-1.8,1.3C94.4,105.2,95.2,108.1,96.1,110z"/>
<path class="st13" d="M98.9,98.3c0,0,2.4,6.4,2.8,6.8s-4.5,3.3-4.5,3.3s-3.3-6.2-3.1-8.9S97.1,95.8,98.9,98.3z"/>
<path class="st11" d="M97.2,107.6c0.2,1.3,1.4,2.2,2.7,2c0,0,0,0,0,0l4.3-0.1c2,0,3.9-0.1,5.9-0.1c0.5,0.1,0.9,0.2,1.4,0.4
	c0.6,0.1,1.2,0.2,1.9,0.1c1.2-0.1,2.4-0.7,3.3-1.5c0.6-0.5,0.9-1.3,0.7-2c0-0.1-0.1-0.2-0.2-0.2c-0.1,0-0.2,0-0.2,0
	c-1.2,0.2-2.4,0.2-3.5-0.1c0.1-0.1,0.1-0.3,0.1-0.5c0-0.2-0.2-0.3-0.4-0.3c-0.1,0-0.2,0.1-0.2,0.2c-0.6,0.7-1.4,1-2.3,0.9
	c-3.2-0.1-6.4-0.8-9.6-1c-0.8-0.1-1.5,0-2.2,0.2C97.9,106,97.3,106.8,97.2,107.6z"/>
<path class="st27" d="M185.1,92.4c-0.8,0.4-1.5,0.8-2.1,1.4c-0.7,0.6-1,1.4-1,2.3c0.2,1,0.8,2,1.6,2.6c0.9,0.8,2,1.6,2.1,2.8
	c0.6-0.5,1.2-1,1.9-1.5c1.2-0.7,2.5-1.3,3.8-1.8c1.3-0.5,2.5-1.5,3.2-2.7c0.3-0.8,0.5-1.7,0.6-2.5c0.1-0.9,0.2-1.9,0.1-2.8
	c-0.1-0.9-0.5-1.8-1.2-2.5c-1-0.8-2.2-1.3-3.5-1.5c-1.5,0.1-2.7,1-3.3,2.3c-0.3,0.7-0.1,1.5-0.4,2.2
	C186.5,91.5,185.9,92.1,185.1,92.4z"/>
<path class="st11" d="M174.1,149.1c-0.3,0-0.5,0.1-0.7,0.2c-0.2,0.1-0.4,0.3-0.4,0.6c0,0.2,0.2,0.5,0.4,0.6c0.2,0.1,0.5,0.2,0.7,0.3
	c0.2,0.1,0.4,0.2,0.6,0.3c0.4,0.1,0.7,0,1.1-0.1c1.6-0.6,3.2-0.8,4.9-0.8c0.2,0,0.3,0,0.5,0c0.5-0.2,0.9-0.6,0.9-1.1
	c0.2-1,0.2-2.1,0-3.1c0-0.1-0.1-0.2-0.1-0.3c-0.1-0.1-0.2-0.1-0.3-0.2c-1.6-0.6-2.3,1-3.4,1.9C177,148.2,175.6,148.9,174.1,149.1z"
	/>
<path class="st5" d="M179.5,149.1h-0.3c-0.7,0.1-1.5,0.1-2.2,0.1c-0.1,0-0.3,0-0.4-0.1c-0.2-0.1-0.2-0.3-0.2-0.5c0-0.2,0-0.4,0-0.6
	c0,0,0-0.1-0.1-0.1c0,0-0.1,0-0.1,0c-0.6,0-1.1,0.2-1.6,0.4c-1,0.4-1.9,1.1-2.5,2c-0.1,0.1-0.1,0.2-0.1,0.3c0,0.1,0,0.2,0.1,0.2
	c0.7,1,2.3,0.8,3.3,0.6s2.2-0.7,3.3-0.9s2.6-0.1,3.7-0.8c0.2-0.1,0.3-0.2,0.4-0.4c0.2-0.6,0-1.3-0.4-1.8c0-0.1-0.1-0.1-0.1-0.1
	c-0.1,0-0.2,0-0.2,0.1c-0.5,0.3-0.9,0.9-1.4,1.2C180.3,148.9,179.9,149.1,179.5,149.1z"/>
<path class="st5" d="M190.7,107.4c0,0,5.1,2.9,3.7,8.3c-1.3,4.7-4.8,7.6-7.1,11.5c-1.3,2.2-1,5.8-1.6,8.4c-0.7,3.1-1.6,6.2-2.7,9.3
	c-0.2,0.6-0.6,1.3-1.3,1.3c-0.3,0-0.6-0.1-0.9-0.2c-0.3,0-0.6,0-0.9,0c-0.7-0.2-0.7-1.2-0.6-2c0.8-3.6,1.3-7.2,1.5-10.9
	c0.1-2.8-0.6-5.8,0.2-8.6c0.6-2.2,4.4-13.8,4.4-13.8L190.7,107.4z"/>
<linearGradient id="SVGID_18_" gradientUnits="userSpaceOnUse" x1="259.1613" y1="9.2643" x2="139.4012" y2="19.7843" gradientTransform="matrix(1 0 0 -1 -38.95 139)">
	<stop  offset="1.000000e-02" style="stop-color:#000000"/>
	<stop  offset="8.000000e-02" style="stop-color:#000000;stop-opacity:0.69"/>
	<stop  offset="0.21" style="stop-color:#000000;stop-opacity:0.32"/>
	<stop  offset="1" style="stop-color:#000000;stop-opacity:0"/>
</linearGradient>
<path class="st28" d="M190.7,107.4c0,0,5.1,2.9,3.7,8.3c-1.3,4.7-4.8,7.6-7.1,11.5c-1.3,2.2-1,5.8-1.6,8.4c-0.7,3.1-1.6,6.2-2.7,9.3
	c-0.2,0.6-0.6,1.3-1.3,1.3c-0.3,0-0.6-0.1-0.9-0.2c-0.3,0-0.6,0-0.9,0c-0.7-0.2-0.7-1.2-0.6-2c0.8-3.6,1.3-7.2,1.5-10.9
	c0.1-2.8-0.6-5.8,0.2-8.6c0.6-2.2,4.4-13.8,4.4-13.8L190.7,107.4z"/>
<path class="st11" d="M184.8,151.9c-0.2,0.1-0.5,0.2-0.7,0.4c-0.2,0.2-0.3,0.4-0.2,0.7c0.1,0.2,0.3,0.4,0.6,0.4
	c0.2,0.1,0.5,0,0.7,0.1c0.2,0.1,0.4,0.1,0.7,0.2c0.4,0,0.7-0.2,1-0.4c1.4-0.9,2.9-1.6,4.5-2c0.2,0,0.3-0.1,0.5-0.1
	c0.4-0.3,0.6-0.8,0.6-1.3c0-1-0.3-2.1-0.8-3c0-0.1-0.1-0.2-0.2-0.3c-0.1-0.1-0.2-0.1-0.3-0.1c-1.7-0.2-2,1.6-2.8,2.7
	C187.4,150.3,186.2,151.3,184.8,151.9z"/>
<path class="st5" d="M190.1,111c1.3,0.2,2.6,0.8,3.6,1.7c2.1,1.8,2,5.5,1.3,8.2c-0.4,1.4-2.6,5.9-3,7.2c-0.6,2.4,0.6,5.4,0.7,7.8
	c0.1,3.2,0,6.4-0.3,9.6c-0.1,0.6-0.3,1.4-0.9,1.6c-0.3,0.1-0.6,0-0.9,0.1c-0.3,0.1-0.5,0.2-0.8,0.2c-0.8,0-1-1-1-1.8
	c-0.1-3.7-0.5-7.3-1.3-10.9c-0.6-2.8-2.1-5.5-2-8.3l0.2-7c0.1-2.6-0.3-5.2,0.5-7.7c0.1-0.3,0.2-0.6,0.5-0.8c0.2-0.1,0.5-0.2,0.7-0.2
	c0.8-0.1,1.5-0.1,2.3,0L190.1,111z"/>
<path class="st11" d="M186.4,84.9c-0.2,0.3-0.6,0.5-0.7,0.9s0.1,0.9,0.3,1.3c0.2,0.6,0.1,1.3,0.4,1.9c0,0.1,0.1,0.2,0.2,0.3
	c0.1,0.1,0.2,0.1,0.3,0.1c0.4,0.1,0.9,0.1,1.4,0.1c0.1,0,0.2,0,0.3,0c0.1,0.1,0.1,0.1,0.1,0.2c0.3,1.1,0.2,2.3-0.1,3.5
	c-0.1,0.4-0.2,0.8,0.1,1.1c0.1,0.1,0.2,0.1,0.4,0.2c0.9,0.1,1.8-0.3,2.3-1.1c0.5-0.6,1-1.3,1.3-2c0.1-0.2,0.2-0.4,0.2-0.6
	c0-0.3,0-0.6-0.1-0.9c-0.2-0.9-0.4-1.9-0.4-2.9c0.1-1.3-0.1-2.5-0.5-3.7c-0.1-0.4-0.4-0.8-0.8-1c-0.4-0.2-0.9-0.3-1.4-0.2
	c-0.9-0.1-1.8,0.2-2.5,0.8C187,83.2,186.6,84.5,186.4,84.9z"/>
<path class="st13" d="M192.7,90.9c0,0-3.7,1.9-4.9,3.4s-3,2.6-2.3,5.5c0.6,2.3-0.1,4.5-0.1,6.8c0,0.6,0.3,1.1,0.3,1.8
	c0,1.1-1,2.1-0.6,3.3c0.3,0.9,1.4,1.4,2.4,1.6l3.8,1.1c0.8,0.3,1.7,0.4,2.5,0.1c0.9-0.5,1.1-1.8,1.2-2.8c0.2-2.8,0.1-6.1,1.3-8.7
	c0.7-1.5,0.9-3.1,0.7-4.7C196.8,96.1,195.9,90.5,192.7,90.9z"/>
<path class="st27" d="M187.6,82.9c0.1,0.6,0.4,1.2,0.8,1.6c0.4,0.4,1,0.7,1.4,1.1c0.5,0.4,0.8,1,0.7,1.6c0.4-0.2,0.8,0,1,0.3
	c0.1,0.2,0.1,0.5-0.1,0.7c-0.2,0.2-0.4,0.3-0.6,0.3c0.5,0.2,0.9,0.5,1.2,0.9c0.3,0.5,0.5,1,0.8,1.5c0.4,0.5,0.8,0.9,1.3,1.3
	c0.2,0.2,0.4,0.4,0.6,0.6c0.1,0.4,0.2,0.7,0.4,1.1c0.3,0.5,0.7,0.9,1.1,1.3c0.5,0.7,0.8,1.6,0.8,2.5c0-0.3,0-0.5,0-0.8
	c0.1-0.2,0.2-0.3,0.3-0.5c0.1-0.3,0.3-0.6,0.3-0.9c0.1-0.7,0.1-1.5,0.1-2.2c0-1.6,1.5-4.5,0.3-5.9c-0.5-0.4-1-0.8-1.5-1.1
	c-1-0.9-1.2-2.4-1.9-3.6c-0.6-1.1-1.6-1.8-2.8-2.2C190.2,80.2,187.4,80.7,187.6,82.9z"/>
<path class="st13" d="M192.6,93.3c0,0-6.7,1.1-7.3,0.9s-0.6,5.6-0.6,5.6s7-0.2,9.3-1.7S195.7,93.7,192.6,93.3z"/>
<path class="st11" d="M185.4,99.4c-1.2,0.5-2.6-0.1-3.1-1.3c0,0,0,0,0,0l-5.4-9.8c0-0.9-0.5-1.8-0.2-2.6c0.1-0.4,0.4-0.7,0.6-1.1
	c0.2-0.5,0.2-1,0-1.6c-0.2-0.5-0.4-0.9-0.7-1.4c0.1-0.3,0.4-0.5,0.8-0.4c0.3,0.1,0.6,0.3,0.8,0.5c0.9,1,1.4,2.2,1.4,3.6
	c-0.1,0.4-0.1,0.8,0,1.2c0.1,0.3,0.2,0.5,0.4,0.8c1.7,2.7,3.9,5.2,5.6,7.9c0.4,0.6,0.7,1.3,0.9,2.1C186.4,98,186.1,98.8,185.4,99.4z
	"/>
<path class="st5" d="M190.2,151l-0.3,0.1c-0.7,0.2-1.3,0.3-2,0.3c-0.1,0-0.3,0-0.4,0c-0.2-0.1-0.3-0.3-0.3-0.5
	c0-0.2-0.1-0.4-0.1-0.6c0,0,0-0.1-0.1-0.1c0,0-0.1,0-0.1,0c-0.5,0.1-1,0.3-1.4,0.6c-0.9,0.5-1.6,1.3-2,2.2c0,0.1-0.1,0.2-0.1,0.3
	c0,0.1,0.1,0.1,0.1,0.2c0.7,0.9,2.2,0.4,3.1,0.1s1.9-0.9,3-1.2s2.4-0.4,3.3-1.2c0.2-0.1,0.3-0.3,0.4-0.4c0.1-0.6-0.1-1.2-0.6-1.6
	c0,0-0.1-0.1-0.1-0.1c-0.1,0-0.1,0-0.2,0.1c-0.4,0.4-0.7,0.9-1.1,1.3C191,150.8,190.6,150.9,190.2,151z"/>
<path class="st5" d="M176.8,104.4h-62.8V60.7h62.8L176.8,104.4z M114.6,103.8h61.7V61.2h-61.7V103.8z"/>
<polygon class="st5" points="119.7,96.5 117.3,94.1 128.6,83.2 135.9,86.6 148.5,74.8 155.2,79 168.1,68.4 170.3,71 155.4,83.2 
	148.9,79 136.5,90.6 129.3,87.2 "/>
<polygon class="st5" points="172.6,75.6 169.3,75.6 169.3,69.9 163.4,69.9 163.4,66.5 172.6,66.5 "/>
</svg>
