<?xml version="1.0" encoding="utf-8"?>
<!-- Generator: Adobe Illustrator 24.1.2, SVG Export Plug-In . SVG Version: 6.00 Build 0)  -->
<svg version="1.1" xmlns="http://www.w3.org/2000/svg" xmlns:xlink="http://www.w3.org/1999/xlink" x="0px" y="0px"
	 viewBox="0 0 2560 1440" style="enable-background:new 0 0 2560 1440;" xml:space="preserve">
<style type="text/css">
	.st0{display:none;}
	.st1{display:inline;fill:#F2F9F9;}
	.st2{fill:#F2F9F9;}
</style>
<g id="Layer_1" class="st0">
	<path class="st1" d="M0,806.5c85-12.6,160.2-1.8,218.6,8.2c121,20.7,328.6,64.3,412.6,91.9c221.1,61.3,285.7,74.8,512.7,118.5
		c173.6,28.6,497.6,24.8,702.6-87.8c95.8-52.6,387.4-315.6,478-371.7c100-62,166.4-112.8,225.4-127.7C2604,424,2591.8,0,2591.8,0
		h-2602L0,806.5z"/>
</g>
<g id="Layer_2">
	<path class="st2" d="M0,773.8c0,0,640.2,165.9,778.2,198.1c135.4,31.6,324.8,63.3,501.8,12.3c105.6-30.5,1280-651.6,1280-651.6
		V-10.6H0V773.8z"/>
</g>
</svg>
