<?xml version="1.0" encoding="utf-8"?>
<!-- Generator: Adobe Illustrator 25.0.0, SVG Export Plug-In . SVG Version: 6.00 Build 0)  -->
<svg version="1.1" id="Layer_1" xmlns="http://www.w3.org/2000/svg" xmlns:xlink="http://www.w3.org/1999/xlink" x="0px" y="0px"
	 viewBox="0 0 686.2 592.2" style="enable-background:new 0 0 686.2 592.2;" xml:space="preserve">
<style type="text/css">
	.st0{opacity:0.18;fill:#ABD9E7;enable-background:new    ;}
	.st1{opacity:0.52;fill:url(#SVGID_1_);enable-background:new    ;}
	.st2{fill:#ABD9E7;}
	.st3{fill:#90DDE8;}
	.st4{fill:url(#SVGID_2_);}
	.st5{fill:#82D9A4;}
	.st6{fill:url(#SVGID_3_);}
	.st7{fill:url(#SVGID_4_);}
	.st8{opacity:0.34;fill:#ABD9E7;enable-background:new    ;}
	.st9{opacity:0.34;fill:#FFFFFF;enable-background:new    ;}
	.st10{fill:url(#SVGID_5_);}
	.st11{fill:url(#SVGID_6_);}
	.st12{fill:url(#SVGID_7_);}
	.st13{fill:url(#SVGID_8_);}
	.st14{fill:url(#SVGID_9_);}
	.st15{fill:url(#SVGID_10_);}
	.st16{fill:url(#SVGID_11_);}
	.st17{fill:url(#SVGID_12_);}
	.st18{fill:url(#SVGID_13_);}
	.st19{fill:url(#SVGID_14_);}
	.st20{fill:url(#SVGID_15_);}
	.st21{fill:#3F3D56;}
	.st22{fill:url(#SVGID_16_);}
	.st23{fill:url(#SVGID_17_);}
	.st24{fill:url(#SVGID_18_);}
	.st25{fill:url(#SVGID_19_);}
	.st26{fill:url(#SVGID_20_);}
</style>
<path class="st0" d="M192.7,23.1c25.3,6.5,48.9,20.7,75.2,20.6c25.4-0.1,48.2-13.5,71.5-22.8C373.6,7.3,411.1,2.3,448.3,0.5
	c30.6-1.5,62.7-0.6,90,12.5s46.8,37.7,57.9,64.4s14.3,55.5,15.6,84c1,24.1,0.8,48.6,6.5,72.1c8,32.5,27.2,61.6,42.5,91.8
	c12.3,24.1,22.4,49.7,24.8,76.4s-3.2,54.6-20.1,76.3c-25.2,32.5-70.6,46-113.6,49.4c-24.1,1.9-49,1.5-71.6,9.6
	c-15.2,5.4-28.6,14.5-43.1,21.3c-29,13.6-62,18.1-94.5,19.7c-82.5,4-164.9-9.8-241.7-40.3c-11.4-4.6-22.9-9.7-32.1-17.4
	c-10.3-8.6-17.2-20.1-22.6-31.9c-19.7-43.2-20.6-92.7-2.6-136.6c13.3-32.3,37-63.4,33.1-97.8c-5.8-51.3-57-96.6-35.5-150.9
	C64.3,45.6,126.1,6.1,192.7,23.1z"/>
<linearGradient id="SVGID_1_" gradientUnits="userSpaceOnUse" x1="281.1307" y1="-95.9304" x2="110.5007" y2="-390.7304" gradientTransform="matrix(1 0 0 -1 0 420)">
	<stop  offset="0" style="stop-color:#000000;stop-opacity:0"/>
	<stop  offset="0.98" style="stop-color:#000000"/>
</linearGradient>
<path class="st1" d="M165.6,569.5c-4.6,1.3-9.7,3.1-11.3,7.6c-1.4,4.1,1,8.8,4.6,11.1s8.1,3,12.4,3.3c13,1.1,26,0.5,39-0.1l80.4-3.6
	c15.7-0.7,32.4-1.7,45.3-10.7c2-1.4,4-3.5,3.6-5.8c-0.4-1.8-2-3-3.6-3.8c-14-7.8-31.1-6.3-47.2-7.5c-21.1-1.5-42.1-8.2-63.4-7.3
	C205.3,553.5,185.1,563.9,165.6,569.5z"/>
<path class="st2" d="M0,115.9l4.1-1.8h188v134.1c0,0,0,21.5-15.6,30.1C170.2,281.9,0,115.9,0,115.9z"/>
<path class="st3" d="M189.3,115.9v139.3c0,15.2-12.3,27.4-27.4,27.4H0V115.9H189.3z"/>
<linearGradient id="SVGID_2_" gradientUnits="userSpaceOnUse" x1="161.4277" y1="2313.0503" x2="195.8977" y2="2750.6902" gradientTransform="matrix(1 0 0 1 -68.9 -2140.51)">
	<stop  offset="0" style="stop-color:#000000;stop-opacity:0"/>
	<stop  offset="0.98" style="stop-color:#000000"/>
</linearGradient>
<path class="st4" d="M189.3,115.9v139.3c0,15.2-12.3,27.4-27.4,27.4H0V115.9H189.3z"/>
<path class="st2" d="M189.3,255.2c0,15.2-12.3,27.4-27.4,27.4h-4.3c9.6-3.1,8.4-20.1,8.4-20.1C183.8,265.6,189.3,255.2,189.3,255.2z
	"/>
<rect x="250.4" y="156.1" class="st5" width="189.3" height="166.7"/>
<linearGradient id="SVGID_3_" gradientUnits="userSpaceOnUse" x1="349.1987" y1="2367.4595" x2="239.8787" y2="2686.9097" gradientTransform="matrix(1 0 0 1 0 -2140)">
	<stop  offset="0" style="stop-color:#000000;stop-opacity:0"/>
	<stop  offset="0.98" style="stop-color:#000000"/>
</linearGradient>
<rect x="250.4" y="156.1" class="st6" width="189.3" height="166.7"/>
<rect x="464.9" y="88.7" class="st3" width="189.3" height="166.7"/>
<linearGradient id="SVGID_4_" gradientUnits="userSpaceOnUse" x1="541.48" y1="2266.45" x2="700.7601" y2="2670.27" gradientTransform="matrix(1 0 0 1 0 -2140)">
	<stop  offset="0" style="stop-color:#000000;stop-opacity:0"/>
	<stop  offset="0.98" style="stop-color:#000000"/>
</linearGradient>
<rect x="464.9" y="88.7" class="st7" width="189.3" height="166.7"/>
<path class="st8" d="M120.5,91.2l-26.8,61.5c0-0.6,0-1.3-0.1-1.9c-1.5,0.6-2.5-1.1-3-2.7c-0.8-2.4-1.8-5.4-4.2-5.3
	c-1.2,0.1-2.4,1.1-3.5,2c-0.9,1-2.1,1.8-3.5,2.3c-1,0.2-2.1-0.4-2.3-1.4c0,0,0,0,0,0l0,0c-0.1-0.2-0.1-0.5,0-0.7l-2.5,1.6
	c-2.4,1.6-1.3-2.1-1.8-3.3c-1.5,0.5-2.8,1.4-3.9,2.5L97.1,81L120.5,91.2z"/>
<path class="st8" d="M313.5,169.3c0.6-0.3,1.1-0.5,1.7-0.8c-1.1-1.1,0-2.8,1.2-3.9c1.9-1.7,4.2-3.9,3.1-6c-0.6-1.1-2-1.8-3.3-2.4
	c-1.3-0.4-2.5-1.2-3.5-2.2c-0.6-0.8-0.5-2,0.4-2.7c0.2-0.1,0.4-0.3,0.6-0.3c-0.9-0.5-1.7-1.1-2.5-1.6c-2.4-1.6,1.4-2,2.2-3
	c-1.1-1.1-2.4-2-3.9-2.6l65.6-0.8c-0.6,0.8-0.9,1.8-1,2.8c0,1.1,1.7,1.9,2.2,2.7c0.1,0.1,0.1,0.2,0.2,0.3l0.3,1.3
	c-0.1,0.9-0.3,1.7-0.8,2.4c-0.8,1-1.4,2.1-1.8,3.3c-0.2,1.4,0.1,2.9,0.8,4.2c1,2,2.5,3.9,4.7,4.4h0.2l0.8,4L313.5,169.3z"/>
<path class="st8" d="M525.5,85.2c0.6,0,1.3,0.1,1.9,0.1c-0.5-1.5,1.3-2.4,2.9-2.8c2.5-0.6,5.5-1.4,5.5-3.8c0-1.2-0.9-2.5-1.8-3.7
	c-1-1-1.6-2.3-2-3.6c-0.2-1,0.5-2,1.6-2.2c0.3-0.1,0.5-0.1,0.8,0l-1.5-2.6c-1.4-2.5,2.2-1.1,3.4-1.6c-0.4-1.5-1.2-2.9-2.2-4.1
	l57.9,30.6c-0.9,0.4-1.7,1.1-2.2,2c-0.5,1,0.6,2.4,0.7,3.4c0,0.1,0,0.2,0,0.4l-0.3,1.2c-0.5,0.7-1.1,1.3-1.9,1.7
	c-1.2,0.5-2.2,1.2-3.2,2c-0.9,1.2-1.3,2.6-1.3,4.1c-0.1,2.2,0.4,4.6,2,6.2c0,0.1,0.1,0.1,0.2,0.1l-1.2,3.9L525.5,85.2z"/>
<path class="st9" d="M120.5,91.2l-26.8,61.5c0-0.6,0-1.3-0.1-1.9c-1.5,0.6-2.5-1.1-3-2.7c-0.8-2.4-1.8-5.4-4.2-5.3
	c-1.2,0.1-2.4,1.1-3.5,2c-0.9,1-2.1,1.8-3.5,2.3c-1,0.2-2.1-0.4-2.3-1.4c0,0,0,0,0,0l0,0c-0.1-0.2-0.1-0.5,0-0.7l-2.5,1.6
	c-2.4,1.6-1.3-2.1-1.8-3.3c-1.5,0.5-2.8,1.4-3.9,2.5L97.1,81L120.5,91.2z"/>
<path class="st9" d="M313.5,169.3c0.6-0.3,1.1-0.5,1.7-0.8c-1.1-1.1,0-2.8,1.2-3.9c1.9-1.7,4.2-3.9,3.1-6c-0.6-1.1-2-1.8-3.3-2.4
	c-1.3-0.4-2.5-1.2-3.5-2.2c-0.6-0.8-0.5-2,0.4-2.7c0.2-0.1,0.4-0.3,0.6-0.3c-0.9-0.5-1.7-1.1-2.5-1.6c-2.4-1.6,1.4-2,2.2-3
	c-1.1-1.1-2.4-2-3.9-2.6l65.6-0.8c-0.6,0.8-0.9,1.8-1,2.8c0,1.1,1.7,1.9,2.2,2.7c0.1,0.1,0.1,0.2,0.2,0.3l0.3,1.3
	c-0.1,0.9-0.3,1.7-0.8,2.4c-0.8,1-1.4,2.1-1.8,3.3c-0.2,1.4,0.1,2.9,0.8,4.2c1,2,2.5,3.9,4.7,4.4h0.2l0.8,4L313.5,169.3z"/>
<path class="st9" d="M525.5,85.2c0.6,0,1.3,0.1,1.9,0.1c-0.5-1.5,1.3-2.4,2.9-2.8c2.5-0.6,5.5-1.4,5.5-3.8c0-1.2-0.9-2.5-1.8-3.7
	c-1-1-1.6-2.3-2-3.6c-0.2-1,0.5-2,1.6-2.2c0.3-0.1,0.5-0.1,0.8,0l-1.5-2.6c-1.4-2.5,2.2-1.1,3.4-1.6c-0.4-1.5-1.2-2.9-2.2-4.1
	l57.9,30.6c-0.9,0.4-1.7,1.1-2.2,2c-0.5,1,0.6,2.4,0.7,3.4c0,0.1,0,0.2,0,0.4l-0.3,1.2c-0.5,0.7-1.1,1.3-1.9,1.7
	c-1.2,0.5-2.2,1.2-3.2,2c-0.9,1.2-1.3,2.6-1.3,4.1c-0.1,2.2,0.4,4.6,2,6.2c0,0.1,0.1,0.1,0.2,0.1l-1.2,3.9L525.5,85.2z"/>
<linearGradient id="SVGID_5_" gradientUnits="userSpaceOnUse" x1="554.4374" y1="2212.5801" x2="580.4174" y2="2643.0601" gradientTransform="matrix(1 0 0 1 0 -2140)">
	<stop  offset="0" style="stop-color:#000000;stop-opacity:0"/>
	<stop  offset="0.98" style="stop-color:#000000"/>
</linearGradient>
<rect x="495" y="154.4" class="st10" width="129" height="3.4"/>
<linearGradient id="SVGID_6_" gradientUnits="userSpaceOnUse" x1="552.8984" y1="2212.6702" x2="578.8784" y2="2643.1501" gradientTransform="matrix(1 0 0 1 0 -2140)">
	<stop  offset="0" style="stop-color:#000000;stop-opacity:0"/>
	<stop  offset="0.98" style="stop-color:#000000"/>
</linearGradient>
<rect x="495" y="180" class="st11" width="129" height="3.4"/>
<linearGradient id="SVGID_7_" gradientUnits="userSpaceOnUse" x1="551.3593" y1="2212.77" x2="577.3393" y2="2643.24" gradientTransform="matrix(1 0 0 1 0 -2140)">
	<stop  offset="0" style="stop-color:#000000;stop-opacity:0"/>
	<stop  offset="0.98" style="stop-color:#000000"/>
</linearGradient>
<rect x="495" y="205.6" class="st12" width="129" height="3.4"/>
<linearGradient id="SVGID_8_" gradientUnits="userSpaceOnUse" x1="90.218" y1="2240.5901" x2="116.198" y2="2671.0701" gradientTransform="matrix(1 0 0 1 0 -2140)">
	<stop  offset="0" style="stop-color:#000000;stop-opacity:0"/>
	<stop  offset="0.98" style="stop-color:#000000"/>
</linearGradient>
<rect x="47.3" y="172" class="st13" width="94.7" height="3.4"/>
<linearGradient id="SVGID_9_" gradientUnits="userSpaceOnUse" x1="88.6791" y1="2240.6899" x2="114.6591" y2="2671.1699" gradientTransform="matrix(1 0 0 1 0 -2140)">
	<stop  offset="0" style="stop-color:#000000;stop-opacity:0"/>
	<stop  offset="0.98" style="stop-color:#000000"/>
</linearGradient>
<rect x="47.3" y="197.6" class="st14" width="94.7" height="3.4"/>
<linearGradient id="SVGID_10_" gradientUnits="userSpaceOnUse" x1="87.1395" y1="2240.78" x2="113.1195" y2="2671.26" gradientTransform="matrix(1 0 0 1 0 -2140)">
	<stop  offset="0" style="stop-color:#000000;stop-opacity:0"/>
	<stop  offset="0.98" style="stop-color:#000000"/>
</linearGradient>
<rect x="47.3" y="223.2" class="st15" width="94.7" height="3.4"/>
<linearGradient id="SVGID_11_" gradientUnits="userSpaceOnUse" x1="336.6051" y1="2225.7202" x2="362.5751" y2="2656.2002" gradientTransform="matrix(1 0 0 1 0 -2140)">
	<stop  offset="0" style="stop-color:#000000;stop-opacity:0"/>
	<stop  offset="0.98" style="stop-color:#000000"/>
</linearGradient>
<rect x="296.2" y="199.3" class="st16" width="94.7" height="3.4"/>
<linearGradient id="SVGID_12_" gradientUnits="userSpaceOnUse" x1="335.0667" y1="2225.8203" x2="361.0367" y2="2656.3003" gradientTransform="matrix(1 0 0 1 0 -2140)">
	<stop  offset="0" style="stop-color:#000000;stop-opacity:0"/>
	<stop  offset="0.98" style="stop-color:#000000"/>
</linearGradient>
<rect x="296.2" y="224.9" class="st17" width="94.7" height="3.4"/>
<linearGradient id="SVGID_13_" gradientUnits="userSpaceOnUse" x1="333.5284" y1="2225.9102" x2="359.4984" y2="2656.3901" gradientTransform="matrix(1 0 0 1 0 -2140)">
	<stop  offset="0" style="stop-color:#000000;stop-opacity:0"/>
	<stop  offset="0.98" style="stop-color:#000000"/>
</linearGradient>
<rect x="296.2" y="250.5" class="st18" width="94.7" height="3.4"/>
<path class="st2" d="M189.3,296c0,0,34.1-59.4,46-78.1l7.7-9.3l7.5,12.8l0.2,10.3l-31.4,59.2C219.2,290.9,196.7,311.4,189.3,296z"/>
<linearGradient id="SVGID_14_" gradientUnits="userSpaceOnUse" x1="222.5288" y1="2201.521" x2="259.9788" y2="2250.511" gradientTransform="matrix(1 0 0 1 0 -1966)">
	<stop  offset="0" style="stop-color:#000000;stop-opacity:0"/>
	<stop  offset="0.98" style="stop-color:#000000"/>
</linearGradient>
<polygon class="st19" points="250.9,210.2 213.5,286.3 240.3,252.2 250.6,231.7 "/>
<linearGradient id="SVGID_15_" gradientUnits="userSpaceOnUse" x1="360.2443" y1="2355.875" x2="383.8752" y2="2355.875" gradientTransform="matrix(1 0 0 1 -68.9 -2140.51)">
	<stop  offset="0" style="stop-color:#ECC4D7"/>
	<stop  offset="0.42" style="stop-color:#EFD4D1"/>
	<stop  offset="1" style="stop-color:#F2EAC9"/>
</linearGradient>
<path class="st20" d="M294.9,205.6c1.4,2,2.1,4.4,1.9,6.8c4.6-3.7,4.6-11.6,9.8-14.4c0,3-0.5,6-1.6,8.8c1.6-3.4,3.7-7.1,7.3-8.2
	c-0.5,3.9-1.9,7.6-4.1,10.8l4.7-4.8c0.4-0.4,1-0.9,1.6-0.6s0.4,1.3,0.1,1.9l-5.2,11.2c1.7-1.3,3.4-2.5,5.4-3.4l-5.7,9.4
	c-0.7,1.2-1.5,2.3-2.4,3.3c-2.1,2.1-5.5,3.4-6.3,6.3c0.2-0.6-8.2-3.3-8.8-4.2c-1-1.6,0.8-4.9,1-6.8
	C293.3,216.5,291.9,210.4,294.9,205.6z"/>
<path class="st21" d="M244.9,397.4l11.5,84.1c0.5,3.5,0.1,7.1-1.1,10.5l-12.8,59.2l-19.9-2.1l9.1-60.5c0.2-1.2,0.1-2.5-0.2-3.7
	l-15.7-54l-3,61.2l-25.7,52l-18-7.2l22.9-46.8l-3.7-57.8c-3.3-20.1,2.7-34.9,2.7-34.9L244.9,397.4z"/>
<rect x="191" y="388.4" class="st2" width="53.8" height="9"/>
<linearGradient id="SVGID_16_" gradientUnits="userSpaceOnUse" x1="286.9486" y1="2507.6399" x2="286.6386" y2="2588.5901" gradientTransform="matrix(1 0 0 1 -68.9 -2140.51)">
	<stop  offset="0" style="stop-color:#000000;stop-opacity:0"/>
	<stop  offset="0.98" style="stop-color:#000000"/>
</linearGradient>
<rect x="191" y="388.4" class="st22" width="53.8" height="9"/>
<path class="st2" d="M304,234.6l-50.6,83.7l-2.6,62.8c0,6-0.2,11-4.7,12.4c-0.9,0.2-1.8,0.4-2.7,0.4h-44.8
	c-7.1,0-12.8-5.7-12.8-12.8l0,0v-57.7c0,0-3.3-32.7,12.2-32.7H229c7.5,0,14.6-3.4,19.3-9.3l41.5-54.6L304,234.6z"/>
<linearGradient id="SVGID_17_" gradientUnits="userSpaceOnUse" x1="3377.5898" y1="2411.7231" x2="3403.1001" y2="2411.2532" gradientTransform="matrix(-1 0 0 1 3601.1299 -2140.51)">
	<stop  offset="0" style="stop-color:#ECC4D7"/>
	<stop  offset="0.42" style="stop-color:#EFD4D1"/>
	<stop  offset="1" style="stop-color:#F2EAC9"/>
</linearGradient>
<rect x="211" y="251.4" class="st23" width="15.5" height="39.5"/>
<linearGradient id="SVGID_18_" gradientUnits="userSpaceOnUse" x1="3379.0679" y1="2407.5864" x2="3373.8081" y2="2410.3665" gradientTransform="matrix(-1 0 0 1 3601.1401 -2140.51)">
	<stop  offset="0" style="stop-color:#ECC4D7"/>
	<stop  offset="0.42" style="stop-color:#EFD4D1"/>
	<stop  offset="1" style="stop-color:#F2EAC9"/>
</linearGradient>
<path class="st24" d="M211,247.1v43.8h8.2v-2.7c0-3.3,2.7-5.9,5.9-5.9c0,0,0,0,0,0h0.5c8.1,0,14.7-6.6,14.7-14.7l0,0l0,0v-20.5H211z
	"/>
<linearGradient id="SVGID_19_" gradientUnits="userSpaceOnUse" x1="313.79" y1="2350.7073" x2="323.92" y2="2350.7073" gradientTransform="matrix(1 0 0 1 -68.9 -2140.51)">
	<stop  offset="0" style="stop-color:#ECC4D7"/>
	<stop  offset="0.42" style="stop-color:#EFD4D1"/>
	<stop  offset="1" style="stop-color:#F2EAC9"/>
</linearGradient>
<path class="st25" d="M246.4,208.7c0.3-0.6,0.5-1.3,0.9-2c0.7-1.2,1.6-2.3,2.6-3.2l3.2-3.3c0.2-0.3,0.5-0.5,0.9-0.6
	c0.7-0.1,1.1,0.7,1,1.4c-0.2,0.6-0.5,1.2-1,1.7c-1.7,2.2-2.7,4.7-3,7.4c-0.3,2.7-0.4,5.4-0.4,8.1c0.1,0.9-0.1,1.8-0.5,2.6
	c-1-2.2-2.1-4.4-3.4-6.5c-0.4-0.7-1.7-2.1-1.8-2.9S246.1,209.4,246.4,208.7z"/>
<path class="st21" d="M241.7,240.1c-0.6-3.1-2.4-5.8-5.1-7.4v2.3c-5.8-2.8-12.8-0.6-19.1-1.6c0.7,0.8,1.3,1.7,1.8,2.6
	c-4.2,0-8.3,1-12,2.8l1,1.5c0.1,0.2,0.2,0.3,0.2,0.5c0,0.4-0.4,0.6-0.7,0.9c-1.8,1.4-2,4-1.9,6.3c0.3,6.8,2.1,13.5,3.9,20.1
	c0.7,2.5,1.3,5,2,7.5l1.4-1.9l1.3,0.9c1.8-2.8,9.8-3.4,10.5-6.7c-2-0.5-4.4-3.2-4.2-5.2s0.9-2.5,2.8-1.9c1.4,0.5-0.9-2.3-1.1-3.5
	s-0.8-2.3-0.2-3.3c0.8-1.4,2.8-1,4.2-0.4c1.3-3.7,4.8-6.1,8.7-5.9c2,0.1,3.9,1.4,5.3-0.5S242.1,242.4,241.7,240.1z"/>
<linearGradient id="SVGID_20_" gradientUnits="userSpaceOnUse" x1="298.5708" y1="2416.5591" x2="417.3708" y2="2528.759" gradientTransform="matrix(1 0 0 1 -68.9 -2140.51)">
	<stop  offset="0" style="stop-color:#000000;stop-opacity:0"/>
	<stop  offset="0.98" style="stop-color:#000000"/>
</linearGradient>
<path class="st26" d="M304,234.6l-50.6,83.7l-2.6,62.8c0,6,0.1,11.8-6.2,12.7h-8.4c0,0,7.1-71.8,5.8-78.8s58.6-82.3,58.6-82.3
	L304,234.6z"/>
<path class="st21" d="M226,549.3l-3.5,15h45c0,0,0.5-7.4-8.8-10c-5.6-1.5-11.5-1.7-17.2-0.5l-1.2-3L226,549.3z"/>
<path class="st21" d="M172.9,538.2l-7.9,12l9.3,5.4l2.9-1.5l6.6,6.8l23.4,0.8c0,0-1.5-11.7-12.4-11.7s-9.9-6.9-9.9-6.9L172.9,538.2z
	"/>
</svg>
