<?xml version="1.0" encoding="utf-8"?>
<!-- Generator: Adobe Illustrator 24.1.2, SVG Export Plug-In . SVG Version: 6.00 Build 0)  -->
<svg version="1.1" id="Layer_1" xmlns="http://www.w3.org/2000/svg" xmlns:xlink="http://www.w3.org/1999/xlink" x="0px" y="0px"
	 viewBox="0 0 556 456.1" style="enable-background:new 0 0 556 456.1;" xml:space="preserve">
<style type="text/css">
	.st0{opacity:0.25;fill:#9CC0F7;enable-background:new    ;}
	.st1{opacity:0.24;}
	.st2{fill:#3F3D56;}
	.st3{fill:url(#SVGID_1_);}
	.st4{fill:#25233A;}
	.st5{fill:#3B8FC0;}
	.st6{fill:url(#SVGID_2_);}
	.st7{fill:#65657F;}
	.st8{fill:url(#SVGID_3_);}
	.st9{fill:url(#SVGID_4_);}
	.st10{fill:#9CC0F7;}
	.st11{fill:url(#SVGID_5_);}
	.st12{fill:url(#SVGID_6_);}
	.st13{fill:url(#SVGID_7_);}
	.st14{fill:url(#SVGID_8_);}
	.st15{fill:url(#SVGID_9_);}
	.st16{fill:url(#SVGID_10_);}
	.st17{fill:url(#SVGID_11_);}
	.st18{fill:url(#SVGID_12_);}
	.st19{fill:url(#SVGID_13_);}
	.st20{fill:url(#SVGID_14_);}
	.st21{fill:url(#SVGID_15_);}
	.st22{fill:url(#SVGID_16_);}
	.st23{fill:url(#SVGID_17_);}
	.st24{fill:#FFFFFF;}
	.st25{fill:url(#SVGID_18_);}
	.st26{fill:url(#SVGID_19_);}
	.st27{fill:#52C27D;}
	.st28{fill:url(#SVGID_20_);}
	.st29{fill:url(#SVGID_21_);}
	.st30{fill:url(#SVGID_22_);}
	.st31{fill:url(#SVGID_23_);}
	.st32{fill:url(#SVGID_24_);}
	.st33{fill:url(#SVGID_25_);}
	.st34{fill:url(#SVGID_26_);}
	.st35{fill:url(#SVGID_27_);}
	.st36{fill:url(#SVGID_28_);}
	.st37{fill:url(#SVGID_29_);}
	.st38{fill:url(#SVGID_30_);}
	.st39{fill:url(#SVGID_31_);}
	.st40{fill:url(#SVGID_32_);}
	.st41{fill:url(#SVGID_33_);}
	.st42{fill:url(#SVGID_34_);}
	.st43{fill:url(#SVGID_35_);}
	.st44{fill:url(#SVGID_36_);}
	.st45{fill:url(#SVGID_37_);}
	.st46{fill:url(#SVGID_38_);}
	.st47{fill:url(#SVGID_39_);}
	.st48{fill:url(#SVGID_40_);}
	.st49{fill:url(#SVGID_41_);}
	.st50{fill:url(#SVGID_42_);}
	.st51{fill:url(#SVGID_43_);}
	.st52{fill:url(#SVGID_44_);}
</style>
<path class="st0" d="M120.8,158.1c-38.2,7.5-120.6,25.7-92.6,116.7c3.9,12.7,29.1,56.1,31.9,69.1c3.1,14.5-3.3,29.8-0.2,44.3
	c5.7,26.1,37.3,35.8,63.6,39.8c30.5,4.7,62,8.2,92.1,1.2c16.6-3.9,32.3-10.8,48.8-15c67.7-17.1,141.4,13.9,207.9-7.1
	c19.7-6.2,39.4-18.6,45.6-38.3c4-12.8,1.7-26.7,1.7-40.1c-0.2-34.2,4.2-79.6,15.1-112.1s60.8-160-44-180.9
	C338.3,5.4,386.4,106.3,120.8,158.1z"/>
<path class="st0" d="M118.9,388.5c-24.5,5.3-50.4,12.3-67,31c-3.4,3.9-6.5,8.5-6.6,13.6c-0.2,12.3,14.9,18,27.1,19.6
	c37.5,5,75.6,3.4,113.4,1.9c23.9-1,47.9-2,71.6-5.5c46.5-7,92.7-23.9,139.5-18.8c15.4,1.7,30.5,5.7,45.9,7.3
	c24.8,2.4,49.8-1.6,72.6-11.8c8-3.6,16.5-8.9,18.5-17.4s-3.1-17.3-10.2-22.2s-15.8-6.8-24.3-8.6c-20.4-4.3-38-11.9-58.9-13.2
	c-26.4-1.7-52.9-2.4-79.4-2.3c-52.5,0.3-104.9,4-156.9,11.3C175.7,377.3,147.2,382.3,118.9,388.5z"/>
<g class="st1">
	<path class="st2" d="M97.9,445.8c14.7,1.3,29.4,1.9,44.1,2c12.7,0.1,25.9-0.3,37.5-5.6c6.4-2.9,12.1-7.2,18.8-9.3
		c6.3-1.9,13-1.8,19.5-2.6s13.4-3.1,17.2-8.5l-24.9-8.3c-3.1-1.2-6.4-2-9.7-2.6c-4.2-0.5-8.5-0.4-12.7,0.1
		c-16,1.5-31.8,4.1-47.4,7.6c-8.8,2-13.3,7.2-20.9,10.5c-6.1,2.7-9.8,0.6-16,0.4C88.8,429.2,78.5,444.1,97.9,445.8z"/>
	<path class="st2" d="M234.6,380.8c-3.7,0.1-8.6,1.2-8.5,4.9c13.2,4.1,27.4-0.4,41.2,0.1c18.6,0.7,35.5,10.3,51.6,19.7
		c-6.3-0.2-12.2,3.1-15.5,8.6c36.2,3.8,72.4-5.4,108.8-6c38.1-0.6,76.2,8.4,114,3.7c-0.7-3.1-4.4-4.2-7.5-4.7
		c-15.9-2.4-32.1-1.3-48.1-2.3S438,400,425.5,390c13-3.1,25.5-7.8,37.3-14c-7.5-3.5-16.3-2.5-24.5-1.5
		c-54.6,6.6-109.9,5.9-164.3-2.2c-1.9,3.8,3.9,6.5,8,6.9l91.2,7.2c10.5,0.8,21.8,2,29.4,9.1c-40.3,7.7-95.8-0.3-133.7-15.9
		c-6.2-2.6,3.9-9.9-2.8-9.1C258.3,371.3,243.9,380.6,234.6,380.8z"/>
</g>
<linearGradient id="SVGID_1_" gradientUnits="userSpaceOnUse" x1="120.15" y1="184.9612" x2="144.24" y2="184.9612" gradientTransform="matrix(1 0 0 -1 0 390.29)">
	<stop  offset="0" style="stop-color:#ECC4D7"/>
	<stop  offset="0.42" style="stop-color:#EFD4D1"/>
	<stop  offset="1" style="stop-color:#F2EAC9"/>
</linearGradient>
<path class="st3" d="M140.6,189.1c1.3,1.6,1.9,3.7,1.7,5.8c-0.1,0.9-0.3,1.8-0.4,2.7c-0.1,0.9,0.2,1.8,0.8,2.5
	c0.5,0.5,1.4,0.9,1.5,1.6c0.2,1-1.1,1.6-1.8,2.3c-0.6,0.8-1.1,1.7-1.3,2.8c-0.5,1.5-1.1,2.9-1.8,4.2c-0.7,1.4-1.8,2.5-3.2,3.2
	c-1,0.4-2.2,0.3-3.2,0.8c-2.2,1.3-1.7,5-3.8,6.6c-0.6,0.4-1.3,0.6-2,0.7c-1.6,0.2-3.3,0-4.8-0.6c-0.7-0.3-1.3-0.7-1.7-1.3
	c-0.4-0.8-0.5-1.7-0.4-2.6c0.2-3,0.6-6.1,0.5-9.1c-0.1-1.6-0.2-3.2-0.2-4.9c0-4.9,2.2-9.5,6-12.5c3.8-3,9-3.9,13.6-2.2l-0.9-1"/>
<path class="st4" d="M124.6,197.4c-1.4,0.4-2.3,1.8-2,3.2c0.4,1.4,1.6,2.4,3,2.4l-3.2,6.1c-0.3,0.5-0.7,1.1-1.3,1s-0.7-0.9-0.8-1.5
	c-0.3-1.9-1.9-3.4-2.7-5.2c-1.3-2.6-1-5.6-0.8-8.4c0.2-2.5,0.5-5.2,1.9-7.4c0.8-1.2,1.8-2.2,2.9-3c1.9-1.6,4.2-2.7,6.7-3.1
	c2.1-0.1,4.2,0.1,6.1,0.8c2,0.4,3.9,1.3,5.5,2.5c1.6,1.3,2.3,3.4,1.8,5.4c-3,0.4-8.8,0-11.2,2.2c-2,1.9-0.6,6-3.2,7.3
	C127.2,198,126,197.6,124.6,197.4z"/>
<path class="st5" d="M150.2,186.6c-0.9-0.5-5-2.3-5.9-2.8c-0.2-3.2-3.7-7.5-8.5-9.3c-3.6-1.3-10.9-1.3-16.8,3.1
	c-6.6,5-5.7,13.4-5.8,15.6c0,1.5,1.2,2.8,2.7,2.9c0.4,0,0.8-0.1,1.2-0.2c1.8-0.8,3.6-1.5,5.4-2.1l8-2
	C136.2,190.3,144.5,188.1,150.2,186.6z"/>
<linearGradient id="SVGID_2_" gradientUnits="userSpaceOnUse" x1="135.1136" y1="269.9923" x2="139.1336" y2="263.6523" gradientTransform="matrix(1 0 0 -1 0 456)">
	<stop  offset="0" style="stop-color:#000000;stop-opacity:0"/>
	<stop  offset="0.97" style="stop-color:#000000"/>
</linearGradient>
<polygon class="st6" points="148.9,186.1 125.3,192.2 133.1,188.1 135.2,187 138.9,185.7 142.9,184.3 144.2,183.8 "/>
<polygon class="st7" points="125.3,193 118.2,206 116.6,202.1 118.8,198.2 116.3,196.3 119,195.1 120.8,196.5 121.5,194.1 "/>
<path class="st5" d="M114.2,195.4c0,0,1.1,0.3,4-1c2.3-0.9,4.7-1.7,7.1-2.2l9.9-5.3c0,0-12.6-6.4-20.1,0.9
	C115.1,187.8,112.2,191.8,114.2,195.4z"/>
<linearGradient id="SVGID_3_" gradientUnits="userSpaceOnUse" x1="126.4528" y1="221.56" x2="127.2628" y2="171.6701" gradientTransform="matrix(1 0 0 -1 0 390.29)">
	<stop  offset="0" style="stop-color:#000000;stop-opacity:0"/>
	<stop  offset="0.97" style="stop-color:#000000"/>
</linearGradient>
<path class="st8" d="M114.1,185c0,0,5.4-9.3,14.1-9.3c4.1,0,8,1.5,11.1,4.2C139.3,179.9,124.4,170.5,114.1,185z"/>
<linearGradient id="SVGID_4_" gradientUnits="userSpaceOnUse" x1="121.4755" y1="203.9901" x2="121.9355" y2="175.8301" gradientTransform="matrix(1 0 0 -1 0 390.29)">
	<stop  offset="0" style="stop-color:#000000;stop-opacity:0"/>
	<stop  offset="0.97" style="stop-color:#000000"/>
</linearGradient>
<path class="st9" d="M113.9,194.6c0,0,0.1,1.4,2.5,0.5s9.6-3,9.6-3l3.3-2C129.3,190.1,115.2,195.6,113.9,194.6z"/>
<path class="st4" d="M117.7,418.6c16.3-31.3,26.1-65.5,28.8-100.7c0.2-3.2,0.4-6.6-1.3-9.4c-3.2-5.2-10.8-4.9-16.9-4
	c-2.8,0.4-5.9,1.1-7.3,3.5c-1,1.8-11.5,8.3-10.6,10.1c7,13.2,9.8,30.1,6.3,47.8c-3.4,17.3-9.6,30.1-12.1,47.4
	C106.1,413.5,117.2,419.6,117.7,418.6z"/>
<rect x="441" y="119.7" class="st10" width="17.7" height="254.8"/>
<linearGradient id="SVGID_5_" gradientUnits="userSpaceOnUse" x1="478.2398" y1="209.6745" x2="336.3598" y2="204.9444" gradientTransform="matrix(1 0 0 -1 0 456)">
	<stop  offset="0" style="stop-color:#000000;stop-opacity:0"/>
	<stop  offset="0.97" style="stop-color:#000000"/>
</linearGradient>
<rect x="448.6" y="119.7" class="st11" width="10.2" height="254.8"/>
<path class="st10" d="M458.8,174c0-0.6,63.7,21.8,63.7,21.8l1.5,21.9l-66.6-24.1l-0.2-19.6L458.8,174z"/>
<linearGradient id="SVGID_6_" gradientUnits="userSpaceOnUse" x1="492.1162" y1="221.1691" x2="486.6862" y2="124.8191" gradientTransform="matrix(1 0 0 -1 0 390.29)">
	<stop  offset="0" style="stop-color:#000000;stop-opacity:0"/>
	<stop  offset="0.97" style="stop-color:#000000"/>
</linearGradient>
<path class="st12" d="M457.2,175.9c0-0.6,65.3,23,65.3,23l1.5,17.9l-66.6-24.1L457.2,175.9z"/>
<path class="st10" d="M453.8,178.3c0-0.6,63.7,21.8,63.7,21.8l1.5,20.5l-66.6-24.1l-0.2-18.2L453.8,178.3z"/>
<linearGradient id="SVGID_7_" gradientUnits="userSpaceOnUse" x1="510.789" y1="218.5921" x2="425.839" y2="122.6121" gradientTransform="matrix(1 0 0 -1 0 390.29)">
	<stop  offset="0" style="stop-color:#000000;stop-opacity:0"/>
	<stop  offset="0.97" style="stop-color:#000000"/>
</linearGradient>
<path class="st13" d="M452.2,179.7c0-0.6,65.3,23,65.3,23l1.5,17.9l-66.6-24.1L452.2,179.7z"/>
<rect x="511.6" y="141.4" class="st10" width="17.7" height="262.6"/>
<linearGradient id="SVGID_8_" gradientUnits="userSpaceOnUse" x1="530.0197" y1="183.5776" x2="482.4597" y2="181.8276" gradientTransform="matrix(1 0 0 -1 0 456)">
	<stop  offset="0" style="stop-color:#000000;stop-opacity:0"/>
	<stop  offset="0.97" style="stop-color:#000000"/>
</linearGradient>
<rect x="513.6" y="141.4" class="st14" width="17.7" height="262.6"/>
<rect x="518.7" y="141.4" class="st10" width="2.5" height="262.6"/>
<polygon class="st10" points="518.8,279.9 518.8,283.2 518.5,297.8 452.6,275.8 452.5,275.7 453.4,258.5 "/>
<linearGradient id="SVGID_9_" gradientUnits="userSpaceOnUse" x1="452.63" y1="175.8" x2="518.49" y2="175.8" gradientTransform="matrix(1 0 0 -1 0 456)">
	<stop  offset="0" style="stop-color:#000000;stop-opacity:0"/>
	<stop  offset="0.97" style="stop-color:#000000"/>
</linearGradient>
<polygon class="st15" points="518.5,282.5 518.5,299.4 452.6,275.8 453.4,261 "/>
<rect x="256.5" y="114.3" class="st10" width="17.7" height="260.2"/>
<linearGradient id="SVGID_10_" gradientUnits="userSpaceOnUse" x1="274.8899" y1="211.8424" x2="227.4799" y2="210.0924" gradientTransform="matrix(1 0 0 -1 0 456)">
	<stop  offset="0" style="stop-color:#000000;stop-opacity:0"/>
	<stop  offset="0.97" style="stop-color:#000000"/>
</linearGradient>
<rect x="258.5" y="114.3" class="st16" width="17.7" height="260.2"/>
<rect x="267.4" y="258.2" class="st10" width="175.9" height="16.6"/>
<linearGradient id="SVGID_11_" gradientUnits="userSpaceOnUse" x1="363.3503" y1="173.8202" x2="323.3503" y2="251.9202" gradientTransform="matrix(1 0 0 -1 0 456)">
	<stop  offset="0" style="stop-color:#000000;stop-opacity:0"/>
	<stop  offset="0.97" style="stop-color:#000000"/>
</linearGradient>
<rect x="267.4" y="258.2" class="st17" width="175.9" height="16.6"/>
<linearGradient id="SVGID_12_" gradientUnits="userSpaceOnUse" x1="358.1595" y1="204.4088" x2="356.9105" y2="188.8412" gradientTransform="matrix(1 0 0 -1 0 456)">
	<stop  offset="0" style="stop-color:#000000;stop-opacity:0"/>
	<stop  offset="0.97" style="stop-color:#000000"/>
</linearGradient>
<rect x="274" y="258.2" class="st18" width="167" height="2.3"/>
<rect x="267.4" y="173.1" class="st10" width="175.9" height="16.6"/>
<linearGradient id="SVGID_13_" gradientUnits="userSpaceOnUse" x1="355.335" y1="294.03" x2="355.335" y2="241.64" gradientTransform="matrix(1 0 0 -1 0 456)">
	<stop  offset="0" style="stop-color:#000000;stop-opacity:0"/>
	<stop  offset="0.97" style="stop-color:#000000"/>
</linearGradient>
<rect x="267.4" y="173.1" class="st19" width="175.9" height="16.6"/>
<rect x="269.7" y="177.5" class="st10" width="175.9" height="16.6"/>
<linearGradient id="SVGID_14_" gradientUnits="userSpaceOnUse" x1="355.335" y1="293.51" x2="355.335" y2="233.83" gradientTransform="matrix(1 0 0 -1 0 456)">
	<stop  offset="0" style="stop-color:#000000;stop-opacity:0"/>
	<stop  offset="0.97" style="stop-color:#000000"/>
</linearGradient>
<rect x="267.4" y="175.2" class="st20" width="175.9" height="18.9"/>
<polygon class="st10" points="327.4,197.3 274.2,177.5 274.2,181.8 327.4,201.6 "/>
<linearGradient id="SVGID_15_" gradientUnits="userSpaceOnUse" x1="302.024" y1="273.871" x2="296.654" y2="241.881" gradientTransform="matrix(1 0 0 -1 0 456)">
	<stop  offset="0" style="stop-color:#000000;stop-opacity:0"/>
	<stop  offset="0.97" style="stop-color:#000000"/>
</linearGradient>
<polygon class="st21" points="327.4,197.3 274.2,177.5 274.2,181.8 327.4,201.6 "/>
<rect x="274.2" y="177.5" class="st10" width="166.8" height="1.7"/>
<rect x="274.2" y="171.9" class="st10" width="166.8" height="1.7"/>
<rect x="263.6" y="114.3" class="st10" width="10.6" height="260.2"/>
<linearGradient id="SVGID_16_" gradientUnits="userSpaceOnUse" x1="261.7899" y1="211.4853" x2="290.2699" y2="211.8053" gradientTransform="matrix(1 0 0 -1 0 456)">
	<stop  offset="0" style="stop-color:#000000;stop-opacity:0"/>
	<stop  offset="0.97" style="stop-color:#000000"/>
</linearGradient>
<rect x="263.6" y="114.3" class="st22" width="10.6" height="260.2"/>
<rect x="342.6" y="284.4" class="st10" width="175.9" height="16.6"/>
<linearGradient id="SVGID_17_" gradientUnits="userSpaceOnUse" x1="430.3518" y1="178.51" x2="431.0618" y2="115.37" gradientTransform="matrix(1 0 0 -1 0 456)">
	<stop  offset="0" style="stop-color:#000000;stop-opacity:0"/>
	<stop  offset="0.97" style="stop-color:#000000"/>
</linearGradient>
<rect x="342.6" y="286.6" class="st23" width="175.9" height="14.3"/>
<path class="st24" d="M186.1,240.9c-1,6.8-3.8,13.5-8.9,18s-12.8,6.5-19.1,3.8c-6.6-2.8-10.4-9.7-13.6-16c-0.1,16.1,6.4,32,4.1,47.9
	c-0.2,2.3-1,4.5-2.4,6.4c-1.7,2-4.4,2.8-6.9,3.5c-8.8,2.4-17.9,4-27,4.8c-0.9,0.1-1.8,0.1-2.6,0.2c-1.1-5.2-1.5-12.1-1.6-20.4
	c0-0.8,0-1.7,0-2.5c0-6.7,0.2-14.2,0.4-22.6c0-0.6,0-1.2,0-1.8c0-0.1,0-0.1,0-0.2s0-0.2,0-0.4c0-0.5,0-1.2,0.1-2c0-0.2,0-0.4,0-0.6
	s0-0.4,0-0.6c0-0.4,0-0.8,0-1.2c0-0.2,0-0.5,0-0.7c0-1,0-1.8,0-1.8c0.2-5.2,0.3-10.7,0.5-16.4c0-0.7,0-1.5,0.1-2.2
	c0-2,0.3-4.1,0.7-6.1c0.7-3.3,2.7-6.2,5.5-8.1l0,0c2.1-1.4,4.4-2.5,6.8-3.3c9.6-3.3,20.9-1.3,27.8,5.9c1.2,1.3,2.2,2.6,3.1,4.1
	c1.5,2.3,2.8,4.8,4.1,7.3c1.3,2.6,2.9,5.1,4.6,7.5c1.6,2,3.9,3.9,6.4,3.5c3.6-0.6,4.6-5.2,4.6-8.9c0.1-6-0.3-12-1-17.9
	c4.6-0.4,9.2-0.3,13.7,0.5c0.6,3.7,0.9,7.4,1.1,11.1C186.7,234.7,186.5,237.8,186.1,240.9z"/>
<linearGradient id="SVGID_18_" gradientUnits="userSpaceOnUse" x1="135.2395" y1="112.6334" x2="34.3495" y2="97.6034" gradientTransform="matrix(1 0 0 -1 0 390.29)">
	<stop  offset="0" style="stop-color:#000000;stop-opacity:0"/>
	<stop  offset="0.97" style="stop-color:#000000"/>
</linearGradient>
<path class="st25" d="M128.8,270c-2.7,4.4-6.3,8.1-10,11.6c-1.7,1.6-0.7,21.5-2.5,23.1c-0.7,0.6-2.2,2.5-4,4.6
	c-0.9,0.1-1.8,0.1-2.6,0.2c-1.1-5.2-1.5-12.1-1.6-20.4c0-0.8,0-1.7,0-2.5c0-6.7,0.2-14.2,0.4-22.6c0-0.6,0-1.2,0-1.8
	c0-0.1,0-0.1,0-0.2s0-0.2,0-0.4c0-0.5,0-1.2,0.1-2c0-0.2,0-0.4,0-0.6s0-0.4,0-0.6c0-0.4,0-0.8,0-1.2c0-0.2,0-0.5,0-0.7
	c0-1,0-1.8,0-1.8c1.3-1.1,2.2,3.5,2.4,4.1c0.1,0.2,0.2,0.4,0.3,0.5c0.2,0.2,0.5,0.2,0.7,0.2c1.2-0.2,2.3-0.8,3-1.8
	c2-2,3.8-4,5.6-6.1l11.8,3.8C133.2,260.4,131.5,265.6,128.8,270z"/>
<path class="st24" d="M131,255c-3.5,14.2-13.8,28-22.9,31.6c-3.7,1.5-7.3,1.2-10-1.4c-5-4.5-6-21-4.5-39.5c0.2-2.3,0.6-4.5,1.4-6.7
	c1.1-3,2.7-5.7,4.8-8.1c4.3-4.6,9.8-7.9,15.9-9.4l-0.1,0.4l-1.6,7.9l-1.7,8.3l-3.4,16.6l-2,9.6c0,1.1,0.7,0.8,1.7-0.3
	c2.8-3,8.5-12.2,10.9-14.1c0.1-0.1,0.1-0.1,0.2-0.2L131,255z"/>
<linearGradient id="SVGID_19_" gradientUnits="userSpaceOnUse" x1="123.9675" y1="162.3416" x2="135.7475" y2="108.7317" gradientTransform="matrix(1 0 0 -1 0 390.29)">
	<stop  offset="0" style="stop-color:#000000;stop-opacity:0"/>
	<stop  offset="0.97" style="stop-color:#000000"/>
</linearGradient>
<path class="st26" d="M157.1,235.8c-0.3,0.1-0.7,0.1-1,0.2c-7.3,0.9-14.8,0.6-22.1,0.7s-14.5,0.8-21.8,1.3l-2.9,0.2
	c-4.7,0.3-9.5,0.6-14.3,0.7c1.1-3,2.7-5.7,4.8-8.1c0.7-0.2,1.4-0.3,2.1-0.3c2.7-0.2,5.4-0.4,8.2-0.6c1.3-0.1,2.6-0.2,3.9-0.2
	c8.6-0.5,17.3-0.8,25.9-1.1c4.4-0.1,8.8-0.3,13.2-0.1l0,0C154.5,230.9,155.8,233.4,157.1,235.8z"/>
<path class="st2" d="M137.2,358.6c10.8,14.1,21.1,30,22,47.7c0.2,3.2,0.5,7.1,3.5,8.3c1.4,0.4,2.9,0.4,4.4-0.1l11-2.3l-6.9-30.7
	c-1.7-7.7-3.5-15.5-6.7-22.8c-2.3-5.1-5.3-9.8-7.8-14.8c-6.2-12.6-8.9-26.6-11.5-40.5c-12.9,0.8-42.1-4.9-34.8,14.7
	C116.2,333.9,129,344.6,137.2,358.6z"/>
<path class="st2" d="M166.6,418.8c0.2,0.7,0.5,1.4,1,2c1,0.9,2.3,1.3,3.6,1c1.3-0.3,2.5-0.8,3.6-1.6c0.6-0.3,1.1-0.7,1.5-1.3
	c0.4-1,0.3-2.1-0.1-3l-1.8-5.7c-0.1-0.3-0.3-0.7-0.6-0.8c-0.4-0.1-0.8,0-1.1,0.3c-2,1.3-5,1.5-6.8,2.8S165.9,416.8,166.6,418.8z"/>
<path class="st2" d="M105.4,421.5c1.8,1.2,3.8,2,5.9,2.6c0.3,0.1,0.7,0.1,1,0c0.5-0.2,0.7-0.7,0.9-1.2l2.6-7.4
	c-0.3,0.9-5.6-3.6-6.8-3.2C106.7,413.2,105.9,419.4,105.4,421.5z"/>
<path class="st2" d="M173.9,416.2c1.1-0.4,2.3-0.6,3.5-0.7c3.3-0.1,6.5,2.4,9.8,1.6c0.8-0.3,1.7-0.5,2.6-0.7c2.1-0.1,4,1.4,4.4,3.5
	c0.3,2.1-0.4,4.2-1.8,5.7c-1.5,1.5-3.2,2.6-5.1,3.5c-3.9,1.9-8.1,3.2-12.4,3.8c-1.1,0.2-2.2,0.2-3.3-0.2c-0.9-0.4-1.6-1-2.2-1.7
	c-2.1-2.4-4.4-6.6-4.1-9.9C165.7,417.5,171.1,417.1,173.9,416.2z"/>
<path class="st2" d="M114.5,422.5c0.5,0.1,0.9,0.4,1.3,0.6c0.4,0.5,0.7,1.1,0.9,1.7c1.1,3,3.1,5.6,5.6,7.5c1.1,0.7,2,1.5,2.7,2.5
	c0.7,1,0.6,2.5-0.4,3.3c-0.6,0.3-1.2,0.5-1.9,0.4c-2.2-0.1-4.3-0.3-6.5-0.6c-5.8-0.8-12-1.9-16.4-5.8c-1.2-0.9-2-2.3-2.3-3.8
	c-0.2-1.9,1-3.4,2-4.9c0.7-1.1,1.7-3.5,2.8-4.2C105.1,417.8,111.9,421.6,114.5,422.5z"/>
<path class="st27" d="M242.2,210c0,0-0.1,1.1-0.2,2.8c-0.3,5.2-0.9,16.1-1,16.3S1.3,239.6,1.3,239.6l-1-14L0,222.9l14-0.1L242.2,210
	z"/>
<linearGradient id="SVGID_20_" gradientUnits="userSpaceOnUse" x1="120.7712" y1="173.2301" x2="124.0912" y2="138.9901" gradientTransform="matrix(1 0 0 -1 0 390.29)">
	<stop  offset="0" style="stop-color:#000000;stop-opacity:0"/>
	<stop  offset="0.97" style="stop-color:#000000"/>
</linearGradient>
<path class="st28" d="M242.1,212.7c-0.3,5.2-0.9,16.1-1,16.3S1.3,239.6,1.3,239.6l-1-14l13.8-0.1L242.1,212.7z"/>
<path class="st27" d="M242.2,216.7c0,0-0.1,1.1-0.2,2.8c-0.3,5.2-0.9,16.1-1,16.3S1.3,246.3,1.3,246.3l-1-14L0,229.6l14-0.1
	L242.2,216.7z"/>
<linearGradient id="SVGID_21_" gradientUnits="userSpaceOnUse" x1="120.7726" y1="166.5202" x2="124.0926" y2="132.2803" gradientTransform="matrix(1 0 0 -1 0 390.29)">
	<stop  offset="0" style="stop-color:#000000;stop-opacity:0"/>
	<stop  offset="0.97" style="stop-color:#000000"/>
</linearGradient>
<path class="st29" d="M242.1,219.5c-0.3,5.2-0.9,16.1-1,16.3S1.3,246.3,1.3,246.3l-1-14l13.8-0.1L242.1,219.5z"/>
<polygon class="st10" points="263.6,278.8 341.4,302.6 341.3,282.8 263.6,258.9 "/>
<linearGradient id="SVGID_22_" gradientUnits="userSpaceOnUse" x1="304.3121" y1="198.2698" x2="299.0722" y2="133.0098" gradientTransform="matrix(1 0 0 -1 0 456)">
	<stop  offset="0" style="stop-color:#000000;stop-opacity:0"/>
	<stop  offset="0.97" style="stop-color:#000000"/>
</linearGradient>
<polygon class="st30" points="341.4,302.6 341.4,302.6 263.6,278.8 263.6,258.9 341.3,282.8 "/>
<linearGradient id="SVGID_23_" gradientUnits="userSpaceOnUse" x1="304.1909" y1="195.6099" x2="299.2809" y2="134.5099" gradientTransform="matrix(1 0 0 -1 0 456)">
	<stop  offset="0" style="stop-color:#000000;stop-opacity:0"/>
	<stop  offset="0.97" style="stop-color:#000000"/>
</linearGradient>
<polygon class="st31" points="341.4,302.6 263.6,278.8 263.6,261.3 341.3,285.1 "/>
<rect x="342.6" y="199.2" class="st10" width="175.9" height="16.1"/>
<linearGradient id="SVGID_24_" gradientUnits="userSpaceOnUse" x1="431.0866" y1="267.1801" x2="428.8866" y2="189.0501" gradientTransform="matrix(1 0 0 -1 0 456)">
	<stop  offset="0" style="stop-color:#000000;stop-opacity:0"/>
	<stop  offset="0.97" style="stop-color:#000000"/>
</linearGradient>
<rect x="342.6" y="201.6" class="st32" width="175.9" height="13.7"/>
<rect x="342.6" y="203.9" class="st10" width="175.9" height="18.4"/>
<linearGradient id="SVGID_25_" gradientUnits="userSpaceOnUse" x1="431.1521" y1="263.71" x2="428.6921" y2="176.2899" gradientTransform="matrix(1 0 0 -1 0 456)">
	<stop  offset="0" style="stop-color:#000000;stop-opacity:0"/>
	<stop  offset="0.97" style="stop-color:#000000"/>
</linearGradient>
<rect x="342.6" y="206.3" class="st33" width="175.9" height="15.9"/>
<linearGradient id="SVGID_26_" gradientUnits="userSpaceOnUse" x1="120.05" y1="144.645" x2="133.14" y2="144.645" gradientTransform="matrix(1 0 0 -1 0 390.29)">
	<stop  offset="0" style="stop-color:#ECC4D7"/>
	<stop  offset="0.42" style="stop-color:#EFD4D1"/>
	<stop  offset="1" style="stop-color:#F2EAC9"/>
</linearGradient>
<path class="st34" d="M128.4,253.3c2.5-3.1,3.5-6.1,4.7-9.9c0.4-1.1-0.8-1.2-2.1,1.9c0.3-2.2,1-5.8,1-6.6c-1.2-1.1-1.4,0.9-1.8,1.7
	c-0.5,1.1-1,2.1-1.4,3.3c0.2-1.9,0.2-2.8,0.4-4.7c0-0.4,0-0.8-0.4-0.9c-1.8,0.4-1.1,4.5-2.7,6.1c0.3-1.8,0.5-5.9,0-5.6
	c-1,0-1.5,1.3-1.7,2.3l-1,5.7c-0.6-0.2-0.7-0.9-0.8-1.5s-0.8-1.2-1.2-0.9c-0.2,0.1-0.3,0.3-0.3,0.5c-0.1,0.7,0,1.4,0.2,2.1
	c0.1,1.4-0.4,2.8-1.3,3.8C122.7,251.8,125.5,252.8,128.4,253.3z"/>
<linearGradient id="SVGID_27_" gradientUnits="userSpaceOnUse" x1="296.2987" y1="197.7901" x2="294.0787" y2="170.0901" gradientTransform="matrix(1 0 0 -1 0 456)">
	<stop  offset="0" style="stop-color:#000000;stop-opacity:0"/>
	<stop  offset="0.97" style="stop-color:#000000"/>
</linearGradient>
<polygon class="st35" points="263.6,258.9 281.3,258.9 327.4,271.4 327.4,278.5 "/>
<rect x="263.6" y="114.3" class="st10" width="2.5" height="260.2"/>
<rect x="327.4" y="141.2" class="st10" width="17.7" height="262.6"/>
<linearGradient id="SVGID_28_" gradientUnits="userSpaceOnUse" x1="345.7901" y1="183.8173" x2="298.2301" y2="182.0673" gradientTransform="matrix(1 0 0 -1 0 456)">
	<stop  offset="0" style="stop-color:#000000;stop-opacity:0"/>
	<stop  offset="0.97" style="stop-color:#000000"/>
</linearGradient>
<rect x="329.4" y="141.2" class="st36" width="17.7" height="262.6"/>
<rect x="334.4" y="141.2" class="st10" width="2.5" height="262.6"/>
<polygon class="st10" points="266.1,178.7 327.4,201.6 327.4,222.2 266.1,195.6 "/>
<linearGradient id="SVGID_29_" gradientUnits="userSpaceOnUse" x1="299.2323" y1="272.1197" x2="290.9423" y2="213.2897" gradientTransform="matrix(1 0 0 -1 0 456)">
	<stop  offset="0" style="stop-color:#000000;stop-opacity:0"/>
	<stop  offset="0.97" style="stop-color:#000000"/>
</linearGradient>
<polygon class="st37" points="266.1,181.4 327.4,204.2 327.4,222.2 266.1,195.6 "/>
<polygon class="st10" points="274.2,177.5 327.4,197.3 327.4,199.6 274.2,179.9 "/>
<rect x="441" y="5.4" class="st10" width="17.7" height="155.8"/>
<linearGradient id="SVGID_30_" gradientUnits="userSpaceOnUse" x1="478.2398" y1="323.9944" x2="336.3598" y2="319.2644" gradientTransform="matrix(1 0 0 -1 0 456)">
	<stop  offset="0" style="stop-color:#000000;stop-opacity:0"/>
	<stop  offset="0.97" style="stop-color:#000000"/>
</linearGradient>
<rect x="448.6" y="5.4" class="st38" width="10.2" height="254.8"/>
<path class="st10" d="M458.8,59.7c0-0.6,63.7,21.8,63.7,21.8l1.5,21.9l-66.6-24.1l-0.2-19.6L458.8,59.7z"/>
<linearGradient id="SVGID_31_" gradientUnits="userSpaceOnUse" x1="492.1159" y1="335.4891" x2="486.6859" y2="239.1391" gradientTransform="matrix(1 0 0 -1 0 390.29)">
	<stop  offset="0" style="stop-color:#000000;stop-opacity:0"/>
	<stop  offset="0.97" style="stop-color:#000000"/>
</linearGradient>
<path class="st39" d="M457.2,61.5c0-0.6,65.3,23,65.3,23l1.5,17.9l-66.7-24.1L457.2,61.5z"/>
<path class="st10" d="M453.8,64c0-0.6,63.7,21.8,63.7,21.8l1.5,20.5l-66.6-24.1L452.2,64L453.8,64z"/>
<linearGradient id="SVGID_32_" gradientUnits="userSpaceOnUse" x1="510.795" y1="332.9167" x2="425.8449" y2="236.9268" gradientTransform="matrix(1 0 0 -1 0 390.29)">
	<stop  offset="0" style="stop-color:#000000;stop-opacity:0"/>
	<stop  offset="0.97" style="stop-color:#000000"/>
</linearGradient>
<path class="st40" d="M452.2,65.4c0-0.6,65.3,23,65.3,23l1.5,17.9l-66.6-24.1L452.2,65.4z"/>
<rect x="511.6" y="27.1" class="st10" width="17.7" height="262.6"/>
<linearGradient id="SVGID_33_" gradientUnits="userSpaceOnUse" x1="530.0197" y1="297.8976" x2="482.4597" y2="296.1476" gradientTransform="matrix(1 0 0 -1 0 456)">
	<stop  offset="0" style="stop-color:#000000;stop-opacity:0"/>
	<stop  offset="0.97" style="stop-color:#000000"/>
</linearGradient>
<rect x="513.6" y="27.1" class="st41" width="17.7" height="262.6"/>
<rect x="518.7" y="27.1" class="st10" width="2.5" height="262.6"/>
<rect x="256.5" class="st10" width="17.7" height="260.2"/>
<linearGradient id="SVGID_34_" gradientUnits="userSpaceOnUse" x1="274.8899" y1="326.1624" x2="227.4799" y2="324.4124" gradientTransform="matrix(1 0 0 -1 0 456)">
	<stop  offset="0" style="stop-color:#000000;stop-opacity:0"/>
	<stop  offset="0.97" style="stop-color:#000000"/>
</linearGradient>
<rect x="258.5" class="st42" width="17.7" height="260.2"/>
<rect x="267.4" y="58.8" class="st10" width="175.9" height="16.6"/>
<linearGradient id="SVGID_35_" gradientUnits="userSpaceOnUse" x1="355.335" y1="408.35" x2="355.335" y2="355.96" gradientTransform="matrix(1 0 0 -1 0 456)">
	<stop  offset="0" style="stop-color:#000000;stop-opacity:0"/>
	<stop  offset="0.97" style="stop-color:#000000"/>
</linearGradient>
<rect x="267.4" y="58.8" class="st43" width="175.9" height="16.6"/>
<rect x="269.7" y="63.1" class="st10" width="175.9" height="16.6"/>
<linearGradient id="SVGID_36_" gradientUnits="userSpaceOnUse" x1="355.335" y1="407.83" x2="355.335" y2="348.16" gradientTransform="matrix(1 0 0 -1 0 456)">
	<stop  offset="0" style="stop-color:#000000;stop-opacity:0"/>
	<stop  offset="0.97" style="stop-color:#000000"/>
</linearGradient>
<rect x="267.4" y="60.8" class="st44" width="175.9" height="18.9"/>
<polygon class="st10" points="327.4,82.9 274.2,63.1 274.2,67.4 327.4,87.2 "/>
<linearGradient id="SVGID_37_" gradientUnits="userSpaceOnUse" x1="302.024" y1="388.191" x2="296.654" y2="356.201" gradientTransform="matrix(1 0 0 -1 0 456)">
	<stop  offset="0" style="stop-color:#000000;stop-opacity:0"/>
	<stop  offset="0.97" style="stop-color:#000000"/>
</linearGradient>
<polygon class="st45" points="327.4,82.9 274.2,63.1 274.2,67.4 327.4,87.2 "/>
<rect x="274.2" y="63.1" class="st10" width="166.8" height="1.7"/>
<rect x="274.2" y="57.6" class="st10" width="166.8" height="1.7"/>
<rect x="263.6" class="st10" width="10.6" height="260.2"/>
<linearGradient id="SVGID_38_" gradientUnits="userSpaceOnUse" x1="261.7899" y1="325.8053" x2="290.2699" y2="326.1253" gradientTransform="matrix(1 0 0 -1 0 456)">
	<stop  offset="0" style="stop-color:#000000;stop-opacity:0"/>
	<stop  offset="0.97" style="stop-color:#000000"/>
</linearGradient>
<rect x="263.6" class="st46" width="10.6" height="260.2"/>
<rect x="342.6" y="84.9" class="st10" width="175.9" height="16.1"/>
<linearGradient id="SVGID_39_" gradientUnits="userSpaceOnUse" x1="431.0868" y1="381.5101" x2="428.8868" y2="303.3701" gradientTransform="matrix(1 0 0 -1 0 456)">
	<stop  offset="0" style="stop-color:#000000;stop-opacity:0"/>
	<stop  offset="0.97" style="stop-color:#000000"/>
</linearGradient>
<rect x="342.6" y="87.2" class="st47" width="175.9" height="13.7"/>
<rect x="342.6" y="89.6" class="st10" width="175.9" height="18.4"/>
<linearGradient id="SVGID_40_" gradientUnits="userSpaceOnUse" x1="431.1521" y1="378.0299" x2="428.6921" y2="290.6099" gradientTransform="matrix(1 0 0 -1 0 456)">
	<stop  offset="0" style="stop-color:#000000;stop-opacity:0"/>
	<stop  offset="0.97" style="stop-color:#000000"/>
</linearGradient>
<rect x="342.6" y="91.9" class="st48" width="175.9" height="15.9"/>
<rect x="263.6" class="st10" width="2.5" height="260.2"/>
<rect x="327.4" y="26.9" class="st10" width="17.7" height="262.6"/>
<linearGradient id="SVGID_41_" gradientUnits="userSpaceOnUse" x1="345.7901" y1="298.1373" x2="298.2301" y2="296.3873" gradientTransform="matrix(1 0 0 -1 0 456)">
	<stop  offset="0" style="stop-color:#000000;stop-opacity:0"/>
	<stop  offset="0.97" style="stop-color:#000000"/>
</linearGradient>
<rect x="329.4" y="26.9" class="st49" width="17.7" height="262.6"/>
<rect x="334.4" y="26.9" class="st10" width="2.5" height="262.6"/>
<polygon class="st10" points="266.1,64.4 327.4,87.2 327.4,107.9 266.1,81.2 "/>
<linearGradient id="SVGID_42_" gradientUnits="userSpaceOnUse" x1="299.2323" y1="386.4397" x2="290.9423" y2="327.6097" gradientTransform="matrix(1 0 0 -1 0 456)">
	<stop  offset="0" style="stop-color:#000000;stop-opacity:0"/>
	<stop  offset="0.97" style="stop-color:#000000"/>
</linearGradient>
<polygon class="st50" points="266.1,67.1 327.4,89.9 327.4,107.9 266.1,81.2 "/>
<polygon class="st10" points="274.2,63.1 327.4,82.9 327.4,85.3 274.2,65.6 "/>
<linearGradient id="SVGID_43_" gradientUnits="userSpaceOnUse" x1="173.31" y1="175.7219" x2="184.39" y2="175.7219" gradientTransform="matrix(1 0 0 -1 0 390.29)">
	<stop  offset="0" style="stop-color:#ECC4D7"/>
	<stop  offset="0.42" style="stop-color:#EFD4D1"/>
	<stop  offset="1" style="stop-color:#F2EAC9"/>
</linearGradient>
<path class="st51" d="M174.9,211.7c-0.5,0.6-0.9,1.4-1.2,2.2c-0.3,0.6-0.4,1.3-0.4,1.9c0,0.7,0.5,1.3,1.1,1.5c0.2,0.1,0.4,0,0.5,0
	c0.1-0.1,0.2-0.2,0.2-0.3c0.5-1,1-2.1,1.4-3.2c-0.8,1-1,2.5-0.4,3.7c0.2,0.4,0.6,0.8,1,0.7s0.6-0.5,0.7-0.9c0.3-0.9,0.5-1.9,0.6-2.8
	c-0.1,0.6-0.2,1.2-0.3,1.8c0,0.3,0,0.6,0.1,0.9c0.1,0.3,0.4,0.5,0.8,0.5c0.3-0.1,0.5-0.3,0.6-0.5c0.7-0.9,1.3-1.9,1.8-3
	c-0.2,1-0.2,2,0.1,3c0,0.1,0.1,0.3,0.3,0.4c0.4,0.3,1-0.1,1.2-0.6c0.5-0.8,0.9-1.7,1.2-2.7c0.2-0.5,0.2-1,0.1-1.6
	c-0.1-0.5-0.5-1-1-1.1c-0.5-0.1-1.1,0.2-1.2,0.7c0.1-0.7-0.7-1.2-1.3-1.1c-0.7,0.1-1.3,0.5-1.6,1.1c-0.1-0.6-0.6-1.2-1.2-1.2
	C176.7,210.9,175.9,210.7,174.9,211.7z"/>
<linearGradient id="SVGID_44_" gradientUnits="userSpaceOnUse" x1="165.3252" y1="154.4902" x2="169.5952" y2="68.1803" gradientTransform="matrix(1 0 0 -1 0 390.29)">
	<stop  offset="0" style="stop-color:#000000;stop-opacity:0"/>
	<stop  offset="0.49" style="stop-color:#000000;stop-opacity:0.49"/>
	<stop  offset="0.97" style="stop-color:#000000"/>
</linearGradient>
<path class="st52" d="M186.1,240.9c-1,6.8-3.8,13.5-8.9,18s-12.8,6.5-19.1,3.8c-6.6-2.8-10.4-9.7-13.6-16c0,0,0.4-5.7,4.5-2.3
	s10.2,23.9,22.8,11.9s12.6-24.7,12.6-24.7l2.1-0.1C186.7,234.7,186.5,237.8,186.1,240.9z"/>
</svg>
