<?xml version="1.0" encoding="utf-8"?>
<!-- Generator: Adobe Illustrator 25.0.0, SVG Export Plug-In . SVG Version: 6.00 Build 0)  -->
<svg version="1.1" id="Layer_1" xmlns="http://www.w3.org/2000/svg" xmlns:xlink="http://www.w3.org/1999/xlink" x="0px" y="0px"
	 viewBox="0 0 396 294" style="enable-background:new 0 0 396 294;" xml:space="preserve">
<style type="text/css">
	.st0{opacity:0.18;fill:#8FBFEB;enable-background:new    ;}
	.st1{fill:url(#SVGID_1_);}
	.st2{fill:url(#SVGID_2_);}
	.st3{fill:url(#SVGID_3_);}
	.st4{fill:url(#SVGID_4_);}
	.st5{fill:#FDB9A9;}
	.st6{fill:#8FBFEB;}
	.st7{fill:#FFFFFF;}
	.st8{fill:#2F3554;}
	.st9{opacity:0.1;fill:#020202;enable-background:new    ;}
	.st10{fill:#EFAC88;}
	.st11{fill:#8B2F0C;}
	.st12{fill:url(#SVGID_5_);}
	.st13{fill:#FDC099;}
	.st14{fill:#8A3C1F;}
	.st15{fill:#7BDBA0;}
	.st16{fill:#A67C52;}
	.st17{fill:#262836;}
	.st18{fill:url(#SVGID_6_);}
	.st19{fill:#DD8049;}
	.st20{fill:#DE9F93;}
</style>
<path class="st0" d="M241.3,10.9c16.6,8.6,30.3,21.6,43.2,35.3c17.5,18.6,39.7,31.6,60,46.7c23,17.1,45.1,39,50.3,67.2
	c2.2,12,1.1,24.4-1.5,36.4c-3,14-8.5,27.4-16.2,39.5c-15.8,24.5-41.2,42.1-69,50.8s-57.9,9-86.4,3.3c-14.9-3-29.7-7.5-44.9-7.9
	c-11.5-0.3-23,1.8-34.4,3.3c-35.1,4.7-72.4,3.5-103.5-13.5c-19.4-10.7-36.3-29-38.6-51.1c-2.6-25.3,13.7-47.1,30.3-64.3
	c13.5-14,25.2-29.6,35-46.4c4.3-7.4,8.8-13.2,11.4-21.6c2.5-8,4.1-16.3,7.1-24.2c3.4-9,8.7-17.1,15.4-23.9
	c10.9-11,25.2-18,39.2-24.8c8.2-4,16.4-7.9,25.1-10.8c20-6.5,41.4-6.8,61.5-0.7C230.8,6,236.1,8.2,241.3,10.9z"/>
<linearGradient id="SVGID_1_" gradientUnits="userSpaceOnUse" x1="152.4383" y1="2467.47" x2="152.4383" y2="2556.4399" gradientTransform="matrix(1 0 0 1 -10.55 -2258.99)">
	<stop  offset="1.000000e-02" style="stop-color:#000000"/>
	<stop  offset="8.000000e-02" style="stop-color:#000000;stop-opacity:0.69"/>
	<stop  offset="0.21" style="stop-color:#000000;stop-opacity:0.32"/>
	<stop  offset="1" style="stop-color:#000000;stop-opacity:0"/>
</linearGradient>
<path class="st1" d="M197.7,258.1c1.5,0.4,3,1.1,4.2,2.1c3.2,3,1.6,8.7-1.9,11.4s-8.1,3-12.5,3.4c-14.4,1.2-28.8,3.3-43.1,6.1
	c-13.9,2.7-27.9,6.2-42.1,5.7c-5-0.2-17.3-0.4-20.9-4.5c-4.6-5.2,5.3-11.3,9.4-14.1c17-11.8,36.9-9.1,56.6-12.1
	C164.1,253.4,181.4,252.8,197.7,258.1z"/>
<linearGradient id="SVGID_2_" gradientUnits="userSpaceOnUse" x1="294.0316" y1="2461.6099" x2="303.6017" y2="2539.3198" gradientTransform="matrix(1 0 0 1 -10.55 -2258.99)">
	<stop  offset="1.000000e-02" style="stop-color:#000000"/>
	<stop  offset="8.000000e-02" style="stop-color:#000000;stop-opacity:0.69"/>
	<stop  offset="0.21" style="stop-color:#000000;stop-opacity:0.32"/>
	<stop  offset="1" style="stop-color:#000000;stop-opacity:0"/>
</linearGradient>
<path class="st2" d="M268,229.6c-2.3,0.7-4.7,1.9-5.9,4c-0.6,1.2-1.1,2.5-1.4,3.8c-1.7,4.7-5.3,8.4-10,10c-1.3,0.5-2.8,0.8-3.6,2
	c-0.8,1.3-0.8,2.9,0.1,4.1c0.9,1.2,2,2.1,3.4,2.7c4.9,2.3,10.5,2.3,15.8,1.2s10.3-3,15.4-4.7c6.6-2.1,13.5-3.5,20.4-4.4
	c5.5-0.6,11-0.9,16.3-2.5s10.3-5.1,12.3-10.2c-6.5-6.7-17-7.5-26.3-6.8C292.5,229.8,279.6,226,268,229.6z"/>
<linearGradient id="SVGID_3_" gradientUnits="userSpaceOnUse" x1="62.2268" y1="2451.9604" x2="71.7969" y2="2529.6704" gradientTransform="matrix(1 0 0 1 -10.55 -2258.99)">
	<stop  offset="1.000000e-02" style="stop-color:#000000"/>
	<stop  offset="8.000000e-02" style="stop-color:#000000;stop-opacity:0.69"/>
	<stop  offset="0.21" style="stop-color:#000000;stop-opacity:0.32"/>
	<stop  offset="1" style="stop-color:#000000;stop-opacity:0"/>
</linearGradient>
<path class="st3" d="M36.2,220c-2.3,0.7-4.7,1.9-5.9,4c-0.6,1.2-1.1,2.5-1.5,3.8c-1.7,4.7-5.3,8.4-10,10c-1.3,0.5-2.8,0.8-3.6,2
	c-0.8,1.3-0.8,2.9,0.1,4.1c0.9,1.2,2,2.1,3.4,2.7c4.9,2.3,10.5,2.3,15.8,1.2s10.3-3,15.4-4.7c6.6-2.1,13.5-3.5,20.4-4.4
	c5.5-0.6,11-0.9,16.3-2.5s10.3-5.1,12.3-10.2c-6.5-6.7-17-7.5-26.3-6.8C60.6,220.2,47.8,216.3,36.2,220z"/>
<linearGradient id="SVGID_4_" gradientUnits="userSpaceOnUse" x1="-1587.6062" y1="480.8197" x2="-1600.1663" y2="311.2297" gradientTransform="matrix(1 0 0 -1 1760.12 617.54)">
	<stop  offset="1.000000e-02" style="stop-color:#000000"/>
	<stop  offset="8.000000e-02" style="stop-color:#000000;stop-opacity:0.69"/>
	<stop  offset="0.21" style="stop-color:#000000;stop-opacity:0.32"/>
	<stop  offset="1" style="stop-color:#000000;stop-opacity:0"/>
</linearGradient>
<path class="st4" d="M132.8,206.6c-6.1,1.1-12.4,2.3-17.6,5.6c-1.8,1.1-3.6,2.7-3.8,4.8c-0.3,2.3,1.5,4.5,3.6,5.5
	c2.2,0.8,4.6,1.2,6.9,1l27.5,0.2l20.3,0.1c2.5,0,5.3-0.4,7.7,0c4.4,0.7,8.3,2.9,13,3.1c6.1,0.3,12.2-0.8,18.1-2
	c3.7-0.7,7.5-1.5,10.8-3.5c1.3-0.8,2.6-2,2.5-3.5c-0.1-0.9-0.6-1.8-1.3-2.4c-4.6-4.8-12.2-4.4-18.7-5.9c-6.9-1.6-13.1-5.6-20.1-6.7
	c-3.2-0.4-6.4-0.5-9.7-0.4c-5.8,0.1-11.6-0.6-17.3,0.3C147.3,204,140.1,205.3,132.8,206.6z"/>
<path class="st5" d="M170,197.1c-5.1-1.2-4.1,6.1-5.5,8.8c-0.8,1.4-1.9,2.6-3.2,3.6c-1.3,1-2.1,2.5-2.3,4.1c0,0.3,0,0.6,0.2,0.9
	c0.2,0.3,0.6,0.5,1,0.6c2.9,0.9,6.1,0.5,8.8-0.9c1.3-0.6,2.3-1.6,3-2.8c0.6-1.3,0.8-2.7,0.8-4.1C172.9,204.3,174.3,198,170,197.1z"
	/>
<path class="st6" d="M165.4,212c0,0-14.6,0.6-8.4,5.2s15.4-1.1,16.3-2.2s0.2-2.8,0.2-2.8L165.4,212z"/>
<path class="st7" d="M172.7,214c-1.3,1.6-8.1,3.7-11.2,3.5s-5.8-1.6-5.5-3.6s5.6-6.5,6.7-6.5s1.8,2.3,3.8,2.8
	c1.8,0.3,3.7-0.4,4.9-1.8c0.4-0.5,1.1-0.7,1.7-0.4C174,210,173.9,212.2,172.7,214z"/>
<path class="st5" d="M187.6,199.9c-5.1-1.2-4.1,6.1-5.5,8.8c-0.8,1.4-1.9,2.6-3.2,3.6c-1.3,1-2.1,2.5-2.3,4.1c0,0.3,0,0.6,0.2,0.9
	c0.2,0.3,0.6,0.5,1,0.6c2.9,0.8,6.1,0.5,8.8-0.9c1.3-0.6,2.3-1.6,3-2.8c0.6-1.3,0.8-2.7,0.8-4.1
	C190.5,207.1,191.8,200.8,187.6,199.9z"/>
<path class="st6" d="M183.1,214.8c0,0-14.6,0.6-8.4,5.2s15.4-1.1,16.3-2.2s0.2-2.8,0.2-2.8L183.1,214.8z"/>
<path class="st7" d="M190.3,216.8c-1.3,1.6-8.1,3.7-11.2,3.5s-5.8-1.6-5.5-3.6s5.6-6.5,6.7-6.5s1.8,2.3,3.8,2.8
	c1.8,0.3,3.7-0.4,4.9-1.8c0.4-0.5,1.1-0.7,1.6-0.4C191.6,212.8,191.4,215,190.3,216.8z"/>
<path class="st8" d="M174.4,133.9l6.9,72l9.9-1.2c3.9-17.6,2.9-70.2,2.9-70.2L174.4,133.9z"/>
<path class="st8" d="M181.2,131.9l-6.9,72l-9.9-1.2c-5.6-45.6-1-74-1-74L181.2,131.9z"/>
<path class="st7" d="M164.4,105.9c-0.1-1.3-0.5-2.6-0.6-4c-0.3-2.7-0.3-5.5,0.1-8.2c0.5-2.9,1.3-5.7,2.6-8.3
	c1.1-2.3,3.2-3.3,5.5-4.4c1.9-1,4-1.8,6.2-2.1c1.5-0.1,3.1-0.1,4.6,0.3c4.6,0.9,10.8,3.3,14,7c2.4,2.8,2.7,6.7,2.7,10.4
	c0.1,5,0,10.1-0.3,15.1c0,0.7-0.1,1.5-0.1,2.2c-0.4,5.5-0.9,11.2-2.4,16.6c-0.5,1.7-1,3.4-2.6,4.3c-3.6,2.1-9.2,1-13.1,0.4
	c-5.2-0.7-10.6-1.5-15.2-4c-1-0.4-1.7-1.2-2.2-2.1c-0.4-1.1,0.1-2.4,0.4-3.5c1.6-5.1,0.4-10.6,0.4-15.8c0-0.9,0.1-1.9,0.1-2.9
	C164.4,106.3,164.4,106.1,164.4,105.9z"/>
<path class="st9" d="M177,85.5c0.5-1,1.1-1.9,1.8-2.8c0.1-0.1,0.2-0.2,0.3-0.3c0.1,0,0.2,0,0.4,0l4.5,0.7c0.2,0,0.4,0.1,0.6,0.2
	c0.1,0.1,0.2,0.3,0.3,0.5c0.3,1.1,0.1,2.2-0.4,3.2c-1.3,2.5-2.8,4.9-4.6,7.1c-1,1.3-1.9,2.8-2.6,4.3c-0.3,0.8-0.4,1.6-0.8,2.4
	s-1,0.4-1.6,0.2l-6.9-1.4l-3.4-0.7c-0.5-0.1-0.9-0.1-0.6-0.7c0.2-0.4,0.5-0.6,0.9-0.7c0.5-0.1,1.1-0.2,1.6-0.3
	c1.1-0.3,2.2-0.8,3.1-1.5c0.7-0.5,1.4-1,2.1-1.6C174.3,91.9,175.4,88.5,177,85.5z"/>
<path class="st7" d="M169.5,81.1c0.5-0.6,1.1-1.1,1.8-1.4c1.6-0.6,3.3,0.8,4.9,1.2c1.3,0.3,2.8,0.1,3.6,1.2c0.5,0.9,0.5,2,0,2.9
	c-1.4,4.5-3.1,8.9-5.2,13.2c-0.8,1.7-1.9,3.2-2.8,4.9c-1,1.8-1.2,3.7-2.6,5.3s-4,2.8-6.1,1.9c-1-0.5-1.9-1.2-2.6-2.2
	c-2.6-3.8-0.8-7.8,0.6-11.6C162.3,93.9,169,81.7,169.5,81.1z"/>
<path class="st9" d="M192,135.1c-1.8,0.3-3.8,1.6-5.6,1.2c-2-1-4.2-1.5-6.4-1.7c-3-0.4-6.1-1.7-9-2.6c-1.2-0.3-2.3-0.9-3.3-1.7
	c-1.8-1.8-1.2-4.7-0.9-7.2c0.5-3.7,0.4-7.4-0.2-11c-0.3-1.7-0.7-3.4-1.3-5c-0.6-1.3-1.4-2.1-1.2-3.6c0.2-1.3,1.1-2.9,2.6-3
	c0.8,0,1.5,0.3,2.2,0.7c1.9,1,3.9,1.7,6,2.1c5.2,0.6,10.3-1.8,13.1-6.2c1.4-2.2,2.7-12.1,6.6-10.8c2.5,1.1,4.4,3.2,5.2,5.8
	c0.7,2.6,1.1,5.3,0.9,8c-0.1,7-1.5,14.1-2.4,21.1c-0.4,2.6-0.8,12.4-4.2,13.3C193.4,134.7,192.7,135,192,135.1z"/>
<path class="st5" d="M167.2,96.2c-1.3-0.8-2.9-0.9-4.3-0.3c-1.4,0.7-2.3,2.1-2.3,3.6c0.1,1,0.4,2,1,2.9c0.3,0.6,0.8,1,1.3,1.4
	c0.8,0.5,1.8,0.7,2.7,0.6c0.9,0,1.7-0.3,2.4-0.7c1.1-0.6,2.6-2.4,2.2-3.8C169.6,98.4,168.6,97.1,167.2,96.2z"/>
<path class="st7" d="M198.1,87.5c4.2,7,5.7,15.2,7.1,23.3c0.2,1,0.3,2,0.1,3c-0.5,1.8-2,3.2-3.8,3.6c-1.8,0.4-3.7,0.5-5.5,0.3
	c-3.9-0.3-8.6-0.6-11.9-2.9c-1.1-0.8-2.2-1.8-3.3-2.5c-1.1-0.7-2.3-1.3-3.6-1.8c-2.3-1.1-4.6-2.4-6.6-3.9c-0.7-0.4-1.3-1.1-1.7-1.8
	c-0.7-1.4-0.1-3,0.4-4.4c0.1-0.4,0.3-0.7,0.6-0.9c0.4-0.2,0.9-0.2,1.3,0c5.6,1.7,11.4,3,17.2,3.8c1.6,0.3,0.9-1.5,0.7-2.4
	c-0.3-1.3-0.6-2.6-0.8-3.9c-0.4-3.8,1.1-7.6,4-10.1c0.7-0.7,1.7-1.1,2.7-1.3C196.1,85.9,197.3,86.5,198.1,87.5z"/>
<path class="st5" d="M176.7,71.2c-0.2-0.7-0.3-1.4-0.3-2.1c-0.3-3-0.6-6.1,0.8-8.7c1.9-3.4,6.2-4.6,9.5-2.7c1.1,0.6,2.1,1.6,2.7,2.7
	c0.9,1.6,1.2,3.4,1.1,5.3c-0.2,1.8-0.5,3.6-1,5.4c-0.5,1.9-1.7,3-2.4,4.7c-0.2,0.7-0.4,1.5-0.3,2.3c0.1,1.2,0.1,2.3,0,3.5
	c-1.1,0.7-2.4,1.2-3.8,1.4c-0.6,0-1.3-0.1-1.9-0.3c-0.3-0.1-0.6-0.3-0.8-0.6c-0.1-0.2-0.1-0.5-0.1-0.8c0-0.3,0.1-0.5,0.1-0.7
	c0.1-1.2,0.1-2.5-0.1-3.8c-0.4-1-1.1-1.8-1.9-2.4C177.5,73.4,176.9,72.3,176.7,71.2z"/>
<path class="st9" d="M177.4,72.5c1.4-0.2,2.7-0.4,4-0.8c0.4-0.1,1-0.2,1.3,0.1c0.2,0.2,0.3,0.4,0.3,0.6c0.2,0.4,0.2,0.9,0.2,1.4
	c-0.1,0.4-0.2,0.8-0.3,1.2c-0.1,0.4-0.1,0.8,0.1,1.2c0.3,0.4,1,0.6,1.1,1.1s-0.2,0.7-0.4,1.1c-0.1,0.4-0.2,0.9-0.3,1.4
	c0,0.5-0.1,1.1-0.2,1.6c-0.2,0.5-0.7,0.9-1.2,1.1c-0.6,0.1-1.2,0-1.6-0.3c-0.6-0.6-0.9-1.4-1-2.3l-0.5-2.7c-0.2-0.9-0.4-1.9-0.7-2.8
	c-0.3-0.6-0.7-1.2-1.1-1.8L177.4,72.5z"/>
<path class="st8" d="M92.3,124.1c0,0,0.6,2.5-5.3,4.4s-8.2-4.4-8.2-4.4S90.1,119.7,92.3,124.1z"/>
<path class="st10" d="M61.7,187.5l0.7-2.6l1.8-6.8c0.1-0.3,0.2-0.6,0.4-0.9c0.3-0.2,1.1,2.4,1.5,2.3c2-0.1,3.9,0,5.9,0.4
	c0.5,0.1-1.6,29.5-1.8,32.3c-0.4,6.6-0.1,19.6,0.9,19.6c-1.9,0.2-5.9,0.4-6.7-0.5c-1.5-1.5,1.1-11.2-1.7-22.5
	c-0.7-2.8-1.1-5.6-1.1-8.5C61.4,196.2,60.7,191.6,61.7,187.5z"/>
<path class="st10" d="M75.5,220.2c0.2-0.4,0.4-0.8,0.5-1.2c0.5-1.5,0.1-3,0.2-4.5c0.1-0.8,0.1-1.6,0-2.4c-0.2-2-0.4-4-0.7-6
	c-0.4-3.4-1.2-6.9-1.2-10.3c0-2.6,2.1-10.9,2.1-10.9l-2.1-10.8h10.8c0,0,1.4,9,1,10c-0.8,2-1.2,4.2-1.4,6.4c0,3.9-0.5,7.8-0.8,11.6
	c-0.3,4.2-0.7,8.4-1,12.7c-0.1,1.5-0.3,3-0.4,4.5c-0.1,2.2,0.3,4.5,1.2,6.5c0.3,0.9,0.7,2.1,0.1,2.8s-2.1,0.5-3,0
	c-1.3-0.9-2.7-1.7-4.2-2.3c-0.6-0.1-1.1-0.4-1.6-0.7c-1-0.8-1-2.3-0.5-3.5C74.8,221.6,75.1,220.9,75.5,220.2z"/>
<path class="st8" d="M82.4,94.2c0,0-1.2-3.2,1.6,0s7.2,22.3,7.2,22.3s-6.2,5.7-8,4.6S82.4,94.2,82.4,94.2z"/>
<path class="st11" d="M79.8,63.8c3.5,1.4,4.3,6.6,4.1,9.9c-0.3,4.1-3.7,8.2-2.6,12.3c0.8,2.1,1.1,4.3,1.1,6.6
	c-0.2,2.2-1.6,4.5-3.8,5c-0.5,0.1-1,0.2-1.5,0.4c-0.6,0.4-1.1,1.1-1.4,1.8c-2,4.1-5.6,7.2-9.9,8.7c-4.3,1.3-9.4,0.3-12.5-3
	s-3.5-8.9-0.6-12.4c0.8-1,2-1.9,2-3.2c0-0.6-0.1-1.2-0.3-1.8c-0.3-2.3,0.8-4.5,2.9-5.5c1.6-0.8,3.7-0.7,4.9-2c1.4-1.4,1.1-3.8,1-5.8
	C62.6,64.3,70.6,60.1,79.8,63.8z"/>
<path class="st6" d="M57,151.7c-0.8,8.2,0.6,16.6,2.1,24.8c0.3,1.9,0.8,4,2.2,5.3c1.1,0.9,2.5,1.5,3.9,1.7
	c9.3,2.2,19.1,1.1,27.8-2.9l-2.2-20.4c-0.6-5.4-1.2-11-3.2-16.1c-0.4-0.9-6-10.4-4.7-11.2c-2.7,1.6-5.8,1.4-8.8,2.1
	c-3.6,0.8-7.1,2.2-10.3,4c-3.4,1.5-5.7,4.7-6.1,8.3C57.4,148.8,57.2,150.2,57,151.7z"/>
<linearGradient id="SVGID_5_" gradientUnits="userSpaceOnUse" x1="51.8198" y1="2420.4775" x2="103.0598" y2="2416.8176" gradientTransform="matrix(1 0 0 1 -10.55 -2258.99)">
	<stop  offset="1.000000e-02" style="stop-color:#000000"/>
	<stop  offset="8.000000e-02" style="stop-color:#000000;stop-opacity:0.69"/>
	<stop  offset="0.21" style="stop-color:#000000;stop-opacity:0.32"/>
	<stop  offset="1" style="stop-color:#000000;stop-opacity:0"/>
</linearGradient>
<path class="st12" d="M57,151.7c-0.8,8.2,0.6,16.6,2.1,24.8c0.3,1.9,0.8,4,2.2,5.3c1.1,0.9,2.5,1.5,3.9,1.7
	c9.3,2.2,19.1,1.1,27.8-2.9l-2.2-20.4c-0.6-5.4-1.2-11-3.2-16.1c-0.4-0.9-6-10.4-4.7-11.2c-2.7,1.6-5.8,1.4-8.8,2.1
	c-3.6,0.8-7.1,2.2-10.3,4c-3.4,1.5-5.7,4.7-6.1,8.3C57.4,148.8,57.2,150.2,57,151.7z"/>
<path class="st10" d="M79.6,85.5c0,0-2.7,3.4-2.7,5.6c0,1.4-0.2,2.8-0.6,4.1c0,0-0.4,2.5-1.8,1.5s-6.3-7.6-6.3-7.6l5.4-7.2
	L79.6,85.5z"/>
<path class="st8" d="M87.9,146.3c0,0-1.1-12.3-3.1-17.2c-0.6-1.8-0.7-3.7-0.4-5.5c0.4-4.3,1.7-8.5,2.4-12.8c0.2-1.9,0.1-3.9-0.4-5.7
	c-0.7-3.7-1.6-7.4-2.6-11.1c-0.1-0.5-0.3-0.9-0.6-1.3c-0.3-0.3-0.7-0.5-1.2-0.7l-5.3-2c0.6,1.7,1.1,3.6,0.3,5.3
	c-0.2,0.5-0.5,0.9-1,1.1c-1,0.4-2-0.3-2.8-1c-1.2-1.2-2.1-2.6-2.7-4.2c-0.3-0.8-0.5-1.7-0.6-2.6c-0.1-0.6,0.1-1.5-0.4-1.9
	c-0.8,1.3-2.3,2-3.5,2.9s-2.7,2-4.2,3c-1.2,0.7-2.2,1.6-2.8,2.9c-0.3,1-0.3,2.1,0,3.1c0.3,1.1,0.6,2.3,0.8,3.4
	c0.2,1.5,0.3,2.9,0.4,4.4c0.2,2.2,0.6,4.4,1.2,6.5c0.2,1.3,0.3,2.6,0.4,3.9c0,0,2,7.4,1.6,9.3s-4.1,8.9-4.3,11.9s1.2,9.6,1.2,9.6
	s3.5,0.2,7.3,0.4c4.5,0.2,12.7-1.7,13.3-2.4c0.8-0.8,1.2-6.5,1.2-10.3c1.8,5.9,3.3,10.9,3.3,10.9H87.9z"/>
<path class="st13" d="M61.3,153.8c0.8,0.2,1,0.9,1.6,1.7c0.7,1.2,1.4,2.4,2.1,3.6c0.2,0.2,0.2,0.5,0,0.6c-0.1,0.1-0.2,0.1-0.3,0.1
	c-0.6,0.2-1.3,0.3-2,0.2c-0.3,1.6,0,3.2,0.7,4.7c0.2,0.4,0.3,0.8,0.1,1.1c-0.1,0.1-0.3,0.2-0.4,0.2c-1.4,0.1-2.9-0.3-4.1-1
	c-0.7-0.3-1.4-0.7-1.9-1.3c-0.8-0.9-1.3-2-1.6-3.1c0-0.7,0.1-1.4,0.2-2.1c0-0.3,0.3-4.6,0.4-4.6l4.6-0.2
	C60.9,153.7,61.1,153.7,61.3,153.8z"/>
<polygon class="st7" points="61.3,152.1 61.7,153.9 55.3,155.1 55.3,152.9 "/>
<path class="st8" d="M61.4,127.5c0,0,5.1-12.3,4.4-16.7S62.1,96.3,60,96.4s-2.9,3-2.9,5.7s-4.4,27.1-4.7,29.3s2.5,23,2.5,23l7.3-1.6
	L61.4,127.5z"/>
<path class="st13" d="M81,67.3c0.1,0.1,0.2,0.2,0.3,0.3c0.5,0.9,0.9,1.9,1,2.9c1.4,5,3.3,9.8,0.6,14.7c-0.2,0.4-0.5,0.8-0.8,1.1
	c-0.4,0.2-0.8,0.4-1.2,0.5c-2,0.4-4.1,0.1-5.9-0.9c-1-0.5-2-1-3-1.6c-0.4-0.3-0.8-0.7-1-1.1c-0.2-0.5-0.6-0.9-0.4-1.5
	c0.1-0.4,0.3-0.7,0.4-1.1c0.1-0.6,0-1.2-0.3-1.8c-0.1-0.2-0.2-0.5-0.1-0.8c0.2-0.4,0.8-0.4,1.2-0.5c0.8-0.3,1.4-0.9,1.6-1.6
	c0.4-0.9,0.8-1.8,1-2.8c0.1-0.8,0.4-1.7,0.7-2.4c0.7-1.1,1.6-1.9,2.8-2.5C78.6,67.6,80.1,66.7,81,67.3z"/>
<path class="st14" d="M83.2,74.6l0.4-0.4c0,0,0.1,0.3,0.3,0.3c0.1,0,0.3-0.1,0.4-0.2c0,0-0.3,0.4-0.4,0.4
	C83.7,74.7,83.5,74.7,83.2,74.6L83.2,74.6z"/>
<path class="st14" d="M83.6,74.2l0.2-0.3c0,0,0.2,0.1,0.3,0.1c0.1-0.1,0.1-0.1,0.2-0.2c0,0-0.1,0.3-0.2,0.3
	C83.9,74.1,83.8,74.2,83.6,74.2L83.6,74.2z"/>
<polygon class="st15" points="105.6,106.6 86.9,106.6 70.8,126.8 88.5,126.1 "/>
<path class="st10" d="M94.4,123.2c0-0.2,0.1-0.4,0.1-0.6c0.2-1.3,0.2-2.5-0.1-3.8c-0.3-1.3-1.1-2.3-2.2-3.1c-0.1,0-0.2-0.1-0.3-0.1
	c-0.3,0-0.5,0.2-0.6,0.5c0,0.3,0.1,0.6,0.2,0.8c0.3,0.8,0.6,1.7,0.7,2.6l-0.9-1.1c-0.3-0.4-0.6-0.6-1-0.8c-0.4-0.2-0.9,0-1.1,0.5
	c0,0.2,0,0.5,0.1,0.7l0.9,2.6c-0.4-0.8-1.1-1.5-1.9-1.9c-0.3,0.5-0.3,1.1,0,1.5c0.3,0.5,0.6,0.9,0.8,1.5c-0.2-0.2-0.4-0.5-0.6-0.8
	c-0.2-0.3-0.6-0.4-0.8-0.2s-0.2,0.5-0.1,0.8c0.6,1.9,0.8,3.9,0.7,5.9l1.1-0.3c0.9-0.3,1.7-0.7,2.5-1.3
	C93.3,125.9,94.2,124.6,94.4,123.2z"/>
<path class="st16" d="M211.2,121.5c0.3-0.3,0.9-0.5,1.2-0.2c0.2,0.2,0.3,0.6,0.3,0.9v1.8c3.1-0.9,5.4-3.4,7.6-5.6
	c0.5-0.5,1.2-1,1.7-0.7c0.4,0.3,0.6,0.9,0.5,1.4c-0.2,0.5-0.3,1-0.4,1.5c0,0.8,0.6,1.5,0.7,2.3c0.1,1-0.6,1.9-0.7,2.9v1
	c-0.2,0.6-0.4,1.2-0.9,1.6c-1,1.5-2.3,2.8-3.9,3.7c-1.1,0.5-2.2,0.8-3.4,0.9l-3.6,0.6c-0.4,0.1-0.7,0.1-1.1,0
	c-1.1-0.4-1.4-2.1-1.4-3.1c0.2-0.9,0.5-1.8,1-2.6C209.6,125.8,209.4,123,211.2,121.5z"/>
<path class="st16" d="M103.8,110.5c-0.2-0.4-0.7-0.7-1.1-0.6c-0.3,0.2-0.5,0.4-0.5,0.8l-0.6,1.7c-2.6-1.8-4.1-4.8-5.6-7.6
	c-0.3-0.6-0.8-1.3-1.5-1.1c-0.5,0.2-0.8,0.7-0.8,1.2c0,0.5,0,1-0.1,1.5c-0.2,0.8-1,1.3-1.3,2c-0.4,0.9,0,2-0.2,3
	c-0.1,0.3-0.2,0.6-0.3,1c0,0.6,0.1,1.3,0.3,1.8c0.5,1.8,1.4,3.4,2.6,4.7c0.9,0.8,1.9,1.4,2.9,1.9l3.3,1.7c0.3,0.2,0.6,0.3,1,0.3
	c1.2,0,2-1.6,2.3-2.6c0.1-0.9,0.1-1.8-0.2-2.7C104,115.1,105,112.5,103.8,110.5z"/>
<path class="st17" d="M135,273.2c0,0.1,0,0.2,0.1,0.2c0.4,1.2,1.9,1.5,3.1,1.7c1.2,0.1,2.3,0.2,3.5,0.2c0.6,0,1.1-0.1,1.6-0.2
	c0.5-0.2,1-0.5,1.4-0.8l3.3-2.5c0.9-0.6,1.8-1.4,2.6-2.3c0.8-0.9,1.1-2,1.1-3.1c-0.1-1.2-0.9-2.2-2-2.5c-0.7-0.1-1.4,0-2.1,0.1
	c-1.4,0.1-3.4-0.5-4-2c-0.2-0.6-0.5-1.2-1-1.6c-0.5-0.2-1-0.3-1.6-0.2c-1.2,0-2.3,0.3-3.4,0.7c-1.1,0.4-2,1.3-2.4,2.4
	c-0.1,0.5-0.2,1-0.1,1.6c0.1,1.1,0.1,2.2,0,3.3c-0.2,1.4-0.2,2.7-0.2,4.1C134.9,272.5,134.9,272.8,135,273.2z"/>
<path class="st17" d="M167.4,273.6c-2.3,1-4.6,1.9-6.9,2.6c-0.9,0.4-2,0.5-3,0.2c-0.8-0.4-1.4-1.1-1.6-2c-0.2-0.8-0.3-1.7-0.3-2.6
	c0-1.5,0.6-2.6,0.8-4c0.2-1.2,0.4-2.4,0.6-3.6c0.2-1.7,0.5-3.4,0.7-5.2l6,1.3c0.6,0.1,1.2,2.6,1.6,3.1c0.6,0.8,1.5,1.2,2.4,1.3
	c1,0,2.1-0.4,3.1-0.3c1.4,0.3,2.3,1.5,2.4,2.9c0,1.4-0.6,2.7-1.6,3.6c-1,0.9-2.2,1.6-3.4,2.2L167.4,273.6z"/>
<path class="st6" d="M167.5,266.9c-1.6,0.9-3.2,1.7-4.9,2.4l-0.2,0.1c-2.8,1.1-5.9-3.3-5.9-3.3s-3.9-24.3-3.8-34.3
	c0.1-6.9-1.5-16.8-4-34.6c-0.6,18.3-3.7,26.3-2.9,32.8c1.2,10-0.2,34.7-0.2,34.7s-2.6,4.8-5.5,4.2H140c-1.7-0.4-3.4-0.9-5.1-1.6
	c0,0-3.4-34-3.4-43s0.4-17,0.4-17l-1.8-28.4l7.5-10.9l0.6-0.3l0.6-0.6l8.3-6.1c0,0,0,1.4-0.1,3.9l6.4,3.5l0.6,0.5l0.6,0.2l10.8,1.9
	c0,0,2.8,43.6,3.8,52.5S167.5,266.9,167.5,266.9z"/>
<linearGradient id="SVGID_6_" gradientUnits="userSpaceOnUse" x1="120.0492" y1="2420.9905" x2="215.7793" y2="2555.0205" gradientTransform="matrix(1 0 0 1 -10.55 -2258.99)">
	<stop  offset="1.000000e-02" style="stop-color:#000000"/>
	<stop  offset="8.000000e-02" style="stop-color:#000000;stop-opacity:0.69"/>
	<stop  offset="0.21" style="stop-color:#000000;stop-opacity:0.32"/>
	<stop  offset="1" style="stop-color:#000000;stop-opacity:0"/>
</linearGradient>
<path class="st18" d="M167.5,266.9c-1.6,0.9-3.2,1.7-4.9,2.4l-0.2,0.1c-2.8,1.1-5.9-3.3-5.9-3.3s-3.9-24.3-3.8-34.3
	c0.1-6.9-1.5-16.8-4-34.6c-0.6,18.3-3.7,26.3-2.9,32.8c1.2,10-0.2,34.7-0.2,34.7s-2.6,4.8-5.5,4.2H140c-1.7-0.4-3.4-0.9-5.1-1.6
	c0,0-3.4-34-3.4-43s0.4-17,0.4-17l-1.8-28.4l7.5-10.9l0.6-0.3l0.6-0.6l8.3-6.1c0,0,0,1.4-0.1,3.9l6.4,3.5l0.6,0.5l0.6,0.2l10.8,1.9
	c0,0,2.8,43.6,3.8,52.5S167.5,266.9,167.5,266.9z"/>
<path class="st16" d="M158.5,94.9c0.7,0.7,1.7,1.4,1.4,2.3c-0.1,0.5-0.7,0.8-1,1.1c-1,1-1.5,2.3-1.5,3.8c0,1.4-0.2,2.7-0.6,4
	c-0.5,1.3-1.8,2.1-3.2,1.9c-0.8-0.2-1.6-0.9-2.3-0.6c-0.6,0.3-0.8,1-1.1,1.5c-0.9,1.3-2.4,2-4,1.8c-1.5-0.2-3-0.7-4.4-1.5
	c-0.6-0.2-1.1-0.6-1.4-1.1c-0.2-0.5-0.3-1-0.2-1.6c0.3-1.6,1.4-2.9,2.3-4.3c1.7-2.5,2.6-5.4,2.9-8.4c0.2-2.1,0-4.4,1.4-6
	c1.8-2.2,6.3-2.2,8.5-0.6C157.9,88.9,156.4,92.7,158.5,94.9z"/>
<path class="st8" d="M155.8,85.4c-0.3,0.5-0.7,1-1.2,1.3c-1,0.6-1.9,1.3-2.8,1.9c-0.9,0.6-1.6,1.6-1.8,2.6c-0.4,2,0.7,4.1,0,6
	c-0.2,0.4-0.9,0.1-1.1-0.2s-0.4-0.9-0.8-1.1c-0.7-0.4-1.5,0.3-1.8,1c-0.6,1.7,0.2,3.6,1.9,4.3c-0.1,0.6-0.9,0.9-1.5,0.8
	c-0.6-0.2-1.3-0.3-1.9-0.2c-1.4,0.3-2,2.3-3.4,2.5c-1-0.1-1.9-0.6-2.5-1.4l-1.7-2c-0.3-0.4-0.6-0.7-0.9-1c-0.4-0.3-1-0.3-1.4-0.7
	s0-1.2-0.4-1.7c-0.2-0.2-0.4-0.3-0.6-0.4c-1-0.5-1.6-1.7-1.3-2.8c0-0.1,0-0.3,0-0.4c-0.1-0.2-0.3-0.3-0.5-0.4
	c-1.1-0.7-1.5-2.1-1-3.3c0.3-0.7,0.7-1.3,1.2-1.8c0.4-0.6,1.1-0.9,1.7-0.8l0.3-2.5c0-0.5,0.1-1,0.4-1.5c0.6-1,1.9-1.3,3-1.4
	l-0.5-2.1c-0.1-0.3-0.1-0.6,0-0.8c0.2-0.2,0.4-0.3,0.6-0.4c0.7-0.2,1.4-0.3,2.1-0.3c-0.3-0.6-0.5-1.2-0.6-1.8c0-0.1,0-0.2,0-0.4
	c0.1-0.2,0.4-0.4,0.6-0.3c0.3,0,0.5,0,0.8,0c0,0-0.4-1.7-0.4-1.9c-0.1-0.6,0-1.1,0.3-1.6c0.4-0.5,1.1-0.7,1.7-0.6
	c0.6,0.1,1.2,0.3,1.8,0.6c-0.1-0.7,0.8-1,1.5-1.1c2.6-0.2,5.1,1.1,6.6,3.2c0.1,0.2,0.3,0.4,0.4,0.5c0.3,0.2,0.6,0.3,1,0.4
	c1.1,0.5,1.9,1.4,2.2,2.6c0.3,1.1,0.4,2.3,0.4,3.5c0,0.9-0.1,1.8-0.3,2.7C156.1,84.8,156,85.1,155.8,85.4z"/>
<path class="st7" d="M146.3,107c1.6,0.7,3.1,1.4,4.6,2.3c0.5,0.2,0.9,0.6,1.2,1c0.3,0.5,0.4,1.1,0.2,1.6c-0.4,0.7-1.4,0.4-2.1,0.2
	c-3.4-1.3-7-1.5-10.5-1.4c-0.5,0.1-1-0.1-1.3-0.5c-0.2-0.5-0.1-1,0.1-1.4C140.4,105.1,143.4,105.7,146.3,107z"/>
<path class="st7" d="M211.7,135.2c-0.7,1.7-1.7,3.3-3,4.6c-1.2,1.4-2.5,2.7-3.8,4c-3.1,3-6.4,5.9-9.9,8.5c-2.5,1.9-5.1,3.8-8.2,4.4
	c-1.2,0.3-2.5,0.2-3.7-0.2c-1-0.5-1.9-1.2-2.6-2c-0.9-0.9-11.1-12.6-11.3-12.6c-0.6,0.3-1,0.8-1.3,1.4c-1.5,3-2.4,6.3-2.7,9.7
	c-0.1,1.5-0.1,3,0,4.5c0.4,5.1,2.2,10.4,0.4,15.3c-0.3,1-0.9,2-1.7,2.7c-0.8,0.7-1.6,1.2-2.5,1.5c-1.6,0.7-3.4,1.2-5.1,1.5
	c-1,0.2-2,0.3-3,0.3c-3.7,0.1-7.4-0.6-11.2-0.4c-3.2,0.2-6.3,1-9.5,0.9c-1.2,0.1-2.4-0.3-3.2-1.2c-0.4-0.6-0.6-1.2-0.6-1.8
	c-1.2-6.8-1.9-13.7-1.9-20.6c0-3.2-0.5-14.9-1.6-17c-0.1-0.3-0.3-0.4-0.4-0.4c-3.6,1-11.2,3-14.8,3.6c-0.5,0.1-1.1,0.2-1.6,0.1
	c-0.5-0.1-1.1-0.4-1.5-0.8c-4.5-3.3-7-8.2-8.6-13.4c-0.3-1-0.6-2-0.8-3c-0.6-1.1-0.1-2.5,1-3.1c0,0,0,0,0,0c0.1,0,0.1-0.1,0.2-0.1
	l6.7-4.3l5,6.4c1,1.2,2.1,2.6,3.7,2.8c2.2,0.2,3.8-1.8,5.2-3.4c4.3-5.5,9.9-9.8,16.3-12.7c0.9-0.4,1.9-0.8,2.9-1l0.3-0.1
	c0.1,0,0.3-0.1,0.4-0.1c1.3-0.1,2.6,0,3.9,0.2c8.5,1.4,16.9,3.4,25.2,5.8c2,0.3,3.8,1.5,4.7,3.3c2.3,3.5,4.6,7.1,6.9,10.6
	c2,3,4,6.8,7,9c6.5-2.6,12.6-6.1,18.2-10.3c0.8-0.6,1.8-1.2,2.7-0.8c0.3,0.1,0.6,0.3,0.8,0.6C210.8,129.8,212.8,131.9,211.7,135.2z"
	/>
<path class="st7" d="M260.2,111.6c-0.9,0.8-2,1.3-3.1,1.5c-1.1,0-2.1-0.1-3.1-0.5l-14.9-5c-2.3,1.8-2.9,5.1-1.2,7.6
	c1.3,1.8,3.4,2.6,5.5,3.3l10.2,3.7c2,0.8,4.1,1.4,6.3,1.6c3,0.2,5.9-0.8,8.8-1.7c3-1,6.4-2.3,7.9-5.1s0.4-6.6,0.8-10
	c0.3-2.2,1.3-4.3,1.2-6.5c0-1.9-1.5-4.7-3.8-4.3c-1.9,0.3-3.2,3.7-4.2,5.1C267.6,105.2,264.2,108.7,260.2,111.6z"/>
<path class="st5" d="M237.3,106.8c-0.2-0.4-0.4-0.8-0.7-1.1c-0.3-0.3-0.8-0.4-1.2-0.3c-0.4,0.2-0.6,0.7-0.6,1.2c0,0.2,0,0.3-0.1,0.4
	c-0.1,0.1-0.3,0.1-0.5,0.1c-1.7-0.3-3.4-0.6-5.1-0.8c-0.1,0-0.3,0-0.4,0c-0.6,0.2-0.9,0.8-0.7,1.4c0.2,0.6,0.5,1.1,0.8,1.6
	c0.9,1.4,1.2,3.3,2.6,4.3c0.9,0.5,1.8,0.7,2.8,0.6c1-0.1,1.9-0.2,2.9-0.2c0.7,0.1,1.3,0.1,1.9-0.2c0.5-0.3,0.7-0.9,0.7-1.5
	c-0.1-0.9-0.4-1.7-0.9-2.5C238.3,108.9,237.8,107.8,237.3,106.8z"/>
<path class="st5" d="M278.8,218.8c-5.7-1.3-4.6,6.8-6.1,9.8c-0.9,1.5-2.1,2.9-3.5,4c-1.3,1.3-2.5,2.8-2.6,4.6c0,0.3,0,0.7,0.2,1
	c0.3,0.3,0.7,0.6,1.1,0.7c3.3,0.9,6.8,0.6,9.8-1c1.4-0.7,2.6-1.8,3.4-3.1c0.6-1.5,0.9-3,0.9-4.6
	C282.1,226.9,283.6,219.9,278.8,218.8z"/>
<path class="st6" d="M273.8,235.5c0,0-16.2,0.7-9.4,5.8s17.1-1.3,18.1-2.4s0.2-3.1,0.2-3.1L273.8,235.5z"/>
<path class="st7" d="M281.8,237.7c-1.5,1.8-9.1,4.1-12.4,3.9s-6.4-1.8-6.1-4s6.3-7.3,7.4-7.2s2,2.6,4.3,3.1c2.1,0.3,4.1-0.4,5.5-2
	c0.4-0.6,1.2-0.8,1.8-0.5C283.1,232.2,283.3,235.9,281.8,237.7z"/>
<path class="st5" d="M298.4,222c-5.7-1.3-4.6,6.8-6.1,9.8c-0.9,1.5-2.1,2.9-3.5,4c-1.3,1.3-2.5,2.8-2.6,4.6c0,0.3,0,0.7,0.2,1
	c0.3,0.4,0.7,0.6,1.1,0.7c3.3,0.9,6.8,0.6,9.8-1c1.4-0.7,2.6-1.8,3.4-3.1c0.6-1.5,0.9-3,0.9-4.6C301.6,230,303.1,223,298.4,222z"/>
<path class="st6" d="M293.3,238.6c0,0-16.2,0.7-9.4,5.8s17.1-1.2,18.1-2.4s0.2-3.2,0.2-3.2L293.3,238.6z"/>
<path class="st7" d="M301.4,240.8c-1.5,1.8-9.1,4.1-12.4,3.9s-6.4-1.8-6.1-4s6.3-7.3,7.4-7.3s2,2.6,4.3,3.1c2.1,0.3,4.1-0.4,5.5-2
	c0.4-0.6,1.2-0.8,1.8-0.5C302.7,235.3,302.8,239,301.4,240.8z"/>
<path class="st8" d="M283.7,148.4l7.6,80.2l11-1.4c4.3-19.6,3.3-78.1,3.3-78.1L283.7,148.4z"/>
<path class="st8" d="M291.3,146.3l-7.6,80.2l-11-1.4c-6.3-50.7-1.1-82.3-1.1-82.3L291.3,146.3z"/>
<path class="st7" d="M272.5,117.3c-0.1-1.5-0.5-2.9-0.7-4.4c-0.4-3-0.3-6.1,0.2-9.1c0.5-3.2,1.5-6.3,2.9-9.3
	c1.3-2.5,3.6-3.6,6.1-4.9c2.2-1.2,4.5-2,6.9-2.4c1.7-0.2,3.4-0.1,5.1,0.3c5.2,1,12,3.7,15.5,7.7c2.7,3.1,3,7.5,3.1,11.5
	c0.1,5.6,0,11.2-0.4,16.8c0,0.8-0.1,1.6-0.2,2.4c-0.5,6.1-1,12.5-2.7,18.4c-0.5,1.9-1.1,3.7-2.9,4.7c-4,2.4-10.3,1.1-14.6,0.4
	c-5.8-0.8-11.8-1.7-16.9-4.5c-1.1-0.5-1.9-1.3-2.5-2.4c-0.5-1.3,0.1-2.6,0.5-3.9c1.7-5.7,0.4-11.8,0.4-17.6c0-1.1,0.1-2.1,0.1-3.2
	C272.6,117.8,272.5,117.5,272.5,117.3z"/>
<path class="st9" d="M288.8,144.2c0-0.6,0.1-1.2,0.4-1.8c0.7-0.8,1.9-0.6,2.9-0.4l6.5,1.6c2.5,0.6,6.3,3,6.9,5.5
	c2.5-1.8,3.2-4.7,3.6-7.8s0.5-8.9,1-12c-3.2,2.3-7,3.6-10.9,3.7c-3.7,0.1-8.4,0-9.7-4c-1.5-4.7-2.1-9.6-3.1-14.4
	c0-0.4-0.3-0.7-0.7-0.7c-0.1,0-0.1,0-0.2,0l-14.1,0.1c-0.2,0-0.4,0-0.6,0.1c-0.4,0.3-0.4,0.8-0.3,1.3c0.5,3.2,2.1,6.1,4.5,8.3
	c1.1,1,1.9,1.7,2.1,3.1c0.3,1.8,0.2,3.6,0.4,5.4c0.3,3.8,1.1,7.5,2.5,11C281.9,148.4,288.4,152.4,288.8,144.2z"/>
<polygon class="st15" points="284.9,148.3 263.9,148.3 261.3,115.6 282.3,115.6 "/>
<path class="st5" d="M283.7,79.2c0-1.5,0.1-3.1,0.3-4.6c0.1-1.3,0.4-2.7,0.6-4c0-0.8,0.4-1.5,1-2c2.1-1.3,4.4-1.9,6.9-1.9
	c3-0.5,5.8,1.6,6.3,4.6c0,0.3,0.1,0.6,0.1,0.9c0.4,3.4-0.5,6.7-1,10.1c-0.4,2.6-0.5,5.2-0.4,7.8c-1.3,0.8-2.7,1.4-4.2,1.5
	c-0.7,0-1.4-0.1-2.1-0.4c-0.4-0.1-0.7-0.3-0.9-0.6c-0.1-0.3-0.1-0.6-0.1-0.9c0-0.3,0.1-0.5,0.1-0.8l0,0c0.1-1.5,0.1-3.1-0.1-4.6
	c0-0.1,0-0.3-0.1-0.4c-0.1,0-0.2,0-0.3,0h-0.4c-0.8,0.1-1.5,0.1-2.3,0c-0.9-0.1-1.8-0.5-2.4-1.2C283.8,81.7,283.5,80.5,283.7,79.2z"
	/>
<path class="st19" d="M286.8,69.3c-0.5,0.2-1.1,0.2-1.7,0c-0.6-0.3-1-0.7-1.3-1.3c-1.3-2-0.8-4.6,1.2-5.9c1.5-1,3.3-1.4,5-1.1
	c0.5-0.3,1-0.5,1.5-0.6c2.1-0.6,4.2-0.8,6.4-0.4c1.2,0.4,2.3,0.9,3.3,1.7c1,0.6,1.8,1.5,2.4,2.5c0.6,1.3,1,2.6,1.1,4
	c0.3,1.5,0.5,3,0.5,4.5c0,0.7-0.1,1.3-0.4,1.9c-0.3,0.7-0.7,1.3-1.3,1.8c-0.8,0.8-1.7,1.5-2.7,2c-0.7,0.4-1.5,0.8-1.7,1.5
	c-0.1,0.3-0.1,0.7-0.1,1.1c0,0.5-0.3,1-0.6,1.4c-0.2,0.3-0.6,0.9-1,1s-0.6-0.3-0.8-0.7c-0.4-1.5-0.3-3.1,0.3-4.6
	c0.4-0.7,0.7-1.5,0.8-2.3c-0.1-0.8-1.2-1.5-1.7-1c-0.5,0.5-0.6,1.7-1.3,1.4c0.8-2.3-0.2-5.3-2.5-6.2c-1.2-0.4-2.5-0.5-3.7-0.5
	C288.1,69.4,287.5,69.4,286.8,69.3L286.8,69.3z"/>
<path class="st20" d="M289.2,83.9c1.8-0.3,3.5-0.9,5.2-1.5c0.1,5.4-4.3,6.5-4.3,6.5l0,0c0.1-1.5,0.1-3.1-0.1-4.6
	c0-0.1,0-0.3-0.1-0.4c-0.1,0-0.2,0-0.3,0L289.2,83.9L289.2,83.9z"/>
<path class="st7" d="M315.2,114.5l2.5,10.9c0.3,0.9,0.4,1.9,0.3,2.8c-0.2,1.8-1.4,3.2-2.5,4.6c-1.4,1.9-3.2,3.5-5.3,4.7
	c-1.4,0.6-2.9,1-4.5,1.2c-4.1,0.6-8.2,0.9-12.4,0.7c-0.3,0-0.7-0.1-1-0.2c-0.3-0.2-0.5-0.5-0.7-0.8c-1.4-2.2-2.7-4.5-3.7-6.9
	c3.3-2.2,6.9-3.9,10.8-5.1c0.8-0.1,1.5-0.5,2.1-1c0.4-0.5,0.6-1.1,0.8-1.7c1.6-7-2.1-14.8,0.9-21.3c1.7-3.7,5.4-7.7,8-2.7
	C313,104.2,314.1,109.5,315.2,114.5z"/>
<path class="st5" d="M285.2,131.6c-0.5-0.3-0.9-0.6-1.4-0.9c-0.5-0.3-1.1-0.2-1.6,0.1c-0.2,0.2-0.4,0.4-0.7,0.5c-0.2,0-0.4,0-0.5,0
	l-3.3-0.3c-0.5-0.1-1.1,0-1.5,0.3c-0.4,0.5-0.2,1.3,0.1,1.9c0.9,1.7,1.8,3.4,2.9,5.1c0.2,0.3,0.4,0.6,0.7,0.9
	c0.4,0.3,0.8,0.5,1.3,0.6c1.7,0.4,3.5,0.3,5.2-0.2c1.7-0.5,3.2-1.4,4.6-2.5c0.2-0.1,0.4-0.3,0.5-0.5c0.1-0.2,0.2-0.5,0.2-0.8
	c0.2-1.3-0.3-3.4-1.9-3.3C288.1,132.6,286.5,132.4,285.2,131.6z"/>
<path class="st17" d="M74.4,222.7c0.1-0.1,0.2-0.2,0.3-0.3c0.3-0.1,0.5,0.2,0.7,0.4c1.7,2,4.3,3,6.8,3.9c0.2,0,0.3,0.1,0.5,0
	s0.1-0.2,0.2-0.3c0.2-0.3,0.5-0.3,0.8-0.2c0.3,0.1,0.5,0.3,0.7,0.6c1,0.9,2.4,1.3,3.5,2.1c0.3,0.2,0.5,0.5,0.6,0.8
	c0.1,0.4,0,0.7-0.3,1c-0.3,0.3-0.6,0.5-1,0.5c-0.7,0.1-1.4,0.2-2.1,0.1c-3.5-0.3-6.9-0.6-10.3-1.1c-0.3,0-0.5-0.1-0.8-0.2
	c-0.5-0.4-0.8-1.1-0.7-1.8c0-0.9,0.1-1.8,0.3-2.7C73.7,224.5,73.9,223.5,74.4,222.7z"/>
<path class="st17" d="M64.7,228.9c0.4,0.2,0.8,0.4,1.3,0.4c0.8,0.2,1.6,0.2,2.4,0.1c0.8-0.2,1.5-0.8,1.7-1.6c0-0.2,0.2-0.6,0.4-0.5
	c0,0,0.1,0.1,0.1,0.1c0.6,1.1,0.8,2.3,0.9,3.5c0.1,0.6,0.1,1.3-0.2,1.9c-0.4,0.7-1,1.2-1.8,1.3c-0.7,0.1-1.5,0.1-2.3,0
	c-0.6-0.1-1.3-0.2-1.9-0.4c-0.3,0-0.5-0.1-0.8-0.3c-0.2-0.2-0.3-0.4-0.4-0.6c-0.5-1.2-0.7-2.5-0.5-3.8c0-0.3,0.1-0.5,0.1-0.8
	c0-0.1,0.1-0.6,0.3-0.6c0.2,0.1,0.1,0.1,0.1,0.3c0,0.1,0,0.3,0.1,0.4C64.3,228.5,64.5,228.7,64.7,228.9z"/>
<path class="st8" d="M174.9,57.7c-0.2-0.7,0-1.5,0.4-2.2c0.3-0.4,0.8-0.7,1.2-0.8c0.5-0.2,1-0.3,1.5-0.4c0.3,0,0.5-0.1,0.8-0.2
	c0.2-0.2,0.4-0.3,0.5-0.6c0.8-0.9,1.9-1.3,3.1-1.2c1.1,0,2.3,0.3,3.4,0.4s2.5-0.2,3.6,0.5c0.8,0.6,1.3,1.5,1.5,2.4
	c0.4-0.1,0.8,0,1.1,0.3c0.6,0.6,0,1.8,0.6,2.4c0.3,0.3,0.7,0.5,1,0.8c0.2,0.3,0.2,0.7,0.1,1.1c0,0.4-0.1,0.8-0.2,1.2
	c-0.3,1.1-1,2-1.3,3.1c-0.2,0.6-0.2,1.2-0.4,1.8c-0.4,1.3-1,2.5-1.9,3.5c0.6-2.6,0.6-5.3,0.2-8c0-0.3-0.1-0.5-0.4-0.6
	c-0.2,0-0.3,0-0.5,0.1c-2.7,1.1-5.6,1.2-8.3,0.3c-0.8-0.3-1.6-0.5-2.5-0.4c-0.3,0.1-0.7,0.2-1,0.4c-0.3,0.1-0.7,0.1-1.1,0
	c-0.1,0.1-0.1,0.3-0.1,0.5c-0.6-0.2-0.6-1.1-0.8-1.6C175.3,59.7,175.1,58.7,174.9,57.7z"/>
<path class="st5" d="M192.2,67.3c0.1,0.1,0.1,0.2,0.1,0.3c0.1,0.7,0,1.4-0.4,2c-0.4,0.6-0.9,1.1-1.5,1.4c-0.3,0.2-0.7,0.2-1.1,0.1
	c-0.4-0.2-0.6-0.6-0.6-1.1c-0.2-0.9,0-1.8,0.5-2.5c0.5-0.5,1.1-0.7,1.7-0.7C191.5,66.8,191.9,67,192.2,67.3z"/>
<path class="st5" d="M182.2,76.8c0.1,0.4-0.3,0.8-0.3,1.2s0,0.9,0,1.4c0,0.6-0.2,1.1-0.5,1.6c-0.4,0.4-0.9,0.7-1.4,0.8
	c-1.1,0.4-2.3,0.6-3.5,0.6c-0.5,0-1-0.1-1.5-0.2c-0.8-0.1-2.8-0.1-3-1.1c0-0.6,0.2-1.2,0.5-1.7c0.1-0.3,0.2-0.6,0.3-0.9
	s0.2-0.7,0.3-1.1c0.4-1.7,0.6-3.6,2-4.8c0.3-0.3,0.9-0.5,1.2-0.2s0.2,0.8,0.6,0.9c0.1,0,0.3,0,0.4-0.1c1.3-0.6,2.8-0.9,4.3-0.8
	c0.6,0,1.1,0.3,1.3,0.8c0.4,1-0.9,2-0.6,3C182.2,76.4,182.2,76.6,182.2,76.8z"/>
<path class="st7" d="M179.3,115.2c-0.3-0.3-0.6-0.5-0.9-0.7c0.2,3.7,0.8,7.6,3.1,10.5c0.6,0.7,1.1,1.4,1.6,2.1
	c1,1.7,1.1,3.9,2.4,5.3c1.1,1.1,2.6,1.8,4.1,2c1.3,0.5,2.8,0.4,4.1-0.2c1-0.8,1.8-1.9,2.2-3.1c0.9-2.1,2.5-5.1,1.1-7.3
	c-0.9-1.6-3.9-2.9-5.7-2.9c-2.5-0.6-4.9-1.5-7.2-2.5c-1.2-0.4-2.3-1-3.2-1.7C180.3,116.3,179.8,115.7,179.3,115.2z"/>
<path class="st9" d="M126.3,130.5c-0.7,2.3-1,4.6-0.9,7c0,0.4,0,0.7-0.1,1.1c-0.1-0.3-0.3-0.4-0.4-0.4c-3.6,1-11.2,3-14.8,3.6
	c-0.5,0.1-1.1,0.2-1.6,0.1c-0.5-0.1-1.1-0.4-1.5-0.8c-4.5-3.3-7-8.2-8.6-13.4c0.1-0.9,0.3-1.8,0.6-2.6c2.1,1.1,3.2,3.5,4.6,5.5
	c1.3,2,2.9,3.7,4.7,5.2c0.4,0.3,0.8,0.6,1.3,0.7c0.6,0.1,1.1,0.1,1.7-0.1C116.5,135.6,122.3,134.4,126.3,130.5z"/>
<path class="st9" d="M204.9,143.8c-3.1,3-6.4,5.9-9.9,8.5c-2.5,1.9-5.1,3.8-8.2,4.4c-1.2,0.3-2.5,0.2-3.7-0.2c-1-0.5-1.9-1.2-2.6-2
	c-0.9-0.9-11.1-12.6-11.3-12.6c-0.6,0.3-1,0.8-1.3,1.4c-1.5,3-2.4,6.3-2.7,9.7c-0.1,1.5-0.1,3,0,4.5c0.4,5.1,2.2,10.4,0.4,15.3
	c-0.3,1-0.9,2-1.7,2.7c-0.8,0.6-1.6,1.1-2.5,1.5c-2,0.8-4.1,1.5-6.1,2.1c-1,0.3-2.1,0.4-3.1,0.2c-0.6-0.1-2.1-1.2-2.5-1.1
	c3.1-0.4,5.7-2.6,6.7-5.6c0.7-2.3,0.4-4.8,0.4-7.2c0.1-2.8,0.4-5.6,1-8.4l2.1-11.7c0.7-4,2.2-9.7,6.3-11.5c0.8-0.4,1.7,0.2,2.5,0.8
	c4.8,3.8,9.7,7.6,13.2,12.7c1,1.4,1.9,3,3.5,3.6s3.6,0.1,5.4-0.6c2.6-1,5-2.2,7.4-3.6c1.8-1,4.2-3.3,6.4-3
	C204.6,143.7,204.8,143.8,204.9,143.8z"/>
</svg>
