<?xml version="1.0" encoding="utf-8"?>
<!-- Generator: Adobe Illustrator 25.0.0, SVG Export Plug-In . SVG Version: 6.00 Build 0)  -->
<svg version="1.1" id="Layer_1" xmlns="http://www.w3.org/2000/svg" xmlns:xlink="http://www.w3.org/1999/xlink" x="0px" y="0px"
	 viewBox="0 0 823.8 516.2" style="enable-background:new 0 0 823.8 516.2;" xml:space="preserve">
<style type="text/css">
	.st0{opacity:0.18;fill:#8FBFEB;enable-background:new    ;}
	.st1{opacity:5.000000e-02;fill:#000405;enable-background:new    ;}
	.st2{fill:#25233A;}
	.st3{opacity:0.24;fill:#FFFFFF;enable-background:new    ;}
	.st4{fill:#3F3D56;}
	.st5{fill:#8FBFEB;}
	.st6{fill:url(#SVGID_1_);}
	.st7{fill:url(#SVGID_2_);}
	.st8{fill:#FFFFFF;}
	.st9{fill:url(#SVGID_3_);}
	.st10{fill:url(#SVGID_4_);}
	.st11{fill:url(#SVGID_5_);}
	.st12{fill:url(#SVGID_6_);}
	.st13{fill:url(#SVGID_7_);}
	.st14{fill:url(#SVGID_8_);}
	.st15{fill:url(#SVGID_9_);}
	.st16{fill:url(#SVGID_10_);}
	.st17{fill:url(#SVGID_11_);}
	.st18{fill:url(#SVGID_12_);}
	.st19{fill:url(#SVGID_13_);}
	.st20{fill:url(#SVGID_14_);}
	.st21{fill:#52C27D;}
	.st22{fill:url(#SVGID_15_);}
	.st23{fill:url(#SVGID_16_);}
	.st24{opacity:0.51;fill:url(#SVGID_17_);enable-background:new    ;}
	.st25{fill:url(#SVGID_18_);}
	.st26{opacity:0.61;fill:url(#SVGID_19_);enable-background:new    ;}
	.st27{fill:url(#SVGID_20_);}
	.st28{fill:url(#SVGID_21_);}
	.st29{fill:url(#SVGID_22_);}
	.st30{fill:url(#SVGID_23_);}
	.st31{fill:url(#SVGID_24_);}
</style>
<path class="st0" d="M823.7,366.1c-0.8,16-4.9,31.6-12,45.9c-11.6,23-29.6,41.8-50.9,56.3c-11.9,8-24.6,14.8-37.9,20.2
	c-7.3,3-14.8,5.6-22.4,7.8c-46,13.5-94.5,14.1-142.4,14.7L221,515l0,0l-44.3,0.5c-14.1,0.2-28.5,0.3-42.7-0.5
	c-27.1-1.5-53.8-6.1-77.1-19.4c-12-6.9-22.5-16.2-30.9-27.3c-15.8-20.9-24.4-47.5-24.8-74.1v-2.8C1.4,365.5,9.4,340,26,320
	c1.1-1.3,2.1-2.5,3.3-3.7c2.4-2.5,4.9-5,7.6-7.5c17.2-15.5,39.9-29.4,50.2-49.4c18.1-35.2-4.5-49.5-7.4-84
	c-5-58,53.7-124.7,101.4-151.3c51.3-28.7,115.9-32.1,170-9.1c57.2,24.4,110.6,77.4,170.9,62.4c19.4-4.8,37.2-16.7,57.2-17
	c36.9-0.7,62.6,36.9,74.1,72s17.7,74.8,45.1,99.7c19.6,17.8,46.7,24.6,70.4,36.4c7.2,3.5,14,7.7,20.4,12.6
	c14,11.1,23.6,26.1,29.2,42.8C822.7,337.6,824.5,351.8,823.7,366.1z"/>
<path class="st0" d="M760.9,468.7c-18.5,12.4-38.9,21.9-60.3,28.1c-43,12.6-88.2,14-133,14.6l-9.4,0.1l-123.7,1.4l-62.8,0.7
	l-139.9,1.6l-10.6,0.1l0,0l-44.3,0.5c-14.1,0.2-28.5,0.3-42.7-0.5c-27.2-1.4-53.8-6-77.2-19.3c-12-6.9-22.4-16.2-30.7-27.3
	L760.9,468.7z"/>
<path class="st1" d="M624.6,491.1c0.3,4.2-2.7,8.2-1.8,12.3c1.2,6,8.1,5,14.2,4.5c14.9-1.2,34-3.5,48.5-7.3
	c13.5-3.5,23.2-6.8,36.1-11c1-0.3,0.7-3.2,0.7-4.2c0.1-1.4-1.8-1.9-3.2-2c-12.7-0.4-25.5,0-37.9-2.5c-5.6-1.1-11.1-2.9-16.7-3.5
	c-7-0.8-14,0.1-21-0.5c-5.1-0.4-17.4-5.9-22.1-3.7C614.3,476.8,624.2,486.1,624.6,491.1z"/>
<path class="st1" d="M330.8,494.9c14.6,4.1,26.5,12.8,39.4,19.5c-46.6,0.5-93.3,1.1-139.9,1.6c3.9-3.7,8.3-6.9,13-9.6
	c15.3-8.6,33.3-10.6,50.8-12.4C306.3,492.8,318.9,491.6,330.8,494.9z"/>
<path class="st1" d="M568.6,507.2c-0.2,1.3-0.8,2.6-1.7,3.6c-0.3,0.4-0.6,0.8-0.8,1.3l-9.4,0.1L433,513.7c2.2-1.7,4.3-3.7,6.1-6
	c2.6-3.2,4.6-6.8,7.6-9.6c8.9-8.2,22.9-6.7,34.4-3c3.5,1.1,7,2.4,10.7,2.4c6.5-0.1,12.1-4.3,18-7.2c18.5-9.2,42.9-4.3,56.4,11.4
	C567.4,503.3,568.7,505.1,568.6,507.2z"/>
<path class="st2" d="M502.6,367l-22.9,112.5l-15.4-1.8l-1.8-0.2c0,0,4.4-33.3,6.3-80.9c1.3-31.5,6.6-57.2,9.2-78.6
	c0.8-5.9,2.1-11.7,4-17.3c3.1-9.5,7.9-18.3,13.9-17.4c13.3,2,30.9,13.5,33.2,20.8C533.3,316.7,502.6,367,502.6,367z"/>
<path class="st3" d="M486.6,301c0,0-10.3,79.4-10.6,104.2s-10.5,72.4-10.5,72.4l-1.2,0.2l-1.8-0.2c0,0,4.4-33.3,6.3-80.9
	c1.3-31.5,6.6-57.2,9.2-78.6c0.8-5.9,2.1-11.7,4-17.3C483.6,300.6,485.1,300.7,486.6,301z"/>
<path class="st4" d="M555,479.3h-17v-0.1c-0.5-2.3-9-44.6-21.1-75.2c-9-22.9-13.4-69.4-15-93.2c-0.7-9-0.9-14.8-0.9-14.8
	s34.5-10.2,39-5.7s9.6,25,9.6,25s-11.8,81.1-4.3,86.6S555,479.3,555,479.3z"/>
<path class="st5" d="M286,155.2c0,0-25.1,7.8-35.3,80.3c-3.7,26.2,19.7,72.4,19.7,72.4L286,155.2z"/>
<linearGradient id="SVGID_1_" gradientUnits="userSpaceOnUse" x1="287.17" y1="2270.4302" x2="181.59" y2="2307.03" gradientTransform="matrix(1 0 0 1 0 -2042.01)">
	<stop  offset="0" style="stop-color:#000000;stop-opacity:0"/>
	<stop  offset="0.91" style="stop-color:#000000;stop-opacity:0.8"/>
	<stop  offset="1" style="stop-color:#000000"/>
</linearGradient>
<path class="st6" d="M286,155.2c0,0-25.1,7.8-35.3,80.3c-3.7,26.2,19.7,72.4,19.7,72.4L286,155.2z"/>
<path class="st2" d="M267.6,298.8c-5.4-0.9-10.4,2.8-11.3,8.1c-0.2,1.1-0.2,2.1,0,3.2c1.9,11.3,5.6,27.1,12,36
	c10.8,14.9,25.6,35.5,25.6,35.5l15.3,105l18.9-2.5L328,383.5l-21.3-78.2L267.6,298.8z"/>
<path class="st4" d="M306.6,305.3l-2.5,87.4l-40.5,94.1l-13.5-5.7l-3.9-1.7l22.4-88.2c0,0-8.7-24-15.1-41.5
	c-6.2-16.8,2.2-50.1,2.9-52.7v-0.2L306.6,305.3z"/>
<path class="st5" d="M474.1,249.4l-49.9,24.7l-9.3-11.9l0,0l-2.4-3.1l42.6-23.2c0,0,14.6-32.6,17.8-47.5c0.6-2.8,1.2-5,1.8-6.9
	c1.1-3.5,11.7-15.7,15.3-16.5s-0.5,10.2,1.9,13c2.6,3.8,3.9,8.4,3.8,13C496.2,200.4,474.1,249.4,474.1,249.4z"/>
<path class="st5" d="M540,278.3c0,0-24.8,29.8-53.4,22.7c-2-0.5-3.9-1.1-5.8-1.9c-5.1-2.2-7.4-8-5.2-13.1v-0.1
	c2.8-6.3,2.8-15.3,2.6-23.7c-0.6-19.2-5.4-40-5.8-48.6c-0.2-5.5,0.6-13.4,2.3-21.2c2.9-13.9,8-27.8,13.3-28.6
	c15.6-2.4,21,1.9,21,1.9l26.7,15.5C549,195.1,542.5,216.9,540,278.3z"/>
<polygon class="st5" points="500.8,199.9 507.6,210.9 488.7,230 484.8,233.9 505.4,164.3 505.5,157.3 508.1,160 508.1,160 
	511.5,163.5 512.8,192.3 "/>
<linearGradient id="SVGID_2_" gradientUnits="userSpaceOnUse" x1="505.8724" y1="2292.4163" x2="553.1824" y2="2322.2561" gradientTransform="matrix(1 0 0 1 0 -2042.01)">
	<stop  offset="0" style="stop-color:#000000;stop-opacity:0"/>
	<stop  offset="0.91" style="stop-color:#000000;stop-opacity:0.8"/>
	<stop  offset="1" style="stop-color:#000000"/>
</linearGradient>
<path class="st7" d="M537.5,216.3l-2.9,75.1c0,0-40.8,19.4-46.2-2.4c-4.2-16.8,6.5-36.1,6.5-36.1L537.5,216.3z"/>
<polygon class="st8" points="497.3,257.9 485,307.4 560.8,322.9 571.7,274.6 "/>
<linearGradient id="SVGID_3_" gradientUnits="userSpaceOnUse" x1="486.86" y1="47.9578" x2="508.25" y2="47.9578" gradientTransform="matrix(1 0 0 -1 -1.45 213.06)">
	<stop  offset="0" style="stop-color:#ECC4D7"/>
	<stop  offset="0.42" style="stop-color:#EFD4D1"/>
	<stop  offset="1" style="stop-color:#F2EAC9"/>
</linearGradient>
<path class="st9" d="M506,146.3c0,0.2-0.3,11.4-0.7,18.5c-0.3,5.5-2.9,9.4-6.8,13.2c-2.3,2.4-5,4.3-8.1,5.6
	c-2.2,0.8-4.7-0.3-5.5-2.5l0,0c-0.3-0.8-0.3-1.7-0.1-2.6c0.4-1.5,0.8-3.2,1.1-5c0.6-3.7,0.9-7.7-0.1-10.6c0-0.1-0.1-0.2-0.1-0.3
	c-0.6-1.5,0-3.1,1.4-4.7c1.9-2.3,5.3-4.6,8.6-6.5C499,149.5,502.5,147.8,506,146.3z"/>
<linearGradient id="SVGID_4_" gradientUnits="userSpaceOnUse" x1="499.823" y1="62.9082" x2="462.113" y2="0.1682" gradientTransform="matrix(1 0 0 -1 -1.45 213.06)">
	<stop  offset="0" style="stop-color:#ECC4D7"/>
	<stop  offset="0.42" style="stop-color:#EFD4D1"/>
	<stop  offset="1" style="stop-color:#F2EAC9"/>
</linearGradient>
<path class="st10" d="M488.1,172.8c-0.7,0.3-1.4,0.6-2.2,0.8c0.6-3.7,0.9-7.7-0.1-10.6l1.3-5l1-3.7l7.6-2.8l7.7-2.8
	C501.6,162.4,494.2,169.9,488.1,172.8z"/>
<linearGradient id="SVGID_5_" gradientUnits="userSpaceOnUse" x1="467.61" y1="77.5769" x2="512.9059" y2="77.5769" gradientTransform="matrix(1 0 0 -1 -1.45 213.06)">
	<stop  offset="0" style="stop-color:#ECC4D7"/>
	<stop  offset="0.42" style="stop-color:#EFD4D1"/>
	<stop  offset="1" style="stop-color:#F2EAC9"/>
</linearGradient>
<path class="st11" d="M486,107.2c-12.1,0.7-21.4,11.2-20.6,23.3c0,0,0,0,0,0l0,0c0,0.6,0.1,1.1,0.2,1.7c0.7,8.9,3,17.7,6.8,25.8
	c7.2,12.2,25.3,2.1,28.1-2.9s13.6-27.8,9.1-34.3C506.5,116.3,497.7,106.7,486,107.2z"/>
<path class="st4" d="M466.9,98.6l3.7,1.9c-4.5-0.1-8.8,2-11.5,5.6c-3.4,3.4-5.3,8-5.4,12.8l6.3-3c0,0-0.5,7.8,11.5,8.4
	s24.6,1,24.6,1l-4.1-5.6c0,0,7.4,3,8.7,5.7c1.2,4.4,2,8.9,2.6,13.4c0,0,3-7.7,4.2-6s-1.3,8.6-2.8,10.2s-1.3,6.1-1.4,6.5
	s7.4-5.9,7.7-8.1s7.8-24,2.9-28.6l3-0.2c-1.8-1.2-3.8-2-5.9-2.3C511.1,110.3,491.4,84.7,466.9,98.6z"/>
<linearGradient id="SVGID_6_" gradientUnits="userSpaceOnUse" x1="386.4248" y1="-67.2623" x2="409.9548" y2="-58.0923" gradientTransform="matrix(1 0 0 -1 -1.45 213.06)">
	<stop  offset="0" style="stop-color:#ECC4D7"/>
	<stop  offset="0.42" style="stop-color:#EFD4D1"/>
	<stop  offset="1" style="stop-color:#F2EAC9"/>
</linearGradient>
<path class="st12" d="M389.1,269.4c3.3-2.9,6.9-5.3,10.7-7.4c3-1.1,6.1-1.7,9.3-1.9c0,0,0.5,4.4-2,4.7s-4.6,4.1-4.6,4.1
	s16.2,6.6,18.4,6s1.8,2.6-2.3,2.4s-5.1,5.5-7.9,5.4s-7.3,1.7-11.5,1.8c-4.2-0.3-8.3-1.3-12.3-2.9L389.1,269.4z"/>
<path class="st5" d="M326.6,223L313,299.2c0,0-4.7,14.6-28.9,12.4c-8.9-0.7-17.2-4.5-23.6-10.6l0,0l-0.4-0.4l-0.3-0.3
	c-4.6-4.6-8.3-10.1-10.7-16.2c0,0,15.6-107.5,31.9-126.2c1.6-1.9,3.3-2.9,4.9-2.8c4.5,0.6,8.7,2.2,12.5,4.8
	C319.9,173.2,331.1,198.2,326.6,223z"/>
<linearGradient id="SVGID_7_" gradientUnits="userSpaceOnUse" x1="292.0911" y1="2338.3804" x2="333.7611" y2="2237.5906" gradientTransform="matrix(1 0 0 1 0 -2042.01)">
	<stop  offset="0" style="stop-color:#000000;stop-opacity:0"/>
	<stop  offset="0.91" style="stop-color:#000000;stop-opacity:0.8"/>
	<stop  offset="1" style="stop-color:#000000"/>
</linearGradient>
<path class="st13" d="M301.1,220.4l-17,91.2c0,0,26,3.6,28.9-12.4l8-46.4L301.1,220.4z"/>
<linearGradient id="SVGID_8_" gradientUnits="userSpaceOnUse" x1="315.3798" y1="78.7593" x2="327.7698" y2="74.9093" gradientTransform="matrix(1 0 0 -1 0 210.66)">
	<stop  offset="0" style="stop-color:#ECC4D7"/>
	<stop  offset="0.42" style="stop-color:#EFD4D1"/>
	<stop  offset="1" style="stop-color:#F2EAC9"/>
</linearGradient>
<path class="st14" d="M286,155.2c0,0,2.6-19.6,3.6-32.4s5.2-29.8,26.6-27.6s21.5,34.5,15.6,48.1S318,156.4,318,156.4
	s-10.7-2.3-10.3,10.5L286,155.2z"/>
<path class="st4" d="M293.9,92.5c-3.1,3-5.4,6.8-6.5,10.9c-1,3.4-1.6,6.8-1.9,10.3l2.2-2.4c-0.1,6-0.6,12-1.3,17.9
	c-0.8,5.5-1.1,11.1-1,16.7l4-0.2l5,6.1l5.5-3.7l4.2-2.1l3.7-9.1c-1.9-1.4-2.6-3.8-1.8-6c1.4-3.7,4.7-4.6,5.5-2.4
	c0.6,2.7,0.9,5.5,1,8.3l5.9-16.7c0,0,3.7-5.2,6.9-1.6c1.9,2.2,4.4,3.8,7.1,4.8l-2-5.5l5.4,1.4l-0.4-6.4l4,2.8c0,0,1.8-10.3-1.6-14.9
	S320.8,77.7,293.9,92.5z"/>
<path class="st5" d="M389.6,267.3l-2.7,14.3l-0.7,3.9l-48.8-3.6c-13.5-1.2-26.8-10.4-28.5-23.9L292,198.3c-2.5-8,2-16.5,10-19
	c2.2-0.7,4.5-0.9,6.7-0.5c6.6,1,12,5.6,14,11.9l10.6,53.4c1.3,6.4,6.2,11.5,12.5,13L389.6,267.3z"/>
<linearGradient id="SVGID_9_" gradientUnits="userSpaceOnUse" x1="414.5941" y1="-50.6717" x2="391.0742" y2="-106.1418" gradientTransform="matrix(1 0 0 -1 -1.45 213.06)">
	<stop  offset="0" style="stop-color:#ECC4D7"/>
	<stop  offset="0.42" style="stop-color:#EFD4D1"/>
	<stop  offset="1" style="stop-color:#F2EAC9"/>
</linearGradient>
<path class="st15" d="M414.9,262.2l-6.8,2.1c0,0-8.5,0.8-11.3,3.2s-1.3,3.5-1.3,3.5s9-1.3,10.9-0.6s11.4,4.5,14.4,4.5
	s3.3-0.8,3.3-0.8L414.9,262.2z"/>
<linearGradient id="SVGID_10_" gradientUnits="userSpaceOnUse" x1="403.8621" y1="-65.9206" x2="398.4421" y2="-85.6106" gradientTransform="matrix(1 0 0 -1 -1.45 213.06)">
	<stop  offset="0" style="stop-color:#ECC4D7"/>
	<stop  offset="0.42" style="stop-color:#EFD4D1"/>
	<stop  offset="1" style="stop-color:#F2EAC9"/>
</linearGradient>
<path class="st16" d="M394.4,280c1-0.9,2.4-1.3,3.7-1c0.1,0,0.3,0.1,0.4,0.2c0.1,0.2,0.1,0.5,0,0.8c-0.5,1.5-1.2,3-2.1,4.2
	c1.1-0.4,1.5-1.5,2.2-2.4c1-1.4,2.6-2.2,4.3-2.2c0.2,0,0.4,0,0.6,0.1c0.4,0.3,0.2,0.9,0,1.4c-0.4,0.8-0.8,1.7-1.3,2.5
	c1.1-1.5,2.3-2.9,3.7-4.2c0.3-0.4,0.7-0.6,1.2-0.8c0.5-0.1,1,0.1,1.2,0.5c0.1,0.3,0.1,0.6,0,0.8c-0.3,1.2-0.8,2.2-1.5,3.2
	c0.8-1.4,1.9-2.6,3.1-3.7c0.2-0.2,0.4-0.3,0.7-0.3c0.2,0.1,0.3,0.2,0.4,0.3c0.4,0.7,0,1.6-0.4,2.3c-0.8,1.3-1.8,2.7-3.4,2.9
	c-0.3,0-0.7,0.1-1,0.2c-0.2,0.1-0.5,0.3-0.6,0.4c-1.1,0.7-2.5,0.8-3.5,0.1c-1.5,0.9-3.4,0.9-4.9-0.1c-0.3-0.3-0.8-0.3-1.2-0.1
	c-1.3,0.5-2.8,0-3.7-1.1C391.4,282.9,393.4,280.9,394.4,280z"/>
<path class="st5" d="M540.9,304.9l-16.7-5.8l-0.6-0.2l12.2-39.1c0,0-16-44-18.7-57.5c-0.9-4.5-0.9-9.1-0.1-13.6
	c0.8-4.8,4.5-8.6,9.2-9.6c2.6-0.6,5.3-0.2,7.7,1c2.1,1.1,4.1,2.3,6,3.7c1.5,1.1,2.6,2.7,3.1,4.6c3,12.3,15.1,62.6,15.5,67.4
	C559,261.3,540.9,304.9,540.9,304.9z"/>
<linearGradient id="SVGID_11_" gradientUnits="userSpaceOnUse" x1="513.68" y1="-98.0265" x2="541.9078" y2="-98.0265" gradientTransform="matrix(1 0 0 -1 -1.45 213.06)">
	<stop  offset="0" style="stop-color:#ECC4D7"/>
	<stop  offset="0.42" style="stop-color:#EFD4D1"/>
	<stop  offset="1" style="stop-color:#F2EAC9"/>
</linearGradient>
<path class="st17" d="M519.3,302.4c-0.8,0.8-1.6,2.2-0.7,2.9c0.2,0.2,0.5,0.3,0.7,0.5c0.4,0.5-0.1,1.3-0.6,1.7l-4,3.9
	c-1.5,1.4-3.1,3.2-2.8,5.3c0.3,1.5,1.4,2.6,2.9,3c1.4,0.4,2.9,0.4,4.4,0c0,0.9,0.4,1.7,1.2,2c0.8,0.4,1.6,0.6,2.4,0.6
	c2.4,0.4,4.9,0.4,7.3-0.2c0.2,0.3,0.4,0.5,0.5,0.8c3.2-0.6,4.9-3.9,6-6.9s2.3-6.3,3.2-9.6c0.2-0.4,0.2-0.9,0.1-1.4
	c-0.3-0.5-0.8-0.9-1.4-1.1c-3.8-1.5-7.6-2.9-11.5-4.4C523.6,298.4,522,299.9,519.3,302.4z"/>
<polygon class="st5" points="500.8,199.9 507.6,210.9 488.7,230 484.8,233.9 505.4,164.3 505.5,157.3 508.1,160 508.1,160 
	511.5,163.5 512.8,192.3 "/>
<path class="st8" d="M485.9,173.5l-2.5,12l1.5,48.4l18.6-63.1l-8,5.1c-0.4,0.3-0.9,0.5-1.3,0.8c-2.9,1.5-6.5,0.3-7.9-2.6
	c0,0,0,0,0,0l0,0C486.1,173.8,486,173.7,485.9,173.5L485.9,173.5z"/>
<path class="st5" d="M486.1,163.8l-8.3,15.6l2.8,6.5l-4.5,9.8l8.8,38.3c0,0-2.4-46.8,1.1-60.4C485.9,173.5,487.1,167,486.1,163.8z"
	/>
<linearGradient id="SVGID_12_" gradientUnits="userSpaceOnUse" x1="499.0915" y1="2205.6699" x2="497.6915" y2="2465.55" gradientTransform="matrix(1 0 0 1 0 -2042)">
	<stop  offset="0" style="stop-color:#000000;stop-opacity:0"/>
	<stop  offset="0.91" style="stop-color:#000000;stop-opacity:0.8"/>
	<stop  offset="1" style="stop-color:#000000"/>
</linearGradient>
<polygon class="st18" points="500.8,199.9 507.6,210.9 488.7,230 484.8,233.9 505.4,164.3 505.5,157.3 508.1,160 508.1,160 
	511.5,163.5 512.8,192.3 "/>
<linearGradient id="SVGID_13_" gradientUnits="userSpaceOnUse" x1="481.3431" y1="2205.5801" x2="479.9431" y2="2465.46" gradientTransform="matrix(1 0 0 1 0 -2042.01)">
	<stop  offset="0" style="stop-color:#000000;stop-opacity:0"/>
	<stop  offset="0.91" style="stop-color:#000000;stop-opacity:0.8"/>
	<stop  offset="1" style="stop-color:#000000"/>
</linearGradient>
<path class="st19" d="M486.1,163.8l-8.3,15.6l2.8,6.5l-4.5,9.8l8.8,38.3c0,0-2.4-46.8,1.1-60.4C485.9,173.5,487.1,167,486.1,163.8z"
	/>
<polygon class="st5" points="285.3,151.9 309.9,164.1 316.5,177 281.1,157.9 "/>
<linearGradient id="SVGID_14_" gradientUnits="userSpaceOnUse" x1="300.5091" y1="2193.9199" x2="295.8091" y2="2236.5298" gradientTransform="matrix(1 0 0 1 0 -2042)">
	<stop  offset="0" style="stop-color:#000000;stop-opacity:0"/>
	<stop  offset="0.44" style="stop-color:#000000;stop-opacity:0.35"/>
	<stop  offset="0.91" style="stop-color:#000000;stop-opacity:0.8"/>
	<stop  offset="1" style="stop-color:#000000"/>
</linearGradient>
<polygon class="st20" points="285.3,151.9 309.9,164.1 316.5,177 281.1,157.9 "/>
<path class="st5" d="M219.7,321.2v195h-21.5v-88.5H4.6c-2.9-10.5-4.4-21.4-4.6-32.3v-2.8c0.2-25.9,8.2-51.5,24.8-71.4L219.7,321.2z"
	/>
<path class="st5" d="M242.6,310v11.2H24.8c1-1.3,2.1-2.5,3.3-3.7c2.4-2.5,4.9-5,7.6-7.5H242.6z"/>
<path class="st21" d="M124.2,245.7c-2.5-2.4-5.4-4.2-8-6.3c-0.9-0.8-1.9-1.8-1.7-3c0.2-1,1-1.7,2-1.9c1-0.1,2-0.1,2.9,0.2l-5.6-6.3
	c-0.5-0.6-1.1-1.4-0.7-2.1s1.4-0.6,2.2-0.3c0.7,0.5,1.4,0.7,2.3,0.8c-2-2.8-4.5-5.1-6.7-7.8s-3.8-6-3.5-9.4c0-0.5,0.2-1,0.5-1.3
	c0.6-0.6,1.7-0.4,2.6,0c5.9,2.6,10.7,7.3,13.3,13.2c-0.9-2.9-1.3-5.9-1.1-8.9c0-0.7,0.2-1.4,0.8-1.9c1-0.7,2.3,0.5,2.9,1.6
	c3.9,7.7,1.2,17,2.8,25.5c0.2-2.4,1.3-4.6,3.1-6.1c0.5,4.4,0.3,8.8-0.5,13.1c1.2,0.5,1.1,2.3,0.8,3.6c-0.4,2-0.9,4-1.5,6
	c-2.2-0.2-2.2-1.4-2.9-3.1C127.1,249.1,125.8,247.2,124.2,245.7z"/>
<path class="st21" d="M141.8,219.5c2.1-2.4,4.6-4.6,7.6-5.2c0.9,1.8,0,4-1.3,5.6s-2.9,3-3.5,4.9c2.7-3.2,6.3-5.5,10.4-6.5
	c1.4-0.5,3-0.4,4.4,0.3c0.4,0.2,0.7,0.6,0.8,1c0.2,1.1-1.2,1.8-2.3,2c-7.7,2-14.5,6.7-19.2,13.1c4.6-2.8,9.9-3.9,15.2-3.3
	c0.9,0.1,2,0.4,2.3,1.2c0.5,1.3-0.9,2.5-2.2,2.9c-5,1.7-11.3-0.1-15.3,3.3c2.2-0.2,4.4,0.4,6.1,1.7c1.4,1.1,2.4,3.3,1.2,4.5
	c-0.8,0.7-1.9,0.9-3,0.7c-2.9-0.3-6.4-0.7-8.1,1.6c-0.9,1.3-0.8,3-1.2,4.6c-0.3,1.3-1.3,3.5-2.7,2.3c-0.9-0.8-0.6-3.7-0.6-4.8
	C130.6,238.4,134.6,227.8,141.8,219.5L141.8,219.5z"/>
<linearGradient id="SVGID_15_" gradientUnits="userSpaceOnUse" x1="124.3503" y1="2273.509" x2="143.6803" y2="2279.509" gradientTransform="matrix(1 0 0 1 0 -2042.01)">
	<stop  offset="0" style="stop-color:#000000;stop-opacity:0"/>
	<stop  offset="0.91" style="stop-color:#000000;stop-opacity:0.8"/>
	<stop  offset="1" style="stop-color:#000000"/>
</linearGradient>
<path class="st22" d="M124.2,245.7c-2.5-2.4-5.4-4.2-8-6.3c-0.9-0.8-1.9-1.8-1.7-3c0.2-1,1-1.7,2-1.9c1-0.1,2-0.1,2.9,0.2l-5.6-6.3
	c-0.5-0.6-1.1-1.4-0.7-2.1s1.4-0.6,2.2-0.3c0.7,0.5,1.4,0.7,2.3,0.8c-2-2.8-4.5-5.1-6.7-7.8s-3.8-6-3.5-9.4c0-0.5,0.2-1,0.5-1.3
	c0.6-0.6,1.7-0.4,2.6,0c5.9,2.6,10.7,7.3,13.3,13.2c-0.9-2.9-1.3-5.9-1.1-8.9c0-0.7,0.2-1.4,0.8-1.9c1-0.7,2.3,0.5,2.9,1.6
	c3.9,7.7,1.2,17,2.8,25.5c0.2-2.4,1.3-4.6,3.1-6.1c0.5,4.4,0.3,8.8-0.5,13.1c1.2,0.5,1.1,2.3,0.8,3.6c-0.4,2-0.9,4-1.5,6
	c-2.2-0.2-2.2-1.4-2.9-3.1C127.1,249.1,125.8,247.2,124.2,245.7z"/>
<linearGradient id="SVGID_16_" gradientUnits="userSpaceOnUse" x1="144.69" y1="2276.3796" x2="132.12" y2="2276.5696" gradientTransform="matrix(1 0 0 1 0 -2042.01)">
	<stop  offset="0" style="stop-color:#000000;stop-opacity:0"/>
	<stop  offset="0.91" style="stop-color:#000000;stop-opacity:0.8"/>
	<stop  offset="1" style="stop-color:#000000"/>
</linearGradient>
<path class="st23" d="M141.8,219.5c2.1-2.4,4.6-4.6,7.6-5.2c0.9,1.8,0,4-1.3,5.6s-2.9,3-3.5,4.9c2.7-3.2,6.3-5.5,10.4-6.5
	c1.4-0.5,3-0.4,4.4,0.3c0.4,0.2,0.7,0.6,0.8,1c0.2,1.1-1.2,1.8-2.3,2c-7.7,2-14.5,6.7-19.2,13.1c4.6-2.8,9.9-3.9,15.2-3.3
	c0.9,0.1,2,0.4,2.3,1.2c0.5,1.3-0.9,2.5-2.2,2.9c-5,1.7-11.3-0.1-15.3,3.3c2.2-0.2,4.4,0.4,6.1,1.7c1.4,1.1,2.4,3.3,1.2,4.5
	c-0.8,0.7-1.9,0.9-3,0.7c-2.9-0.3-6.4-0.7-8.1,1.6c-0.9,1.3-0.8,3-1.2,4.6c-0.3,1.3-1.3,3.5-2.7,2.3c-0.9-0.8-0.6-3.7-0.6-4.8
	C130.6,238.4,134.6,227.8,141.8,219.5L141.8,219.5z"/>
<path class="st8" d="M143.9,309.9l-11.4,0.1h-11.3c-24.9-14.8,3.9-44.8,3.9-44.8s1.1-4.7-0.3-7.6c-0.3-0.7-0.9-1.3-1.6-1.7
	c-3.7-2.2,1.4-3.1,1.4-3.1h15.4c0,0,5.3,0.4,1.3,3.2c-3.9,2.8-1.8,9.2-1.8,9.2C170.2,299.4,143.9,309.9,143.9,309.9z"/>
<linearGradient id="SVGID_17_" gradientUnits="userSpaceOnUse" x1="152.3461" y1="251.4516" x2="85.0461" y2="202.7416" gradientTransform="matrix(1 0 0 -1 0 518)">
	<stop  offset="0" style="stop-color:#FFFFFF;stop-opacity:0"/>
	<stop  offset="1" style="stop-color:#3F3D56"/>
</linearGradient>
<path class="st24" d="M133.3,309.1c-0.3,0.3-0.5,0.6-0.8,0.9h-11.3c-24.9-14.8,3.9-44.8,3.9-44.8s1.1-4.7-0.3-7.6
	c5-0.4,7.4,6.1,6.7,10.2c-0.5,3.2-1,6.3-1.6,9.5c-0.6,3-0.8,6-0.5,9c0.6,4,2.9,7.5,4.4,11.3S135.8,305.9,133.3,309.1z"/>
<linearGradient id="SVGID_18_" gradientUnits="userSpaceOnUse" x1="110.7974" y1="2413.6611" x2="30.8274" y2="2246.4111" gradientTransform="matrix(1 0 0 1 0 -2042.01)">
	<stop  offset="0" style="stop-color:#000000;stop-opacity:0"/>
	<stop  offset="0.91" style="stop-color:#000000;stop-opacity:0.8"/>
	<stop  offset="1" style="stop-color:#000000"/>
</linearGradient>
<path class="st25" d="M219.7,321.2L107.8,353c-39.2,11.1-72,38.3-90.2,74.8h-13c-2.9-10.5-4.4-21.4-4.6-32.3v-2.8
	c0.2-25.9,8.2-51.5,24.8-71.4L219.7,321.2z"/>
<linearGradient id="SVGID_19_" gradientUnits="userSpaceOnUse" x1="-121.9111" y1="-75.8028" x2="381.9189" y2="-277.3329" gradientTransform="matrix(1 0 0 -1 0 265.99)">
	<stop  offset="0.17" style="stop-color:#00272E"/>
	<stop  offset="1" style="stop-color:#69B9EB;stop-opacity:0"/>
</linearGradient>
<rect x="198.2" y="427.8" class="st26" width="10.3" height="88.3"/>
<path class="st4" d="M822.4,367.2c-0.8,16-4.9,31.6-12,45.9c-2.6,5.2-5.6,10.3-8.9,15.1c-11.1,16.3-25.6,30-42,41.2
	c-11.9,8-24.6,14.8-37.9,20.2l-26.5-4.9l-50.8-9.4c-2.5-0.5-4.9-0.8-7.2-1c-9.4-1.1-16.7-1.6-19.4-11.1c-3.4-11.7,0-29.6,0-41.9
	c0-21.3,2.2-46.8,20.8-57.2c15.4-8.7,35-2.5,52.2-6.6c1.7-0.3,3.2-1,4.5-2c2-1.9,2.3-4.9,2.4-7.6c0.4-20.6-6.5-43.8,5.9-60.4
	c9.4-12.7,26.7-16.1,42.4-17.6c4.8-0.5,9.7-0.7,14.6-0.6c2.4,0,4.7,0.1,7.1,0.3c16.3,1.3,31.8,6.5,40.1,19.9c4.4,7.2,6,15.7,7.5,24
	c0.7,3.8,1.3,7.7,2,11.5C819.3,339,821.3,353.1,822.4,367.2z"/>
<path class="st2" d="M822.4,367.2c-0.8,16-4.9,31.6-12,45.9c-2.6,5.2-5.6,10.3-8.9,15.1c-6.1,2.6-13.4,2.6-20.2,2.7
	c-10.7,0.2-21.4,1.1-31.9,2.7c-4.7,0.7-9.7,1.7-13.4,4.8c-4.9,4-6.6,10.8-6.9,17.2s0.6,12.8-0.5,19c-0.3,2.1-1.1,4.1-2.3,5.8
	c-2.5,3.1-7,3.6-11,3.9c-6.8,0.4-13.5,0.6-20.3,0.5c-17-0.2-34-2-50.7-5.3c-2.9-0.6-6.3-1.6-7.2-4.4c-0.1-0.2-0.1-0.4-0.1-0.6
	c-0.2-1.3,0-2.7,0.4-3.9l9.2-39.2c1.2-5.3,2.5-10.7,5.3-15.4c5.6-9.4,16.4-14.1,26.4-18.4l27.1-11.4c7.4-3.1,12.4-3.5,11.8-12.2
	c-1.5-19.3-5.5-38-5.5-57.4c0-5.6,0.3-11.4,2.7-16.4s6.7-8.8,11.1-12.2c10.6-7.9,22.4-14.2,35-18.5c2.4,0,4.7,0.1,7.1,0.3
	c16.3,1.3,31.8,6.5,40.1,19.9c4.4,7.2,6,15.7,7.5,24c0.7,3.8,1.3,7.7,2,11.5c1.5,8.8,2.8,17.6,3.8,26.5
	C821.5,356.8,822,362,822.4,367.2z"/>
<path class="st4" d="M822.4,367.2c-0.8,16-4.9,31.6-12,45.9c-2.6,5.2-5.6,10.3-8.9,15.1c-6.1,2.6-13.4,2.6-20.2,2.7
	c-10.7,0.2-21.4,1.1-31.9,2.7c-4.7,0.7-9.7,1.7-13.4,4.8c0,0,6.2-34.3,31.5-45.9s53.3-40.9,53.3-40.9
	C821.5,356.8,822,362,822.4,367.2z"/>
<linearGradient id="SVGID_20_" gradientUnits="userSpaceOnUse" x1="266.13" y1="-85.46" x2="266.53" y2="-85.46" gradientTransform="matrix(1 0 0 -1 0 210.66)">
	<stop  offset="0" style="stop-color:#68E1FD"/>
	<stop  offset="1" style="stop-color:#69B9EB"/>
</linearGradient>
<path class="st27" d="M266.5,296.3c-0.1-0.1-0.3-0.3-0.4-0.4l0.1,0.1C266.3,296.1,266.4,296.2,266.5,296.3z"/>
<path class="st3" d="M255.4,280.4c0,0,1.4,16.1,5.2,20.2c-4.7-4.7-8.5-10.3-10.9-16.5c0,0,14.7-107,31.4-126.1l5,2.6L255.4,280.4z"
	/>
<path class="st3" d="M472.5,193.7l0.2,11l-14.4,36.1l-43.9,23l0,0l-2.5-3.1l43.6-23.7C455.6,237,469.2,209,472.5,193.7z"/>
<path class="st3" d="M387.8,280.3l-0.7,3.9l-49.9-3.7c-13.8-1.2-27.4-10.6-29.1-24.5l-17.2-61c-1.6-5.1-0.4-10.6,3-14.7
	c0,0,16.1,75.5,22,82.3s17.2,10.8,17.2,10.8L387.8,280.3z"/>
<path class="st3" d="M276.6,398.7l-26.9,84.8l-4-1.7l22.9-90.2c0,0-8.9-24.5-15.5-42.5c-6.3-17.2,2.3-51.2,3-53.9l3.4,3.5
	c0,0-9,40.3,2.6,59.4S276.6,398.7,276.6,398.7z"/>
<path class="st3" d="M487.3,301L487.3,301c-2-0.5-4-1.2-5.9-2c-5.2-2.2-7.6-8.2-5.4-13.4c0,0,0,0,0,0v-0.1
	c2.8-6.4,2.9-15.7,2.6-24.2c-0.6-19.6-5.6-40.9-5.9-49.8c-0.2-5.6,0.7-13.7,2.3-21.7l3.1-13.3c0,0-2.9,21.6-3.6,27.5
	s6,39.6,8.5,44.4s-1.9,33.6-1.3,40.4S487.3,301,487.3,301z"/>
<path class="st3" d="M542.9,479.5l-4.1,2c-0.5-2.4-9.2-45.6-21.5-76.9c-9.2-23.4-13.6-71-15.4-95.3l5.1,1c0,0,7.5,62.1,15.8,85.1
	S542.9,479.5,542.9,479.5z"/>
<path class="st3" d="M540.5,257.7l-13.3,42.7l-3-0.6l-0.6-0.2l12.5-40c0,0-16.3-44.9-19.1-58.8c-0.9-4.6-0.9-9.3-0.1-13.9
	c0.8-4.9,4.6-8.8,9.4-9.8c0,0-9,6.3-6.3,20.1C523.6,215.1,540.5,257.7,540.5,257.7z"/>
<polygon class="st3" points="510.1,166.1 489.4,231.9 485.4,235.9 506.5,164.7 506.5,157.6 509.2,160.3 509.2,160.3 "/>
<path class="st5" d="M248.8,480.1l-5.8,10.5l5.8,3.3l2.1-1.7l9.3,8.6c0,0,3.3,2.3,11.5,2.3s9.8-1.2,9.8-1.2s0-12-10-11.5
	s-10.7-5.1-10.7-5.1L248.8,480.1z"/>
<path class="st5" d="M312.4,486.3l-0.9,15.5h7V496l9.5,5.8l23.5-0.1c0,0,0-16-10.6-15.2s-14.8,0-14.8,0l-1.7-2.2L312.4,486.3z"/>
<path class="st5" d="M554.1,479.3l1,15.5h-7v-5.8l-9.4,5.9l-23.5,0.1c0,0,0-16,10.5-15.2s14.8,0,14.8,0l1.7-2.2L554.1,479.3z"/>
<path class="st5" d="M477.5,479.5l1,15.4h-7v-5.8L462,495l-23.5,0.1c0,0,0-16,10.5-15.2s14.8,0,14.8,0l1.6-2.2L477.5,479.5z"/>
<linearGradient id="SVGID_21_" gradientUnits="userSpaceOnUse" x1="288.4586" y1="-270.017" x2="247.7087" y2="-288.007" gradientTransform="matrix(1 0 0 -1 0 210.66)">
	<stop  offset="0" style="stop-color:#000000;stop-opacity:0"/>
	<stop  offset="0.91" style="stop-color:#000000;stop-opacity:0.8"/>
	<stop  offset="1" style="stop-color:#000000"/>
</linearGradient>
<path class="st28" d="M248.8,480.1l-5.8,10.5l5.8,3.3l2.1-1.7l9.3,8.6c0,0,3.3,2.3,11.5,2.3s9.8-1.2,9.8-1.2s0-12-10-11.5
	s-10.7-5.1-10.7-5.1L248.8,480.1z"/>
<linearGradient id="SVGID_22_" gradientUnits="userSpaceOnUse" x1="353.1041" y1="-269.2161" x2="317.494" y2="-293.076" gradientTransform="matrix(1 0 0 -1 0 210.66)">
	<stop  offset="0" style="stop-color:#000000;stop-opacity:0"/>
	<stop  offset="0.91" style="stop-color:#000000;stop-opacity:0.8"/>
	<stop  offset="1" style="stop-color:#000000"/>
</linearGradient>
<path class="st29" d="M312.4,486.3l-0.9,15.5h7V496l9.5,5.8l23.5-0.1c0,0,0-16-10.6-15.2s-14.8,0-14.8,0l-1.7-2.2L312.4,486.3z"/>
<linearGradient id="SVGID_23_" gradientUnits="userSpaceOnUse" x1="518.2586" y1="-264.0319" x2="546.8886" y2="-285.6919" gradientTransform="matrix(1 0 0 -1 0 210.66)">
	<stop  offset="0" style="stop-color:#000000;stop-opacity:0"/>
	<stop  offset="0.91" style="stop-color:#000000;stop-opacity:0.8"/>
	<stop  offset="1" style="stop-color:#000000"/>
</linearGradient>
<path class="st30" d="M554.1,479.3l1,15.5h-7v-5.8l-9.4,5.9l-23.5,0.1c0,0,0-16,10.5-15.2s14.8,0,14.8,0l1.7-2.2L554.1,479.3z"/>
<linearGradient id="SVGID_24_" gradientUnits="userSpaceOnUse" x1="430.5089" y1="-262.6822" x2="486.3089" y2="-290.9522" gradientTransform="matrix(1 0 0 -1 0 210.66)">
	<stop  offset="0" style="stop-color:#000000;stop-opacity:0"/>
	<stop  offset="0.91" style="stop-color:#000000;stop-opacity:0.8"/>
	<stop  offset="1" style="stop-color:#000000"/>
</linearGradient>
<path class="st31" d="M477.5,479.5l1,15.4h-7v-5.8L462,495l-23.5,0.1c0,0,0-16,10.5-15.2s14.8,0,14.8,0l1.6-2.2L477.5,479.5z"/>
</svg>
