<?xml version="1.0" encoding="utf-8"?>
<!-- Generator: Adobe Illustrator 25.0.0, SVG Export Plug-In . SVG Version: 6.00 Build 0)  -->
<svg version="1.1" id="_1-10" xmlns="http://www.w3.org/2000/svg" xmlns:xlink="http://www.w3.org/1999/xlink" x="0px" y="0px"
	 viewBox="0 0 400 300" style="enable-background:new 0 0 400 300;" xml:space="preserve">
<style type="text/css">
	.st0{fill:#DFF3FF;}
	.st1{fill:#D4ECFF;}
	.st2{fill:#FFFFFF;}
	.st3{fill:#DDDDDD;}
	.st4{fill:#DDDDFA;}
	.st5{fill:#6DE1FC;}
	.st6{fill:#8ACBFF;}
	.st7{fill:#AAE8FF;}
	.st8{fill:#C67445;}
	.st9{fill:#56403D;}
	.st10{fill:#EEEEEE;}
	.st11{fill:#AAE3FF;}
	.st12{fill:#52C27D;}
	.st13{fill:#FBB5AD;}
	.st14{fill:#3B8FC0;}
	.st15{fill:#DFF5FF;}
	.st16{fill:#382624;}
	.st17{fill:#E2E2E2;}
	.st18{fill:none;stroke:#56403D;stroke-linecap:round;stroke-miterlimit:10;stroke-dasharray:3.04,5.06;}
	.st19{fill:#009245;}
	.st20{fill:#5C2E2E;}
	.st21{fill:#9FFBF9;}
	.st22{fill:#BFF8FF;}
	.st23{fill:#DFFAFF;}
	.st24{fill:#326492;}
	.st25{fill:#155A93;}
	.st26{fill:#659FE4;}
	.st27{fill:#C5E9FF;}
	.st28{fill:none;stroke:#FFFFFF;stroke-miterlimit:10;}
	.st29{fill:#8FBFEB;}
	.st30{fill:#999A1C;}
</style>
<path class="st0" d="M181.4,68.4L20.2,162.2c-4.9,2.9-6.6,9.1-3.7,14c0.9,1.6,2.3,2.9,3.9,3.8l197.4,110.5
	c4.8,2.7,10.7,2.8,15.6,0.1L385,209.1c6-3.2,8.3-10.7,5-16.7c-1.1-2-2.7-3.7-4.7-4.8L181.4,68.4z"/>
<path class="st1" d="M70,133.7l-19.9,11.6c0,0,1.1,16.9,21.5,14.3l36.8-20.1"/>
<ellipse class="st2" cx="92.2" cy="131.9" rx="22.2" ry="11"/>
<path class="st2" d="M114.3,102.7v29.8c0,0-16.5,15.3-44.3,0.3v-30"/>
<path class="st2" d="M73.3,113.4c0,0-3.7-5.6-7.1-2.4s-0.4,14.5,9.7,15.6v4.5c0,0-12.8-1.7-14.5-13.2s6.5-13.2,10.6-10.1"/>
<path class="st3" d="M198.8,142.4l-19.1,9.2c-2.2,1.1-3.1,3.7-2.1,5.9c0.4,0.8,1,1.5,1.8,1.9l45.3,26.4c2,1.2,4.6,0.6,5.9-1.4
	l11-17.1"/>
<polyline class="st4" points="155.3,200.1 80,160.5 68.5,168 191.3,235.2 208.2,224.1 "/>
<path class="st1" d="M220.2,237.7l-17.9,10.6c0,0,11.8,11.3,25.4,17l16.6-10.9"/>
<polyline class="st5" points="218.5,230.1 218.5,238.4 244.4,254.4 275.4,235.5 275.4,228.3 "/>
<polyline class="st6" points="218.5,230.1 218.5,238.4 244.4,254.4 275.4,235.5 275.4,228.3 "/>
<polygon class="st7" points="275.4,228.3 249,212.6 218.5,230.1 244.8,246.1 "/>
<path class="st8" d="M250.4,234c-0.7-0.8-1.3-1.7-1.7-2.7c-0.1-0.6,1.4-3.7,1.7-3.6c1,0.5,2,1.2,2.9,1.9"/>
<path class="st9" d="M250.6,229c0.1,0.2-0.9,4.8-0.3,5c1.2,0.1,2.5,0.1,3.7,0c0.2-1.7,0.4-3.3,0.4-5"/>
<path class="st8" d="M255,223.1l-4.6,1.3c0,0.1-0.8,4.3-0.2,4.9c0.7,0.5,1.5,1,2.3,1.4c0,1.5,0.1,2.9,0.3,4.4c0.3,0.1,0.6,0.1,0.8,0
	c0.2-1.5,0.4-4.6,0.4-4.6s1.4-0.5,1.4-0.9S255,223.1,255,223.1z"/>
<path class="st8" d="M264.4,255.7c0,0-2-2.6-2.2-3.4s1.8-4.6,2.2-4.5c1.3,0.7,2.5,1.5,3.6,2.4"/>
<path class="st9" d="M264.8,249.4c0.1,0.3-1.1,6-0.4,6.3c1.5,0.1,3.1,0.1,4.6,0c0.2,0,0.5-6.3,0.5-6.3"/>
<path class="st8" d="M270.2,242.1l-5.8,1.6c0,0.1-1,5.3-0.2,6.1s2.9,1.7,2.9,1.8c0,1.8,0.1,3.6,0.3,5.4c0.3,0.1,0.7,0.1,1,0
	c0.2-1.9,0.6-5.7,0.6-5.7s1.7-0.6,1.8-1.1S270.2,242.1,270.2,242.1z"/>
<path class="st10" d="M302.9,98.1L150.3,10.2c-3.3-1.9-7.5-0.8-9.4,2.5c-0.6,1.1-0.9,2.3-0.9,3.5v91.4c0,2.1,1.1,4,2.9,5l162.7,93.9
	c1.8,1,4,0.4,5-1.3c0.3-0.6,0.5-1.2,0.5-1.9v-91.2C311,106.3,307.9,101,302.9,98.1z"/>
<path class="st2" d="M150.3,17.1l148,85.1c3.2,1.9,5.2,5.3,5.2,9v68.6c0,2.1-1.7,3.7-3.8,3.7c-0.7,0-1.3-0.2-1.9-0.5L147,96.4
	c-1.1-0.7-1.9-1.9-1.9-3.2V20.1c0-1.9,1.6-3.5,3.5-3.4C149.2,16.6,149.8,16.8,150.3,17.1z"/>
<path class="st5" d="M141.3,118.5c2.7-0.4,34.2,19.3,34.2,19.3v7.7l-12.9,7.3l-35.1-19.3v-9.1L141.3,118.5z"/>
<path class="st11" d="M141.3,118.5c2.7-0.4,34.2,19.3,34.2,19.3v7.7l-12.9,7.3l-35.1-19.3v-9.1L141.3,118.5z"/>
<path class="st3" d="M120,137.6l-40,22.8c-1.3,0.8-1.8,2.4-1,3.7c0.2,0.4,0.6,0.8,1,1L190.9,229c2.7,1.6,6.1,1.6,8.9,0l37.4-21.6
	c1.4-0.8,1.9-2.5,1.1-3.9c-0.3-0.5-0.6-0.9-1.1-1.1l-112.2-64.8C123.4,136.8,121.5,136.8,120,137.6z"/>
<path class="st5" d="M145.6,212.3c-0.2-1.1-0.9-2-1.9-2.4l-5.9-3.4l-9.1-5.3l-10.9-6.3l-11.6-6.7l-11.3-6.5l-9.8-5.7l-7.2-4.2
	l-3.8-2.2c0,0.1-0.1,0.1-0.2,0.1c-1.4-0.4-2.9,0.5-3.3,1.9c-0.1,0.4-0.1,0.9,0,1.4c0.6,1.7,1.8,3.2,3.3,4.3c4.4,3.2,9,6.1,13.8,8.7
	v-1.7c-3.2-1.8-10.2-5.7-13.1-8.7l1.4,0.8l3.8,2.2l5.8,3.4l7.2,4.2l8.1,4.7l8.5,5l8.5,4.9l7.9,4.6l6.8,4l5.2,3
	c1.6,0.9,3.3,2.2,5.2,2.6c1.4,0.1,2.6-1,2.7-2.4C145.6,212.4,145.6,212.4,145.6,212.3z"/>
<path class="st2" d="M145.6,212.3c-0.2-1.1-0.9-2-1.9-2.4l-5.9-3.4l-9.1-5.3l-10.9-6.3l-11.6-6.7l-11.3-6.5l-9.8-5.7l-7.2-4.2
	l-3.8-2.2c0,0.1-0.1,0.1-0.2,0.1c-1.4-0.4-2.9,0.5-3.3,1.9c-0.1,0.4-0.1,0.9,0,1.4c0.6,1.7,1.8,3.2,3.3,4.3c4.4,3.2,9,6.1,13.8,8.7
	v-1.7c-3.2-1.8-10.2-5.7-13.1-8.7l1.4,0.8l3.8,2.2l5.8,3.4l7.2,4.2l8.1,4.7l8.5,5l8.5,4.9l7.9,4.6l6.8,4l5.2,3
	c1.6,0.9,3.3,2.2,5.2,2.6c1.4,0.1,2.6-1,2.7-2.4C145.6,212.4,145.6,212.4,145.6,212.3z"/>
<ellipse transform="matrix(0.982 -0.1891 0.1891 0.982 -23.1756 42.6362)" class="st2" cx="211.9" cy="142.8" rx="3.2" ry="3.7"/>
<path class="st12" d="M212.4,65.4l43.1,25c0.9,0.5,1.4,1.5,1.4,2.5l-1.5,38.7c-0.1,1.6-1.4,2.8-2.9,2.7c-0.5,0-0.9-0.1-1.3-0.4
	L209.6,110c-0.9-0.5-1.4-1.4-1.4-2.4V67.8c0-1.6,1.2-2.8,2.8-2.8C211.5,65,212,65.1,212.4,65.4z"/>
<path class="st13" d="M227.9,72.2C227.9,72.1,227.9,72.1,227.9,72.2l-0.2-1.4c-1.7-0.1-2.6,0.3-4.3,0.3c-0.8,0.8-1.4,1.9-1.6,3.1
	c0,0.8,0.1,2,1.1,1.9c0.2,0.8,0.6,1.8,1.5,1.6l0.1-0.1c0.1,0.5,0.2,1,0.7,1.2s0.8-0.1,1-0.6c0.2,0.7,0.5,1.7,1.2,1.7
	c0.9,0,1-1.4,0.8-2.8C228.3,75.4,228.1,73.8,227.9,72.2z"/>
<path class="st9" d="M223.2,73.7c-0.3,0.7-0.4,1.5-0.3,2.3c0,0.3,0.4,0.3,0.4,0c0-0.8,0.1-1.5,0.3-2.2
	C223.7,73.6,223.3,73.5,223.2,73.7z"/>
<path class="st9" d="M224.6,74.5l-0.2,3.2c0,0.3,0.4,0.3,0.4,0l0.2-3.2C225,74.2,224.6,74.2,224.6,74.5z"/>
<path class="st9" d="M226,74v4.3c0,0.1,0.1,0.2,0.2,0.2s0.2-0.1,0.2-0.2V74c0-0.1-0.1-0.2-0.2-0.2S226,73.9,226,74z"/>
<path class="st13" d="M227.7,70.7c1.2,1.3,2,3,2.1,4.8l-1.8-1.1L227.7,70.7z"/>
<path class="st13" d="M244.5,79.8c0,0-1.3,0.2-1.4,0.2c-1.2,0.7-4.1,2.2-5.3,2.8c-0.7,0.3-2.5,1.1-2.1,2.2c0.2,0.6,0.8,0.7,1.6,0.5
	c-0.1,0.3,0,0.7,0.3,0.8c0.5,0.2,1,0.2,1.5-0.2c0,0.2,0.1,0.4,0.3,0.5c0.6,0.5,1.8-0.1,2.5-0.4c0,0.1,0,0.3,0,0.4
	c0,0.4,0.4,0.8,0.8,0.6c1.8-0.9,4.6-4.4,5.4-6C246.3,80.7,246.2,80.5,244.5,79.8z"/>
<path class="st9" d="M243.3,84.6c-0.5,0.6-1,1.2-1.6,1.7c-0.2,0.1,0.1,0.4,0.3,0.3c0.6-0.5,1.2-1.1,1.7-1.8
	C243.8,84.6,243.4,84.4,243.3,84.6z"/>
<path class="st9" d="M242.3,83.7c-1,0.8-2.1,1.6-3.1,2.4c-0.2,0.1,0,0.4,0.2,0.3c1.1-0.8,2.2-1.6,3.2-2.4
	C242.7,83.8,242.4,83.6,242.3,83.7z"/>
<path class="st9" d="M240.6,83.3c-1.1,0.8-2.2,1.4-3.5,2c-0.2,0.1,0,0.4,0.2,0.3c1.2-0.6,2.4-1.2,3.5-2
	C241,83.5,240.8,83.2,240.6,83.3z"/>
<path class="st13" d="M243.1,80c0,0-1.7-1.2-4.5,0.7l2.4,1.5"/>
<path class="st13" d="M280.4,146.1c-0.1-0.3-0.4-0.4-0.7-0.4c0,0,0,0,0,0c0-0.3,0-0.7,0-1c0-0.5-0.1-1.1-0.6-1.3
	c-0.3-0.1-0.6,0-0.8,0.3c-0.1-0.3-0.1-0.6-0.3-0.9c-0.1-0.2-0.3-0.4-0.5-0.4c-0.6,0-0.9,0.5-1,1c0-0.1-0.2-0.2-0.3-0.3
	c-0.1-0.1-0.2-0.1-0.3-0.1c-0.2,0-0.4,0.1-0.6,0.2c-0.2,0.2-0.3,0.4-0.3,0.6c0,0.4,0,0.8,0,1.1c0,0.5,0.1,0.9,0.1,1.4s0,0.7,0,1
	c-0.4-0.9-1.1-1.9-1.8-1.4s-0.1,1.2,0.1,1.6c0.4,0.9,0.9,1.8,1.5,2.7c-0.1,0.4-0.2,0.8-0.3,1.2c1.3,0.5,2.6,1.2,3.9,1.9
	c0.4-1.3,0.9-2.6,1.4-3.9C280.6,148.5,280.8,147.3,280.4,146.1z"/>
<path class="st9" d="M276.4,143.4c0,1.3-0.1,2.6-0.2,3.9c0,0.1,0.2,0.1,0.2,0c0.1-1.3,0.2-2.6,0.2-3.9
	C276.6,143.3,276.4,143.3,276.4,143.4z"/>
<path class="st9" d="M278.2,143.7c-0.1,1.2-0.3,2.3-0.4,3.5c0,0.1,0.1,0.2,0.2,0c0.2-1.2,0.3-2.3,0.4-3.5
	C278.4,143.6,278.2,143.6,278.2,143.7z"/>
<path class="st9" d="M279.7,145.9c-0.1,0.8-0.2,1.6-0.4,2.4c0,0.1,0.1,0.2,0.2,0c0.2-0.8,0.3-1.6,0.4-2.5
	C279.9,145.8,279.7,145.8,279.7,145.9z"/>
<path class="st13" d="M240.2,145.9c-0.1-0.3-0.2-0.5-0.4-0.8c-0.1-0.1-0.1-0.3-0.1-0.5c0.1-0.4,0.1-0.8,0.2-1.3c0-1.4-0.3-2.7-0.8-4
	c-0.2-0.7-1-1.1-1.7-0.9c-0.1,0-0.2,0.1-0.3,0.2l-0.4-0.7c-0.7-1.2-1.4-3.3-3-3.5c-0.4,0-0.8,0.3-0.8,0.7c0,0.1,0,0.2,0,0.3
	c0.3,0.8,0.6,1.6,0.9,2.3c-0.3-0.3-0.7-0.3-1,0c0,0,0,0,0,0c-0.4,0.4-0.5,1-0.3,1.4h-0.2c-0.2-0.1-0.4-0.1-0.5-0.1
	c-0.3,0-0.6,0.2-0.8,0.4c-0.2,0.3-0.3,0.7-0.2,1h-0.1c-0.3,0.1-0.5,0.4-0.6,0.7c-0.1,0.2-0.1,0.4,0,0.6c-0.1,0.8,4,4.6,4,4.6
	l2.4,2.6l4.1-1.9C240.7,147,240.2,146,240.2,145.9z"/>
<path class="st14" d="M267.7,182.7c-7.2-12.3-14-0.3-14-0.3c-2.8,3.8-5,8.1-6.5,12.6c-1.7,5.7-1.6,24-0.8,29.5
	c3,1.2,9.7,0.8,12.8-0.1v-22c0-0.1,0.2-0.2,0.3-0.2c0.1,0,0.2,0.1,0.2,0.2l0.1,43.7c5.3,0.2,10.5-0.7,15.4-2.5
	C275.4,243.5,274.5,194.3,267.7,182.7z"/>
<path class="st15" d="M240.2,144.7c-2.2,0.5-3.6,1.7-5.5,2.9c0.7,2.4,8.3,21.3,17.8,25.3l0.8-13.4C253.2,159.4,249,159,240.2,144.7z
	"/>
<path class="st15" d="M273.5,150.5c-0.6,4.7-3.3,9-7.4,11.5l1.3,12.4c5.8-3.7,11.9-17.5,12.7-21.1
	C278.4,151.5,276,150.5,273.5,150.5z"/>
<path class="st15" d="M251.4,173.6l1.3,11.1c0,0,9.1,3.4,15.9,0v-11.2"/>
<path class="st9" d="M272.8,170.4c-0.2-0.6-0.5-1.2-0.9-1.7c-0.6-0.7-1.3-1.4-2.1-2.1c-0.2-0.1-0.3-0.3-0.4-0.6
	c-0.3-0.9,0.8-2.4,0.6-3.5c-0.2-1.7-1.3-2.3-2.4-3.4c-0.6-0.6-0.9-1.3-1.1-2.1c-0.6-1.2-1.1-2.5-1.4-3.8c-0.8-2.2-2-4.6-4.3-5.4
	c-2.6-0.8-5.5-0.1-7.4,1.9c-1.6,1.8-1.3,4.3-1.5,6.6c0.1,0.2,0.2,0.4,0.2,0.7c0.3,2.2-2.6,2.3-2.9,4.1c0,0.3,0,0.7,0.1,1
	c0.2,1.3,0.8,2.4,1.6,3.4c2,2.7-2.6,4.1-2.6,6.6c0.1,1.8,1.2,3.5,2.9,4.3c3.9,2,8.5,2.5,12.7,1.4
	C267.1,177.1,273.9,174.5,272.8,170.4z M255,166.3c0-0.1,0-0.1,0-0.2h0.2L255,166.3z"/>
<polygon class="st9" points="259.3,202.4 249.1,200.1 258.8,207.6 "/>
<path class="st9" d="M235.3,140.2c-0.8-1.6-1.5-3.2-2-4.9c-0.1-0.3-0.5-0.1-0.4,0.1c0.5,1.7,1.2,3.4,2,5
	C235.1,140.6,235.4,140.4,235.3,140.2z"/>
<path class="st9" d="M233.7,141.2c-0.4-0.7-0.7-1.4-1.1-2.1c-0.1-0.3-0.5,0-0.4,0.2c0.3,0.7,0.7,1.4,1.1,2.1
	c0.1,0.1,0.2,0.1,0.3,0.1S233.8,141.3,233.7,141.2z"/>
<path class="st9" d="M232.2,142.3c-0.4-0.6-0.8-1.2-1-1.9c-0.1-0.3-0.5-0.1-0.4,0.1c0.2,0.7,0.6,1.4,1,2
	C232,142.7,232.4,142.5,232.2,142.3z"/>
<path class="st9" d="M238.6,141.1c-0.4-0.8-0.8-1.7-1.1-2.6c-0.1-0.3-0.5-0.1-0.4,0.1c0.4,0.9,0.8,1.8,1.2,2.7
	C238.3,141.5,238.7,141.3,238.6,141.1z"/>
<path class="st13" d="M143.4,63.9c0.1-0.1,0.1-0.2,0.1-0.3c0-1.2-0.5-2.3-1.4-3.2c-0.6-0.5-1.5-0.5-2.1,0.1
	c-0.1,0.1-0.2,0.2-0.2,0.3c-0.9,1.9,1.2,3.9,2.9,4.1c0.5,0.1,0.7-0.3,0.6-0.7C143.4,64.1,143.4,64,143.4,63.9z"/>
<polygon class="st16" points="141.7,97.3 138.2,95.3 141.1,103.2 "/>
<path class="st2" d="M180.3,174l-11.4,6.8l8.5,4.9c2.4-1.4,9.2-5.4,11.4-6.7L180.3,174z"/>
<path class="st2" d="M167.8,166.8l-11.4,6.8l10.7,6.2c1.9-1.1,8.8-5.2,11.4-6.7L167.8,166.8z"/>
<path class="st2" d="M122.4,140.4l-11.6,6.6l10.3,6c1.6-0.9,8.6-5.1,11.4-6.7L122.4,140.4z"/>
<path class="st2" d="M146.8,154.6l-11.4,6.8l8.5,4.9c2-1.2,8.9-5.2,11.4-6.7L146.8,154.6z"/>
<path class="st2" d="M134.3,147.3l-11.4,6.8l10.7,6.2c1.3-0.7,8.4-5,11.4-6.7L134.3,147.3z"/>
<path class="st2" d="M190.5,180l-11.4,6.8l8.1,4.7c2.4-1.4,9.3-5.5,11.4-6.7L190.5,180z"/>
<path class="st2" d="M157.1,160.5l-11.4,6.8l9,5.2c2.1-1.2,9-5.3,11.4-6.7L157.1,160.5z"/>
<path class="st2" d="M200.4,185.7l-11.4,6.8l10.7,6.2c2.2-1.3,9.1-5.3,11.4-6.7L200.4,185.7z"/>
<polygon class="st2" points="212.9,192.9 201.5,199.7 220.7,210.9 232.3,204.2 "/>
<path class="st2" d="M109.4,149l-11.6,6.6l15,8.7c2-1.1,8.8-5.2,11.4-6.7L109.4,149z"/>
<path class="st2" d="M138.4,165.9l-11.4,6.8l8.5,4.9c2.3-1.3,9.1-5.4,11.4-6.7L138.4,165.9z"/>
<path class="st2" d="M159.4,178.1l-11.4,6.8l10.7,6.2c2.1-1.3,9-5.3,11.4-6.7L159.4,178.1z"/>
<path class="st2" d="M148.7,171.9l-11.4,6.8l9,5.2c2.4-1.4,9.2-5.4,11.4-6.7L148.7,171.9z"/>
<path class="st2" d="M171.9,185.3l-11.4,6.8l8.5,4.9c2.6-1.5,9.5-5.6,11.4-6.7L171.9,185.3z"/>
<path class="st2" d="M182.1,191.3l-11.4,6.7l8.1,4.7c2.7-1.6,9.6-5.6,11.4-6.7L182.1,191.3z"/>
<path class="st2" d="M126,158.7l-11.4,6.8l10.7,6.2c1.7-1,8.7-5.1,11.4-6.7L126,158.7z"/>
<path class="st2" d="M192,197l-11.4,6.8l10.7,6.3c2.5-1.4,9.3-5.5,11.4-6.7L192,197z"/>
<polygon class="st2" points="193.1,211 207.6,219.5 219.2,212.8 204.5,204.3 "/>
<polygon class="st2" points="184.6,209.9 176.1,214.9 185.9,220.6 194.5,215.6 "/>
<polygon class="st2" points="188,221.8 196.3,226.6 204.9,221.7 196.4,216.7 "/>
<polygon class="st2" points="95.1,157.9 86.2,162.8 96.3,168.7 105,163.7 "/>
<polygon class="st2" points="106.9,164.8 98.3,169.8 109.1,176.1 117.8,171.1 "/>
<polygon class="st2" points="119.7,172.2 111.1,177.2 174.1,213.7 182.7,208.8 "/>
<ellipse transform="matrix(0.9996 -2.827057e-02 2.827057e-02 0.9996 -1.3273 4.5927)" class="st17" cx="161.8" cy="49.2" rx="10.7" ry="17.5"/>
<ellipse transform="matrix(8.963770e-02 -0.996 0.996 8.963770e-02 99.0797 200.9353)" class="st14" cx="159.5" cy="46.3" rx="16.1" ry="10.7"/>
<ellipse transform="matrix(9.289197e-02 -0.9957 0.9957 9.289197e-02 100.1901 198.9335)" class="st2" cx="159.3" cy="44.5" rx="4.7" ry="4.2"/>
<path class="st2" d="M150.1,54.7c0,0,2.5-5.5,6.9-4.8s7.3,3,9.1,9.3c-2.2,3.2-6.2,4.6-9.9,3.4C153,61.1,150.7,58.2,150.1,54.7z"/>
<path class="st13" d="M173.2,51.2c0-0.1-0.1-0.1-0.1-0.2c0.3-0.3,0.4-0.6,0.4-1c0-0.3-0.2-0.5-0.4-0.6c0.2-0.3,0.2-0.7-0.1-0.9
	c-0.2-0.1-0.4-0.2-0.6-0.2c-1,0.2-1.6,1.5-2.1,2.2c-0.4,0.6-0.8,1.1-1.1,1.7c-0.1-0.8-0.2-1.7-0.2-2.5s-1.3-0.8-1.3,0
	c0.1,1.3-0.1,2.5-0.4,3.8c-0.1,0.1-0.2,0.1-0.3,0.3c-3.6,3.8-8.2,6.6-13.2,8.2c-0.6,0.2-1,0.9-0.8,1.5c0.1,0.4,0.5,0.7,0.9,0.8
	c0,0.5,0.4,0.9,0.9,1.1c0.1,0.4,0.3,0.7,0.6,0.9l-0.9,0.4c-1.4,0.6-0.8,2.9,0.6,2.3c5.3-2.2,9.9-5.7,13.4-10.2
	c0.4-0.4,0.8-0.8,1.2-1.2c0.6-0.6,3.6-3.6,2.9-4.9C173,52.1,173.4,51.8,173.2,51.2z"/>
<path class="st13" d="M152.4,37.2c-1.4,0.6-2.5,3.6-2.4,4.2l1.1-0.6l0.2-0.2C151.5,39.5,151.9,38.3,152.4,37.2z"/>
<path class="st13" d="M152.6,39.7c-0.1-0.1-0.2-0.1-0.3-0.1l-0.1-0.1c-0.6-0.4-1.4,0.1-1.9,0.4c-0.6,0.3-1.2,0.7-1.8,1.2
	c-0.3,0.3-0.4,0.7-0.5,1.2c-0.2,0.5-0.4,1-0.7,1.5c-0.5,1-1,2-1.6,3c-1.2,1.9-2.6,3.6-4.2,5.1c-0.7,0.7,0.4,1.8,1.1,1.1l0.5-0.5
	c0.2,0.2,0.5,0.2,0.8,0c0.1-0.1,0.3-0.2,0.4-0.3l0.2-0.1c0.2,0.4,0.6,0.6,1,0.5c0.1,0,0.2-0.1,0.3-0.2l0.5-0.6
	c0.2-0.1,0.3-0.2,0.4-0.4c0,0,0.1,1.1,0.1,1.1c0.9-0.9,1.9-3.5,2.8-5c0-0.1,0-0.1,0.1-0.2c0.5-0.9,0.8-2,0.7-3
	c0-0.7,0.1-1.4,0.2-2.1l1.4-1.1c0.3-0.3,0.7-0.7,0.6-1C152.6,39.9,152.6,39.8,152.6,39.7z"/>
<path class="st15" d="M157.9,59.7c-5.1,1.5-5.9,0.9-8.3,0.8s-4.9-3.4-4.9-3.4s-0.6-7.5-5.1-1.6c-3.3,4.4-4.6,17.1-5,23.2
	c1.8,1.2,3.8,1.9,5.9,2.1c1.4,0.2,2.8,0.3,4.1,0.3c0.9,0,1.7-0.2,2.5-0.5l2.4-11c3.8,0.2,7.6-0.9,10.7-3.1L157.9,59.7z"/>
<path class="st13" d="M147,50.7c0,0,3.3,6.2,0,8s-5.7-1.2-6-1.9c-0.6-2.8,1.3-5.5,4.1-6.1C145.7,50.6,146.4,50.6,147,50.7z"/>
<path class="st9" d="M147.3,49.8c-1.7-1.1-3.7-1.3-5.6-0.8c-1.6,0.3-3.1,1.1-4.3,2.3c-0.4-0.3-0.9-0.4-1.4-0.5
	c-1.2-0.1-2.4,0.6-2.9,1.8c-0.4,1.1,0,2.3,1,2.9c0.7,0.4,1.6,0.5,2.4,0.2v0.2c0.1,1.2-1,1.8-1.4,2.8c-0.2,0.5-0.3,1-0.2,1.5
	c0.1,0.5,0.6,1,0.6,1.5c-0.1,0.4-0.3,0.7-0.5,1c-0.2,0.3-0.4,0.7-0.6,1.1c2.4,1.1,5.2,1.4,7.8,0.7c2.8-0.5,5.3-1.9,7.3-3.9
	c-0.1-0.3-0.3-0.5-0.5-0.7c-0.4-0.3-0.9-0.5-1.4-0.7c-0.7-0.4,0-1.6,0-2.3c0-1.1-0.9-1.6-1.8-2c-0.7-0.3-0.7-0.7-0.7-1.4
	c-0.1-0.5,0.1-1.1,0.3-1.6c0.2,0,0.4,0,0.6-0.1c0.3-0.2,0.7-0.4,1.1-0.5c0.4-0.1,0.6-0.6,0.5-1C147.6,50.1,147.5,49.9,147.3,49.8z"
	/>
<path class="st9" d="M144.8,52.3c1-0.2,2-0.6,3-1.1c0-0.1,0.3-4-6.6-2.6s-3.6,9.6-3.6,9.6"/>
<path class="st18" d="M210.1,61.1l48.2,28.4c1,0.6,1.6,1.7,1.6,2.9l-1.7,43.9c0,1.7-1.5,3.1-3.2,3.1c-0.5,0-1-0.2-1.5-0.4L207,111.8
	c-1-0.6-1.6-1.6-1.6-2.8V63.8c0-1.7,1.4-3.2,3.1-3.2C209.1,60.6,209.7,60.8,210.1,61.1z"/>
<path class="st5" d="M239.9,48.7c-1.9-0.9-6.5-3.9-12.3-1.1s-11.3,7.9-5.3,23.1c1.9,0.7,4.1,0.8,6,0.1c0,0-1.2-13.3,0.6-14.8
	l19.4,10.8c0.4,5.2-2.2,10.1-6.8,12.5l5.4,4.9c4.4-0.1,14-14,11-23.9s-19.4-12-19.4-12"/>
<path class="st15" d="M239.9,48.7c-1.9-0.9-6.5-3.9-12.3-1.1s-11.3,7.9-5.3,23.1c1.9,0.7,4.1,0.8,6,0.1c0,0-1.2-13.3,0.6-14.8
	l19.4,10.8c0.4,5.2-2.2,10.1-6.8,12.5l5.4,4.9c4.4-0.1,14-14,11-23.9s-19.4-12-19.4-12"/>
<path class="st19" d="M246.1,47.9c-1.3,1.5-3.9,0.8-5.5,0.4c-2-0.5-4.4-1.7-4.2-4.1c0-0.4-0.5-0.4-0.6,0c-0.2,2.5,2.1,4,4.3,4.6
	c1.9,0.5,4.9,1.2,6.4-0.5C246.7,48,246.3,47.6,246.1,47.9z"/>
<path class="st13" d="M235.3,42.7c0,0,0,12.3,4.5,13.1c5,0.9,7.7-4.8,7.7-4.8s0.6-10.9-4.3-11.8S235.4,41.1,235.3,42.7z"/>
<path class="st9" d="M239.1,51c-0.1,0-0.2,0-0.3,0c0.1-1.1,0.2-2.3,0.5-3.4c0-0.2-0.1-0.3-0.3-0.4c-0.2,0-0.3,0.1-0.4,0.3
	c-0.2,1.2-0.4,2.4-0.5,3.7c0,0.1,0.1,0.3,0.2,0.3c0.3,0.2,0.6,0.2,0.9,0.2C239.5,51.6,239.5,51,239.1,51z"/>
<path class="st9" d="M241.1,51.2c-0.4,0.9-1.4,1.3-2.3,1c-0.3-0.1-0.4,0.3-0.1,0.4c1.1,0.4,2.3-0.1,2.8-1.2
	C241.6,51.2,241.3,51,241.1,51.2z"/>
<path class="st9" d="M240.6,49.5c-0.2,0-0.3,0.1-0.3,0.3c0,0.2,0.1,0.3,0.3,0.3c0.2,0,0.3-0.1,0.3-0.3
	C240.9,49.6,240.8,49.5,240.6,49.5z"/>
<path class="st9" d="M236.6,48.6c-0.2,0-0.3,0.1-0.3,0.3c0,0.2,0.1,0.3,0.3,0.3c0.2,0,0.3-0.1,0.3-0.3
	C236.9,48.8,236.8,48.6,236.6,48.6z"/>
<path class="st13" d="M244,49.8c0,0,1.2-4.7,2.5-3.2s-2.1,5-2.1,5"/>
<path class="st20" d="M245.2,37.7c0,0,4.4,0.5,5.7,4s-2,10.5-4.4,11.6l2.9-6.1l-0.1-4.1L245.2,37.7z"/>
<path class="st20" d="M250.8,43.2c-0.4-2.5-2-3.6-4.1-4.9l-0.5-0.3c0.4-0.3,0.8-0.8,1-1.2c0.1-0.2,0-0.3-0.1-0.4c0,0-0.1,0-0.2,0
	c-0.6,0-1.1,0.3-1.4,0.7c-0.3-0.5-0.6-1-1-1.3c-0.1-0.1-0.3-0.1-0.5,0c0,0-0.1,0.1-0.1,0.1c-0.2,0.5-0.2,1,0.1,1.5
	c-2.2-0.5-4.5-0.1-6.5,1c-0.7,0.4-1.4,1-1.8,1.7c-0.6-0.1-1.2,0-1.8,0.3c-1.2,0.6-1.9,1.8-1.7,3.1c0.4,1.4,1.9,2.1,3.2,1.7
	c0.7-0.1,1.3-0.4,1.9-0.9c-0.4,0.7-0.6,1.5,0.7,1.8c2.3,0.5,3.3-0.8,3.5,0.3c0.1,0.9,1.4,1.4,2.3,1.5c0.1,0.1,0.2,0.5,0.4,1
	c0.5-0.2,0.9-0.2,1.4-0.1c0.1-0.1,0.3-0.2,0.5,0c0,0,0.1,0.1,0.1,0.1c0.8,1.3,0.6,2.8,0.3,4.3c1.2-1,2.3-2.3,3-3.8
	C250.6,47.6,251,45.4,250.8,43.2z M244.4,36.7l0.1,0.1c0,0,0,0.1,0,0.1c0,0.1,0.1,0.2,0.1,0.3C244.5,37,244.5,36.8,244.4,36.7z"/>
<path class="st21" d="M268.8,102l28.7,16.7c0.5,0.3,0.9,0.9,0.9,1.5l0,0c0,1-0.8,1.8-1.8,1.8c-0.3,0-0.6-0.1-0.9-0.2L267,105.1
	c-0.5-0.3-0.9-0.9-0.9-1.5v-0.1c0-1,0.8-1.8,1.8-1.8C268.2,101.8,268.5,101.8,268.8,102z"/>
<path class="st22" d="M268.8,111l28.7,16.7c0.5,0.3,0.9,0.9,0.9,1.5l0,0c0,1-0.8,1.8-1.8,1.8c-0.3,0-0.6-0.1-0.9-0.2L267,114.2
	c-0.5-0.3-0.9-0.9-0.9-1.5v-0.1c0-1,0.7-1.8,1.7-1.8C268.2,110.7,268.5,110.8,268.8,111z"/>
<path class="st22" d="M268.8,120.1l28.7,16.7c0.5,0.3,0.9,0.9,0.9,1.5l0,0c0,1-0.8,1.8-1.8,1.8c-0.3,0-0.6-0.1-0.9-0.2L267,123.2
	c-0.5-0.3-0.9-0.9-0.9-1.5v-0.1c0-1,0.8-1.8,1.8-1.8C268.2,119.8,268.5,119.9,268.8,120.1z"/>
<path class="st23" d="M268.8,129.1l28.7,16.7c0.5,0.3,0.9,0.9,0.9,1.5l0,0c0,1-0.8,1.8-1.8,1.8c-0.3,0-0.6-0.1-0.9-0.2L267,132.3
	c-0.5-0.3-0.9-0.9-0.9-1.5v-0.1c0-1,0.8-1.8,1.7-1.8C268.2,128.9,268.5,129,268.8,129.1z"/>
<polygon class="st24" points="196.8,70.7 196.8,99.7 174.3,86.8 174.3,58.1 "/>
<polygon class="st24" points="176.9,86.8 176.9,93.9 182.6,88.9 "/>
<path class="st2" d="M183.2,73.7l-5,3.1c-0.3,0.2-0.4,0.6-0.2,0.9l3.9,5.3c0.5,0.7,1.7,0,1.2-0.7l-3.9-5.3l-0.2,0.9l5-3.1
	C184.6,74.4,183.9,73.2,183.2,73.7L183.2,73.7z"/>
<path class="st2" d="M186.6,76.4l4.1,5.9l0.2-0.9l-5.1,2.5c-0.8,0.4-0.1,1.6,0.7,1.2l5.1-2.5c0.3-0.2,0.4-0.6,0.2-0.9l-4.1-5.9
	C187.2,75,186.1,75.7,186.6,76.4L186.6,76.4z"/>
<ellipse class="st25" cx="297.4" cy="106.9" rx="1.6" ry="1.8"/>
<ellipse class="st26" cx="292.2" cy="104.3" rx="1.6" ry="1.8"/>
<ellipse class="st27" cx="287.1" cy="101.8" rx="1.6" ry="1.8"/>
<polyline class="st28" points="127.5,124.4 162.7,144.4 175.5,137.8 "/>
<line class="st28" x1="162.6" y1="144.7" x2="162.6" y2="152.7"/>
<path class="st13" d="M137.3,138c-0.7-0.1-1.4-0.5-2-0.9c-0.4-0.7-0.5-1.4-0.4-2.2c0-0.7,0-1.4,0-2.1c-0.1-0.1-0.1-0.2-0.1-0.3
	c0-0.6,0-1.1,0-1.7l-2.9-0.3c-0.5,1.8-0.9,3.6-1.2,5.4c0.1,0.6,2.8,4.3,4.2,4.5s5.2-1,5.6-1.5l0,0
	C139.4,138.7,138.3,138.4,137.3,138z"/>
<path class="st13" d="M157.1,127.8c-1.6,0-3.2,0.2-4.9,0.4c0,0-0.6-3.2-0.5-3.3l-4.1,0.3c0,0-0.5,5.9-0.5,6.7c0,1.4,1.8,1.9,2.2,1.8
	c0.3-0.1,0.6-0.2,0.8-0.3c-0.1-0.7-0.2-1.5-0.2-2.2c0-0.3,0.1-0.6,0.4-0.7c0.8-0.1,1.6,0,2.3,0.2c0.7,0.1,1.4,0.3,2.2,0.4
	c1.1-0.5,2.2-1.2,3.1-2C158.2,128.3,158.5,128.1,157.1,127.8z"/>
<path class="st9" d="M158.4,128.1l-0.1-0.1c-0.3-0.3-1.1-0.3-1.5-0.3c-1.6,0-3.1,0.2-4.6,0.6c0,0,3.7-0.5,3.8,0.2
	c0.1,0.5,0,1.1-0.4,1.5c-1.5,1.4-3.9-0.1-5.4-0.8l-2.8-1.2l-0.2,2.3c-0.1,1-0.1,2.1,0,3.1c0.2,0.3,1.8,1.2,2.2,1s1.4-0.8,1.4-0.8
	l-0.2-2.7c0,0,2.3,1,3.4,0.7C154.9,131.3,159.4,129.4,158.4,128.1z"/>
<path class="st9" d="M133.4,136.1c0,0,1.5,4.7,2,5s6.3-1.5,5.4-2.6c-0.6-0.7-4-0.7-4.3-0.8c0,0,1.8,0.6,1.8,0.9
	c-0.7,0.6-1.5,1-2.4,1.1c-0.1-0.2-2.6-4.3-2.6-4.3l-2.4-0.8l-1.9,4.3l1.6,0.7c0,0,0.5,1.3,0.7,1.3c0.6-0.8,1.1-1.6,1.5-2.4
	c0.1,0.6,0.3,1.2,0.6,1.7c0.2,0.2,2.1,1.7,3,0.5l-1.6-1.8"/>
<polyline class="st9" points="129,138.9 129.3,140 131.3,140.9 131.3,138.9 130.1,138.5 "/>
<path class="st14" d="M145.3,126.8c3.6,0.8,7.3-0.1,10.2-2.4c0.1-6,0.6-11.5,0.4-17.5c-0.3-9.8-1.7-19.5-8.6-27.2l-12.6-1.9
	c-5.1,9.7-6.1,54.1-6.1,54.1s6.4,4.1,11.3,2.1l1.9-37c0,0,3.3,3.9,3.9,6.1C146.1,104.8,145.2,119.4,145.3,126.8z"/>
<ellipse class="st5" cx="92.2" cy="102.9" rx="22.2" ry="11"/>
<ellipse class="st0" cx="92.2" cy="102.9" rx="22.2" ry="11"/>
<path class="st1" d="M325.8,208.4L307.9,219c0,0,5.5,9.7,19.2,15.5l20.9-11.2"/>
<ellipse class="st2" cx="340.7" cy="212.4" rx="16.6" ry="11.7"/>
<ellipse class="st29" cx="340.7" cy="205.5" rx="12.5" ry="5.1"/>
<path class="st30" d="M340.3,197c0-2.3-0.1-4.6-0.3-6.9c0-0.6-0.1-1.2-0.2-1.8l-0.1-1.2c0-0.3-0.2-1.2-0.2-1.2
	c-0.1-0.5-0.2-0.9-0.2-1.4c-1.4-7.8-4.4-15.2-8.9-21.7c-1.7,4-2.5,8.4-2.5,12.7c0,1.3,0.1,2.5,0.2,3.8c0,0.3,0,0.5,0,0.5
	s0-0.1,0,0.2c0.1,0.6,0.2,1.2,0.3,1.9c0.5,2.3,1.2,4.7,2,6.9c0.7,2.1,1.6,4.1,2.7,6c1.1,2.2,2.4,4.3,3.7,6.4c1,1.6,2,3.1,3,4.4
	C340.1,202.8,340.3,199.9,340.3,197z M333.7,171.1c0-0.3,0-0.6-0.1-0.9l0,0c0.3,0.3,0.6,0.7,0.9,1
	C334.3,171.2,334,171.1,333.7,171.1z"/>
<path class="st30" d="M344.5,198.8c1.3-1.9,2.4-3.9,3.5-5.9c0.3-0.5,0.6-1.1,0.8-1.6l0.5-1.1l0.5-1.1c0.2-0.4,0.4-0.9,0.5-1.3
	c3.1-7.3,4.5-15.2,4.3-23.1c-3.6,2.5-6.7,5.7-9,9.4c-0.7,1.1-1.3,2.2-1.9,3.3l-0.3,0.5c0,0,0-0.1-0.1,0.2c-0.3,0.6-0.5,1.2-0.7,1.7
	c-0.9,2.2-1.5,4.5-2.1,6.9c-0.5,2.1-0.8,4.3-1,6.5c-0.2,2.4-0.3,4.9-0.3,7.3c0,1.9,0,3.7,0.1,5.3C341.3,203.5,343,201.2,344.5,198.8
	z M353,173.5c0.2-0.2,0.3-0.5,0.4-0.8l0,0c0.1,0.4,0.2,0.9,0.2,1.4C353.5,173.8,353.3,173.6,353,173.5z"/>
<path class="st30" d="M344.5,204.5c1.3-0.7,2.6-1.4,3.8-2.1l1-0.6l0.6-0.4l0.6-0.4l0.7-0.5c4-2.9,7.3-6.7,9.8-11.1
	c-2.7,0.2-5.4,0.9-7.9,2.2c-0.7,0.4-1.4,0.8-2.1,1.2l-0.3,0.2c0,0,0,0-0.1,0.1c-0.3,0.2-0.6,0.5-1,0.7c-1.2,0.9-2.3,1.9-3.3,3
	c-1,1-1.8,2.1-2.6,3.2c-0.9,1.2-1.8,2.5-2.5,3.9c-0.6,1-1.2,2-1.7,2.9C341.2,206,342.8,205.3,344.5,204.5z M357.2,193.6
	c0.2-0.1,0.3-0.2,0.5-0.3l0,0c-0.1,0.3-0.2,0.5-0.3,0.8C357.3,193.9,357.3,193.8,357.2,193.6L357.2,193.6z"/>
<path class="st12" d="M340.3,197c0-2.3-0.1-4.6-0.3-6.9c0-0.6-0.1-1.2-0.2-1.8l-0.1-1.2c0-0.3-0.2-1.2-0.2-1.2
	c-0.1-0.5-0.2-0.9-0.2-1.4c-1.4-7.8-4.4-15.2-8.9-21.7c-1.7,4-2.5,8.4-2.5,12.7c0,1.3,0.1,2.5,0.2,3.8c0,0.3,0,0.5,0,0.5
	s0-0.1,0,0.2c0.1,0.6,0.2,1.2,0.3,1.9c0.5,2.3,1.2,4.7,2,6.9c0.7,2.1,1.6,4.1,2.7,6c1.1,2.2,2.4,4.3,3.7,6.4c1,1.6,2,3.1,3,4.4
	C340.1,202.8,340.3,199.9,340.3,197z M333.7,171.1c0-0.3,0-0.6-0.1-0.9l0,0c0.3,0.3,0.6,0.7,0.9,1
	C334.3,171.2,334,171.1,333.7,171.1z"/>
<path class="st12" d="M344.5,198.8c1.3-1.9,2.4-3.9,3.5-5.9c0.3-0.5,0.6-1.1,0.8-1.6l0.5-1.1l0.5-1.1c0.2-0.4,0.4-0.9,0.5-1.3
	c3.1-7.3,4.5-15.2,4.3-23.1c-3.6,2.5-6.7,5.7-9,9.4c-0.7,1.1-1.3,2.2-1.9,3.3l-0.3,0.5c0,0,0-0.1-0.1,0.2c-0.3,0.6-0.5,1.2-0.7,1.7
	c-0.9,2.2-1.5,4.5-2.1,6.9c-0.5,2.1-0.8,4.3-1,6.5c-0.2,2.4-0.3,4.9-0.3,7.3c0,1.9,0,3.7,0.1,5.3C341.3,203.5,343,201.2,344.5,198.8
	z M353,173.5c0.2-0.2,0.3-0.5,0.4-0.8l0,0c0.1,0.4,0.2,0.9,0.2,1.4C353.5,173.8,353.3,173.6,353,173.5z"/>
<path class="st12" d="M344.5,204.5c1.3-0.7,2.6-1.4,3.8-2.1l1-0.6l0.6-0.4l0.6-0.4l0.7-0.5c4-2.9,7.3-6.7,9.8-11.1
	c-2.7,0.2-5.4,0.9-7.9,2.2c-0.7,0.4-1.4,0.8-2.1,1.2l-0.3,0.2c0,0,0,0-0.1,0.1c-0.3,0.2-0.6,0.5-1,0.7c-1.2,0.9-2.3,1.9-3.3,3
	c-1,1-1.8,2.1-2.6,3.2c-0.9,1.2-1.8,2.5-2.5,3.9c-0.6,1-1.2,2-1.7,2.9C341.2,206,342.8,205.3,344.5,204.5z M357.2,193.6
	c0.2-0.1,0.3-0.2,0.5-0.3l0,0c-0.1,0.3-0.2,0.5-0.3,0.8C357.3,193.9,357.3,193.8,357.2,193.6L357.2,193.6z"/>
</svg>
