<?xml version="1.0" encoding="utf-8"?>
<!-- Generator: Adobe Illustrator 24.1.2, SVG Export Plug-In . SVG Version: 6.00 Build 0)  -->
<svg version="1.1" id="Layer_1" xmlns="http://www.w3.org/2000/svg" xmlns:xlink="http://www.w3.org/1999/xlink" x="0px" y="0px"
	 viewBox="0 0 1920 1920" style="enable-background:new 0 0 1920 1920;" xml:space="preserve">
<style type="text/css">
	.st0{fill:#009471;}
	.st1{fill:#52C27D;}
</style>
<path class="st0" d="M976.51,102.48c182.11,182.11,350.13,350.13,532.24,532.24c6.94,9.02,13.13,12.4,15.24,30.83
	c2.42,21.11-17.59,38.99-37.2,38.99c-170.39,0-348.32,0-523.55,0c-16.96,0-43.35-20.16-52.37-32.3c-6-8.08-10.01-13.69-21.96-34.58
	c-13.24-23.14-21.4-42.48-28.56-60.47c-6.73-18.59-18.46-63.91-23.02-113.25c-7.36-79.6-4.2-121.78,5.1-193.02
	c6.84-52.39,14.25-84.92,29.4-116.34c10.99-22.79,20.11-34.2,36.56-46.59C928.81,92.58,958.38,88.77,976.51,102.48z"/>
<path class="st0" d="M938.67,1818.37c-182.97-181.25-351.78-348.47-534.75-529.71c-6.98-8.99-13.19-12.34-15.39-30.75
	c-2.52-21.1,17.41-39.08,37.02-39.17c170.39-0.81,348.32-1.65,523.55-2.47c16.96-0.08,43.45,19.95,52.52,32.05
	c6.04,8.05,10.08,13.64,22.13,34.48c13.35,23.08,21.6,42.38,28.85,60.34c6.82,18.56,18.76,63.82,23.55,113.14
	c7.74,79.57,4.78,121.76-4.19,193.04c-6.59,52.43-13.85,84.98-28.85,116.48c-10.89,22.84-19.95,34.3-36.34,46.76
	C986.42,1828.04,956.86,1831.99,938.67,1818.37z"/>
<path class="st1" d="M950.08,783.21h-600.5c0,0-69.5,8.75-69.5,183.75s70.95,170.62,70.95,170.62h599.05V783.21z"/>
<path class="st1" d="M944.08,783.21h622.83c0,0,72.08,8.75,72.08,183.75s-73.59,170.62-73.59,170.62H944.08V783.21z"/>
</svg>
