<?xml version="1.0" encoding="utf-8"?>
<!-- Generator: Adobe Illustrator 25.0.0, SVG Export Plug-In . SVG Version: 6.00 Build 0)  -->
<svg version="1.1" id="Layer_1" xmlns="http://www.w3.org/2000/svg" xmlns:xlink="http://www.w3.org/1999/xlink" x="0px" y="0px"
	 viewBox="0 0 339.6 267.4" style="enable-background:new 0 0 339.6 267.4;" xml:space="preserve">
<style type="text/css">
	.st0{opacity:0.18;fill:#78B7E1;enable-background:new    ;}
	.st1{fill:url(#SVGID_1_);}
	.st2{fill:url(#SVGID_2_);}
	.st3{fill:#78B7E1;}
	.st4{fill:url(#SVGID_3_);}
	.st5{fill:url(#SVGID_4_);}
	.st6{fill:url(#SVGID_5_);}
	.st7{fill:url(#SVGID_6_);}
	.st8{fill:url(#SVGID_7_);}
	.st9{fill:url(#SVGID_8_);}
	.st10{fill:#FFFFFF;}
	.st11{fill:#F9C6D6;}
	.st12{fill:#565056;}
	.st13{fill:#473F47;}
	.st14{fill:#FC682D;}
	.st15{fill:#E8A825;}
	.st16{fill:#F8C244;}
	.st17{fill:#52C27D;}
	.st18{opacity:0.39;fill:#78B7E1;enable-background:new    ;}
</style>
<path class="st0" d="M326.9,161.9c-1.4-2.7-2.9-5.3-4.5-7.9c-1.5-2.5-3-4.9-4.6-7.2c-6.9-10.3-14.5-20.4-17.8-32.3
	c-4.1-14.7,0-31-4.4-45.2C291.8,57,280.3,44,271.6,34.9c-19.2-20.3-45.3-35.2-73.8-34.8c-5.5,0.1-11,0.7-16.4,1.7
	c-10.7,1.9-21.2,5.3-31.5,8.8c-26.1,8.9-52.3,18.7-74.8,34.8s-40.9,39.3-46,66.4c-2.6,14-1.7,28.8-6.2,42.3
	c-5.4,16.2-17.5,26.8-21.4,43.7C-2.8,217.1,1.8,240,18,251.5c8.5,5.9,19,8.2,29.2,9.4c25.7,3,51.8,0.5,76.5-7.4
	c13.9-4.4,27.7-10.6,42.3-10.6c15.7-0.1,30.5,6.9,45.2,12.6c22.5,8.7,46.8,14.6,70.6,10.8s46.8-19,54.7-41.8
	C343.6,203.8,337.4,181.6,326.9,161.9z"/>
<linearGradient id="SVGID_1_" gradientUnits="userSpaceOnUse" x1="203.7569" y1="-8.7741" x2="206.7169" y2="-10.9841" gradientTransform="matrix(1 0 0 -1 -24.24 228.89)">
	<stop  offset="1.000000e-02" style="stop-color:#000000"/>
	<stop  offset="8.000000e-02" style="stop-color:#000000;stop-opacity:0.69"/>
	<stop  offset="0.21" style="stop-color:#000000;stop-opacity:0.32"/>
	<stop  offset="1" style="stop-color:#000000;stop-opacity:0"/>
</linearGradient>
<path class="st1" d="M180.3,238.3l0.7,0.1C181.4,238.8,180.1,238.9,180.3,238.3z"/>
<linearGradient id="SVGID_2_" gradientUnits="userSpaceOnUse" x1="-78.4896" y1="264.0439" x2="674.2404" y2="-298.9362" gradientTransform="matrix(1 0 0 -1 -24.24 228.89)">
	<stop  offset="1.000000e-02" style="stop-color:#000000"/>
	<stop  offset="8.000000e-02" style="stop-color:#000000;stop-opacity:0.69"/>
	<stop  offset="0.21" style="stop-color:#000000;stop-opacity:0.32"/>
	<stop  offset="1" style="stop-color:#000000;stop-opacity:0"/>
</linearGradient>
<path class="st2" d="M326.9,161.9c-4.9,2-10.1,3.9-13.3,6.1l-75.5,53c-5.8,4.2-11.8,8-18.1,11.5c-5.1,2.8-8,8-14.2,9.4
	c-3.1,0.5-6.2,0.5-9.2-0.2c-5-0.8-9.9-2.1-14.6-3.7c-0.6-0.2-1.4-0.3-1.7,0.2l0,0c-44-6-86.1-22-129.7-30.3
	c-1.3-0.2-2.2-1.5-1.9-2.8c0.1-0.8,0.7-1.5,1.5-1.8c3.7-1.3,7.4-2.2,11.3-2.8c7-1.3,13.9-2.6,20.9-3.7c14.1-2.4,28.3-4,42.5-4.7
	c23.7-1,47.6,1.5,71-2.1c22.2-3.5,43.2-12.4,63.9-21.2c5-2.1,10.1-4.4,14-8.1c3.1-2.9,5.5-6.8,9.4-8.8s9-1.6,13.4-1.4
	c8.7,0.6,17.3,1.7,25.8,3.5C324,156.6,325.5,159.2,326.9,161.9z"/>
<path class="st3" d="M52.6,193.1l98.8-43c2.1-1.1,4.6-1.5,6.9-1.1l122.3,10.4c2.3,0.3,1.9,10.4,0,12l-72.2,61.5
	c-4.4,3.9-10.5,5.4-16.2,4L53.4,203.1C51.7,202.7,50.9,194,52.6,193.1z"/>
<linearGradient id="SVGID_3_" gradientUnits="userSpaceOnUse" x1="174.6434" y1="100.4811" x2="252.7734" y2="-147.6389" gradientTransform="matrix(1 0 0 -1 -24.24 228.89)">
	<stop  offset="1.000000e-02" style="stop-color:#000000"/>
	<stop  offset="8.000000e-02" style="stop-color:#000000;stop-opacity:0.69"/>
	<stop  offset="0.21" style="stop-color:#000000;stop-opacity:0.32"/>
	<stop  offset="1" style="stop-color:#000000;stop-opacity:0"/>
</linearGradient>
<path class="st4" d="M52.6,193.1l98.8-43c2.1-1.1,4.6-1.5,6.9-1.1l122.3,10.4c2.3,0.3,1.9,10.4,0,12l-72.2,61.5
	c-4.4,3.9-10.5,5.4-16.2,4L53.4,203.1C51.7,202.7,50.9,194,52.6,193.1z"/>
<path class="st3" d="M280.6,164.3l-72.2,61.5c-4.4,3.9-10.4,5.4-16.2,4L53.4,196c-1.8-0.4-2-3.2-0.3-4.1l38.1-21.5l10-5.6l30.4-17.1
	c2.1-1.1,4.6-1.5,6.9-1.1l140.9,12.3C281.7,159.2,282.5,162.6,280.6,164.3z"/>
<linearGradient id="SVGID_4_" gradientUnits="userSpaceOnUse" x1="194.7141" y1="188.7009" x2="146.9341" y2="-134.2191" gradientTransform="matrix(1 0 0 -1 0 270)">
	<stop  offset="1.000000e-02" style="stop-color:#000000"/>
	<stop  offset="8.000000e-02" style="stop-color:#000000;stop-opacity:0.69"/>
	<stop  offset="0.21" style="stop-color:#000000;stop-opacity:0.32"/>
	<stop  offset="1" style="stop-color:#000000;stop-opacity:0"/>
</linearGradient>
<polygon class="st5" points="138.4,150 267.3,169 227.6,201.2 95.4,174.5 "/>
<linearGradient id="SVGID_5_" gradientUnits="userSpaceOnUse" x1="169.3213" y1="71.5437" x2="328.9613" y2="16.3037" gradientTransform="matrix(1 0 0 -1 -24.24 228.89)">
	<stop  offset="1.000000e-02" style="stop-color:#000000"/>
	<stop  offset="8.000000e-02" style="stop-color:#000000;stop-opacity:0.69"/>
	<stop  offset="0.21" style="stop-color:#000000;stop-opacity:0.32"/>
	<stop  offset="1" style="stop-color:#000000;stop-opacity:0"/>
</linearGradient>
<path class="st6" d="M190.2,183.8c5.5-1.2,10.7-3.3,15.5-6.2c1.3-0.8,2.8-2.4,2-3.7c-0.5-1-1.8-1.3-2.2-2.3c1.8-0.7,3.7-0.4,5.3-1.8
	s1.8-4,0.1-5c1.3-0.1,2.6-0.5,3.7-1.2c1.1-0.8,1.6-2.2,1.1-3.5c-0.6-1.3-2.2-1.6-3.6-1.9c-1.9-0.4-3.9-0.5-5.9-0.5
	c-2.3,0.2-4.4,0.9-6.4,2c-1.8,1-3.3,2.7-5.2,3.7c-3.7,1.9-8.6,1.7-12.7,2.6c-3,0.6-5.9,1.8-8.9,2.7s-5.8,1.5-8.7,2.2
	c-7,1.5-14.1,3-21.2,4.4c0.5,3.1,3.8,4.9,6.8,6.1c4.1,1.8,8.4,3.1,12.8,4c3.4,0.5,6.9,0.7,10.4,0.5
	C178.9,185.7,184.6,185,190.2,183.8z"/>
<linearGradient id="SVGID_6_" gradientUnits="userSpaceOnUse" x1="147.344" y1="143.5509" x2="110.534" y2="-105.2691" gradientTransform="matrix(1 0 0 -1 0 270)">
	<stop  offset="1.000000e-02" style="stop-color:#000000"/>
	<stop  offset="8.000000e-02" style="stop-color:#000000;stop-opacity:0.69"/>
	<stop  offset="0.21" style="stop-color:#000000;stop-opacity:0.32"/>
	<stop  offset="1" style="stop-color:#000000;stop-opacity:0"/>
</linearGradient>
<polygon class="st7" points="125,182.5 178.1,193.2 150.6,215.6 95.4,203.2 "/>
<linearGradient id="SVGID_7_" gradientUnits="userSpaceOnUse" x1="145.9969" y1="28.5473" x2="126.4169" y2="-21.8127" gradientTransform="matrix(1 0 0 -1 -24.24 228.89)">
	<stop  offset="1.000000e-02" style="stop-color:#000000"/>
	<stop  offset="8.000000e-02" style="stop-color:#000000;stop-opacity:0.69"/>
	<stop  offset="0.21" style="stop-color:#000000;stop-opacity:0.32"/>
	<stop  offset="1" style="stop-color:#000000;stop-opacity:0"/>
</linearGradient>
<path class="st8" d="M98.4,207.1c1.1,2.2,3.1,3.8,5.5,4.5c3.9,0.9,26.6,6.8,26.6,6.8s3.7,0.4,5.8-2L98.4,207.1z"/>
<path class="st3" d="M134.4,146.6l145.4,20.7c2.2,0.3,4.3-1.2,4.7-3.4l20.7-104.7c0.9-4.4-2-8.7-6.4-9.5c-0.3-0.1-0.6-0.1-0.9-0.1
	L154.4,36.9c-4.4-0.4-8.3,2.8-8.8,7.2L134.4,146.6z"/>
<linearGradient id="SVGID_8_" gradientUnits="userSpaceOnUse" x1="232.6178" y1="227.6998" x2="316.5279" y2="-505.1302" gradientTransform="matrix(1 0 0 -1 -24.24 228.89)">
	<stop  offset="1.000000e-02" style="stop-color:#000000"/>
	<stop  offset="8.000000e-02" style="stop-color:#000000;stop-opacity:0.69"/>
	<stop  offset="0.21" style="stop-color:#000000;stop-opacity:0.32"/>
	<stop  offset="1" style="stop-color:#000000;stop-opacity:0"/>
</linearGradient>
<path class="st9" d="M134.4,146.6l145,20.6c2.4,0.3,4.7-1.3,5.2-3.7l20.7-104.3c0.9-4.4-2-8.7-6.4-9.5c-0.3-0.1-0.6-0.1-0.9-0.1
	L154.4,36.9c-4.4-0.4-8.3,2.8-8.8,7.2L134.4,146.6z"/>
<polygon class="st10" points="277.2,161.2 297.8,55.6 151.4,42 139.8,142.1 "/>
<path class="st11" d="M128.3,205.1c-0.1,0.6,0.1,1.1,0.5,1.5c0.2,0.1,0.4,0.2,0.7,0.3c0.7,0.1,1.3,0.2,2,0.1
	c1.2-0.1,2.5-0.3,3.7-0.5l2.1-0.4c0.3,0,0.5-0.1,0.7-0.3c0.1-0.3,0.1-0.6-0.1-0.8c-0.4-0.4-0.8-0.7-1.4-0.9
	c-1.3-0.5-2.5-0.9-3.9-1.2c-0.2,0-0.4-0.1-0.6-0.2c-0.3-0.2-0.3-0.6-0.5-0.9c-0.4-0.5-1-0.8-1.7-0.6c-0.6,0.1-1.5,0.5-1.6,1.2
	C128.2,203.2,128.2,204.1,128.3,205.1z"/>
<path class="st12" d="M135.1,203.1c-0.4-0.1-0.9,0-1.2,0.3c-0.3,0.5,0.1,1.3-0.3,1.8c-0.3,0.2-0.6,0.3-0.9,0.3h-2.3
	c-0.6,0-1.2,0-1.9-0.1c-0.1-0.1-0.3-0.1-0.4-0.1c-0.2,0.1-0.4,0.2-0.4,0.5c0,0.2,0,0.4,0.1,0.6c0.1,0.4,0.4,0.8,0.6,1.2
	c0.1,0.1,0.2,0.2,0.3,0.3c0.1,0,0.3,0.1,0.4,0.1c1.4,0,2.7,0,4.1-0.1c0.9-0.1,1.9-0.2,2.8-0.3c1.4,0,2.7-0.2,4-0.7
	c0.3-0.1,0.6-0.4,0.8-0.7c0.1-0.3,0-0.6-0.2-0.9c-0.2-0.2-0.4-0.4-0.7-0.6c-0.7-0.5-1.6-0.8-2.4-1.1
	C136.7,203.4,135.9,203.2,135.1,203.1z"/>
<path class="st11" d="M103,202.5c0,0,0,0.1,0,0.1c0.1,1.8,2.5,1.9,3.8,1.8c1.2-0.1,2.5-0.3,3.7-0.5l2.1-0.4c0.3,0,0.5-0.1,0.7-0.4
	c0.1-0.3,0.1-0.6-0.1-0.8c-0.4-0.4-0.8-0.7-1.3-0.9c-1.1-0.4-2.3-0.8-3.4-1.1c-1-0.3-0.2-1.7-0.1-2.5c0.1-0.1,0.1-0.3,0-0.5
	c-0.1-0.2-0.3-0.3-0.5-0.3c-0.6-0.2-1.2-0.3-1.9-0.3c-0.1,0-0.3,0-0.4,0.1c-0.1,0.1-0.2,0.2-0.2,0.3l-2,4.3
	C103.2,201.8,103.1,202.1,103,202.5z"/>
<path class="st13" d="M103.9,148.3c0,0-1.5,8.4,1.6,14.7c1.6,3.4,3.4,6.7,5.4,9.9c0,0-6.4,6.9-6.4,15.7s-0.2,9.1-0.2,9.1l3.9,2
	l9.6-26.8c0,0,0.6-3.8,0-5.1s-5.5-15.9-5.5-15.9L103.9,148.3z"/>
<path class="st13" d="M138.8,114.2c-2,0-4.2-2.1-5.4-5.4c-1.4-3.8-0.8-7.3,1.4-8.1s4.9,1.4,6.3,5.2l0,0c1.4,3.8,0.8,7.3-1.4,8.1
	C139.4,114.2,139.1,114.2,138.8,114.2z M135.8,102.4c-0.1,0-0.2,0-0.3,0.1c-1,0.4-1.4,2.9-0.4,5.8s3,4.6,4,4.2s1.4-2.9,0.4-5.8l0,0
	C138.4,104,136.8,102.4,135.8,102.4L135.8,102.4z"/>
<path class="st13" d="M146.7,122.5c-0.3,0-0.5-0.1-0.7-0.3l-6.6-8.3c-0.3-0.4-0.2-0.9,0.1-1.3c0.4-0.3,0.9-0.2,1.3,0.1l6.6,8.4
	c0.3,0.4,0.3,0.9-0.1,1.2C147.1,122.5,146.9,122.6,146.7,122.5L146.7,122.5z"/>
<path class="st11" d="M134.9,110.1c0.1,0.9,0.1,1.8,0.1,2.6c-0.2,0.7-0.6,1.3-1.2,1.7c-0.6,0.4-1.2,0.7-1.9,0.8
	c-0.2,0-0.4,0.1-0.6,0.2c-0.2,0.3-0.4,0.7-0.3,1.1v2.3c0,0.2,0,0.5-0.2,0.7c-0.1,0.1-0.2,0.2-0.4,0.2c-1.1,0.3-2.3-0.3-2.7-1.4
	c-0.3-0.5-0.6-1-0.9-1.4c-0.3-0.6-0.5-1.3-0.5-2c-0.2-2.2,0.2-4.4,1.2-6.3c0.6-1.2,1.5-2.3,2.6-3.1c0.9-0.6,2.6-1.6,3.5-0.5
	c0.4,0.5,0.4,1.4,0.9,1.9c0.3,0.4,0.8,0.7,0.9,1.2s-0.3,0.9-0.4,1.3C135,109.6,134.9,109.9,134.9,110.1z"/>
<path class="st11" d="M141.6,114.7c0,0,0-0.1,0-0.1c0-0.5,0.2-1,0.6-1.4c0.4-0.4,0.9-0.5,1.4-0.2c0.2,0.1,0.3,0.3,0.5,0.4
	s0.6,0,0.8,0.2s0.1,0.4,0.3,0.6s0.4,0.4,0.6,0.6c0.9,1-0.1,2.8-0.5,3.9c-0.6,1.5-1.1,3.1-1.6,4.7c-0.6,0.1-1.1,0-1.6-0.3
	c-0.2-0.1-0.3-0.2-0.5-0.4c-0.3-0.6-0.4-1.2-0.2-1.8c0.1-0.5,0.2-0.9,0.1-1.4c-0.1-0.5-0.3-1-0.5-1.5c-0.1-0.4-0.3-0.9,0.1-1.2
	c0.1-0.1,0.2-0.2,0.4-0.3c0.1-0.1,0.1-0.3,0.1-0.4C141.6,115.7,141.5,115.2,141.6,114.7z"/>
<path class="st12" d="M123.3,151.9l9.3,21l-0.4,29.7l-4.3-0.3c0,0-7.3-16.9-2.6-27.4c0,0-11.3-9.7-15.5-15.2c-5.1-6.8-4-12.4-4-12.4
	L123.3,151.9z"/>
<path class="st10" d="M127.6,115.8c1.1,0.3,2.3,0.7,3.3,1.2c3.6,1.6,3.7,4.5,5,7.9c0.8,2.2,1.7,4.3,2.7,6.3l1.7-10.2l4.8,1.9
	c0,0,0.5,15.1-3,17.1c-2.3,1.3-5.4-0.2-7.5-1.3c-0.8-0.4-2-1.5-2.8-1.6c-1.5-0.2-1.6,1.6-3,2.7c-0.9,0.5-1.7,1.1-2.5,1.7
	c-0.8,0.9-1.3,1.9-1.7,3c-0.4,1.4-0.5,2.8-0.3,4.2c0.2,1,0,2-0.6,2.8c-0.4,0.3-0.9,0.6-1.4,0.6c-1.7,0.2-3.4,0.2-5.1-0.1
	c-3.4-0.3-6.7-0.9-9.9-1.8c-1.2-0.4-2.3-0.8-3.5-1.3c-0.2-0.1-0.5-0.2-0.7-0.4c-0.2-0.2-0.3-0.5-0.4-0.8c-0.4-2.1,1-4,1.8-5.9
	c0.5-1.3,0.7-2.8,1.1-4.1c0.6-1.4,1.3-2.6,2.3-3.8c0.7-1,1-2.3,1.7-3.4c1.8-2.8,3.8-5.4,6-7.9c1.3-1.6,2.7-3.1,4.3-4.4
	c1.8-1.6,4-2.5,6.4-2.5C126.8,115.7,127.2,115.7,127.6,115.8z"/>
<path class="st14" d="M123.6,96.6c-1.2,0.2-2.4,0.7-3.4,1.4c-2.2,1.8-2.7,5-4.8,6.9c-1.8,1.6-4.4,1.9-6.7,2.2
	c1.6,4.6,6.7,7.1,11.3,5.5c0,0,0,0,0.1,0l-2.4,2.4c-0.1,0.1-0.1,0.1-0.1,0.2c0,0.2,0.1,0.3,0.3,0.3c1.1,0.4,2.4,0.4,3.5-0.1
	c0,1.1,0.8,2,1.9,2.1c0.7,0.1,1.5,0,2.1-0.3c0.4-0.1,0.8-0.2,1.2-0.2c0.3,0,0.6,0.2,1,0.1c1-0.7,1.9-1.6,2.4-2.7
	c0.8-1.8-0.4-4,0.6-5.8c0.8-1.4,3.3-1.8,3.6-3.4c0.4-1.8-0.6-4.3-1.6-5.7c-1.1-1.6-2.8-2.7-4.7-3.1c-1.1-0.2-2.3-0.2-3.4-0.1
	L123.6,96.6z"/>
<path class="st12" d="M110,200.2c-0.4-0.1-0.9,0-1.2,0.3c-0.3,0.5,0.1,1.3-0.3,1.8c-0.3,0.2-0.6,0.3-0.9,0.3h-2.3
	c-0.6,0-1.2,0-1.8-0.1c-0.1,0-0.3-0.1-0.4-0.1c-0.2,0.1-0.4,0.2-0.4,0.5c0,0.2,0,0.4,0.1,0.6c0.1,0.4,0.4,0.8,0.6,1.2
	c0.1,0.1,0.2,0.2,0.3,0.3c0.1,0.1,0.3,0.1,0.4,0.1c1.4,0,2.7,0,4.1-0.1c1-0.1,1.9-0.2,2.8-0.3c1.4,0,2.7-0.2,4-0.7
	c0.3-0.1,0.6-0.4,0.8-0.7c0.1-0.3,0-0.6-0.2-0.9c-0.2-0.2-0.4-0.4-0.7-0.6c-0.7-0.5-1.6-0.8-2.4-1.1
	C111.6,200.5,110.8,200.3,110,200.2z"/>
<path class="st15" d="M171.3,184.7c-16.2-0.2-29.2-5.8-29.1-12.4c0-0.7-0.6-4.9-0.2-5.5c2.6-5.5,15.3-6.2,29.7-6
	c14.1,0.2,26,0,28.7,5.5c0.4,0.8,0.4,6.1,0.4,6.9C200.6,179.8,187.5,184.9,171.3,184.7z"/>
<ellipse transform="matrix(1.431121e-02 -0.9999 0.9999 1.431121e-02 1.5913 336.0572)" class="st16" cx="171.2" cy="167.2" rx="11.9" ry="29.3"/>
<ellipse transform="matrix(1.431121e-02 -0.9999 0.9999 1.431121e-02 1.5913 336.0572)" class="st15" cx="171.2" cy="167.2" rx="10.2" ry="24.9"/>
<path class="st16" d="M155.5,166l4,0.1c0.2-1.1,0.8-2,1.8-2.4l2.6,0.4c-0.9,0.4-1.6,1.3-1.7,2.3c0,1.1,1.6,2,3.8,2
	c1.8,0.1,3.5-0.5,4.7-1.8c1.8-1.9,4.3-2.8,6.9-2.6c3.3,0,5.8,1,6.4,2.5l4,0.1v1l-3.9-0.1c-0.1,0.9-0.6,1.7-1.4,2.1l-2.6-0.4
	c0.7-0.4,1.3-1.2,1.4-2c0-1.2-1.8-1.7-3.4-1.8c-1.7-0.1-3.4,0.6-4.5,1.9c-1.7,1.6-3.8,2.4-7.3,2.4c-3.1,0-6.1-1-6.7-2.6l-4.1-0.1
	L155.5,166z"/>
<path class="st15" d="M166.7,172.9c-16.2-0.2-29.2-5.8-29.1-12.4c0-0.7-0.6-4.9-0.2-5.5c2.6-5.5,15.3-6.2,29.7-6
	c14.1,0.2,26,0,28.7,5.5c0.4,0.8,0.4,6.1,0.4,6.9C196,167.9,182.8,173.1,166.7,172.9z"/>
<ellipse transform="matrix(1.431121e-02 -0.9999 0.9999 1.431121e-02 8.8811 319.7723)" class="st16" cx="166.6" cy="155.4" rx="11.9" ry="29.3"/>
<ellipse transform="matrix(1.431121e-02 -0.9999 0.9999 1.431121e-02 8.8811 319.7723)" class="st15" cx="166.6" cy="155.4" rx="10.2" ry="24.9"/>
<path class="st16" d="M150.9,154.2l4,0.1c0.2-1.1,0.8-2,1.8-2.4l2.6,0.4c-0.9,0.4-1.6,1.3-1.7,2.3c0,1.1,1.6,2,3.8,2
	c1.8,0.1,3.5-0.5,4.8-1.8c1.8-1.9,4.3-2.8,6.9-2.6c3.3,0,5.8,1,6.4,2.5l4,0.1v1l-3.9-0.1c-0.1,0.9-0.6,1.7-1.4,2.1l-2.6-0.4
	c0.7-0.4,1.3-1.2,1.4-2c0-1.2-1.8-1.7-3.4-1.8c-1.7-0.1-3.4,0.6-4.5,1.9c-1.7,1.6-3.8,2.4-7.3,2.4c-3.1,0-6.1-1-6.7-2.6l-4.1-0.1
	L150.9,154.2z"/>
<path class="st15" d="M180.3,167.2c-16.2-0.2-29.2-5.8-29.1-12.4c0-0.7-0.6-4.9-0.2-5.5c2.6-5.5,15.3-6.2,29.7-6
	c14.1,0.2,26,0,28.7,5.5c0.4,0.8,0.4,6.1,0.4,6.9C209.7,162.3,196.5,167.4,180.3,167.2z"/>
<ellipse transform="matrix(1.431121e-02 -0.9999 0.9999 1.431121e-02 27.9301 327.8577)" class="st16" cx="180.3" cy="149.8" rx="11.9" ry="29.3"/>
<ellipse transform="matrix(1.431121e-02 -0.9999 0.9999 1.431121e-02 27.9301 327.8577)" class="st15" cx="180.3" cy="149.8" rx="10.2" ry="24.9"/>
<path class="st16" d="M164.5,148.6l4,0.1c0.2-1.1,0.8-2,1.8-2.4l2.6,0.4c-0.9,0.4-1.6,1.3-1.7,2.3c0,1.1,1.6,1.9,3.9,2
	c1.8,0.1,3.5-0.5,4.8-1.8c1.8-1.9,4.3-2.8,6.9-2.6c3.3,0,5.8,1,6.4,2.5l4,0.1v1l-3.8-0.1c-0.1,0.9-0.7,1.6-1.4,2.1l-2.6-0.4
	c0.7-0.4,1.3-1.2,1.4-2c0-1.2-1.8-1.7-3.4-1.8c-1.7-0.1-3.4,0.6-4.5,1.9c-1.7,1.6-3.8,2.4-7.3,2.4c-3.1,0-6.1-1-6.7-2.6l-4.1-0.1
	L164.5,148.6z"/>
<path class="st17" d="M160.5,109.9c-0.5-0.3,2-16.8,2-16.8l8.4,0.8l-2.1,16.6L160.5,109.9z"/>
<path class="st17" d="M177.3,111.6c-0.5-0.3,3.7-25,3.7-25l8.4,0.8l-3.8,24.8L177.3,111.6z"/>
<path class="st17" d="M194.1,113.2c-0.5-0.3,6.2-44.3,6.2-44.3l8.4,0.8l-6.4,44L194.1,113.2z"/>
<path class="st17" d="M210.8,114.8c-0.5-0.3,4.8-33.4,4.8-33.4l8.4,0.8l-4.9,33.2L210.8,114.8z"/>
<path class="st3" d="M219.3,119.9l-65.7-4.8l0.1-0.4c0.7-5.2,6.7-51.2,7-52.1l0.7,0.2c-0.3,1-4.6,33.9-6.9,51.5l64.9,4.7
	L219.3,119.9z"/>
<path class="st18" d="M247.1,134.9l1.5-8.1c-4.3,0.1-8.4-1.1-12-3.4l3-5.4c3.3,2.2,7.2,3.4,11.2,3.4c5.9,0,10.5-3.3,11.4-7.9
	s-1.9-7.1-7.5-9.5c-7.8-3.1-12.3-6.8-11-13.7c1.3-6.6,7.1-11.7,15-13l1.5-8.1h5.1l-1.5,7.8c3.6,0,7.1,0.9,10.2,2.7l-3,5.4
	c-3-1.9-6.4-2.8-9.9-2.7c-6.4,0-9.5,3.7-10.1,6.9c-0.8,4.2,1.9,6.2,8.5,9.1c7.9,3.3,11.4,7.4,10,14.5c-1.2,6.3-6.9,12.3-15.7,13.7
	l-1.5,8.3H247.1z"/>
</svg>
