<?xml version="1.0" encoding="utf-8"?>
<!-- Generator: Adobe Illustrator 25.0.0, SVG Export Plug-In . SVG Version: 6.00 Build 0)  -->
<svg version="1.1" id="Layer_1" xmlns="http://www.w3.org/2000/svg" xmlns:xlink="http://www.w3.org/1999/xlink" x="0px" y="0px"
	 viewBox="0 0 400 300" style="enable-background:new 0 0 400 300;" xml:space="preserve">
<style type="text/css">
	.st0{fill:#E0F2FB;}
	.st1{opacity:0.63;fill:url(#SVGID_1_);enable-background:new    ;}
	.st2{fill:#B1D0EB;}
	.st3{opacity:0.15;enable-background:new    ;}
	.st4{fill:#FFFFFF;}
	.st5{fill:#FFEDE1;}
	.st6{fill:#56403D;}
	.st7{fill:#80C076;}
	.st8{fill:#7FC07B;}
	.st9{fill:#5EB243;}
	.st10{fill:#ADDADB;}
	.st11{fill:#ADDBDD;}
	.st12{fill:#ADD9D4;}
	.st13{opacity:0.63;fill:url(#SVGID_2_);enable-background:new    ;}
	.st14{opacity:0.73;enable-background:new    ;}
	.st15{fill:#297600;}
	.st16{fill:#5FAD00;}
</style>
<g>
	<g id="Layer_2_1_">
		<path class="st0" d="M26.1,151.5l135.6-78.9c2-1.1,4.4-1.1,6.4,0l202.8,116c3.1,1.8,4.1,5.7,2.4,8.7c-0.6,1-1.4,1.8-2.4,2.4
			l-129.7,74.9c-6.5,3.7-14.5,3.7-20.9,0L26.1,162.6c-3.1-1.8-4.1-5.7-2.4-8.8C24.3,152.9,25.1,152.1,26.1,151.5z"/>
		
			<linearGradient id="SVGID_1_" gradientUnits="userSpaceOnUse" x1="245.5331" y1="49.3435" x2="228.9731" y2="77.7335" gradientTransform="matrix(1 0 0 -1 0 302)">
			<stop  offset="0" style="stop-color:#FFFFFF;stop-opacity:0"/>
			<stop  offset="0.99" style="stop-color:#7A98CE"/>
		</linearGradient>
		<path class="st1" d="M221,273.4c35.9-23.7,56.6-26,90-50.6c-21.1-11-57.1-32.5-70.1-40.6l-88.9,51.9l67.4,39.3L221,273.4z"/>
		<polygon class="st2" points="90.4,200.3 168.4,244.4 259.5,191.4 259.5,155.8 168.4,208.8 90.4,164.2 		"/>
		<polygon class="st3" points="90.4,200.3 168.4,244.4 259.5,191.4 259.5,155.8 168.4,208.8 90.4,164.2 		"/>
		<polygon class="st2" points="90.4,164.2 183.2,111 259.5,155.8 168.4,208.8 		"/>
		<polygon class="st3" points="168.4,208.8 168.4,244.4 259.5,191.4 259.5,155.8 		"/>
		<g>
			<path class="st4" d="M168.5,130.6c0.6,0.3,1.2,0.7,1.7,1.2c0.4,0.3,0.7,0.7,1,1.1c0.2,0.3,0.3,0.6,0.4,0.9
				c0.1,0.2,0.1,0.4,0.1,0.7v0.3l-4.1,0.3c0-0.1,0-0.3,0-0.4c-0.1-0.3-0.2-0.6-0.4-0.9c-0.3-0.5-0.7-0.8-1.2-1.1
				c-0.6-0.3-1.3-0.5-2.1-0.5c-0.6,0-1.2,0.1-1.7,0.4c-0.4,0.2-0.6,0.8-0.4,1.2c0,0,0,0,0,0.1c0.3,0.6,0.7,1.1,1.2,1.6
				c0.6,0.5,1.1,1.1,1.6,1.7c0.5,0.5,0.7,1.3,0.6,2c-0.2,0.9-0.8,1.6-1.6,2.1c-1.5,1-3.2,1.5-5,1.4c-2,0-4-0.5-5.8-1.5
				c-0.7-0.4-1.3-0.8-1.9-1.3c-0.4-0.4-0.8-0.8-1.1-1.3c-0.2-0.4-0.4-0.7-0.5-1.1c-0.1-0.3-0.1-0.5-0.1-0.8v-0.3l4-0.2
				c0,0.1,0,0.3,0,0.5c0.1,0.4,0.3,0.8,0.6,1.2c0.4,0.6,1,1.1,1.6,1.4c0.8,0.4,1.6,0.7,2.5,0.7c0.7,0,1.5-0.2,2.1-0.6
				c0.5-0.2,0.6-0.8,0.4-1.2c0,0,0,0,0,0c-0.3-0.6-0.7-1.1-1.2-1.6c-0.6-0.5-1.1-1.1-1.6-1.7c-0.5-0.5-0.7-1.3-0.6-2
				c0.2-0.9,0.8-1.6,1.6-2.1c1.4-0.9,3-1.3,4.7-1.3C165,129.2,166.9,129.7,168.5,130.6z"/>
			<path class="st4" d="M186.1,151.8l-1.3,0.7l-8.1-4.3c-0.4,0.4-0.6,0.9-0.5,1.5c0.2,0.7,0.8,1.2,1.4,1.5c0.6,0.3,1.3,0.5,1.9,0.6
				c0.6,0.1,1.1,0.1,1.7,0.1h0.6l-0.3,2.1h-0.4c-0.2,0-0.5,0-1,0c-0.5,0-1-0.1-1.5-0.1c-0.6-0.1-1.2-0.2-1.8-0.4
				c-0.6-0.2-1.3-0.5-1.9-0.8c-1.6-0.9-2.5-2-2.6-3.3s0.6-2.5,2.1-3.5c1.6-1.1,3.6-1.7,5.5-1.7c2-0.2,4,0.2,5.7,1.1
				c1.6,0.9,2.4,1.9,2.5,3.1S187.6,150.8,186.1,151.8z M178.7,146.8l5.1,2.8c0.4-0.3,0.6-0.9,0.5-1.4c-0.2-0.6-0.6-1-1.1-1.3
				c-0.7-0.4-1.4-0.5-2.2-0.5C180.3,146.4,179.5,146.5,178.7,146.8"/>
		</g>
		<path class="st4" d="M179.3,138.4l-3.3,2.2l2.3,1.2l-2.6,1.7l-2.3-1.2l-4.2,2.8c-0.3,0.1-0.5,0.4-0.4,0.8c0,0.3,0.2,0.5,0.6,0.8
			c0.2,0.1,0.4,0.2,0.6,0.3c0.2,0.1,0.4,0.1,0.5,0.1h0.2l-2.5,1.7c-0.8-0.2-1.6-0.5-2.3-0.9h-0.1c-2.4-1.3-2.3-2.7,0.1-4.3l4.3-2.9
			l-1.9-1l2.6-1.7l1,0.6c0.4,0.2,0.8,0.3,1.3,0.2c0.5,0,1-0.2,1.4-0.5l1.9-1.3L179.3,138.4z"/>
		<path class="st4" d="M202.2,156c0,1.3-0.8,2.4-2.3,3.5c-1.6,1.1-3.5,1.7-5.5,1.8c-1.8,0.2-3.7-0.2-5.4-1c-0.6-0.3-1.1-0.7-1.4-1.2
			c-0.3-0.3-0.4-0.7-0.4-1.1v-0.4l-5.8,3.9l-3.1-1.6l15-10.1l3.1,1.6l-1.3,0.9h0.3h0.8c0.4,0,0.7,0,1.1,0c0.4,0.1,0.9,0.1,1.3,0.3
			c0.5,0.2,0.9,0.4,1.4,0.7C201.3,153.5,202.1,154.7,202.2,156z M193.9,158.7c1-0.1,2-0.4,2.9-1c0.7-0.3,1.1-1,1.3-1.7
			c0-0.7-0.5-1.3-1.1-1.6c-0.9-0.4-1.8-0.6-2.8-0.5c-1,0.1-2,0.4-2.9,1c-0.7,0.4-1.2,1-1.3,1.8c0,0.7,0.5,1.3,1.1,1.6
			c0.9,0.4,1.8,0.6,2.8,0.5"/>
		<path class="st4" d="M222.4,159.7l-15,10.1L204,168l10.9-7.3l-2.8-1.5l2-1.4c0.5,0.2,1.1,0.4,1.7,0.5c0.5,0.1,1,0.2,1.5,0.2
			c0.4,0,0.8,0,1.1-0.1c0.3,0,0.5-0.1,0.8-0.1l0.3-0.1L222.4,159.7z"/>
		<polyline class="st5" points="103.8,117.7 98.9,143.5 113.1,127.3 		"/>
		<path class="st5" d="M139,183.3c-1.2-0.4-6.2-0.1-6.2-0.1s-0.3-4.1-0.2-4.3l-5.2-0.2c0,0-1.4,7.4-1.5,8.4c-0.2,1.8,2,2.6,2.5,2.6
			c0.4-0.1,0.7-0.2,1.1-0.3c-0.1-1-0.1-1.9,0-2.9c0.1-0.4,0.2-0.7,0.6-0.9c0.8-0.2,2.2,0.4,2.9,0.6s1.8,0.6,2.7,0.8
			c2.1-0.9,4-1.7,4.1-2.1C140.4,184.1,140.8,183.9,139,183.3z"/>
		<path class="st6" d="M140.7,183.8l-0.1-0.1c-0.4-0.4-1.4-0.5-1.9-0.6c-2-0.2-4-0.1-5.9,0.1c0,0,4.7-0.1,4.8,0.7
			c0.1,0.7-0.2,1.4-0.7,1.9c-2.1,1.5-5-0.7-6.8-1.7l-3.4-1.9l-0.5,2.9c-0.3,1.3-0.4,2.6-0.4,3.9c0.2,0.4,2.2,1.8,2.6,1.6
			s1.9-0.9,1.9-0.9l0.1-3.5c0,0,2.8,1.6,4.2,1.4C135.8,187.4,141.8,185.6,140.7,183.8z"/>
		<path class="st5" d="M98.9,207.9c-0.8-0.4-1.9-0.7-2.4-1.5c-0.4-0.9-0.4-1.9-0.2-2.8c0.1-0.9,0.2-1.8,0.3-2.6
			c-0.1-0.1-0.1-0.2-0.1-0.3c0-0.7,0.1-1.4,0.2-2.1l-3.6-0.7c0,0-2.3,6-2.2,6.7s3,5.8,4.7,6.3s6.8-0.5,7.2-1.1v-0.1
			C101.5,209.1,100.2,208.5,98.9,207.9z"/>
		<path class="st6" d="M94.2,205c0,0,1.3,6.1,1.9,6.6s8.2-1.1,7.2-2.6c-0.6-1-5-1.4-5.4-1.6c0,0,2.2,1,2.2,1.4s-3.1,1.4-3.2,1.1
			s-2.8-5.8-2.8-5.8l-2.9-1.4l-3,5.2l2,1.1c0,0,0.5,1.7,0.7,1.7c0.8-0.9,1.6-1.9,2.2-2.9c0.1,0.8,0.2,1.5,0.5,2.2
			c0.3,0.2,2.5,2.5,3.8,1.1l-1.8-2.5"/>
		<path class="st7" d="M114.9,147.9c2.3-7.6,2.4-6.2,3.9-12.5l-15.2-4C95.9,143,88.7,199,88.7,199s7.5,6,14,4.2
			c0,0,8.8-46.2,8.8-46.3C112.8,153.8,112.8,153.2,114.9,147.9z"/>
		<path class="st8" d="M137.3,150.8c-2.2-7.2-20.6-16-20.6-16l-6.4,19.4c0.3-1,11.8,2,12.9,3.2c2.6,2.8,1.4,8.5,1,11.9
			c0,0-1.1,5.6-1.8,9.5c4.5,3.4,12.9,0,12.9,0S139.5,158,137.3,150.8z"/>
		<path class="st9" d="M112.5,154.2c0,0-4.1-0.6-6.4-2.5l-0.8,34.7L112.5,154.2z"/>
		<path class="st5" d="M130.9,127.3l2.4,16.8c0,0,4.6,4,5.3,6.1c0.3,1.3,0,2.8-0.8,3.8l-8.9-8.4l-6-19.1"/>
		<path class="st10" d="M123.8,109.4c0.3,0.8,4,3.9,5,8.4s2.1,9.6,2.1,9.6l-11.2,4.1"/>
		<path class="st11" d="M111.4,107.2c-2.6-0.3-10.1,9.6-10,11.1s5,5.6,5,5.6"/>
		<path class="st12" d="M125.3,111.6l-0.6-0.1c-3-0.4-5.8-5-5.8-5s0.2-9.6-6.2-2.7c-4.8,5.1-8.1,21-9.5,28.7
			c1.9,1.9,4.7,2.8,7.2,3.5c1.7,0.5,3.4,0.8,5.2,1c1.1,0.1,2.2,0,3.2-0.4l4-12.2C123.5,120,124.3,115.8,125.3,111.6z"/>
		<path class="st5" d="M127.8,100c0,0,0.6,8.9-4,9.3s-6.1-4.3-6-5.3S120.9,96.4,127.8,100z"/>
		<path class="st6" d="M128.6,99.1c-1.4-2.1-3.6-3.5-6.1-3.8c-2.1-0.5-4.2-0.3-6.2,0.4c-0.3-0.5-0.8-1-1.4-1.3
			c-1.4-0.7-3.1-0.5-4.3,0.6c-1,1.1-1.2,2.7-0.3,3.9c0.7,0.8,1.6,1.3,2.7,1.5l-0.1,0.2c-0.5,1.4-2.1,1.6-3.1,2.5
			c-0.5,0.4-0.8,1-0.9,1.6c-0.1,0.6,0.2,1.5-0.1,2.1s-0.8,0.7-1.1,1c-0.4,0.3-0.8,0.6-1.2,1c2.1,2.7,5.5,4.1,8.7,4.8
			c3.5,0.8,7.2,0.5,10.5-0.9c0-0.3-0.1-0.7-0.2-1c-0.4-0.6-0.8-1.1-1.3-1.6c-0.6-0.8,0.8-1.9,1.2-2.6c0.5-1.3-0.2-2.3-1.1-3.2
			c-0.6-0.7-0.5-1.2-0.1-2c0.2-0.7,0.6-1.2,1.2-1.7c0.2,0.1,0.5,0.2,0.7,0.2c0.5-0.1,1-0.1,1.5,0c0.5,0,1-0.4,1.1-0.9
			C128.8,99.7,128.8,99.3,128.6,99.1z"/>
		<path class="st6" d="M124.5,100.7c1.3,0.3,2.7,0.4,4.1,0.3c0-0.1,2.4-4.5-6.3-6.4s-9.1,9.3-9.1,9.3"/>
		
			<linearGradient id="SVGID_2_" gradientUnits="userSpaceOnUse" x1="331.7317" y1="95.7968" x2="324.9017" y2="107.5168" gradientTransform="matrix(1 0 0 -1 0 302)">
			<stop  offset="0" style="stop-color:#FFFFFF;stop-opacity:0"/>
			<stop  offset="0.99" style="stop-color:#7398D0"/>
		</linearGradient>
		<path class="st13" d="M331.4,209.6c9.3-6.2,8.3-3,17-9.4c-5.5-2.9-22-13.2-25.4-15.3l-19.5,7.6l17.5,10.2
			C321.2,202.7,331.3,209.6,331.4,209.6z"/>
		<polyline class="st2" points="304.1,175.4 304.1,190.2 328.1,190.2 328.1,175.4 		"/>
		<ellipse class="st2" cx="316.1" cy="175.4" rx="12" ry="5.9"/>
		<ellipse class="st14" cx="316.1" cy="175.4" rx="12" ry="5.9"/>
		<ellipse class="st2" cx="316.1" cy="190.8" rx="12" ry="5.9"/>
		<path class="st15" d="M329.6,140.8c-2.5-1-6.1-4.5-9.1-4.4c-1,2.9-1.6,6-1.9,9.1c-0.6,5.1-0.7,10.2-0.4,15.3
			c0.1,1.1,0.2,2.3,0.3,3.4c0,0.3,0.1,0.7,0.3,1c0,3.9,0,7.9,0,11.8c0,0.2,0.2,0.4,0.4,0.4s0.4-0.2,0.4-0.4c0-3.8,0-7.6,0-11.3
			c1.2-0.4,2.4-0.9,3.5-1.6c2.3-1.4,4-3.6,4.9-6.1c1.9-5.4,0.7-11.4,2.6-16.8C330.1,141,329.8,140.9,329.6,140.8z"/>
		<path class="st16" d="M324.4,131.9c-1.4,0.8-2.6,2.1-3.4,3.5c-0.2,0.3-0.4,0.7-0.5,1l-0.1,0.2l0,0c-0.2,0.6-0.4,1.2-0.6,1.9
			c0.3-0.5,0.7-0.8,1.3-1c0.6-0.3,1.3-0.3,2-0.2c0.7,0.3,1.3,0.6,1.8,1c0.9,0.5,1.7,1.1,2.5,1.6c4,2.5,9.3,2.8,12.4-0.9
			c0-0.1,0.1-0.3,0.1-0.4C340.3,136.1,333.2,126.8,324.4,131.9z"/>
		<path class="st15" d="M338,140.6l0.5-0.3c0-0.1,0-0.2-0.1-0.3c-2.4-2.5-5-4.9-8.3-6.1c-2.4-0.9-4.9-1.1-7.4-0.7
			c-0.3,0.3-0.5,0.6-0.8,1c2.8-0.7,5.8-0.5,8.5,0.7c2.9,1.2,5.2,3.5,7.4,5.7C337.9,140.6,338,140.6,338,140.6z"/>
		<path class="st15" d="M297.6,146c-3.6,1.9-5.7,5.6-5.4,9.6c0.3,7.1,12,0.2,15.1-5.8s3.6,2.6,3.6,2.6"/>
		<path class="st16" d="M308.1,143.6c-2.2,0-4.4,0.3-6.5,0.9c-1.4,0.3-2.7,0.9-4,1.6c0.7,0.5,1.5,0.9,2.3,1.2
			c1.5,0.5,2.9,1.4,3.8,2.7c0.2,0.3,0.3,0.7,0.5,1.1c0.7,2.3,0.1,5.2,1.1,7.5s2.9,4.4,5.7,4.6c3.3,0.2,4.8-3,5.5-5.7
			s1.5-6.5,0.5-9.3C315.6,144.9,311.2,143.7,308.1,143.6z"/>
		<path class="st15" d="M312.5,154.6c-1.4-4.5-4.3-8.7-8.6-10.7h-0.2l-0.2,0.1l-0.8,0.2c5,1.9,8.1,6.8,9.4,11.8
			c1.6,6.4,1.1,13.4,1.1,20c0,0.2,0.2,0.3,0.4,0.3c0.1,0,0.3-0.1,0.3-0.3C313.9,169,314.5,161.5,312.5,154.6z"/>
	</g>
</g>
</svg>
