<?xml version="1.0" encoding="utf-8"?>
<!-- Generator: Adobe Illustrator 24.1.2, SVG Export Plug-In . SVG Version: 6.00 Build 0)  -->
<svg version="1.1" id="Layer_1" xmlns="http://www.w3.org/2000/svg" xmlns:xlink="http://www.w3.org/1999/xlink" x="0px" y="0px"
	 viewBox="0 0 1920 1920" style="enable-background:new 0 0 1920 1920;" xml:space="preserve">
<style type="text/css">
	.st0{fill:url(#SVGID_1_);}
	.st1{fill:url(#SVGID_2_);}
	.st2{fill:url(#SVGID_3_);}
</style>
<linearGradient id="SVGID_1_" gradientUnits="userSpaceOnUse" x1="1175.6738" y1="571.1193" x2="1044.9504" y2="191.2044">
	<stop  offset="0" style="stop-color:#009471"/>
	<stop  offset="0.4621" style="stop-color:#289E7D"/>
	<stop  offset="0.7638" style="stop-color:#3DA383"/>
</linearGradient>
<path class="st0" d="M976.5,102.5c182.1,182.1,350.1,350.1,532.2,532.2c6.9,9,13.1,12.4,15.2,30.8c2.4,21.1-17.6,39-37.2,39
	c-170.4,0-348.3,0-523.5,0c-17,0-43.3-20.2-52.4-32.3c-6-8.1-10-13.7-22-34.6c-13.2-23.1-21.4-42.5-28.6-60.5
	c-6.7-18.6-18.5-63.9-23-113.3c-7.4-79.6-4.2-121.8,5.1-193c6.8-52.4,14.3-84.9,29.4-116.3c11-22.8,20.1-34.2,36.6-46.6
	C928.8,92.6,958.4,88.8,976.5,102.5z"/>
<linearGradient id="SVGID_2_" gradientUnits="userSpaceOnUse" x1="718.6292" y1="1298.8667" x2="837.0972" y2="1568.4838">
	<stop  offset="0" style="stop-color:#009471"/>
	<stop  offset="0.605" style="stop-color:#289E7D"/>
	<stop  offset="1" style="stop-color:#3DA383"/>
</linearGradient>
<path class="st1" d="M938.7,1818.4c-183-181.3-351.8-348.5-534.8-529.7c-7-9-13.2-12.3-15.4-30.8c-2.5-21.1,17.4-39.1,37-39.2
	c170.4-0.8,348.3-1.7,523.6-2.5c17-0.1,43.5,19.9,52.5,32.1c6,8.1,10.1,13.6,22.1,34.5c13.3,23.1,21.6,42.4,28.8,60.3
	c6.8,18.6,18.8,63.8,23.6,113.1c7.7,79.6,4.8,121.8-4.2,193c-6.6,52.4-13.8,85-28.8,116.5c-10.9,22.8-20,34.3-36.3,46.8
	C986.4,1828,956.9,1832,938.7,1818.4z"/>
<linearGradient id="SVGID_3_" gradientUnits="userSpaceOnUse" x1="447.5694" y1="960.4" x2="1475.4242" y2="960.4">
	<stop  offset="0.2111" style="stop-color:#78CE92"/>
	<stop  offset="0.2769" style="stop-color:#74CD90"/>
	<stop  offset="0.726" style="stop-color:#5BC582"/>
	<stop  offset="1" style="stop-color:#52C27D"/>
</linearGradient>
<path class="st2" d="M1639,967c0,175-73.6,170.6-73.6,170.6H351c0,0-71,4.4-71-170.6s69.5-183.8,69.5-183.8h1217.3
	C1566.9,783.2,1639,792,1639,967z"/>
</svg>
