<?xml version="1.0" encoding="utf-8"?>
<!-- Generator: Adobe Illustrator 25.0.0, SVG Export Plug-In . SVG Version: 6.00 Build 0)  -->
<svg version="1.1" id="Layer_1" xmlns="http://www.w3.org/2000/svg" xmlns:xlink="http://www.w3.org/1999/xlink" x="0px" y="0px"
	 viewBox="0 0 558.9 410.2" style="enable-background:new 0 0 558.9 410.2;" xml:space="preserve">
<style type="text/css">
	.st0{opacity:0.24;fill:#68A3FD;enable-background:new    ;}
	.st1{fill:#606161;}
	.st2{fill:url(#SVGID_1_);}
	.st3{fill:url(#SVGID_2_);}
	.st4{fill:#68A3FD;}
	.st5{fill:url(#SVGID_3_);}
	.st6{fill:url(#SVGID_4_);}
	.st7{fill:url(#SVGID_5_);}
	.st8{fill:url(#SVGID_6_);}
	.st9{fill:#52C27D;}
	.st10{fill:url(#SVGID_7_);}
	.st11{fill:url(#SVGID_8_);}
	.st12{fill:url(#SVGID_9_);}
	.st13{fill:url(#SVGID_10_);}
	.st14{fill:#F5C7C8;}
	.st15{fill:url(#SVGID_11_);}
	.st16{fill:url(#SVGID_12_);}
	.st17{fill:url(#SVGID_13_);}
	.st18{fill:url(#SVGID_14_);}
</style>
<path class="st0" d="M153.1,3.9c-31.4,8.9-55.8,36-66.5,66.8c-7.6,21.9-9.2,46.1-20.7,66.2c-11.4,20-31.2,33.7-44.7,52.3
	C-5.6,226.1-3.9,276.9,9.3,320.5c6.2,20.5,15.2,41,30.9,55.7c18.4,17.1,44.1,24.2,69.2,25.6s50-2.6,75-4.8
	c24.1-2.1,48.5-2.6,72.6,0.5c19,2.5,37.6,7.2,56.5,9.9c43.1,6.2,87.3,2.1,129.6-8.3c15.9-3.9,32.7-9.4,42.8-22.4
	c13.8-17.8,10.3-42.9,13.7-65.2c7.9-50.6,53.7-89.7,58.8-140.6c4.1-41.4-20.3-81-52-108c-19.3-16.5-42.2-29.8-67.4-33.2
	c-18-2.4-36.5,0.3-54.3-3.2c-21.2-4.2-40.2-15.6-61.6-19.7c-14.7-2.8-28.3-1.7-43-0.1C237.9,11,194.6-7.8,153.1,3.9z"/>
<path class="st0" d="M75.6,337.5c-1.2,0.1-2.4,0.6-3.4,1.4c-3,3.1,2.3,7.3,6.6,8.1c12.3,2.3,24.9,2.6,37.5,2.9
	c34.7,0.8,69.3,1.4,104,2c11.8,0.2,24.1,0.3,34.8-4.9c-1.9-2.8-4.5-5-7.4-6.5l46.7-0.3c3.1,0,6.5,0.1,8.8,2s2.6,6.5-0.3,7.6
	c49.1,9.2,99.4,9.6,148.6,1.4c5-0.8,11.5-4.1,9.9-8.9c-1.2-3.4-5.7-4.1-9.3-4.2c-99.1-2.3-198.2-4.4-297.3-7.1
	c-13.4-0.4-26.8-0.1-40.1,1C101.9,333.2,88.2,337.5,75.6,337.5z"/>
<path class="st1" d="M190.8,273.1c4.4,5.3,4,12.9,4.1,19.8c0.1,6.7,0.8,13.4,2.1,20c0.3,1.5,0.7,3.1,2,3.8c0.8,0.4,1.7,0.6,2.5,0.5
	l7.8,0.3c2,0.1,4.3,0.1,5.5-1.4c0.7-0.9,1.1-2,1.2-3.1c2.1-10.6,3.3-21.4,3.6-32.2c0.3-4.3-0.1-8.5-1-12.7c-1.1-4.1-3.4-8-7-10.3
	c-3.9-2.5-8.9-2.8-13.5-2.9c-5-0.1-10.1-0.2-14.8,1.4c-3.9,1.3-11.3,5.6-5.9,9.4C181.8,268.7,187.1,268.6,190.8,273.1z"/>
<linearGradient id="SVGID_1_" gradientUnits="userSpaceOnUse" x1="230.6139" y1="59.5789" x2="177.5339" y2="142.9089" gradientTransform="matrix(1 0 0 -1 -2.1 382.29)">
	<stop  offset="0" style="stop-color:#010101;stop-opacity:0"/>
	<stop  offset="0.95" style="stop-color:#010101"/>
</linearGradient>
<path class="st2" d="M190.8,273.1c4.4,5.3,4,12.9,4.1,19.8c0.1,6.7,0.8,13.4,2.1,20c0.3,1.5,0.7,3.1,2,3.8c0.8,0.4,1.7,0.6,2.5,0.5
	l7.8,0.3c2,0.1,4.3,0.1,5.5-1.4c0.7-0.9,1.1-2,1.2-3.1c2.1-10.6,3.3-21.4,3.6-32.2c0.3-4.3-0.1-8.5-1-12.7c-1.1-4.1-3.4-8-7-10.3
	c-3.9-2.5-8.9-2.8-13.5-2.9c-5-0.1-10.1-0.2-14.8,1.4c-3.9,1.3-11.3,5.6-5.9,9.4C181.8,268.7,187.1,268.6,190.8,273.1z"/>
<path class="st1" d="M203.3,323.6c0,0.7,0.1,1.5,0.3,2.2c0.3,0.5,0.6,1,1,1.4c3.7,4.1,8.6,7,14,8.2c1.2,0.4,2.5,0.3,3.6-0.3
	c0.9-0.8,1.3-1.9,1.3-3c0.2-3.9-2-7.5-5.6-9.2c-1.3-0.6-2.7-0.9-4.1-1.4c-1.4-0.5-2.5-1.5-3-2.9c-0.5-1.7,0.2-3.9-1.1-5
	c-1.9-1.5-5.4-1.4-6.4,0.9C202.3,316.7,203.3,321,203.3,323.6z"/>
<path class="st1" d="M323.1,240.1c-22.3,21.9-13.1,51.9-13,65.2c0,3.5,11.3,9.9,13-5.6c0.1-0.9,1.4-40.7,31.6-38.8
	c11.4,0.7,25.8-14.2,16.8-28.5C364.6,221.5,330,233.3,323.1,240.1z"/>
<linearGradient id="SVGID_2_" gradientUnits="userSpaceOnUse" x1="310.1988" y1="113.5183" x2="376.4306" y2="113.5183" gradientTransform="matrix(1 0 0 -1 -2.1 382.29)">
	<stop  offset="0" style="stop-color:#010101;stop-opacity:0"/>
	<stop  offset="0.95" style="stop-color:#010101"/>
</linearGradient>
<path class="st3" d="M323.1,240.1c-22.3,21.9-13.1,51.9-13,65.2c0,3.5,11.3,9.9,13-5.6c0.1-0.9,1.4-40.7,31.6-38.8
	c11.4,0.7,25.8-14.2,16.8-28.5C364.6,221.5,330,233.3,323.1,240.1z"/>
<path class="st1" d="M312.1,308c0.7,2.6-0.4,5.3-1.4,7.8c-1.7,3.9-2.9,8.1-3.5,12.3c-0.2,0.7-0.1,1.4,0.2,2c0.7,1.1,2.4,0.9,3.6,0.4
	c2-0.9,3.8-2.2,5.2-3.9c1.6-2.2,3-4.6,3.9-7.1c0.6-1.3,1.1-2.8,1.4-4.2c0.2-2.3,0-4.6-0.7-6.7c-0.1-0.4-0.3-0.8-0.6-1.1
	c-0.3-0.2-0.7-0.2-1-0.2c-1.7,0-3.3,0.8-4.9,0.8L312.1,308z"/>
<ellipse class="st4" cx="147.2" cy="334.1" rx="21.2" ry="8.4"/>
<linearGradient id="SVGID_3_" gradientUnits="userSpaceOnUse" x1="149.2945" y1="103.7496" x2="146.1845" y2="65.8796" gradientTransform="matrix(1 0 0 -1 0 412)">
	<stop  offset="0" style="stop-color:#010101;stop-opacity:0"/>
	<stop  offset="0.95" style="stop-color:#010101"/>
</linearGradient>
<ellipse class="st5" cx="147.2" cy="334.1" rx="21.2" ry="8.4"/>
<ellipse class="st4" cx="402.8" cy="334.1" rx="21.2" ry="8.4"/>
<linearGradient id="SVGID_4_" gradientUnits="userSpaceOnUse" x1="404.8677" y1="103.7502" x2="401.7677" y2="65.8802" gradientTransform="matrix(1 0 0 -1 0 412)">
	<stop  offset="0" style="stop-color:#010101;stop-opacity:0"/>
	<stop  offset="0.95" style="stop-color:#010101"/>
</linearGradient>
<ellipse class="st6" cx="402.8" cy="334.1" rx="21.2" ry="8.4"/>
<path class="st4" d="M396.8,271.6H408l0,0v57.3c0,3.1-2.5,5.6-5.6,5.6l0,0c-3.1,0-5.6-2.5-5.6-5.6L396.8,271.6L396.8,271.6z"/>
<linearGradient id="SVGID_5_" gradientUnits="userSpaceOnUse" x1="396.78" y1="108.995" x2="407.95" y2="108.995" gradientTransform="matrix(1 0 0 -1 0 412)">
	<stop  offset="0" style="stop-color:#010101;stop-opacity:0"/>
	<stop  offset="0.95" style="stop-color:#010101"/>
</linearGradient>
<path class="st7" d="M396.8,271.6H408l0,0v57.3c0,3.1-2.5,5.6-5.6,5.6l0,0c-3.1,0-5.6-2.5-5.6-5.6L396.8,271.6L396.8,271.6z"/>
<path class="st4" d="M147.2,271.6L147.2,271.6c3.1,0,5.6,2.5,5.6,5.6v51.7c0,3.1-2.5,5.6-5.6,5.6h0c-3.1,0-5.6-2.5-5.6-5.6v-51.7
	C141.7,274.1,144.2,271.6,147.2,271.6z"/>
<linearGradient id="SVGID_6_" gradientUnits="userSpaceOnUse" x1="141.66" y1="108.995" x2="152.83" y2="108.995" gradientTransform="matrix(1 0 0 -1 0 412)">
	<stop  offset="0" style="stop-color:#010101;stop-opacity:0"/>
	<stop  offset="0.95" style="stop-color:#010101"/>
</linearGradient>
<path class="st8" d="M147.2,271.6L147.2,271.6c3.1,0,5.6,2.5,5.6,5.6v51.7c0,3.1-2.5,5.6-5.6,5.6h0c-3.1,0-5.6-2.5-5.6-5.6v-51.7
	C141.7,274.1,144.2,271.6,147.2,271.6z"/>
<path class="st9" d="M104.8,202.6c-9,6.1-10.9,18.7-9.3,29.4c4.4,29.7,30.6,54.9,60.5,58c8.8,0.9,18.4-0.1,25-6
	c7.4-6.5,9.2-17.7,6.6-27.2s-9-17.5-16-24.4c-9.7-9.5-20.7-17.4-32.9-23.4C128.2,203.9,116.7,194.6,104.8,202.6z"/>
<linearGradient id="SVGID_7_" gradientUnits="userSpaceOnUse" x1="112.5244" y1="126.3983" x2="177.7043" y2="150.6083" gradientTransform="matrix(1 0 0 -1 -2.1 382.29)">
	<stop  offset="0" style="stop-color:#010101;stop-opacity:0"/>
	<stop  offset="0.95" style="stop-color:#010101"/>
</linearGradient>
<path class="st10" d="M104.8,202.6c-9,6.1-10.9,18.7-9.3,29.4c4.4,29.7,30.6,54.9,60.5,58c8.8,0.9,18.4-0.1,25-6
	c7.4-6.5,9.2-17.7,6.6-27.2s-9-17.5-16-24.4c-9.7-9.5-20.7-17.4-32.9-23.4C128.2,203.9,116.7,194.6,104.8,202.6z"/>
<path class="st9" d="M444.6,202.6c9,6.1,10.9,18.7,9.3,29.4c-4.4,29.7-30.6,54.9-60.5,58c-8.8,0.9-18.4-0.1-25-6
	c-7.4-6.5-9.2-17.7-6.6-27.2s9-17.5,16-24.4c9.7-9.5,20.8-17.4,32.9-23.4C421.2,203.9,432.6,194.6,444.6,202.6z"/>
<linearGradient id="SVGID_8_" gradientUnits="userSpaceOnUse" x1="-3007.5957" y1="126.3983" x2="-2942.4158" y2="150.6083" gradientTransform="matrix(-1 0 0 -1 -2568.6399 382.29)">
	<stop  offset="0" style="stop-color:#010101;stop-opacity:0"/>
	<stop  offset="0.95" style="stop-color:#010101"/>
</linearGradient>
<path class="st11" d="M444.6,202.6c9,6.1,10.9,18.7,9.3,29.4c-4.4,29.7-30.6,54.9-60.5,58c-8.8,0.9-18.4-0.1-25-6
	c-7.4-6.5-9.2-17.7-6.6-27.2s9-17.5,16-24.4c9.7-9.5,20.8-17.4,32.9-23.4C421.2,203.9,432.6,194.6,444.6,202.6z"/>
<path class="st1" d="M331.6,142c-2,3.8-1.9,8.4,0.2,12.2c1,1.9,2.7,3.4,4.8,4.1c1.8,0.4,3.8,0.2,5.5-0.3c3.8-0.9,7.5-2.1,11.1-3.6
	c2.1-0.9,4.4-2,5.3-4.1c0.8-1.7,0.4-3.7,0-5.5c-0.9-4.3-2.3-8.7-5-12.3c-1.6-2.2-3.8-3.9-6.4-4.9c-3-1.2-3.9-1-5.4,1.6
	C339.2,134.1,334.2,137.1,331.6,142z"/>
<path class="st4" d="M265.1,181.2c-2.5,9.3-5.7,18.3-9.8,27c-3.1,6.5-7.1,13.4-13.9,16c-7.7,3-17.4-0.2-24,4.8
	c-2.1,1.6-3.7,3.9-5.4,5.9c-8.7,10.3-22.6,14.3-35.7,17.5c-12.7,3.1-26.5,5.8-38.6,0.6c-2.4-1-4.6-2.3-6.7-3.8
	c-6.9-5-12.2-12.1-17-19.3c-0.5-0.8-1.1-1.5-1.6-2.4c-2.6-3.9-5.3-8-6.2-12.6c-1.4-7,1.7-14.1,5.3-20.3c4-6.6,8.4-12.8,13.3-18.8
	c6.9-8.7,14.3-17.4,24-22.8c7-3.9,14.8-5.9,22.6-7.9c14.3-3.6,27-1.1,39.8,6.4c8.3,4.8,11.7,14.9,13.2,24.4c0.6,3.6,0.9,7.3,1.4,11
	c0.8,5.9,1.8,11.7,4.4,17c6.2-3.3,8.7-10.8,11-17.4c0.7-2.5,2-4.9,3.7-6.9c0.7-0.7,1.6-1.3,2.5-1.8c4.3-2.3,10.2-1.5,15.3-0.4
	c1,0.1,1.9,0.5,2.5,1.3C265.4,179.5,265.4,180.4,265.1,181.2z"/>
<linearGradient id="SVGID_9_" gradientUnits="userSpaceOnUse" x1="236.9336" y1="208.2395" x2="191.7636" y2="-136.3604" gradientTransform="matrix(1 0 0 -1 -2.1 382.29)">
	<stop  offset="0" style="stop-color:#010101;stop-opacity:0"/>
	<stop  offset="0.95" style="stop-color:#010101"/>
</linearGradient>
<path class="st12" d="M254.3,191.6c-2.8,8.2-7,15.8-12.3,22.6c-1.9,2.7-4.3,5-7.1,6.9c-4.2,2.7-9.3,3.4-14.2,4.2
	c-5.3,0.8-5.9-0.9-5.5-5.2c0.6-5.6-0.6-11.7-0.9-17.3c-0.7-11.9-1.1-23.7-0.9-35.6c4.9,6.1,9,12.7,12.3,19.8
	c0.8,5.9,1.8,11.7,4.4,17c6.2-3.3,8.7-10.8,11-17.4c0.7-2.5,2-4.9,3.7-6.9c0.7-0.7,1.6-1.3,2.5-1.8c2-0.5,4,0,5.7,1.2
	C256.6,181.7,255.8,187.3,254.3,191.6z"/>
<linearGradient id="SVGID_10_" gradientUnits="userSpaceOnUse" x1="192.6875" y1="189.6797" x2="64.2175" y2="23.9397" gradientTransform="matrix(1 0 0 -1 -2.1 382.29)">
	<stop  offset="0" style="stop-color:#010101;stop-opacity:0"/>
	<stop  offset="0.95" style="stop-color:#010101"/>
</linearGradient>
<path class="st13" d="M211.4,231c-0.6,0.4-1.3,0.6-2,0.6l-20.4,0.9c-6.4,0.3-13,0.6-18.7,3.4c-1.7,0.8-3.3,1.9-5,2.6
	c-2.1,0.7-4.3,1.4-6.4,1.9c-3.9,1.1-18.3,7.3-22.3,8.2c-1.8,0.4-3.7,0.6-5.6,0.6c-6.9-5-12.2-12.1-17-19.3c3-1.2,6-2.4,6.5-2.5
	c4.1-0.5,8.2-0.7,12.2-0.5c6.6,0.1,13.3,0.2,20,0.3c2,0.1,4-0.1,5.9-0.7c2.1-1,4-2.4,5.5-4.2c0.4-0.3,0.7-0.8,0.6-1.3
	c-0.1-0.3-0.4-0.6-0.7-0.8c-1.6-0.9-2.9-2.3-3.9-3.8c-0.6-1.3-0.3-2.9-1.1-4c-1.1-1.4-4.5-2.3-6.1-3l-7.1-3.4
	c-1.2-0.5-2.3-1.2-3.3-2.1c-2.1-2.3-2-6-0.7-8.9s3.4-5.3,4.9-8c1.3-2.4,2.2-5,3.5-7.3s3.2-4.6,5.8-5.5c2.9-1,5.9-0.1,8.8,0.8
	c10.1,3,20.3,6,30.5,9.1c4.3,1.3,9.1,2.9,11.1,7c1,2.1,1.1,4.4,1.2,6.8c0.4,10.3,1.7,20.5,3.9,30.5C212,229.1,212.1,230.3,211.4,231
	z"/>
<path class="st14" d="M209.3,119.2c0.7,1.4,2,2.6,1.8,4.1c-0.2,1.9-2.3,2.9-3.4,4.5c-1.6,2.5-0.4,6.3-2.4,8.6
	c-1.4,1.5-3.6,1.7-5.6,2.4c-3.6,1.3-6.1,4.8-7.4,8.4c-0.6,1.5-1.1,3-1.7,4.4c-4.3,10.2-14.1-4.8-13.7-7.6c0.5-2.8,3-8.9,3.6-11.6
	c1-4.2,0.4-8.6,0.6-12.9c0.2-3.7,0.9-7.4,2.2-10.9c0.7-2.1,1.8-4,3.4-5.6c2.4-2.2,5.9-2.8,9.2-2.7c2.4,0.1,5.1,0.6,6.8,2.3
	c1.1,1.3,1.8,2.8,2.3,4.4c0.4,1.1,0.8,2.2,1.4,3.3c0.6,0.9,1,1.8,1.3,2.8C208.3,115,208.3,117.2,209.3,119.2z"/>
<path class="st1" d="M192.3,97.6c4.6,0.4,9.3,1.9,12,5.6c1,1.1,1.3,2.6,1,4c-0.4,0.9-1.1,1.7-1.9,2.2c-1.3,0.9-2.8,1.6-4.3,2
	c-2.6,0.8-5.8,0.9-7.5,3.1c-1.5,1.9-1.1,4.7-1.9,7.1c-0.1,0.3-0.3,0.7-0.6,0.7c-0.2,0-0.4-0.1-0.5-0.2c-1.3-0.9-2.4-2.4-3.9-2.3
	s-2.7,2-2.5,3.7c0.4,1.6,1.3,3.1,2.6,4.2c0.7,0.6,1.2,1.5,1.5,2.4c0.3,1.6-1.1,3.2-2.7,3.6c-1.7,0.2-3.4-0.2-4.8-1.1
	c-3.6-2.1-6.1-5.7-8-9.4c-0.9-1.6-1.5-3.2-1.8-5c-0.2-1.7-0.2-3.5,0.1-5.3c0.5-4,1.7-7.9,5.7-9.6c3.4-1.5,6.2-4,9.7-5
	C187.1,97.5,189.7,97.3,192.3,97.6z"/>
<path class="st14" d="M254.6,164c2.5-4,6.1-7.4,10.7-8.6c-0.3,1.9-1.1,3.6-2.1,5.2c5.6-2.7,11.5-4.7,17.6-6.1c0.7-0.2,1.5-0.2,2,0.3
	c0.2,0.3,0.3,0.6,0.2,1c-0.1,1.7-0.7,3.2-1.6,4.6c-2.7,4.4-6.6,7.9-11.4,10c-2.4,1-5,1.7-7,3.3c-1.6,1.3-2.7,3.2-4,4.8
	c-1.3,1.6-3.7,3.6-6.1,3c-1.9-0.5-3.3-2.1-3.6-4c-0.1-2,1.1-4.4,1.8-6.2C252.1,168.8,253.2,166.4,254.6,164z"/>
<path class="st4" d="M132.5,203.5c10.2-0.3,20.5,0.1,30.7,1.1c0.5-0.1,1,0.3,1.1,0.9c0,0.1,0,0.1,0,0.2c0.3,3.5,0.3,7-0.3,10.5
	c-0.1,0.8-0.3,1.6-0.8,2.3c-0.7,0.8-1.6,1.4-2.6,1.6c-1.8,0.5-3.7,0.7-5.6,0.8c-13.1,1-26.2,2.1-39.3,1.4c-1.7,0-3.5-0.4-5-1.1
	c-1.1-0.7-1.9-1.7-2.6-2.8c-0.9-1.3-1.6-2.7-2-4.2c-0.7-2.7-0.3-5.5,1.1-7.9c1.6-2.5,4.1-4.3,7-5.1c2.8-0.8,5.8-1,8.7-0.7
	c1.5,0.1,2.9,0.4,4.3,0.9c2.6,1,5.1,3.2,7.8,2.6"/>
<path class="st14" d="M174.8,211.7c6.3,0,13.1,0.6,17.9,4.7c0.6,0.5,1.1,1.1,1.4,1.7c0.3,0.7,0.1,1.5-0.5,2
	c-0.4,0.2-0.9,0.4-1.4,0.4c-4.7,0.2-9.4-1.1-14-0.4c-2.3,0.4-4.5,1.2-6.8,1.4c-4.4,0.4-8.6-1.6-12.6-3.6c-0.3-0.1-0.5-0.3-0.7-0.5
	c-0.2-0.4-0.1-0.9,0.1-1.2c0.4-1,0.9-2.8,1.7-3.5c0.8-0.7,3.1-0.5,4.3-0.6C167.7,211.9,171.3,211.7,174.8,211.7z"/>
<path class="st4" d="M202,182.5h3.8c1.9,0,3.4,1.5,3.4,3.4v18.5c0,1.9-1.5,3.4-3.4,3.4H202c-1.9,0-3.4-1.5-3.4-3.4v-18.5
	C198.6,184,200.1,182.5,202,182.5z"/>
<path class="st1" d="M131.6,243.4c12.4-8.9,31.6-8,46.9-8.4c10.8-0.3,21.6-0.2,32.3,1.4c4.9,0.7,9.8,1.8,14.1,4.2s8,6.2,11.4,10
	c12.5,14.1,22.8,30.4,28.7,48.3c-3.3,1.5-6.8,2.4-10.3,2.7c-1.2,0.2-2.5,0.1-3.7-0.3c-1.3-0.6-2.4-1.4-3.4-2.4
	c-8.7-8.1-17.4-16.2-26.8-23.5c-3.7-2.9-7.7-5.7-12.3-6.5c-2.7-0.4-5.4-0.4-8.1,0c-6.5,0.6-13,1.5-19.5,2.7
	c-12,2.2-25.2,6.8-35.3-0.2C128.8,259.8,128.3,245.8,131.6,243.4z"/>
<linearGradient id="SVGID_11_" gradientUnits="userSpaceOnUse" x1="209.6969" y1="77.269" x2="168.7269" y2="199.239" gradientTransform="matrix(1 0 0 -1 -2.1 382.29)">
	<stop  offset="0" style="stop-color:#010101;stop-opacity:0"/>
	<stop  offset="0.95" style="stop-color:#010101"/>
</linearGradient>
<path class="st15" d="M131.6,243.4c12.4-8.9,31.6-8,46.9-8.4c10.8-0.3,21.6-0.2,32.3,1.4c4.9,0.7,9.8,1.8,14.1,4.2s8,6.2,11.4,10
	c12.5,14.1,22.8,30.4,28.7,48.3c-3.3,1.5-6.8,2.4-10.3,2.7c-1.2,0.2-2.5,0.1-3.7-0.3c-1.3-0.6-2.4-1.4-3.4-2.4
	c-8.7-8.1-17.4-16.2-26.8-23.5c-3.7-2.9-7.7-5.7-12.3-6.5c-2.7-0.4-5.4-0.4-8.1,0c-6.5,0.6-13,1.5-19.5,2.7
	c-12,2.2-25.2,6.8-35.3-0.2C128.8,259.8,128.3,245.8,131.6,243.4z"/>
<path class="st4" d="M339.4,144.4c-8.1,3.1-12.2,12-15.2,20.2c-4.3,11.8-8.2,24.1-8.5,36.6c-0.2,7.1,1.4,15.3,7.3,19.2
	c4.3,2.8,9.9,2.7,15.1,2.5l18.5-0.7c1.1-0.3,2.3,0.4,2.5,1.6c0,0.1,0,0.2,0,0.3c0.8,2.3,10.8,3.7,11.5,6c0.5,1.6-8.1,4.3-6.8,5.4
	s3.3,1.4,5.1,1.5c13.1,1,26.3,0.7,39.4-0.9c2.7-0.3,5.5-0.8,7.4-2.7c2.6-2.7,2-7.1,1.3-10.8c7.1-0.5,14.8-3.4,17.8-9.9
	c1.8-3.9,1.6-8.4,0.4-12.5c-1.2-4.1-3.3-7.8-5.3-11.6c-3.7-6.7-7.1-13.7-12.1-19.5c-5-5.8-11.2-10.1-17.3-14.4
	c-4.9-3.4-9.8-6.8-15.4-8.9c-7.7-2.8-15.7-2.3-23.8-3.1C354.4,142.4,345.9,141.9,339.4,144.4z"/>
<linearGradient id="SVGID_12_" gradientUnits="userSpaceOnUse" x1="369.6718" y1="199.6417" x2="424.9117" y2="11.5617" gradientTransform="matrix(1 0 0 -1 -2.1 382.29)">
	<stop  offset="0" style="stop-color:#010101;stop-opacity:0"/>
	<stop  offset="0.95" style="stop-color:#010101"/>
</linearGradient>
<path class="st16" d="M421.3,220.8c-9.9,2.1-20,2-30.1,1.8c-10.4-0.1-20.9-0.3-31.1-2.1c-1.3-0.1-2.5-0.6-3.3-1.5
	c-0.4-0.7-0.7-1.6-0.7-2.5c-0.4-3.5-0.6-7.4,1.8-9.9c1.5-1.5,3.6-2.1,5.6-2.7l23-6.3c3.5-1,7.4-2.1,9.5-5.1c4-5.8-0.8-14.9,3.7-20.3
	c-2.6-3.1-6.5-4.8-10.6-4.7c-4.2-0.1-8.3,1-12.4,2.1l-32.5,8.9c-2.7,0.7-5.5,1.5-7.7,3.2c-2.7,2.1-4.2,5.4-5.1,8.7
	c-3.6,14.5,5.3,29.1,19.7,32.7c1,0.2,2,0.4,3,0.6c2.3,0.3,5,0.4,6.4,2.3c1,1.2,1.1,2.8,1.8,4.2c1.9,3.7,6.9,4.2,11,4.2l25,0.3
	c5.7,0.1,12,0,16.5-3.5C418.4,228.3,419.5,225.1,421.3,220.8z"/>
<path class="st14" d="M339.1,124.8c-0.5,0.8-1.1,1.9-0.5,2.6c0.2,0.3,0.6,0.5,0.9,0.8c0.4,0.4,0.6,1,0.6,1.5c0.2,1.9-0.1,4,1.2,5.4
	c1.1,1.2,3,1.3,4.6,1.4l6.3,0.1c0.5,0,0.9,0.1,1.3,0.3c0.3,0.3,0.5,0.7,0.6,1.1c1.2,3.9,1.1,8.2,3,11.8c0.4,0.9,1.1,1.7,1.9,2.2
	c0.6,0.4,1.3,0.6,2,0.7c4.6,0.6,9-2.2,10.4-6.5c0.2-0.6,0.3-1.2,0.2-1.9c-0.2-0.9-0.6-1.7-1.1-2.5c-2.1-2.9-3.6-6.2-4.4-9.7
	c-0.3-2.1-0.5-4.2-0.6-6.3c-0.2-2.6-0.8-5.1-1.6-7.6c-0.3-1.1-0.8-2.1-1.5-3.1c-0.6-0.8-1.3-1.4-2.1-2c-2.8-2.2-5.8-4.5-9.3-5.3
	c-2.7-0.5-5.5-0.5-8.2,0c-1.1,0-2.1,0.4-2.8,1.2c-0.9,1.1-0.5,2.5-0.2,3.8c0.3,1.1,0.4,2.2,0.3,3.3C340,119,340.5,122.2,339.1,124.8
	z"/>
<path class="st1" d="M341,102.7c-3.8,2.7-5.9,8-4,12.2c0.3,0.8,0.9,1.5,1.6,2c0.9,0.5,1.9,0.7,2.9,0.7c2.4,0.2,4.7-0.2,6.9-1
	c2.2-0.9,4-2.5,5.1-4.7c0.2,3.1,1,6.2,2.4,9l3-2.4c0.2-0.2,0.5-0.3,0.8-0.3c0.3,0,0.5,0.2,0.6,0.4c1.2,1.6,1,4.1,0,5.8
	c-0.4,0.5-0.6,1.1-0.7,1.8c0.1,0.4,0.2,0.8,0.4,1.1l3.4,6.7c1.5,3.4,4.2,6.1,7.6,7.6c3.4,2.1,7.1,3.9,10.9,5.3
	c3.8,1.4,7.9,1.7,11.9,0.9c4-0.9,7.4-3.5,9.2-7.2c0.7-1.8,1.1-3.6,1.1-5.5c0.2-2.2-0.2-4.5-1.3-6.5c-1.1-1.8-2.7-3.2-4.5-4.2
	c-4-2.4-8.5-3.8-12.7-5.9c-1.8-0.8-3.4-1.9-4.8-3.3c-1.2-1.5-2.3-3.1-3.2-4.7c-4.4-6.5-11.8-10.3-19.6-10.3c-1.2,0-2.5,0.3-3.6,0.2
	c-1.4-0.2-2.7-0.3-4.1-0.3C346.9,99.9,343.7,100.9,341,102.7z"/>
<path class="st4" d="M325.1,75.1c-0.4,2.1,1,4,2.4,5.7s3.1,4.9,5,5.7c2.3,1,2.4-0.2,1.9-1.9c-0.6-2-2.6-4.1-4-5.5
	C330,78.6,325.1,75,325.1,75.1z"/>
<path class="st4" d="M314.4,89.2c-0.4,0.7,0.6,1.5,1.4,1.8c4.3,1.6,8.8,3.8,13.2,4.8C332.9,91.3,316.7,89,314.4,89.2z"/>
<path class="st4" d="M311.8,104.7c-0.6,0.1-1.3,0.4-1.4,0.9s0.6,1.1,1.2,1.3c2.1,0.7,11.8,2,11.6-0.6
	C322.9,101.5,314.1,104.2,311.8,104.7z"/>
<path class="st1" d="M372.6,227c-4.8,2-21.9,12-25.1,16.5c-3,4.3-4.2,9.8-5.1,15.2c-2.7,15.9-3.9,31.9-3.7,48c0,2.9,0.5,6.4,2.7,7.7
	c1.5,0.9,3.3,0.4,4.8-0.6c7.2-4.4,8-15.7,10.9-24.6c3.3-10,3.3-21.3,11.9-25.1c7-3.1,21.7-0.2,29.1-1.7s15.1-4.7,19.4-11.9
	c7.5-12.7-1.4-24.3-12.4-24.5C390,225.8,387,221.1,372.6,227z"/>
<linearGradient id="SVGID_13_" gradientUnits="userSpaceOnUse" x1="343.5639" y1="125.3696" x2="405.9439" y2="100.2296" gradientTransform="matrix(1 0 0 -1 -2.1 382.29)">
	<stop  offset="0" style="stop-color:#010101;stop-opacity:0"/>
	<stop  offset="0.95" style="stop-color:#010101"/>
</linearGradient>
<path class="st17" d="M372.6,227c-4.8,2-21.9,12-25.1,16.5c-3,4.3-4.2,9.8-5.1,15.2c-2.7,15.9-3.9,31.9-3.7,48
	c0,2.9,0.5,6.4,2.7,7.7c1.5,0.9,3.3,0.4,4.8-0.6c7.2-4.4,8-15.7,10.9-24.6c3.3-10,3.3-21.3,11.9-25.1c7-3.1,21.7-0.2,29.1-1.7
	s15.1-4.7,19.4-11.9c7.5-12.7-1.4-24.3-12.4-24.5C390,225.8,387,221.1,372.6,227z"/>
<path class="st1" d="M260,310c0.3,0.5,0.7,1,1.2,1.4c0.9,0.5,2,0.6,3,0.4c2.5-0.4,5-0.9,7.4-1.6l10.1-2.5c0.7-0.2,1.5-0.5,1.6-1.2
	c0-0.5-0.2-1-0.6-1.3c-3.2-3.7-8.5-5-13.4-4.6c-2.1,0.2-4.4,0.6-6.2-0.4c-0.4-0.3-0.8-0.5-1.3-0.6c-0.5-0.1-1.1,0-1.6,0.3
	c-2.4,0.9-5.1,0.9-4.4,3.6C256.3,305.4,258.9,308.3,260,310z"/>
<path class="st4" d="M100.7,221.1h339.5c2.6,0,4.7,2.1,4.7,4.7l0,0c0,2.6-2.1,4.7-4.7,4.7H100.7c-2.6,0-4.7-2.1-4.7-4.7l0,0
	C96,223.2,98.1,221.1,100.7,221.1z"/>
<linearGradient id="SVGID_14_" gradientUnits="userSpaceOnUse" x1="270.267" y1="175.6301" x2="270.8871" y2="210.4801" gradientTransform="matrix(1 0 0 -1 0 412)">
	<stop  offset="0" style="stop-color:#010101;stop-opacity:0"/>
	<stop  offset="0.95" style="stop-color:#010101"/>
</linearGradient>
<path class="st18" d="M100.7,221.1h339.5c2.6,0,4.7,2.1,4.7,4.7l0,0c0,2.6-2.1,4.7-4.7,4.7H100.7c-2.6,0-4.7-2.1-4.7-4.7l0,0
	C96,223.2,98.1,221.1,100.7,221.1z"/>
<path class="st14" d="M333.9,210.3c-2.8,0.8-5.6,2-8.1,3.5c-2,1.1-4,2.3-6,3.4c-0.6,0.3-1.1,0.7-1.5,1.3c-0.4,0.6-0.3,1.3,0.1,1.8
	c0.4,0.2,0.8,0.4,1.2,0.3c8.3,0.4,16.7-1.4,25-0.8c3.6,0.3,7.4,0.9,10.9-0.3c1.5-0.4,2.7-1.4,3.2-2.9c0.4-1.6-1-4.1-2.4-5
	c-1.7-1-4.8-0.6-6.7-0.9C344.4,210.2,339.1,209.1,333.9,210.3z"/>
<path class="st14" d="M337.4,206.4c2,0.1,4,0.6,5.8,1.6c1.2,0.4,2.2,1.2,2.8,2.3c0.3,0.5,0.2,1.2-0.1,1.7c-0.3,0.4-0.7,0.6-1.1,0.7
	c-1.4,0.3-2.8,0.4-4.2,0.2c-4.5-0.3-9.1,0.3-13.4,1.5c-1,0.4-2.2,0.6-3.3,0.6c-0.3,0-0.5-0.1-0.7-0.3c-0.1-0.2-0.1-0.4-0.1-0.6
	c0.2-0.6,0.6-1.2,1.1-1.6c1-1.1,2-2.1,3-3.1c0.7-0.8,1.6-1.2,2.7-1.3C332.6,207.9,334.9,206.5,337.4,206.4z"/>
<path class="st1" d="M336.9,321.3c-2.4,3.3-4.8,6.9-5,11c-0.1,0.6,0,1.2,0.4,1.7c0.3,0.4,0.8,0.7,1.3,0.8c2.6,0.5,5.2-0.2,7.2-2
	c1.9-1.7,3.5-3.8,4.8-6l4.8-7.5c0.3-0.4,0.4-0.8,0.5-1.3c0-0.6-0.6-1.1-1-1.6c-1.4-1.7-1.2-4.1-1.3-6.1
	C342,311.2,340.6,316.4,336.9,321.3z"/>
<path class="st4" d="M226.6,80.5c0.3,1.6-0.8,3.1-1.9,4.4s-2.4,3.8-3.9,4.4c-1.7,0.8-1.9-0.1-1.5-1.5c0.4-1.5,2-3.2,3.1-4.3
	C222.9,83.2,226.6,80.4,226.6,80.5z"/>
<path class="st4" d="M234.9,91.4c0.3,0.6-0.4,1.2-1.1,1.4c-3.3,1.2-6.8,3-10.3,3.8C220.6,93.1,233.1,91.2,234.9,91.4z"/>
<path class="st4" d="M237,103.5c0.4,0.1,1,0.3,1.1,0.7s-0.5,0.8-1,1c-1.6,0.5-9.1,1.5-9-0.5C228.3,101,235.2,103.1,237,103.5z"/>
</svg>
