<?xml version="1.0" encoding="utf-8"?>
<!-- Generator: Adobe Illustrator 25.0.0, SVG Export Plug-In . SVG Version: 6.00 Build 0)  -->
<svg version="1.1" id="Layer_1" xmlns="http://www.w3.org/2000/svg" xmlns:xlink="http://www.w3.org/1999/xlink" x="0px" y="0px"
	 viewBox="0 0 510.4 371.3" style="enable-background:new 0 0 510.4 371.3;" xml:space="preserve">
<style type="text/css">
	.st0{opacity:0.24;fill:#8ABFE9;enable-background:new    ;}
	.st1{opacity:0.26;fill:url(#SVGID_1_);enable-background:new    ;}
	.st2{fill:none;stroke:#8ABFE9;stroke-width:0.68;stroke-miterlimit:10;}
	.st3{fill:#8ABFE9;}
	.st4{fill:url(#SVGID_2_);}
	.st5{opacity:0.26;fill:url(#SVGID_3_);enable-background:new    ;}
	.st6{fill:url(#SVGID_4_);}
	.st7{fill:url(#SVGID_5_);}
	.st8{opacity:0.68;fill:#8ABFE9;enable-background:new    ;}
	.st9{fill:#FFFFFF;}
	.st10{opacity:0.93;fill:#8ABFE9;enable-background:new    ;}
	.st11{opacity:0.68;fill:#52C27D;enable-background:new    ;}
	.st12{opacity:0.26;fill:url(#SVGID_6_);enable-background:new    ;}
	.st13{opacity:0.26;fill:url(#SVGID_7_);enable-background:new    ;}
	.st14{opacity:0.26;fill:url(#SVGID_8_);enable-background:new    ;}
	.st15{opacity:0.26;fill:url(#SVGID_9_);enable-background:new    ;}
	.st16{opacity:0.26;fill:url(#SVGID_10_);enable-background:new    ;}
	.st17{opacity:0.26;fill:url(#SVGID_11_);enable-background:new    ;}
	.st18{opacity:0.26;fill:url(#SVGID_12_);enable-background:new    ;}
	.st19{opacity:0.26;fill:url(#SVGID_13_);enable-background:new    ;}
	.st20{opacity:0.26;fill:url(#SVGID_14_);enable-background:new    ;}
	.st21{opacity:0.26;fill:url(#SVGID_15_);enable-background:new    ;}
	.st22{opacity:0.26;fill:url(#SVGID_16_);enable-background:new    ;}
	.st23{opacity:0.26;fill:url(#SVGID_17_);enable-background:new    ;}
	.st24{opacity:0.26;fill:url(#SVGID_18_);enable-background:new    ;}
	.st25{fill:#606161;}
	.st26{fill:url(#SVGID_19_);}
	.st27{opacity:0.26;fill:url(#SVGID_20_);enable-background:new    ;}
	.st28{fill:url(#SVGID_21_);}
	.st29{fill:url(#SVGID_22_);}
</style>
<path class="st0" d="M493.4,331.3c-1.9,10-6.2,19.3-13.6,26.3c-20.5,19.5-53.1,13.9-81,9c-49-8.5-98.8-10.5-148.3-5.9
	c-55.9,5.2-114.1,18.5-166.8-0.7c-15.6-5.5-29.2-15.5-39.2-28.8c-0.9-1.2-1.8-2.4-2.6-3.6c-7.7-11.2-13.1-24.2-16.8-38.3
	c-0.4-1.5-0.8-3.1-1.1-4.7c-11-48.1-2.4-107.1,6.4-147.3c3.8-17.6,8.9-35.2,17.4-51.1c21.8-41,64.7-67.8,109.8-78.9
	s92.4-8.2,138.4-1.8c36.8,5.1,75.3,13.6,102.6,38.8c25.3,23.4,37.1,57.9,44.3,91.6s10.6,68.6,23.4,100.6c8.1,20.2,19.9,39,25.5,60
	c0.9,3.1,1.5,6.3,2,9.5C495,314.5,494.9,323,493.4,331.3z"/>
<linearGradient id="SVGID_1_" gradientUnits="userSpaceOnUse" x1="254.8907" y1="128.373" x2="295.5307" y2="-154.667" gradientTransform="matrix(1 0 0 -1 -6.25 356.11)">
	<stop  offset="0" style="stop-color:#010101;stop-opacity:0"/>
	<stop  offset="0.95" style="stop-color:#010101"/>
</linearGradient>
<path class="st1" d="M493.4,331.3H43.5l-1.6-3.6L25,289.4l-2-4.7H24l455.8-10.2l13.9,31.6C495,314.5,494.9,323,493.4,331.3z"/>
<path class="st2" d="M20.5,84.2h101.5c4.6,0,8.2,3.7,8.2,8.2l0,0c0,4.5-3.7,8.2-8.2,8.2H20.5c-4.6,0-8.2-3.7-8.2-8.2l0,0
	C12.2,87.9,15.9,84.2,20.5,84.2z"/>
<path class="st2" d="M141.9,84.2h101.5c4.6,0,8.2,3.7,8.2,8.2l0,0c0,4.5-3.7,8.2-8.2,8.2H141.9c-4.6,0-8.2-3.7-8.2-8.2l0,0
	C133.6,87.9,137.3,84.2,141.9,84.2z"/>
<path class="st2" d="M263.3,84.2h101.5c4.6,0,8.2,3.7,8.2,8.2l0,0c0,4.5-3.7,8.2-8.2,8.2H263.3c-4.6,0-8.2-3.7-8.2-8.2l0,0
	C255.1,87.9,258.8,84.2,263.3,84.2z"/>
<path class="st2" d="M384.7,84.2h101.5c4.6,0,8.2,3.7,8.2,8.2l0,0c0,4.5-3.7,8.2-8.2,8.2H384.7c-4.6,0-8.2-3.7-8.2-8.2l0,0
	C376.5,87.9,380.2,84.2,384.7,84.2z"/>
<path class="st3" d="M14.9,64.9h480.6c8.2,0,14.9,6.7,14.9,14.9v202.8c0,8.2-6.7,14.9-14.9,14.9H14.9c-8.2,0-14.9-6.7-14.9-14.9
	V79.8C0,71.6,6.7,64.9,14.9,64.9z"/>
<linearGradient id="SVGID_2_" gradientUnits="userSpaceOnUse" x1="264.8726" y1="484.9699" x2="250.1025" y2="49.8099" gradientTransform="matrix(1 0 0 -1 0 374)">
	<stop  offset="0" style="stop-color:#FFFFFF;stop-opacity:0"/>
	<stop  offset="0.95" style="stop-color:#FFFFFF"/>
</linearGradient>
<path class="st4" d="M14.9,57.3h480.6c8.2,0,14.9,6.7,14.9,14.9V275c0,8.2-6.7,14.9-14.9,14.9H14.9C6.7,289.9,0,283.2,0,275V72.2
	C0,63.9,6.7,57.3,14.9,57.3z"/>
<linearGradient id="SVGID_3_" gradientUnits="userSpaceOnUse" x1="344.7315" y1="150.4036" x2="564.0115" y2="58.9436" gradientTransform="matrix(1 0 0 -1 -6.25 356.11)">
	<stop  offset="0" style="stop-color:#010101;stop-opacity:0"/>
	<stop  offset="0.95" style="stop-color:#010101"/>
</linearGradient>
<path class="st5" d="M394.9,266.5c-0.1-2.7-0.7-5.3-1.8-7.7c-3.7-6.9-13.2-7.7-19.6-12.2c-5.2-3.6-8.1-9.8-9.3-16
	s-0.7-12.6-0.2-18.9c0.1-1.8,0.3-3.7,1.5-5.1c2.6-2.9,7.4-0.8,10.6,1.4l8.6,5.9c1.8,1.2,4.3,2.5,6,1.1c1.1-0.9,1.3-2.5,1.4-4
	l1.6-22.7c0.5-6.3,1.5-13.6,7-16.6s12.6,0.2,16.1,5.4s4.1,11.6,4.5,17.8c2.3,32.5,1.8,65.1-1.5,97.5c-0.1,1.3-0.4,2.7-1.4,3.5
	c-0.8,0.4-1.8,0.6-2.7,0.5c-6-0.2-16.9,2.1-19.8-4.2S395.5,273.5,394.9,266.5z"/>
<linearGradient id="SVGID_4_" gradientUnits="userSpaceOnUse" x1="382.1133" y1="203.5399" x2="379.9233" y2="138.8799" gradientTransform="matrix(1 0 0 -1 0 374)">
	<stop  offset="0" style="stop-color:#FFFFFF;stop-opacity:0"/>
	<stop  offset="0.95" style="stop-color:#FFFFFF"/>
</linearGradient>
<polygon class="st6" points="362.2,201 386.7,194.4 399.2,223.6 395.1,231.7 378.2,230.8 "/>
<linearGradient id="SVGID_5_" gradientUnits="userSpaceOnUse" x1="372.6117" y1="133.7072" x2="383.5117" y2="133.7072" gradientTransform="matrix(1 0 0 -1 -6.25 356.11)">
	<stop  offset="0" style="stop-color:#E5C6D6"/>
	<stop  offset="0.42" style="stop-color:#EAD4D0"/>
	<stop  offset="1" style="stop-color:#F0E9CB"/>
</linearGradient>
<path class="st7" d="M366.6,223c-0.4-2.6-0.3-5.2,0.2-7.7c0-0.4,0.2-0.8,0.4-1.1c0.7-1.1,2.5-0.6,3.3,0.3s1.2,2.3,2,3.3
	c0.7,0.8,1.6,1.4,2.3,2.1c1.2,1.4,2,3,2.3,4.8c0.1,0.4,0.2,0.9,0.1,1.4c-0.1,0.6-0.4,1.3-0.8,1.8c-1.3,2-3.5,4.8-6,2.9
	C368.2,228.9,367,225.6,366.6,223z"/>
<path class="st8" d="M390.2,87.6h104c2.3,0,4.1,1.9,4.1,4.1v8.8c0,2.3-1.9,4.1-4.1,4.1h-104c-2.3,0-4.1-1.9-4.1-4.1v-8.8
	C386.1,89.5,387.9,87.6,390.2,87.6z"/>
<path class="st9" d="M21.5,110h95.7c4.2,0,7.6,3.4,7.6,7.6v148.3c0,4.2-3.4,7.6-7.6,7.6H21.5c-4.2,0-7.6-3.4-7.6-7.6V117.6
	C13.9,113.4,17.3,110,21.5,110z"/>
<path class="st9" d="M146.9,109.8h93.7c5.6,0,10.2,4.6,10.2,10.2v31.8c0,5.6-4.6,10.2-10.2,10.2h-93.7c-5.6,0-10.2-4.6-10.2-10.2
	V120C136.6,114.4,141.2,109.8,146.9,109.8z"/>
<path class="st9" d="M147.1,169.9h93.4c5.8,0,10.4,4.7,10.4,10.4v33.4c0,5.8-4.7,10.4-10.4,10.4h-93.4c-5.8,0-10.4-4.7-10.4-10.4
	v-33.4C136.6,174.5,141.3,169.9,147.1,169.9z"/>
<path class="st9" d="M146.9,230.5h93.7c5.6,0,10.2,4.6,10.2,10.2v31.8c0,5.6-4.6,10.2-10.2,10.2h-93.7c-5.6,0-10.2-4.6-10.2-10.2
	v-31.8C136.6,235.1,141.2,230.5,146.9,230.5z"/>
<path class="st9" d="M271.9,111.5h94.8c5.4,0,9.7,4.3,9.7,9.7v1.9c0,5.4-4.3,9.7-9.7,9.7h-94.8c-5.4,0-9.7-4.3-9.7-9.7v-1.9
	C262.2,115.8,266.5,111.5,271.9,111.5z"/>
<path class="st9" d="M390.3,113.2h102.2c3.3,0,6,2.7,6,6v6c0,3.3-2.7,6-6,6H390.3c-3.3,0-6-2.7-6-6v-6
	C384.3,115.9,387,113.2,390.3,113.2z"/>
<path class="st8" d="M17.5,87.6h103.7c2.3,0,4.1,1.8,4.1,4.1v8.8c0,2.3-1.8,4.1-4.1,4.1H17.5c-2.3,0-4.1-1.8-4.1-4.1v-8.8
	C13.4,89.5,15.2,87.6,17.5,87.6z"/>
<path class="st10" d="M141.4,87.6H245c2.3,0,4.1,1.8,4.1,4.1v8.8c0,2.3-1.8,4.1-4.1,4.1H141.4c-2.3,0-4.1-1.8-4.1-4.1v-8.8
	C137.3,89.5,139.1,87.6,141.4,87.6z"/>
<path class="st11" d="M266.7,87.6h104c2.3,0,4.1,1.9,4.1,4.1v8.8c0,2.3-1.9,4.1-4.1,4.1h-104c-2.3,0-4.1-1.9-4.1-4.1v-8.8
	C262.5,89.5,264.4,87.6,266.7,87.6z"/>
<linearGradient id="SVGID_6_" gradientUnits="userSpaceOnUse" x1="318.3418" y1="301.1" x2="320.0518" y2="185.21" gradientTransform="matrix(1 0 0 -1 0 374)">
	<stop  offset="0" style="stop-color:#010101;stop-opacity:0"/>
	<stop  offset="0.95" style="stop-color:#010101"/>
</linearGradient>
<path class="st12" d="M266.7,87.6h104c2.3,0,4.1,1.9,4.1,4.1v8.8c0,2.3-1.9,4.1-4.1,4.1h-104c-2.3,0-4.1-1.9-4.1-4.1v-8.8
	C262.5,89.5,264.4,87.6,266.7,87.6z"/>
<linearGradient id="SVGID_7_" gradientUnits="userSpaceOnUse" x1="442.2715" y1="333.98" x2="443.9715" y2="218.09" gradientTransform="matrix(1 0 0 -1 0 374)">
	<stop  offset="0" style="stop-color:#010101;stop-opacity:0"/>
	<stop  offset="0.95" style="stop-color:#010101"/>
</linearGradient>
<path class="st13" d="M391.1,87.6h104c2.3,0,4.1,1.9,4.1,4.1v8.8c0,2.3-1.9,4.1-4.1,4.1h-104c-2.3,0-4.1-1.9-4.1-4.1v-8.8
	C386.9,89.5,388.8,87.6,391.1,87.6z"/>
<linearGradient id="SVGID_8_" gradientUnits="userSpaceOnUse" x1="147.2824" y1="290.3901" x2="152.3924" y2="171.5201" gradientTransform="matrix(1 0 0 -1 0 374)">
	<stop  offset="0" style="stop-color:#010101;stop-opacity:0"/>
	<stop  offset="0.95" style="stop-color:#010101"/>
</linearGradient>
<circle class="st14" cx="149" cy="124" r="6.1"/>
<linearGradient id="SVGID_9_" gradientUnits="userSpaceOnUse" x1="146.482" y1="290.3601" x2="151.602" y2="171.4801" gradientTransform="matrix(1 0 0 -1 0 374)">
	<stop  offset="0" style="stop-color:#010101;stop-opacity:0"/>
	<stop  offset="0.95" style="stop-color:#010101"/>
</linearGradient>
<circle class="st15" cx="149" cy="142.6" r="6.1"/>
<path class="st8" d="M25.6,121.2h42.9c1.3,0,2.3,1,2.3,2.3v0c0,1.3-1,2.3-2.3,2.3H25.6c-1.3,0-2.3-1-2.3-2.3v0
	C23.3,122.2,24.3,121.2,25.6,121.2z"/>
<path class="st8" d="M25.6,134.8h39.5c1.3,0,2.3,1,2.3,2.3v0c0,1.3-1,2.3-2.3,2.3H25.6c-1.3,0-2.3-1-2.3-2.3v0
	C23.3,135.8,24.3,134.8,25.6,134.8z"/>
<path class="st8" d="M25.6,164.3h39.5c1.3,0,2.3,1,2.3,2.3v0c0,1.3-1,2.3-2.3,2.3H25.6c-1.3,0-2.3-1-2.3-2.3v0
	C23.3,165.3,24.3,164.3,25.6,164.3z"/>
<path class="st8" d="M25.6,175.7h75.2c1.3,0,2.3,1,2.3,2.3v0c0,1.3-1,2.3-2.3,2.3H25.6c-1.3,0-2.3-1-2.3-2.3v0
	C23.3,176.7,24.3,175.7,25.6,175.7z"/>
<path class="st8" d="M163.6,120.3h75.1c1.3,0,2.3,1,2.3,2.3v0c0,1.3-1,2.3-2.3,2.3h-75.1c-1.3,0-2.3-1-2.3-2.3v0
	C161.3,121.3,162.4,120.3,163.6,120.3z"/>
<linearGradient id="SVGID_10_" gradientUnits="userSpaceOnUse" x1="272.8224" y1="291.4497" x2="277.9324" y2="172.5797" gradientTransform="matrix(1 0 0 -1 0 374)">
	<stop  offset="0" style="stop-color:#010101;stop-opacity:0"/>
	<stop  offset="0.95" style="stop-color:#010101"/>
</linearGradient>
<circle class="st16" cx="274.6" cy="123" r="6.1"/>
<path class="st11" d="M289.2,119.2h75.2c1.3,0,2.3,1,2.3,2.3v0c0,1.3-1,2.3-2.3,2.3h-75.2c-1.3,0-2.3-1-2.3-2.3v0
	C286.9,120.3,287.9,119.2,289.2,119.2z"/>
<linearGradient id="SVGID_11_" gradientUnits="userSpaceOnUse" x1="398.5124" y1="291.4497" x2="403.6224" y2="172.5797" gradientTransform="matrix(1 0 0 -1 0 374)">
	<stop  offset="0" style="stop-color:#010101;stop-opacity:0"/>
	<stop  offset="0.95" style="stop-color:#010101"/>
</linearGradient>
<circle class="st17" cx="400.3" cy="123" r="6.1"/>
<path class="st8" d="M414.8,119.2H490c1.3,0,2.3,1,2.3,2.3v0c0,1.3-1,2.3-2.3,2.3h-75.2c-1.3,0-2.3-1-2.3-2.3v0
	C412.6,120.3,413.6,119.2,414.8,119.2z"/>
<path class="st9" d="M271.9,136.6h94.8c5.4,0,9.7,4.3,9.7,9.7v1.9c0,5.4-4.3,9.7-9.7,9.7h-94.8c-5.4,0-9.7-4.3-9.7-9.7v-1.9
	C262.2,141,266.5,136.6,271.9,136.6z"/>
<linearGradient id="SVGID_12_" gradientUnits="userSpaceOnUse" x1="272.8221" y1="266.3197" x2="277.9322" y2="147.4397" gradientTransform="matrix(1 0 0 -1 0 374)">
	<stop  offset="0" style="stop-color:#010101;stop-opacity:0"/>
	<stop  offset="0.95" style="stop-color:#010101"/>
</linearGradient>
<circle class="st18" cx="274.6" cy="148.1" r="6.1"/>
<path class="st11" d="M289.2,144.4h75.2c1.3,0,2.3,1,2.3,2.3v0c0,1.3-1,2.3-2.3,2.3h-75.2c-1.3,0-2.3-1-2.3-2.3v0
	C286.9,145.4,287.9,144.4,289.2,144.4z"/>
<path class="st9" d="M271.9,161.8h94.8c5.4,0,9.7,4.3,9.7,9.7v1.9c0,5.4-4.3,9.7-9.7,9.7h-94.8c-5.4,0-9.7-4.3-9.7-9.7v-1.9
	C262.2,166.1,266.5,161.8,271.9,161.8z"/>
<linearGradient id="SVGID_13_" gradientUnits="userSpaceOnUse" x1="272.8224" y1="241.1797" x2="277.9324" y2="122.3097" gradientTransform="matrix(1 0 0 -1 0 374)">
	<stop  offset="0" style="stop-color:#010101;stop-opacity:0"/>
	<stop  offset="0.95" style="stop-color:#010101"/>
</linearGradient>
<circle class="st19" cx="274.6" cy="173.2" r="6.1"/>
<path class="st11" d="M289.2,169.5h75.2c1.3,0,2.3,1,2.3,2.3v0c0,1.3-1,2.3-2.3,2.3h-75.2c-1.3,0-2.3-1-2.3-2.3v0
	C286.9,170.5,287.9,169.5,289.2,169.5z"/>
<path class="st8" d="M163.4,139.6h62.2c1.1,0,2.1,0.9,2.1,2.1v0.4c0,1.1-0.9,2.1-2.1,2.1h-62.2c-1.1,0-2.1-0.9-2.1-2.1v-0.4
	C161.3,140.5,162.3,139.6,163.4,139.6z"/>
<linearGradient id="SVGID_14_" gradientUnits="userSpaceOnUse" x1="146.4822" y1="252.0101" x2="151.6022" y2="133.1401" gradientTransform="matrix(1 0 0 -1 0 374)">
	<stop  offset="0" style="stop-color:#010101;stop-opacity:0"/>
	<stop  offset="0.95" style="stop-color:#010101"/>
</linearGradient>
<circle class="st20" cx="149" cy="180.9" r="6.1"/>
<path class="st8" d="M163.4,178h62.2c1.1,0,2.1,0.9,2.1,2.1v0.4c0,1.1-0.9,2.1-2.1,2.1h-62.2c-1.1,0-2.1-0.9-2.1-2.1V180
	C161.3,178.9,162.3,178,163.4,178z"/>
<linearGradient id="SVGID_15_" gradientUnits="userSpaceOnUse" x1="146.4822" y1="235.8201" x2="151.6022" y2="116.9501" gradientTransform="matrix(1 0 0 -1 0 374)">
	<stop  offset="0" style="stop-color:#010101;stop-opacity:0"/>
	<stop  offset="0.95" style="stop-color:#010101"/>
</linearGradient>
<circle class="st21" cx="149" cy="197.1" r="6.1"/>
<path class="st8" d="M163.4,194.2h62.2c1.1,0,2.1,0.9,2.1,2.1v0.4c0,1.1-0.9,2.1-2.1,2.1h-62.2c-1.1,0-2.1-0.9-2.1-2.1v-0.4
	C161.3,195.1,162.3,194.2,163.4,194.2z"/>
<linearGradient id="SVGID_16_" gradientUnits="userSpaceOnUse" x1="146.4822" y1="219.6301" x2="151.6022" y2="100.7601" gradientTransform="matrix(1 0 0 -1 0 374)">
	<stop  offset="0" style="stop-color:#010101;stop-opacity:0"/>
	<stop  offset="0.95" style="stop-color:#010101"/>
</linearGradient>
<circle class="st22" cx="149" cy="213.3" r="6.1"/>
<path class="st8" d="M163.4,210.4h62.2c1.1,0,2.1,0.9,2.1,2.1v0.4c0,1.1-0.9,2.1-2.1,2.1h-62.2c-1.1,0-2.1-0.9-2.1-2.1v-0.4
	C161.3,211.3,162.3,210.4,163.4,210.4z"/>
<linearGradient id="SVGID_17_" gradientUnits="userSpaceOnUse" x1="146.4822" y1="190.2301" x2="151.6022" y2="71.3601" gradientTransform="matrix(1 0 0 -1 0 374)">
	<stop  offset="0" style="stop-color:#010101;stop-opacity:0"/>
	<stop  offset="0.95" style="stop-color:#010101"/>
</linearGradient>
<circle class="st23" cx="149" cy="242.7" r="6.1"/>
<path class="st8" d="M163.4,239.8h62.2c1.1,0,2.1,0.9,2.1,2.1v0.4c0,1.1-0.9,2.1-2.1,2.1h-62.2c-1.1,0-2.1-0.9-2.1-2.1v-0.4
	C161.3,240.7,162.3,239.8,163.4,239.8z"/>
<linearGradient id="SVGID_18_" gradientUnits="userSpaceOnUse" x1="146.4822" y1="161.7901" x2="151.6022" y2="42.9201" gradientTransform="matrix(1 0 0 -1 0 374)">
	<stop  offset="0" style="stop-color:#010101;stop-opacity:0"/>
	<stop  offset="0.95" style="stop-color:#010101"/>
</linearGradient>
<circle class="st24" cx="149" cy="271.1" r="6.1"/>
<path class="st8" d="M163.4,254.9h62.2c1.1,0,2.1,0.9,2.1,2.1v0.4c0,1.1-0.9,2.1-2.1,2.1h-62.2c-1.1,0-2.1-0.9-2.1-2.1V257
	C161.3,255.9,162.3,254.9,163.4,254.9z"/>
<path class="st8" d="M163.4,269.7h62.2c1.1,0,2.1,0.9,2.1,2.1v0.4c0,1.1-0.9,2.1-2.1,2.1h-62.2c-1.1,0-2.1-0.9-2.1-2.1v-0.4
	C161.3,270.6,162.3,269.7,163.4,269.7z"/>
<path class="st8" d="M25.6,212.1h39.5c1.3,0,2.3,1,2.3,2.3v0c0,1.3-1,2.3-2.3,2.3H25.6c-1.3,0-2.3-1-2.3-2.3v0
	C23.3,213.1,24.3,212.1,25.6,212.1z"/>
<path class="st8" d="M25.6,223.4h75.2c1.3,0,2.3,1,2.3,2.3v0c0,1.3-1,2.3-2.3,2.3H25.6c-1.3,0-2.3-1-2.3-2.3v0
	C23.3,224.4,24.3,223.4,25.6,223.4z"/>
<path class="st9" d="M163.8,93.6h-1.9v-0.7h4.8v0.7h-2v5.7h-0.8L163.8,93.6z"/>
<path class="st9" d="M169.3,99.3l-0.1-0.6l0,0c-0.3,0.4-0.9,0.7-1.4,0.7c-0.7,0.1-1.4-0.5-1.4-1.2c0,0,0-0.1,0-0.1
	c0-1.1,1-1.7,2.8-1.7v-0.1c0-0.6-0.4-1-0.9-1.1c0,0-0.1,0-0.1,0c-0.4,0-0.8,0.1-1.2,0.3l-0.2-0.6c0.5-0.3,1-0.4,1.5-0.4
	c1.4,0,1.8,1,1.8,1.9v1.7c0,0.4,0,0.7,0.1,1.1L169.3,99.3z M169.1,97c-0.9,0-2,0.1-2,1c0,0.4,0.3,0.8,0.7,0.8c0,0,0.1,0,0.1,0
	c0.5,0,1-0.3,1.1-0.8c0-0.1,0-0.2,0-0.3L169.1,97z"/>
<path class="st9" d="M171.2,98.4c0.3,0.2,0.7,0.3,1.1,0.3c0.6,0,0.9-0.3,0.9-0.7s-0.2-0.6-0.9-0.8c-0.8-0.3-1.2-0.8-1.2-1.3
	c0-0.8,0.7-1.4,1.5-1.4c0,0,0.1,0,0.1,0c0.4,0,0.8,0.1,1.1,0.3l-0.2,0.6c-0.3-0.2-0.6-0.3-0.9-0.3c-0.5,0-0.8,0.3-0.8,0.6
	s0.3,0.6,0.9,0.8c0.8,0.3,1.2,0.7,1.2,1.4s-0.6,1.4-1.7,1.4c-0.5,0-0.9-0.1-1.3-0.3L171.2,98.4z"/>
<path class="st9" d="M175.9,96.8L175.9,96.8c0.1-0.2,0.3-0.4,0.4-0.5l1.4-1.6h1l-1.8,1.9l2,2.7h-1l-1.6-2.2l-0.4,0.5v1.7h-0.8v-6.8
	h0.8V96.8z"/>
<path class="st9" d="M182.5,93.4c0,0.3-0.2,0.5-0.5,0.5c0,0,0,0-0.1,0c-0.3,0-0.5-0.2-0.5-0.5c0,0,0,0,0,0c0-0.3,0.2-0.5,0.5-0.5
	c0,0,0,0,0,0C182.2,92.9,182.5,93.1,182.5,93.4C182.5,93.4,182.5,93.4,182.5,93.4z M181.5,99.3v-4.6h0.8v4.6H181.5z"/>
<path class="st9" d="M183.8,95.9c0-0.5,0-0.9,0-1.3h0.8l0.1,0.8l0,0c0.3-0.5,0.9-0.9,1.5-0.9c0.6,0,1.6,0.4,1.6,2v2.8h-0.8v-2.7
	c0-0.7-0.3-1.4-1.1-1.4c-0.5,0-1,0.4-1.1,0.9c0,0.1-0.1,0.3-0.1,0.4v2.8h-0.9V95.9z"/>
<path class="st9" d="M191.1,93c0.5-0.1,1.1-0.1,1.6-0.1c0.6,0,1.3,0.1,1.8,0.5c0.4,0.3,0.6,0.8,0.6,1.3c0,0.5-0.2,1-0.5,1.4
	c-0.5,0.5-1.3,0.8-2,0.7c-0.2,0-0.4,0-0.7-0.1v2.6H191L191.1,93z M191.9,96.1c0.2,0.1,0.5,0.1,0.7,0.1c1,0,1.6-0.5,1.6-1.4
	s-0.6-1.3-1.5-1.3c-0.3,0-0.5,0-0.8,0.1V96.1z"/>
<path class="st9" d="M196,96.1c0-0.5,0-1,0-1.4h0.7v0.9l0,0c0.2-0.6,0.7-1,1.3-1c0.1,0,0.2,0,0.2,0v0.8c-0.1,0-0.2,0-0.3,0
	c-0.6,0-1.1,0.5-1.1,1.1c0,0.1,0,0.3,0,0.4v2.5H196L196,96.1z"/>
<path class="st9" d="M203.2,97c0.1,1.2-0.8,2.3-2.1,2.4c-0.1,0-0.2,0-0.2,0c-1.2,0-2.2-1-2.2-2.2c0-0.1,0-0.1,0-0.2
	c-0.1-1.2,0.8-2.3,2-2.4c0.1,0,0.2,0,0.2,0c1.2,0,2.2,0.9,2.2,2.1C203.2,96.8,203.2,96.9,203.2,97z M199.5,97c0,1,0.6,1.8,1.4,1.8
	s1.4-0.8,1.4-1.8c0-0.8-0.4-1.8-1.4-1.8S199.5,96.1,199.5,97L199.5,97z"/>
<path class="st9" d="M208.2,94.7c0,0.3,0,0.7,0,1.3v2.7c0.1,0.8-0.1,1.5-0.7,2.1c-0.5,0.4-1.1,0.6-1.7,0.6c-0.5,0-1.1-0.1-1.5-0.4
	l0.2-0.6c0.4,0.2,0.9,0.4,1.4,0.4c0.9,0,1.5-0.4,1.5-1.6v-0.5l0,0c-0.3,0.5-0.9,0.8-1.5,0.8c-1.1,0-2-1-2-2.1c0-0.1,0-0.1,0-0.2
	c-0.1-1.2,0.7-2.3,1.9-2.4c0,0,0.1,0,0.1,0c0.6,0,1.2,0.3,1.4,0.8l0,0v-0.7H208.2z M207.3,96.5c0-0.1,0-0.3,0-0.4
	c-0.1-0.5-0.6-0.9-1.2-0.9c-0.8,0-1.4,0.7-1.4,1.8c0,0.9,0.5,1.7,1.4,1.7c0.5,0,1-0.3,1.2-0.8c0-0.1,0.1-0.3,0.1-0.4L207.3,96.5z"/>
<path class="st9" d="M209.5,96.1c0-0.5,0-1,0-1.4h0.7v0.9l0,0c0.2-0.6,0.7-1,1.3-1c0.1,0,0.2,0,0.2,0v0.8c-0.1,0-0.2,0-0.3,0
	c-0.6,0-1.1,0.5-1.1,1.1c0,0.1,0,0.3,0,0.4v2.5h-0.8L209.5,96.1z"/>
<path class="st9" d="M213,97.2c-0.1,0.8,0.5,1.5,1.3,1.6c0.1,0,0.2,0,0.3,0c0.4,0,0.9-0.1,1.3-0.2l0.1,0.6c-0.5,0.2-1,0.3-1.5,0.3
	c-1.2,0.1-2.2-0.8-2.3-2c0-0.1,0-0.2,0-0.3c-0.1-1.2,0.7-2.3,2-2.5c0.1,0,0.1,0,0.2,0c1.1,0.1,2,1,1.9,2.1c0,0,0,0.1,0,0.1
	c0,0.1,0,0.3,0,0.4L213,97.2z M215.4,96.6c0.1-0.7-0.4-1.3-1-1.3c-0.1,0-0.1,0-0.2,0c-0.7,0.1-1.3,0.6-1.3,1.4H215.4z"/>
<path class="st9" d="M217.1,98.4c0.3,0.2,0.7,0.3,1.1,0.3c0.6,0,0.9-0.3,0.9-0.7s-0.2-0.6-0.9-0.8c-0.8-0.3-1.2-0.8-1.2-1.3
	c0-0.8,0.7-1.4,1.5-1.4c0,0,0.1,0,0.1,0c0.4,0,0.8,0.1,1.1,0.3l-0.2,0.6c-0.3-0.2-0.6-0.3-0.9-0.3c-0.5,0-0.8,0.3-0.8,0.6
	s0.3,0.6,0.9,0.8c0.8,0.3,1.2,0.7,1.2,1.4s-0.6,1.4-1.7,1.4c-0.5,0-0.9-0.1-1.3-0.3L217.1,98.4z"/>
<path class="st9" d="M220.9,98.4c0.3,0.2,0.7,0.3,1.1,0.3c0.6,0,0.9-0.3,0.9-0.7s-0.2-0.6-0.9-0.8c-0.8-0.3-1.2-0.8-1.2-1.3
	c0-0.8,0.7-1.4,1.5-1.4c0,0,0.1,0,0.1,0c0.4,0,0.8,0.1,1.1,0.3l-0.2,0.6c-0.3-0.2-0.6-0.3-0.9-0.3c-0.5,0-0.8,0.3-0.8,0.6
	s0.3,0.6,0.9,0.8c0.8,0.3,1.2,0.7,1.2,1.4s-0.6,1.4-1.7,1.4c-0.4,0-0.9-0.1-1.3-0.3L220.9,98.4z"/>
<path class="st9" d="M40.2,92.9v3.8c0,1.4,0.6,2,1.5,2s1.6-0.6,1.6-2v-3.8h0.8v3.7c0,2-1,2.8-2.4,2.8s-2.3-0.8-2.3-2.7v-3.8H40.2z"
	/>
<path class="st9" d="M45.3,98.4c0.3,0.2,0.7,0.3,1.1,0.3c0.6,0,0.9-0.3,0.9-0.7s-0.2-0.6-0.9-0.8c-0.8-0.3-1.2-0.8-1.2-1.3
	c0-0.8,0.7-1.4,1.5-1.4c0,0,0.1,0,0.1,0c0.4,0,0.8,0.1,1.1,0.3l-0.2,0.6c-0.3-0.2-0.6-0.3-0.9-0.3c-0.5,0-0.8,0.3-0.8,0.6
	s0.3,0.6,0.9,0.8c0.8,0.3,1.2,0.7,1.2,1.4s-0.6,1.4-1.7,1.4c-0.5,0-0.9-0.1-1.3-0.3L45.3,98.4z"/>
<path class="st9" d="M49.6,97.2c-0.1,0.8,0.5,1.5,1.4,1.6c0.1,0,0.2,0,0.2,0c0.4,0,0.9-0.1,1.3-0.2l0.2,0.6c-0.5,0.2-1,0.3-1.5,0.3
	c-1.2,0.1-2.2-0.8-2.3-2c0-0.1,0-0.2,0-0.3c-0.1-1.2,0.7-2.3,2-2.5c0.1,0,0.1,0,0.2,0c1.1,0.1,2,1,1.9,2.1c0,0,0,0.1,0,0.1
	c0,0.1,0,0.3,0,0.4L49.6,97.2z M52.1,96.6c0.1-0.7-0.4-1.3-1-1.3c-0.1,0-0.1,0-0.2,0c-0.7,0.1-1.3,0.6-1.3,1.4H52.1z"/>
<path class="st9" d="M53.9,96.1c0-0.5,0-1,0-1.4h0.7v0.9l0,0c0.2-0.6,0.7-1,1.3-1c0.1,0,0.2,0,0.2,0v0.8c-0.1,0-0.2,0-0.3,0
	c-0.6,0-1.1,0.5-1.1,1.1c0,0.1,0,0.3,0,0.4v2.5h-0.8L53.9,96.1z"/>
<path class="st9" d="M59,98.3c0.5,0.3,1,0.4,1.5,0.4c0.8,0,1.3-0.4,1.3-1.1s-0.3-0.9-1.2-1.3c-1-0.4-1.7-0.9-1.7-1.8
	c0-1,0.9-1.8,1.9-1.8c0,0,0.1,0,0.1,0c0.5,0,1,0.1,1.4,0.3l-0.2,0.7c-0.4-0.2-0.8-0.3-1.2-0.3c-0.9,0-1.2,0.5-1.2,1
	c0,0.6,0.4,0.9,1.3,1.2c1.1,0.4,1.6,1,1.6,1.9s-0.7,1.8-2.3,1.8c-0.6,0-1.1-0.1-1.6-0.4L59,98.3z"/>
<path class="st9" d="M64.8,93.4v1.3h1.2v0.6h-1.2v2.5c0,0.6,0.2,0.9,0.6,0.9c0.2,0,0.3,0,0.5-0.1v0.6c-0.2,0.1-0.5,0.1-0.8,0.1
	c-0.3,0-0.7-0.1-0.9-0.4c-0.3-0.3-0.4-0.8-0.3-1.2v-2.5h-0.7v-0.6h0.7v-1.1L64.8,93.4z"/>
<path class="st9" d="M71,97c0.1,1.2-0.8,2.3-2.1,2.4c-0.1,0-0.1,0-0.2,0c-1.2,0-2.2-1-2.2-2.2c0-0.1,0-0.1,0-0.2
	c-0.1-1.2,0.8-2.3,2.1-2.4c0.1,0,0.1,0,0.2,0c1.2,0,2.2,0.9,2.3,2.1C71,96.8,71,96.9,71,97z M67.3,97c0,1,0.6,1.8,1.4,1.8
	s1.4-0.8,1.4-1.8c0-0.8-0.4-1.8-1.4-1.8S67.3,96.1,67.3,97L67.3,97z"/>
<path class="st9" d="M72.1,96.1c0-0.5,0-1,0-1.4h0.7v0.9l0,0c0.2-0.6,0.7-1,1.3-1c0.1,0,0.2,0,0.2,0v0.8c-0.1,0-0.2,0-0.3,0
	c-0.6,0-1.1,0.5-1.1,1.1c0,0.1,0,0.3,0,0.4v2.5h-0.8V96.1z"/>
<path class="st9" d="M76.1,93.4c-0.1,0.3-0.4,0.4-0.6,0.4c-0.2,0-0.3-0.2-0.4-0.4c0-0.3,0.2-0.5,0.5-0.5c0,0,0,0,0,0
	C75.9,92.9,76.2,93.1,76.1,93.4C76.1,93.4,76.1,93.4,76.1,93.4z M75.2,99.3v-4.6H76v4.6H75.2z"/>
<path class="st9" d="M77.9,97.2c-0.1,0.8,0.5,1.5,1.4,1.6c0.1,0,0.2,0,0.2,0c0.4,0,0.9-0.1,1.3-0.2l0.2,0.6c-0.5,0.2-1,0.3-1.5,0.3
	c-1.2,0.1-2.2-0.8-2.3-2c0-0.1,0-0.2,0-0.3c-0.1-1.2,0.7-2.3,2-2.5c0.1,0,0.1,0,0.2,0c1.1,0.1,2,1,1.9,2.1c0,0,0,0.1,0,0.1
	c0,0.1,0,0.3,0,0.4L77.9,97.2z M80.3,96.6c0.1-0.7-0.4-1.3-1-1.3c-0.1,0-0.1,0-0.2,0c-0.7,0.1-1.3,0.6-1.3,1.4H80.3z"/>
<path class="st9" d="M82.1,98.4c0.3,0.2,0.7,0.3,1.1,0.3c0.6,0,0.9-0.3,0.9-0.7s-0.2-0.6-0.8-0.8C82.4,97,82,96.5,82,95.9
	c0-0.8,0.7-1.4,1.5-1.4c0,0,0.1,0,0.1,0c0.4,0,0.8,0.1,1.1,0.3l-0.2,0.6c-0.3-0.2-0.6-0.3-0.9-0.3c-0.5,0-0.8,0.3-0.8,0.6
	s0.3,0.6,0.9,0.8c0.8,0.3,1.2,0.7,1.2,1.4s-0.6,1.4-1.7,1.4c-0.5,0-0.9-0.1-1.3-0.3L82.1,98.4z"/>
<path class="st9" d="M288.1,93.6h-2v-0.7h4.8v0.7h-2v5.7H288L288.1,93.6z"/>
<path class="st9" d="M293.5,99.3l-0.1-0.6l0,0c-0.3,0.4-0.9,0.7-1.4,0.7c-0.7,0.1-1.4-0.5-1.4-1.2c0,0,0-0.1,0-0.1
	c0-1.1,1-1.7,2.8-1.7v-0.1c0.1-0.5-0.3-1-0.8-1.1c-0.1,0-0.1,0-0.2,0c-0.4,0-0.8,0.1-1.2,0.3L291,95c0.5-0.3,1-0.4,1.5-0.4
	c1.4,0,1.8,1,1.8,1.9v1.7c0,0.4,0,0.7,0.1,1.1L293.5,99.3z M293.4,97c-0.9,0-2,0.1-2,1c0,0.4,0.3,0.8,0.7,0.8c0,0,0.1,0,0.1,0
	c0.5,0,1-0.3,1.1-0.8c0-0.1,0-0.2,0-0.3L293.4,97z"/>
<path class="st9" d="M295.4,98.4c0.3,0.2,0.7,0.3,1.1,0.3c0.6,0,0.9-0.3,0.9-0.7s-0.2-0.6-0.9-0.8c-0.8-0.3-1.2-0.8-1.2-1.3
	c0-0.8,0.7-1.4,1.5-1.4c0,0,0.1,0,0.1,0c0.4,0,0.8,0.1,1.1,0.3l-0.2,0.6c-0.3-0.2-0.6-0.3-1-0.3c-0.5,0-0.8,0.3-0.8,0.6
	s0.3,0.6,0.9,0.8c0.8,0.3,1.2,0.7,1.2,1.4s-0.6,1.4-1.7,1.4c-0.5,0-0.9-0.1-1.3-0.3L295.4,98.4z"/>
<path class="st9" d="M300.1,96.8L300.1,96.8c0.1-0.2,0.3-0.4,0.4-0.5l1.4-1.6h1l-1.8,1.9l2,2.7h-1l-1.6-2.2l-0.4,0.5v1.7h-0.8v-6.8
	h0.8V96.8z"/>
<path class="st9" d="M310.3,99.1c-0.5,0.2-1.1,0.3-1.7,0.3c-1.7,0.1-3.1-1.2-3.2-2.8c0-0.1,0-0.3,0-0.4c-0.1-1.8,1.2-3.3,3-3.4
	c0.1,0,0.2,0,0.3,0c0.5,0,1,0.1,1.5,0.3l-0.2,0.7c-0.4-0.2-0.9-0.3-1.3-0.3c-1.3-0.1-2.4,0.9-2.5,2.3c0,0.1,0,0.3,0,0.4
	c-0.1,1.3,0.8,2.4,2.1,2.6c0.1,0,0.2,0,0.3,0c0.5,0,0.9-0.1,1.4-0.3L310.3,99.1z"/>
<path class="st9" d="M315.4,97c0.1,1.2-0.8,2.3-2.1,2.4c-0.1,0-0.2,0-0.2,0c-1.2,0-2.2-1-2.2-2.2c0-0.1,0-0.1,0-0.2
	c-0.1-1.2,0.8-2.3,2-2.4c0.1,0,0.2,0,0.2,0c1.2,0,2.2,0.9,2.2,2.1C315.4,96.8,315.4,96.9,315.4,97z M311.7,97c0,1,0.6,1.8,1.4,1.8
	s1.4-0.8,1.4-1.8c0-0.8-0.4-1.8-1.4-1.8S311.8,96.1,311.7,97L311.7,97z"/>
<path class="st9" d="M316.5,95.9c0-0.5,0-0.9,0-1.3h0.7v0.7l0,0c0.3-0.5,0.8-0.9,1.5-0.8c0.6,0,1.1,0.4,1.3,0.9l0,0
	c0.1-0.2,0.3-0.4,0.5-0.6c0.3-0.2,0.6-0.3,1-0.3c0.6,0,1.5,0.4,1.5,2v2.7h-0.8v-2.6c0-0.9-0.3-1.4-1-1.4c-0.5,0-0.9,0.3-1,0.8
	c0,0.1-0.1,0.3-0.1,0.4v2.8h-0.8v-2.8c0-0.7-0.3-1.3-1-1.3c-0.5,0-0.9,0.4-1,0.8c0,0.1-0.1,0.3-0.1,0.4v2.8h-0.8L316.5,95.9z"/>
<path class="st9" d="M324.4,96.2c0-0.6,0-1.1,0-1.5h0.8v0.8l0,0c0.3-0.6,1-0.9,1.6-0.9c1.2,0,2.1,1,2,2.2c0,0.1,0,0.1,0,0.2
	c0.2,1.2-0.7,2.3-1.9,2.5c-0.1,0-0.2,0-0.2,0c-0.6,0-1.1-0.2-1.4-0.7l0,0v2.5h-0.8L324.4,96.2z M325.2,97.4c0,0.1,0,0.2,0,0.3
	c0.1,0.6,0.7,1,1.3,1c0.9,0,1.4-0.7,1.4-1.8s-0.5-1.7-1.4-1.7c-0.7,0.1-1.3,0.7-1.3,1.4L325.2,97.4z"/>
<path class="st9" d="M329.8,92.6h0.8v6.8h-0.8V92.6z"/>
<path class="st9" d="M332.5,97.2c-0.1,0.8,0.5,1.5,1.4,1.6c0.1,0,0.2,0,0.2,0c0.4,0,0.9-0.1,1.3-0.2l0.1,0.6c-0.5,0.2-1,0.3-1.5,0.3
	c-1.2,0-2.2-0.9-2.2-2.1c0-0.1,0-0.2,0-0.2c-0.1-1.2,0.7-2.3,2-2.5c0.1,0,0.1,0,0.2,0c1.1,0.1,2,1,1.9,2.1c0,0,0,0.1,0,0.1
	c0,0.1,0,0.3,0,0.4L332.5,97.2z M335,96.6c0.1-0.7-0.4-1.3-1-1.3c-0.1,0-0.1,0-0.2,0c-0.7,0.1-1.3,0.6-1.3,1.4H335z"/>
<path class="st9" d="M337.8,93.4v1.3h1.2v0.6h-1.2v2.5c0,0.6,0.2,0.9,0.6,0.9c0.2,0,0.3,0,0.5-0.1v0.6c-0.2,0.1-0.5,0.1-0.8,0.1
	c-0.3,0-0.7-0.1-0.9-0.4c-0.3-0.3-0.4-0.8-0.3-1.2v-2.5h-0.7v-0.6h0.7v-1.1L337.8,93.4z"/>
<path class="st9" d="M340.4,97.2c-0.1,0.8,0.5,1.5,1.4,1.6c0.1,0,0.2,0,0.2,0c0.4,0,0.9-0.1,1.3-0.2l0.1,0.6c-0.5,0.2-1,0.3-1.5,0.3
	c-1.2,0.1-2.2-0.8-2.3-2c0-0.1,0-0.2,0-0.3c-0.1-1.2,0.7-2.3,2-2.5c0.1,0,0.1,0,0.2,0c1.1,0.1,2,1,1.9,2.1c0,0,0,0.1,0,0.1
	c0,0.1,0,0.3,0,0.4L340.4,97.2z M342.8,96.6c0.1-0.7-0.4-1.3-1-1.3c-0.1,0-0.1,0-0.2,0c-0.7,0.1-1.3,0.6-1.3,1.4H342.8z"/>
<path class="st9" d="M348.7,92.6v5.6c0,0.4,0,0.9,0,1.2h-0.8v-0.8l0,0c-0.3,0.6-0.9,0.9-1.6,0.9c-1.2,0-2.1-1-2-2.2
	c0-0.1,0-0.1,0-0.2c-0.2-1.2,0.7-2.3,1.9-2.5c0,0,0.1,0,0.2,0c0.6,0,1.1,0.2,1.4,0.7l0,0v-2.8L348.7,92.6z M347.8,96.6
	c0-0.1,0-0.2,0-0.3c-0.1-0.6-0.6-1-1.2-1c-0.9,0-1.4,0.8-1.4,1.8s0.5,1.7,1.4,1.7c0.6,0,1.1-0.4,1.2-1c0-0.1,0-0.2,0-0.4V96.6z"/>
<path class="st9" d="M424.3,93.6h-2v-0.7h4.8v0.7h-2v5.7h-0.8L424.3,93.6z"/>
<path class="st9" d="M429.8,99.3l-0.1-0.6l0,0c-0.3,0.4-0.9,0.7-1.4,0.7c-0.7,0.1-1.4-0.5-1.4-1.2c0,0,0-0.1,0-0.1
	c0-1.1,1-1.7,2.8-1.7v-0.1c0.1-0.5-0.3-1-0.8-1.1c-0.1,0-0.1,0-0.2,0c-0.4,0-0.8,0.1-1.2,0.3l-0.2-0.6c0.5-0.3,1-0.4,1.5-0.4
	c1.4,0,1.8,1,1.8,1.9v1.7c0,0.4,0,0.7,0.1,1.1L429.8,99.3z M429.6,97c-0.9,0-2,0.1-2,1c0,0.4,0.3,0.8,0.7,0.8c0,0,0.1,0,0.1,0
	c0.5,0,0.9-0.3,1.1-0.8c0-0.1,0-0.2,0-0.3L429.6,97z"/>
<path class="st9" d="M431.6,98.4c0.3,0.2,0.7,0.3,1.1,0.3c0.6,0,0.9-0.3,0.9-0.7s-0.2-0.6-0.9-0.8c-0.8-0.3-1.2-0.8-1.2-1.3
	c0-0.8,0.7-1.4,1.5-1.4c0,0,0.1,0,0.1,0c0.4,0,0.8,0.1,1.1,0.3l-0.2,0.6c-0.3-0.2-0.6-0.3-1-0.3c-0.5,0-0.8,0.3-0.8,0.6
	s0.3,0.6,0.9,0.8c0.8,0.3,1.2,0.7,1.2,1.4s-0.6,1.4-1.7,1.4c-0.5,0-0.9-0.1-1.3-0.3L431.6,98.4z"/>
<path class="st9" d="M436.4,96.8L436.4,96.8c0.1-0.2,0.3-0.4,0.4-0.5l1.4-1.6h1l-1.8,1.9l2,2.7h-1l-1.6-2.2l-0.4,0.5v1.7h-0.8v-6.8
	h0.8L436.4,96.8z"/>
<path class="st9" d="M446.5,99.1c-0.5,0.2-1.1,0.3-1.7,0.3c-1.7,0.1-3.1-1.2-3.2-2.8c0-0.1,0-0.3,0-0.4c-0.1-1.8,1.2-3.3,3-3.4
	c0.1,0,0.2,0,0.3,0c0.5,0,1,0.1,1.5,0.3l-0.2,0.7c-0.4-0.2-0.9-0.3-1.3-0.3c-1.3-0.1-2.4,0.9-2.5,2.3c0,0.1,0,0.3,0,0.4
	c-0.1,1.3,0.8,2.4,2.1,2.6c0.1,0,0.3,0,0.4,0c0.5,0,0.9-0.1,1.4-0.3L446.5,99.1z"/>
<path class="st9" d="M447.5,92.6h0.8v6.8h-0.8V92.6z"/>
<path class="st9" d="M453.9,97c0.1,1.2-0.8,2.3-2.1,2.4c-0.1,0-0.2,0-0.2,0c-1.2,0-2.2-1-2.2-2.2c0-0.1,0-0.1,0-0.2
	c-0.1-1.2,0.8-2.3,2-2.4c0.1,0,0.2,0,0.2,0c1.2,0,2.2,0.9,2.2,2.1C453.9,96.8,453.9,96.9,453.9,97z M450.3,97c0,1,0.6,1.8,1.4,1.8
	s1.4-0.8,1.4-1.8c0-0.8-0.4-1.8-1.4-1.8S450.3,96.1,450.3,97L450.3,97z"/>
<path class="st9" d="M454.9,98.4c0.3,0.2,0.7,0.3,1.1,0.3c0.6,0,0.9-0.3,0.9-0.7s-0.2-0.6-0.9-0.8c-0.8-0.3-1.2-0.8-1.2-1.3
	c0-0.8,0.7-1.4,1.5-1.4c0,0,0.1,0,0.1,0c0.4,0,0.8,0.1,1.1,0.3l-0.2,0.6c-0.3-0.2-0.6-0.3-0.9-0.3c-0.5,0-0.8,0.3-0.8,0.6
	s0.3,0.6,0.9,0.8c0.8,0.3,1.2,0.7,1.2,1.4s-0.6,1.4-1.7,1.4c-0.5,0-0.9-0.1-1.3-0.3L454.9,98.4z"/>
<path class="st9" d="M459.2,97.2c-0.1,0.8,0.5,1.5,1.4,1.6c0.1,0,0.2,0,0.2,0c0.4,0,0.9-0.1,1.3-0.2l0.1,0.6c-0.5,0.2-1,0.3-1.5,0.3
	c-1.2,0.1-2.2-0.8-2.3-2c0-0.1,0-0.2,0-0.3c-0.1-1.2,0.7-2.3,2-2.5c0.1,0,0.1,0,0.2,0c1.1,0,2,1,1.9,2.1c0,0,0,0.1,0,0.1
	c0,0.1,0,0.3,0,0.4L459.2,97.2z M461.7,96.6c0.1-0.7-0.4-1.3-1-1.3c-0.1,0-0.1,0-0.2,0c-0.7,0.1-1.3,0.6-1.3,1.4H461.7z"/>
<path class="st9" d="M467.5,92.6v5.6c0,0.4,0,0.9,0,1.2h-0.8v-0.8l0,0c-0.3,0.6-0.9,0.9-1.6,0.9c-1.2,0-2.1-1-2-2.2
	c0-0.1,0-0.1,0-0.2c-0.2-1.2,0.7-2.3,1.9-2.5c0.1,0,0.1,0,0.2,0c0.6,0,1.1,0.2,1.4,0.7l0,0v-2.8L467.5,92.6z M466.7,96.6
	c0-0.1,0-0.2,0-0.3c-0.1-0.6-0.6-1-1.2-1c-0.9,0-1.4,0.8-1.4,1.8s0.5,1.7,1.4,1.7c0.6,0,1.1-0.4,1.2-1c0-0.1,0-0.2,0-0.4V96.6z"/>
<path class="st25" d="M401.9,258.6l5.8,96.8l10.6,1.5l4.8-73.5l4.4,73.3l10.5,0.3c0,0,4.8-74.1,3.8-79.5s0-22.7,0-22.7L401.9,258.6z
	"/>
<path class="st3" d="M400.3,249.2c-5.1-3.1-10.1-16.3-7.9-19.4c2.6-3.8,6.6-30.4,10.1-33.4s7.9-5.2,12.5-5.1
	c5.4,0.2,11.4-2.3,16.5-0.3c2.9,1.2,5.2,3.3,7.5,5.4c3.6,3.3,6.5,58,2.4,64c-5.2,7.6-15.9,7.9-25,7.3c-3.1-0.2-6.4-0.4-9.1-2
	C400.4,261.7,399.5,257.3,400.3,249.2z"/>
<linearGradient id="SVGID_19_" gradientUnits="userSpaceOnUse" x1="315.3728" y1="70.5867" x2="335.8128" y2="70.5867" gradientTransform="matrix(0.9964 -8.506913e-02 -8.506913e-02 -0.9964 92.9844 277.6714)">
	<stop  offset="0" style="stop-color:#E5C6D6"/>
	<stop  offset="0.42" style="stop-color:#EAD4D0"/>
	<stop  offset="1" style="stop-color:#F0E9CB"/>
</linearGradient>
<path class="st26" d="M400.9,172.8c-0.4,2.8,0.2,5.7,1.6,8.1c2,3,5.6,4.9,6.3,8.3c0.3,1.6-0.1,3.2,0,4.8s1,3.4,2.6,3.6
	c0.6,0,1.2-0.1,1.7-0.4c1.8-1,3.2-2.6,4.1-4.5c3-5.3,4.9-11.4,4-17.4s-5.2-11.7-11.1-13.1C402.9,160.4,401.5,167.1,400.9,172.8z"/>
<path class="st25" d="M401.5,162.1c0.8,2.9,3.3,5.2,6,6.7c1.3,0.7,2.6,1.5,3.7,2.5c3.5,3.4,2.6,9.1,2.6,13.9c0,3.4,0.6,7.1,2.6,9.8
	c3.5,4.7,10.2,5.6,16.1,5.8c0.6,0.1,1.3,0,1.8-0.4c0.4-0.4,0.7-0.9,0.8-1.5c1.2-5.4-4-10.5-3.5-16c0.2-3.1,2.2-5.9,2.9-8.9
	c0.9-4.4-1.1-9.1-4-12.6c-1.2-1.5-2.7-2.7-4.4-3.5c-3.1-1.3-6.7-0.6-9.9-1.8c-1.8-0.7-3.4-2-5.1-2.7
	C406,151.6,400.1,157.1,401.5,162.1z"/>
<path class="st3" d="M379.1,225.6c-0.7-0.4-1.6-0.5-2.4-0.3c-0.5,0.2-0.9,0.5-1.2,0.9c-1.7,1.7-3,3.8-3.9,6
	c-0.5,1.1-0.6,2.2-0.3,3.4c0.6,1.2,1.6,2.1,2.8,2.6c8.1,4.6,17.8,11.3,27.1,10.4c0.6-0.1,0.4-2,0.9-2.4c0.5-0.6,0.8-1.4,0.8-2.2
	c0.4-2.9,0.5-5.9,0.3-8.9c-0.2-3-1.5-5.8-3.5-8c-0.8-0.9-1.9-1.5-3.1-1.6c-1.8-0.1-1.7,1.3-2.7,1.9c-1.3,0.8-3.3,0.8-4.8,0.7
	C385.6,227.8,382.2,227,379.1,225.6z"/>
<linearGradient id="SVGID_20_" gradientUnits="userSpaceOnUse" x1="431.2819" y1="95.2695" x2="391.7619" y2="139.7095" gradientTransform="matrix(1 0 0 -1 -6.25 356.11)">
	<stop  offset="0" style="stop-color:#010101;stop-opacity:0"/>
	<stop  offset="0.95" style="stop-color:#010101"/>
</linearGradient>
<path class="st27" d="M411.4,219.1c0,0-3,24-11.1,30.1c0,0-2.8,14.8,10,17.4c3.1,1,6.4,1.4,9.7,1c0,0-12.4,3.8-10.1-21.2
	S411.4,219.1,411.4,219.1z"/>
<path class="st25" d="M393.8,200.4l-5.8,7.2l-0.9,2.5l2.3-1.4l7.3-9.4c-0.1-0.4-0.4-0.7-0.9-0.8
	C395.1,198.4,393.8,200.4,393.8,200.4z"/>
<linearGradient id="SVGID_21_" gradientUnits="userSpaceOnUse" x1="391.05" y1="148.8899" x2="397.17" y2="148.8899" gradientTransform="matrix(1 0 0 -1 -6.25 356.11)">
	<stop  offset="0" style="stop-color:#E5C6D6"/>
	<stop  offset="0.42" style="stop-color:#EAD4D0"/>
	<stop  offset="1" style="stop-color:#F0E9CB"/>
</linearGradient>
<path class="st28" d="M388.3,203.9c-0.5,0.3-1,0.6-1.4,1c-0.8,0.7-1.4,1.5-1.8,2.5c-0.2,0.8-0.3,1.6-0.2,2.3c0,0.5,0.2,1.1,0.7,1.3
	c0.4,0.1,0.7,0,1-0.3c0.7-0.8,1.3-1.8,1.6-2.8c0.7-1.3,1.8-2.2,2.6-3.4C391.7,202.9,389,203.5,388.3,203.9z"/>
<linearGradient id="SVGID_22_" gradientUnits="userSpaceOnUse" x1="393.68" y1="145.3037" x2="403.75" y2="145.3037" gradientTransform="matrix(1 0 0 -1 -6.25 356.11)">
	<stop  offset="0" style="stop-color:#E5C6D6"/>
	<stop  offset="0.42" style="stop-color:#EAD4D0"/>
	<stop  offset="1" style="stop-color:#F0E9CB"/>
</linearGradient>
<path class="st29" d="M393,206.6c0.3,0.5,0.5,1.1,0.8,1.6c0.8,1.4,2,2.5,3.3,3.4c0.1,0.1,0.2,0.2,0.3,0.3c0.1,0.2,0.1,0.4,0,0.6
	c-0.1,0.3-0.2,0.7-0.4,1L396,216c0,0.1-0.1,0.1-0.1,0.1c-0.1,0-0.1,0-0.2,0l-3.8-1.4c-0.6-0.2-1.1-0.4-1.6-0.7
	c-1.1-0.6-1.9-1.4-2.5-2.5c-0.4-0.5-0.4-1.1-0.2-1.6c0.3-0.5,1-0.5,1.5-0.9c0.1-0.1,0.3-0.3,0.4-0.4c0.6-0.9,1.1-1.9,1.8-2.7
	S392.6,205.9,393,206.6z"/>
<path class="st25" d="M400.1,362.1c-0.4,0.3-0.6,0.7-0.6,1.2c0.1,0.3,0.2,0.7,0.5,0.9c0.9,0.8,2.1,1.2,3.3,1.3
	c3.9,0.6,7.9,0.4,11.6-0.6c1-0.2,1.8-0.6,2.5-1.3c0.7-1,1-2.2,0.9-3.5l0.1-4.2c0-0.3,0-0.7-0.1-1c-0.3-0.8-1.3-1-2.1-1
	c-2-0.2-4-0.2-6-0.1c-0.7,0-1.6-0.1-2.2,0.3c-0.6,0.4-0.8,1.3-1.1,1.8C405,358.4,402.2,359.9,400.1,362.1z"/>
<path class="st25" d="M420.1,362.2c-0.3,0.3-0.6,0.7-0.6,1.2c0,0.3,0.2,0.6,0.5,0.8c0.9,0.7,2,1.2,3.2,1.3c3.8,0.6,7.6,0.3,11.3-0.6
	c0.9-0.2,1.8-0.6,2.5-1.3c0.7-1,1-2.2,0.9-3.3l0.1-4.1c0-0.3,0-0.6-0.1-0.9c-0.3-0.8-1.3-0.9-2.1-1c-1.9-0.1-3.9-0.2-5.8-0.1
	c-0.7,0-1.6-0.1-2.1,0.3s-0.7,1.3-1.1,1.7C424.9,358.5,422.1,360,420.1,362.2z"/>
</svg>
